<?xml version="1.0" encoding="UTF-8" standalone="no"?><!-- Generator: Gravit.io --><svg xmlns="http://www.w3.org/2000/svg" xmlns:xlink="http://www.w3.org/1999/xlink" style="isolation:isolate" viewBox="0 0 1350 1350" width="1350pt" height="1350pt"><defs><clipPath id="_clipPath_g2K186oXjbrOiKY6KkDUZJB3lbelMyuh"><rect width="1350" height="1350"/></clipPath></defs><g clip-path="url(#_clipPath_g2K186oXjbrOiKY6KkDUZJB3lbelMyuh)"><path d=" M 538.389 148.351 C 301.089 151.405 71.119 156.903 45.464 160.262 C 24.697 163.011 13.702 170.341 5.456 186.832 C -0.346 197.827 -0.652 204.241 -0.346 287.311 C -0.041 339.841 2.097 399.395 5.151 433.905 C 7.9 465.668 11.259 547.516 13.092 615.622 C 14.368 666.756 15.133 787.111 28.5 834.5 C 33.048 850.625 28.67 855.774 34.5 870.5 C 37.773 878.767 41.264 886.771 44.955 894.522 C 47.681 900.248 54.063 902.544 57 908 C 57.531 908.987 58.066 909.97 58.603 910.949 C 58.857 911.412 48.534 922.519 45.094 930.375 C 41.251 939.15 44.245 944.769 44.531 945.281 C 52.539 959.588 61.47 972.457 71.127 984.114 C 94.282 1012.064 135.89 1030.571 164.667 1047.667 C 213.881 1076.903 253.053 1097.254 297.119 1119.235 C 425.389 1183.37 471.81 1202 502.046 1202 C 510.902 1202 546.94 1194.976 582.367 1186.73 C 659.024 1168.405 635.202 1173.903 842.267 1127.176 C 1027.343 1085.641 1206.616 1044.105 1282.051 1025.476 C 1322.975 1015.397 1332.443 1012.038 1340.994 1004.403 C 1359.929 986.689 1353.21 975.389 1309.537 953.705 C 1258.84 928.662 1090.256 860.557 982.754 822.076 C 961.07 814.135 931.446 802.835 917.092 796.727 C 902.737 790.619 885.024 785.122 877.694 784.205 L 864.562 782.678 L 867.005 771.684 C 870.059 757.635 870.364 702.357 867.616 633.946 C 864.867 567.673 859.675 398.784 856.621 281.203 C 854.483 196.911 853.873 192.024 847.154 177.976 C 842.573 168.508 835.548 160.262 827.608 155.07 C 812.337 144.992 821.5 144.992 538.389 148.351 Z  M 844.71 792.757" fill="rgb(201,204,187)"/><path d=" M 519.3 456.6 C 522.1 458.1 524.5 460.3 528 464.6 C 528.6 465.4 532.1 465.6 539.4 465.3 C 555.7 464.4 573.4 467.6 574.7 471.5 C 575.2 473.3 573.3 475.2 570.9 475.3 C 569.6 475.3 565 474.6 560.8 473.7 C 552.2 471.8 542.4 471.5 541.5 473 C 541.2 473.5 541.9 474.9 543.2 476 C 544.5 477.1 547.7 480.1 550.3 482.5 C 554.9 486.8 555.4 487 560.9 487 C 567.3 487 569.3 488.3 568.4 491.7 C 568 493.1 566.7 494.1 564.9 494.5 C 560.9 495.4 560.5 496.5 562.5 501.6 C 564.1 505.9 564.8 506.4 570.4 507.2 C 571.4 507.4 572.8 508.3 573.4 509.4 C 574.3 510.8 574.1 511.4 572.6 512.4 C 571.6 513 569.6 514.4 568.2 515.6 C 566.1 517.3 565.9 517.9 566.9 519.7 C 567.764 521.428 569.1 531.73 568.875 539.062 C 568.818 540.913 568.646 542.815 568.433 544.287 C 568.342 544.922 565.031 555.479 566.438 557.344 C 567.365 558.574 569.505 557.64 571.398 556.409 C 573.291 555.178 574.25 554.274 574.188 554.313 C 576.063 553.188 578.673 552.963 582.063 553.75 C 584.687 554.875 585.313 555.969 586.188 558.063 C 586.75 561.438 586.188 563.875 585.625 565.563 C 585.586 565.634 584.226 570.47 580.938 573.813 C 576.546 578.276 568.929 586.352 568.125 587.156 C 561.656 592.5 556.513 590.077 555.938 597.563 C 555.922 597.563 556.8 601.149 556.5 603.375 C 555.373 611.751 551.505 631.021 548.625 639.375 C 548.006 643.317 540.75 658.922 532.269 666.934 C 532.082 667.096 527.883 672.609 524.56 675.687 C 523.496 676.908 522.585 677.959 522.047 678.586 C 519.193 681.831 514.689 686.842 510.855 691.466 C 508.896 693.829 506.982 696.127 505.291 698.109 C 505.005 698.365 504.752 698.88 504.469 699.117 C 504.369 699.2 501.592 702.533 501.342 703.68 C 501.279 703.967 501.216 704.272 501.153 704.587 C 501.048 705.119 499.862 711.113 499.688 713.875 C 499.392 718.559 500.07 720.811 499.781 721.219 C 499.171 722.08 494.165 723.501 493.566 724.768 C 492.738 726.523 492.016 728.465 491.664 730.04 C 491.466 730.929 490.248 736.942 490.409 739.031 C 490.421 739.186 490.125 740.906 490.875 745.781 C 491.063 748.313 492.141 753.578 492.328 754.016 C 492.469 755.313 493.949 761.183 494.719 763.109 C 494.799 763.499 494.922 763.892 495.078 764.287 C 495.469 765.266 496.641 768.719 497.719 770.594 C 498.363 771.781 498.832 772.801 499.294 773.697 C 499.47 774.039 500.391 775.938 500.578 776.453 C 500.607 776.502 500.634 776.546 500.66 776.586 C 500.859 777.234 500.899 777.579 500.953 777.609 C 501.008 777.64 500.075 778.302 498.237 778.655 C 490.158 780.207 468.119 783.582 465.747 783.808 C 451.663 785.146 426.465 788.524 421.313 789.188 C 412.625 790.174 400.151 791.701 396.938 792.594 C 396.615 792.541 395.606 792.796 395.291 792.796 C 395.224 792.796 395.202 792.662 395.25 792.313 C 396.375 790.063 396.542 789.117 396.938 787.719 C 397.883 784.374 397.985 782.337 398.047 781.717 C 398.243 779.756 398.276 778.521 398.263 777.781 C 398.251 777.107 398.201 776.843 398.199 776.812 C 398.205 776.304 398.228 775.778 398.266 775.251 C 398.314 774.582 398.385 773.912 398.477 773.273 C 398.591 772.473 398.737 771.724 398.906 771.094 C 400.031 767.508 401.719 763.922 402.492 759.211 C 403.195 756.258 403.45 752.112 403.398 750.047 C 403.305 740.89 403.474 732.061 403.446 731.564 C 403.036 726.797 397.762 720.167 396.844 719.063 C 396.798 719.007 393.702 715.242 393.469 714.844 C 392.234 712.733 389.53 709.795 388.406 708.375 C 386.849 706.662 386.232 706.128 383.063 703.031 C 372.803 694.515 366.082 687.69 365.5 686.875 C 363.583 685.289 358.249 679.813 354.25 675.625 C 352.578 673.873 351.656 672.751 350.875 671.875 C 350.538 671.497 349.706 670.024 349.375 669.625 C 345.522 664.978 342.064 658.953 339.25 652.625 C 336.873 647.28 335.632 642.063 334 637.25 C 331.148 628.841 328.913 621.218 328.75 620.75 C 326.06 613.006 310.713 601.82 310 600.75 C 309.839 600.267 299.125 588.375 296.125 579.75 C 293.125 570 298 568.875 298.375 568.5 C 307.375 567 315.46 572.113 314.979 570.347 C 314.736 569.455 314.534 568.637 314.4 568 C 314.1 566.1 313.4 563.4 312.9 562 C 312.4 560.6 311.8 553.5 311.6 546.1 C 311.1 532.8 310.6 531.1 307.4 531 C 306.7 531 305.5 529.9 304.7 528.6 C 303.2 526.4 303.2 526.1 304.8 524.6 C 305.8 523.8 307.5 523.3 308.6 523.6 C 311.4 524.3 313.7 521.3 314.5 515.7 C 315.2 511.1 315.2 511 312.5 511 C 308.9 511 306 509.3 306 507.2 C 306 504.2 308.2 503 313.5 503 C 319.1 503 318.9 503.1 327.9 493.8 L 333.3 488.1 L 330.8 487 C 328.9 486.1 326.5 486.3 319.4 487.9 C 314.5 489.1 309.1 490.7 307.4 491.5 C 304 493.1 300.4 492.6 299.5 490.3 C 298.9 488.7 301.5 485 303.3 485 C 303.8 485 305.6 484.4 307.3 483.6 C 311.8 481.5 328 479 336.6 479 C 343.8 479 343.9 479 346 475.5 C 347.2 473.6 350 470.6 352.3 468.8 C 354.6 467 357.4 464.6 358.5 463.5 C 363.1 458.8 382.8 457.6 419.5 459.9 C 441.9 461.3 444.7 461.2 473.5 458 C 477.9 457.5 484.9 457.1 489 457 C 493.1 457 497.2 456.5 498 456 C 500.6 454.3 515.7 454.8 519.3 456.6 Z " fill="rgb(202,136,94)"/><path d=" M 509.825 776.325 C 509.2 775.55 508.55 774.3 507.8 772.5 C 506.7 769.7 505.2 766.1 504.5 764.5 C 500.4 754.7 499.9 751 500.1 735.5 C 500.3 727 500.1 719.8 499.7 719.4 C 499.3 719 497.9 719.2 496.6 719.8 C 493.9 721 491.1 728.4 490.3 736.5 C 489.5 744.4 493.5 763 497.7 770.7 C 499.024 773.21 500.106 775.427 500.572 776.609 C 500.647 776.8 501.07 777.604 501.24 777.876 C 501.298 777.967 501.368 778.095 501.402 778.148 C 501.509 778.313 501.496 778.267 501.496 778.277 C 501.496 778.278 501.82 778.55 502.246 778.852 C 504 780.095 510.45 777.1 509.825 776.325 Z " fill="rgb(75,49,46)"/><path d=" M 458 268.2 C 456.6 269 455.4 270.6 455.2 271.8 C 454.8 274.7 454 274.6 448.7 271 C 444.7 268.3 443.4 268 436.6 268 C 428.6 268 425.3 269.2 421.8 273.4 L 420.1 275.5 L 417.3 273.4 C 415.8 272.3 412.3 270.6 409.6 269.6 C 404.8 267.8 404.5 267.8 399.6 269.5 C 392.7 272 389.2 274.7 388.5 278.2 C 388 280.3 387.4 281 386.2 280.5 C 376.3 276.7 367 278.1 361.4 284.2 C 358.3 287.7 357.5 288.1 355.9 287.2 C 354.9 286.5 353 286 351.7 286 C 346.5 286 338.5 294.4 337.8 300.6 C 337.6 302.9 337.1 303.4 335.5 303.2 C 334.4 303 331.3 302.6 328.7 302.3 C 320.5 301.3 311.5 305.4 310.8 310.4 C 310.5 312.3 309.8 312.5 303.3 312.6 C 297.2 312.8 295.5 313.2 291.8 315.7 C 289.1 317.5 286.7 320.2 285.3 323 C 283.3 327.3 283 327.5 278.5 327.7 C 268.9 328.1 259.7 336.7 260.1 344.8 C 260.3 348 259.7 349.6 257.1 352.9 C 252.7 358.4 251.7 365.2 254.9 367 C 257.1 368.1 257.1 368.2 255.3 370.8 C 254 372.8 253.5 375.5 253.5 381.6 C 253.5 388.9 253.8 390 256.2 393.3 C 257.8 395.2 259.9 397.2 261.1 397.5 C 262.5 398 262.9 398.7 262.5 399.8 C 260.8 403.7 261 404.8 263.5 407.9 C 266.1 410.9 266.1 411.2 264.6 413.5 C 263.7 414.9 263 418 263 420.8 C 263 424.8 263.6 426.5 266 429.5 C 269.3 433.7 269.7 435.2 267.6 436.9 C 266 438.2 265 446 265.7 450.7 C 266.4 454.7 270.4 458.9 274.3 459.7 C 276 460 277.5 461.2 278 462.5 C 279 465.1 284.6 470 286.5 470 C 288.8 470 289.3 472 289.7 482.9 C 290 494.3 292.4 514.7 294.2 522 C 294.8 524.5 295.6 528.5 296.1 531 C 298 541.5 300.2 548.8 304.5 559.4 C 305.3 561.1 305 561.2 301.6 560.6 C 294.8 559.3 288.3 564.7 285.6 573.7 C 284.7 576.6 286.8 584.7 289.8 589.4 C 294.3 596.6 306.1 607.4 313.4 611 C 320.4 614.5 321.4 615.7 323.1 623 C 323.5 624.9 324.6 628.7 325.4 631.5 C 326.2 634.2 327.5 639 328.3 642 C 329.8 647.3 332.5 654.7 334.9 660 C 338.2 667.4 346.2 677.3 363 694.5 C 382.5 714.6 385.3 717.3 388.5 719 C 391.3 720.5 394.3 719.5 394.8 716.9 C 395.2 714.7 386.4 704.4 377 696.2 C 372.3 692.1 364 684.3 358.4 678.9 C 346.5 667.1 340.9 658 336.1 642 C 334.4 636.2 332 628.5 330.8 624.7 C 328.7 618.2 329.1 614.5 331.4 618.5 C 333.5 622.3 342.8 630.9 348.1 633.9 C 351.1 635.6 356.6 637.9 360.4 639.1 C 366.3 641 368.9 641.2 377.9 640.7 C 387.2 640.2 396 638.2 398 636 C 398.3 635.7 400.2 634.6 402.3 633.5 C 411.2 628.9 423.5 613.1 425.5 604 C 425.9 602.1 426.6 600 427 599.5 C 427.6 598.7 428.4 593.3 428.9 585.8 C 429.1 584 437.7 581 442.8 581 C 450.9 581 453.5 583.3 454.3 591 C 454.7 594.3 455.4 597.8 455.8 598.7 C 456.3 599.7 457.6 602.3 458.6 604.5 C 467.2 622.4 486.7 635 505.9 635 C 523.5 635 542.8 624.8 550.7 611.3 C 553.1 607.2 555.9 605.3 554.6 608.6 C 554.3 609.5 553.7 612.7 553.4 615.8 C 553 619 552.4 621.9 552 622.5 C 551.6 623 551 625.7 550.7 628.5 C 550.1 633.7 548 640.9 545.3 647 C 543.8 650.5 538.1 660 537 661 C 536.7 661.3 534.6 663.7 532.5 666.5 C 530.3 669.2 527.6 672.4 526.5 673.5 C 523.2 676.7 505.7 697.1 502.6 701.2 C 499 706.1 499.4 709.4 503.6 709.8 C 506.4 710.1 507.5 709.2 515.2 700.3 C 522.4 692 544.8 662.7 548.7 656.5 C 553.4 649.1 559.3 629.2 560.6 616.7 C 561 613 561.7 609.7 562.1 609.4 C 562.6 609.1 563 606.3 563 603.1 C 563 597.2 564.1 595 567.1 595 C 569.1 595 575.4 592.2 579.2 589.7 C 582.2 587.6 588.9 579 590.9 574.5 C 595.3 564.9 594.9 554.1 590.1 548.9 C 588.3 546.9 586.9 546.5 581.7 546.4 C 574.9 546.3 574.6 545.9 576.8 539.5 C 580.9 527.9 583.1 508.2 583.7 478 L 584.1 454.5 L 586.9 451.5 C 592.4 445.5 593.4 443.1 593.4 434.3 C 593.5 427.3 593.8 425.8 595.7 423.8 C 598.5 420.8 601 414.9 601 411.3 C 601 408 598.8 401.4 597.2 399.8 C 596.4 399 596.9 397.9 599.1 395.8 C 601.4 393.4 602 392 602 388.4 C 602 385.9 601.3 382.8 600.4 381.5 C 598.4 378.5 599.1 376.3 602.1 375.8 C 606.4 375.2 607 365.3 603.1 357.7 C 600.4 352.5 594.4 344.6 590.4 341 C 586.9 337.9 586.8 337.8 587.5 332.1 C 588.8 320.9 582.3 313 569.5 310.1 C 567.6 309.7 566.4 308.7 566.1 307.5 C 565.5 304.1 560 298 557.7 298 C 554.6 298 553.6 297.1 551.1 291.7 C 548.1 285.5 539.6 277.1 536.1 276.8 C 530.5 276.4 527.4 277.2 524.9 279.6 L 522.3 282.1 L 517.4 278.2 C 507.3 270.2 500.9 268.9 496.7 274 C 495.3 275.6 494 277.5 493.8 278.2 C 493.5 279.1 492.4 278.8 489.9 277 C 479.8 269.5 463.9 265.1 458 268.2 Z  M 519.3 456.6 C 522.1 458.1 524.5 460.3 528 464.6 C 528.6 465.4 532.1 465.6 539.4 465.3 C 555.7 464.4 573.4 467.6 574.7 471.5 C 575.2 473.3 573.3 475.2 570.9 475.3 C 569.6 475.3 565 474.6 560.8 473.7 C 552.2 471.8 542.4 471.5 541.5 473 C 541.2 473.5 541.9 474.9 543.2 476 C 544.5 477.1 547.7 480.1 550.3 482.5 C 554.9 486.8 555.4 487 560.9 487 C 567.3 487 569.3 488.3 568.4 491.7 C 568 493.1 566.7 494.1 564.9 494.5 C 560.9 495.4 560.5 496.5 562.5 501.6 C 564.1 505.9 564.8 506.4 570.4 507.2 C 571.4 507.4 572.8 508.3 573.4 509.4 C 574.3 510.8 574.1 511.4 572.6 512.4 C 571.6 513 569.6 514.4 568.2 515.6 C 566.1 517.3 565.9 517.9 566.9 519.7 C 568.2 522.3 568.4 545.6 567.1 546.4 C 566.6 546.7 565.9 549.7 565.5 553 C 565.1 556.3 564.4 559.3 563.9 559.6 C 563.4 559.9 563 561.2 563 562.5 C 563 566.1 562 568 560 568 C 558.9 568 557.9 567 557.5 565.7 C 555.7 559 550 550 543.7 543.8 C 540 540 536.5 537 536 537 C 535.5 537 532.5 535.4 529.3 533.4 C 524.7 530.6 524.1 530 526.5 530.5 C 528.2 530.8 532 531.6 535 532.1 C 538 532.7 541.4 533.5 542.5 534 C 543.6 534.5 546.1 535.2 548 535.6 C 549.9 535.9 553 537.4 554.9 538.8 C 557.4 540.7 558.7 541.1 559.9 540.3 C 563 538.4 562.4 535.1 558.3 531.2 C 554.3 527.4 538.9 517.7 534.8 516.5 C 533.5 516.1 531.6 515.1 530.5 514.4 C 529.4 513.6 527.7 513 526.8 513 C 525.8 513 524.2 512.6 523.2 512.1 C 519.2 509.8 505.5 507.7 492.2 507.3 C 470.3 506.5 461.6 509.6 456.6 520 C 453.7 526.3 453.8 533.1 456.9 536.4 C 459.8 539.5 461.8 539.6 470.1 537 C 473.6 535.9 477.1 535.1 477.8 535.2 C 478.6 535.4 476.6 537.6 473.2 540.2 C 467.1 544.9 457 558.6 457 562.1 C 457 563.1 456.6 564.1 456.1 564.4 C 455.6 564.8 454.9 567.3 454.5 570 C 453.9 574.7 453.6 575 451.7 574.3 C 448 573 434.5 573.4 431.7 574.9 C 428.4 576.7 426.4 575.9 425.6 572.3 C 423.3 562.1 412.3 548 402.3 542.4 C 399.4 540.8 397 539.1 397 538.6 C 397 537.5 409.2 538.8 410.5 540.1 C 412.3 541.8 420.3 541.1 423 538.9 C 428.8 534 423.9 518.7 415.3 514.5 C 413.2 513.5 410.7 512.3 409.8 511.9 C 407.3 510.7 392.3 510.8 391.5 512 C 391.2 512.5 388.4 513 385.3 513 C 377.1 513 360.2 517.2 352.7 521.2 C 351.7 521.7 349 523.1 346.7 524.2 C 334.8 530.2 319 544 319 548.3 C 319 553 321.1 553.2 327.3 549.3 C 333.3 545.5 345.7 540.7 347.2 541.6 C 347.7 541.9 346.2 543.4 343.8 544.9 C 336.3 549.7 325 564.7 325 570 C 325 570.5 324.6 571.8 324.1 572.8 C 323.5 573.7 322.9 575.7 322.5 577.2 C 321.6 581.6 318.6 580.8 316.7 575.7 C 315.8 573.4 314.8 569.9 314.4 568 C 314.1 566.1 313.4 563.4 312.9 562 C 312.4 560.6 311.8 553.5 311.6 546.1 C 311.1 532.8 310.6 531.1 307.4 531 C 306.7 531 305.5 529.9 304.7 528.6 C 303.2 526.4 303.2 526.1 304.8 524.6 C 305.8 523.8 307.5 523.3 308.6 523.6 C 311.4 524.3 313.7 521.3 314.5 515.7 C 315.2 511.1 315.2 511 312.5 511 C 308.9 511 306 509.3 306 507.2 C 306 504.2 308.2 503 313.5 503 C 319.1 503 318.9 503.1 327.9 493.8 L 333.3 488.1 L 330.8 487 C 328.9 486.1 326.5 486.3 319.4 487.9 C 314.5 489.1 309.1 490.7 307.4 491.5 C 304 493.1 300.4 492.6 299.5 490.3 C 298.9 488.7 301.5 485 303.3 485 C 303.8 485 305.6 484.4 307.3 483.6 C 311.8 481.5 328 479 336.6 479 C 343.8 479 343.9 479 346 475.5 C 347.2 473.6 350 470.6 352.3 468.8 C 354.6 467 357.4 464.6 358.5 463.5 C 363.1 458.8 382.8 457.6 419.5 459.9 C 441.9 461.3 444.7 461.2 473.5 458 C 477.9 457.5 484.9 457.1 489 457 C 493.1 457 497.2 456.5 498 456 C 500.6 454.3 515.7 454.8 519.3 456.6 Z  M 518.7 537.6 C 528.6 540.5 539.7 548.6 544.7 556.5 C 550.1 565.1 550.5 567 550.5 581.5 C 550.5 595.4 550.5 595.5 547.1 602.3 C 542.1 612.3 533.6 619.8 522.5 623.9 C 514.8 626.8 513.2 627.1 505.3 626.8 C 496.9 626.4 493.7 625.6 486 622.1 C 470.6 615 460 596.6 461.3 579.1 C 463 554.6 481.8 536.5 505.8 536.1 C 510 536.1 515.6 536.7 518.7 537.6 Z  M 384.7 543.5 C 401.2 547.4 416.2 561.9 418.6 576.2 C 418.9 578 419.6 581.2 420.2 583.3 C 421.1 586.2 421 588.7 420.1 593.8 C 417.7 606 411.1 617.2 402 624.5 C 398.7 627.1 390.7 631 388.7 631 C 387.8 631 386.8 631.4 386.5 632 C 385.5 633.6 366.1 633.2 361.5 631.5 C 346.8 626.3 336.6 616.4 331.9 602.8 C 329.9 597 329.2 576.6 330.9 575.5 C 331.4 575.2 332.2 573.5 332.6 571.8 C 334.2 564.4 343 553.9 352 548.7 C 362.4 542.7 373.6 540.9 384.7 543.5 Z  M 584.2 555.7 C 586.6 557.9 586.5 563.1 583.9 568.3 C 582 572 568.9 586 567.3 586 C 566.7 586 567.4 579.8 568.9 573 C 569.5 570.5 569.9 566.5 570 564.2 C 570 557.7 573 554 578.2 554 C 580.7 554 583.1 554.7 584.2 555.7 Z  M 306.3 571 C 308.9 572.5 309.9 573.9 310.3 576.3 C 310.9 580.5 314.1 593.1 315 595 C 316.4 597.9 317.2 605 316.2 605 C 314.7 605 304.9 594 300.6 587.5 C 292.3 575.1 295.8 564.8 306.3 571 Z " fill="rgb(75,49,46)"/><path d=" M 479.8 715.4 C 478.3 716.2 475.8 717.5 474.3 718.4 C 470.5 720.4 465.6 722.5 459 724.7 C 454.4 726.2 450.8 726.5 437.5 726.3 C 428.7 726.2 419.9 725.9 418 725.8 C 415.1 725.6 414.5 725.8 414.5 727.4 C 414.5 729.5 417.5 731.4 425.5 734.6 C 429.7 736.2 433 736.5 446.1 736.5 C 456.2 736.5 462.2 736.1 463.1 735.4 C 463.9 734.7 466 733.9 467.8 733.5 C 478.3 731.3 490.6 720.7 488.7 715.6 C 487.9 713.6 483.5 713.5 479.8 715.4 Z " fill="rgb(75,49,46)"/><path d=" M 403.4 740.7 C 403.5 756.4 403.2 758.6 399.3 769.6 C 398.5 771.8 398 775.4 398.2 777.6 C 398.5 781.2 398.7 781.5 401.5 781.5 C 403.8 781.5 405 780.7 407.2 777.3 C 408.8 775 410.6 771 411.2 768.3 C 413.4 758.9 412.2 735.4 409.2 731.6 C 408.7 731 408 729.3 407.6 727.7 C 407.2 726 406.3 725 405.1 725 C 403.4 725 403.3 726.1 403.4 740.7 Z " fill="rgb(75,49,46)"/><path d=" M 538.389 148.351 C 301.089 151.405 71.119 156.903 45.464 160.262 C 24.697 163.011 13.702 170.341 5.456 186.832 C -0.346 197.827 -0.652 204.241 -0.346 287.311 C -0.041 339.841 2.097 399.395 5.151 433.905 C 7.9 465.668 11.259 547.516 13.092 615.622 C 18.894 848.035 22.254 876.132 47.297 899.649 C 53.1 904.841 53.405 906.978 50.351 911.254 C 28.056 942.405 35.081 962.562 81.197 997.378 C 123.037 1029.446 167.321 1054.489 297.119 1119.235 C 425.389 1183.37 471.81 1202 502.046 1202 C 510.902 1202 546.94 1194.976 582.367 1186.73 C 659.024 1168.405 635.202 1173.903 842.267 1127.176 C 1027.343 1085.641 1206.616 1044.105 1282.051 1025.476 C 1322.975 1015.397 1332.443 1012.038 1340.994 1004.403 C 1359.929 986.689 1353.21 975.389 1309.537 953.705 C 1258.84 928.662 1090.256 860.557 982.754 822.076 C 961.07 814.135 931.446 802.835 917.092 796.727 C 902.737 790.619 885.024 785.122 877.694 784.205 L 864.562 782.678 L 867.005 771.684 C 870.059 757.635 870.364 702.357 867.616 633.946 C 864.867 567.673 859.675 398.784 856.621 281.203 C 854.483 196.911 853.873 192.024 847.154 177.976 C 842.573 168.508 835.548 160.262 827.608 155.07 C 812.337 144.992 821.5 144.992 538.389 148.351 Z  M 819.362 161.178 C 843.794 174.005 845.016 178.586 847.459 282.73 C 849.292 360.303 854.789 527.359 860.897 707.243 L 862.729 757.635 L 853.873 775.043 L 844.71 792.757 L 863.34 792.757 C 876.473 792.757 887.467 795.2 900.294 800.697 C 910.373 804.973 943.967 817.8 975.119 829.405 C 1164.775 898.427 1344.659 974.473 1344.659 985.468 C 1344.659 991.576 1328.778 1006.541 1322.365 1006.541 C 1319.31 1006.541 1295.183 1012.038 1268.919 1018.757 C 1196.537 1036.776 923.505 1099.689 738.429 1140.919 C 684.678 1152.83 615.351 1168.711 584.2 1176.346 C 497.159 1198.03 490.44 1197.724 424.167 1170.238 C 394.237 1157.716 207.329 1064.568 170.375 1043.8 C 105.629 1007.151 60.429 972.946 50.656 952.484 C 47.64 946.335 46.334 942.486 45.923 940.284 C 45.849 939.885 45.907 940.278 45.887 939.984 C 45.856 939.542 45.864 938.892 46.006 938.492 C 46.11 938.199 46.409 937.182 46.471 936.989 C 46.488 936.939 46.679 936.176 46.686 936.13 C 47.761 929.666 58.671 914.866 68.675 908.811 L 77.532 903.619 L 63.789 898.427 C 47.297 892.014 39.662 880.714 34.775 856.892 C 28.973 827.268 25.613 766.492 23.781 659.905 C 21.948 552.403 18.894 480.632 12.481 412.527 C 10.648 390.538 8.816 333.732 8.816 285.784 C 8.51 185 9.732 178.892 30.5 172.784 C 48.519 167.592 162.74 164.232 446.767 160.568 C 590.308 158.735 717.662 156.903 729.267 156.292 C 800.121 153.849 805.313 154.154 819.362 161.178 Z " fill="rgb(121,125,98)"/><path d=" M 721.632 232.643 C 717.356 233.254 659.024 235.086 591.835 236.919 C 285.513 245.47 109.294 251.578 80.281 255.243 C 62.873 257.381 65.01 257.686 100.132 257.992 C 122.121 257.992 178.316 256.77 225.348 255.243 C 272.381 253.716 345.983 251.578 388.74 250.662 C 431.497 249.746 480.362 248.524 497.159 247.608 C 513.956 246.692 579.313 244.859 642.227 243.027 C 705.14 241.5 768.359 239.362 782.408 238.446 L 807.756 236.919 L 805.619 281.508 C 804.397 305.941 805.313 417.413 807.451 529.192 C 810.505 694.722 810.505 732.592 807.451 734.424 C 805.313 735.951 790.959 738.395 775.689 740.227 C 734.459 745.114 522.713 774.103 515.078 775.936 C 510.158 776.27 503.768 777.081 500.213 777.486 C 499.297 777.486 461.121 782.373 415.616 788.176 C 369.805 793.978 320.024 800.086 304.754 801.919 C 261.997 807.416 155.41 822.992 120.9 829.1 C 92.497 833.986 89.443 833.986 89.443 829.711 C 89.443 826.962 88.527 813.83 87.916 800.392 C 87 786.954 85.167 749.695 83.335 717.932 C 81.502 685.865 78.754 633.641 77.227 601.878 C 71.729 503.538 61.651 364.273 60.124 366.105 C 58.597 367.632 65.01 539.27 71.119 666.014 C 79.975 843.454 80.281 844.676 92.192 838.568 C 94.94 837.041 116.929 833.681 141.362 830.932 C 165.794 828.184 217.408 821.77 255.889 816.884 C 294.675 811.997 336.516 806.5 349.037 804.973 C 361.559 803.446 397.292 798.559 428.443 794.284 C 459.594 790.008 500.824 784.511 520.064 782.068 C 539.305 779.319 579.313 774.127 608.632 769.851 C 637.951 765.576 697.2 757.33 739.956 751.527 C 782.713 745.419 819.667 739.922 821.805 739.311 C 825.164 738.089 825.775 731.676 824.248 709.381 C 823.332 694.111 821.805 624.784 820.889 556.068 C 819.056 396.951 816.919 327.93 812.948 278.149 C 810.505 249.441 810.505 238.446 812.948 237.53 C 814.781 236.919 815.697 235.086 814.475 233.559 C 812.948 231.116 740.262 230.505 721.632 232.643 Z " fill="rgb(121,125,98)"/><path d=" M 837.992 780.541 C 831.578 790.924 829.135 792.451 816.613 793.368 C 806.229 794.284 800.732 793.062 795.235 789.092 C 786.073 782.068 764.694 781.762 738.124 788.481 C 724.075 792.146 718.578 794.895 719.8 797.643 C 720.716 800.392 717.967 802.224 711.554 803.141 C 706.056 804.057 679.181 808.332 651.389 812.608 C 623.597 816.884 584.505 822.992 564.348 826.351 C 493.494 837.346 470.283 840.705 291.01 866.054 C 257.11 870.941 251.308 872.468 251.308 875.827 C 251.308 880.103 301.394 875.522 362.781 865.749 C 372.859 864.222 421.113 856.892 469.673 849.257 C 518.537 841.622 569.846 833.376 584.2 830.932 C 652 819.022 741.178 805.278 742.094 806.195 C 742.705 806.805 739.651 808.027 735.375 809.249 C 724.686 811.997 725.297 818.411 736.292 815.968 C 743.927 814.441 805.924 803.751 832.494 799.781 C 841.351 798.559 843.183 797.032 840.435 793.978 C 838.297 791.23 838.602 787.565 842.267 780.541 C 849.292 766.797 846.543 766.797 837.992 780.541 Z  M 791.875 792.451 C 791.875 793.673 779.659 796.422 765 798.559 C 719.8 804.362 710.943 802.224 746.37 794.589 C 768.97 789.703 791.875 788.481 791.875 792.451 Z " fill="rgb(121,125,98)"/><path d=" M 842.267 809.859 C 838.602 811.081 762.556 824.214 556.713 858.419 C 336.821 895.068 177.705 923.47 162.74 928.968 C 159.686 930.189 164.573 933.854 176.483 939.962 C 186.562 945.154 221.683 964.089 254.362 982.108 C 287.04 1000.127 322.467 1018.757 332.851 1023.338 C 351.175 1031.278 352.702 1031.584 372.554 1027.919 C 442.186 1015.397 889.91 927.441 941.524 916.141 C 1024.9 897.816 1045.973 893.541 1052.997 893.541 C 1075.597 893.541 1046.583 878.576 964.429 847.73 C 934.194 836.43 899.378 822.992 886.856 817.495 C 867.005 808.943 851.124 806.195 842.267 809.859 Z  M 878.916 819.632 C 887.467 822.992 916.786 835.208 944.578 846.814 C 972.37 858.724 1002.91 870.941 1012.683 873.995 C 1022.151 877.049 1030.092 880.103 1030.092 881.324 C 1030.092 882.241 1008.408 887.432 982.143 892.624 C 955.573 898.122 869.448 915.53 790.348 931.716 C 711.554 947.903 635.813 963.173 622.375 965.616 C 571.678 975.389 464.481 998.295 408.286 1011.427 L 350.259 1025.17 L 324.3 1010.816 C 310.251 1002.876 269.937 981.803 234.816 963.478 C 174.956 932.632 171.597 930.495 181.37 928.968 C 187.173 928.051 229.013 921.638 274.213 914.919 C 364.308 901.481 522.508 874.911 611.686 858.724 C 642.837 852.922 704.529 841.927 749.119 833.986 C 793.708 826.351 835.548 818.716 842.267 817.189 C 860.592 813.524 862.424 813.524 878.916 819.632 Z " fill="rgb(121,125,98)"/><path d=" M 184.119 872.162 C 144.721 879.186 105.629 889.57 96.162 895.678 C 91.581 898.427 85.778 899.343 80.892 898.427 C 73.867 896.9 73.562 896.9 78.143 899.954 C 83.64 903.008 83.64 903.619 76.616 910.949 L 69.592 918.584 L 83.335 911.865 C 90.97 907.895 97.383 906.368 97.994 908.2 C 98.605 910.032 104.713 909.116 113.57 905.757 C 132.505 898.427 174.651 890.486 193.892 890.486 C 210.383 890.486 235.121 884.989 237.87 881.019 C 238.786 879.492 237.87 875.522 236.037 872.162 C 232.067 864.832 226.57 864.832 184.119 872.162 Z  M 232.983 874.911 C 232.983 876.132 223.21 878.576 210.994 879.492 C 188.089 881.935 144.721 888.959 134.948 892.014 C 131.589 893.235 129.146 892.624 129.146 891.097 C 129.146 888.349 171.292 879.492 204.886 875.216 C 230.54 871.857 232.983 871.857 232.983 874.911 Z " fill="rgb(121,125,98)"/><path d=" M 1057.578 871.551 C 1060.021 873.384 1093.921 887.738 1132.402 903.619 C 1198.065 930.495 1237.462 947.903 1282.051 968.67 L 1300.375 977.222 L 1291.213 980.886 C 1286.021 982.719 1269.835 987.3 1254.565 990.965 C 1239.6 994.324 1197.454 1004.403 1161.416 1012.954 C 1024.289 1045.022 895.408 1074.341 767.137 1102.438 C 694.146 1118.624 610.77 1137.559 581.451 1144.889 L 528.31 1158.022 L 509.681 1145.5 C 486.164 1129.924 437.3 1104.881 379.578 1078.922 C 313.916 1049.297 281.237 1033.722 174.651 980.886 C 121.51 954.622 73.562 932.327 68.37 931.411 C 52.183 928.051 57.986 934.77 76.005 940.573 C 95.246 946.681 169.459 984.246 263.524 1035.554 C 298.035 1054.184 354.84 1083.808 389.962 1100.605 C 444.629 1127.481 483.11 1148.249 513.651 1168.1 C 520.675 1172.376 520.675 1172.376 518.843 1165.962 C 517.01 1160.77 517.621 1159.549 521.592 1161.076 C 524.035 1162.297 527.7 1165.657 529.532 1168.711 C 533.197 1175.735 538.389 1176.346 538.389 1169.932 C 538.389 1167.489 536.862 1165.351 535.029 1165.351 C 533.502 1165.351 532.586 1164.13 533.502 1162.603 C 534.419 1161.381 541.748 1159.243 549.689 1158.327 C 581.146 1154.662 753.394 1116.181 1017.875 1053.878 C 1035.589 1049.908 1088.424 1037.386 1135.456 1026.392 C 1264.643 996.157 1296.71 987.911 1304.956 983.33 C 1310.148 980.581 1311.065 979.359 1307.705 979.054 C 1304.956 979.054 1300.986 977.222 1299.154 974.778 C 1292.74 966.838 1228.3 938.13 1123.24 895.984 C 1089.646 882.546 1060.021 870.941 1057.578 870.024 C 1053.608 868.803 1053.608 869.108 1057.578 871.551 Z " fill="rgb(121,125,98)"/><path d=" M 758.281 988.216 C 728.962 994.63 693.229 1002.57 679.181 1005.624 C 664.827 1008.678 652.916 1012.649 652.305 1014.176 C 651.694 1016.008 656.886 1019.062 663.91 1021.2 C 670.629 1023.338 691.702 1031.889 710.332 1040.441 C 760.419 1063.346 764.389 1064.873 764.389 1062.124 C 764.389 1059.07 709.721 1031.889 686.51 1023.338 C 678.264 1020.284 670.324 1016.924 669.102 1016.008 C 667.881 1014.786 701.781 1007.151 744.843 998.905 C 813.864 985.773 823.637 984.551 829.44 988.216 C 833.105 990.659 851.124 1000.127 869.448 1009.9 C 887.467 1019.368 901.21 1027.919 899.989 1028.835 C 898.462 1029.751 867.921 1037.692 832.494 1046.243 C 796.762 1055.1 767.443 1063.651 767.443 1064.873 C 767.443 1068.843 769.581 1068.538 823.332 1056.932 C 882.886 1044.105 895.408 1040.746 903.043 1035.249 C 907.319 1032.195 910.067 1031.889 913.121 1034.638 C 915.87 1036.776 917.092 1036.776 917.092 1034.332 C 917.092 1032.5 911.289 1027.308 904.264 1023.032 C 880.137 1007.762 819.973 976 815.697 976.305 C 813.559 976.611 787.6 982.108 758.281 988.216 Z " fill="rgb(121,125,98)"/><path d=" M 1271.362 1003.486 C 1253.648 1008.068 1241.432 1012.038 1243.875 1012.343 C 1246.319 1012.343 1263.727 1008.678 1282.051 1003.792 C 1300.681 998.905 1312.897 994.935 1309.537 994.935 C 1306.178 994.935 1289.075 998.905 1271.362 1003.486 Z " fill="rgb(121,125,98)"/><path d=" M 1049.943 1055.405 C 977.256 1072.814 947.937 1080.754 962.902 1078.616 C 972.981 1077.395 1104 1046.854 1121.713 1041.662 C 1155.919 1031.889 1116.521 1039.219 1049.943 1055.405 Z " fill="rgb(121,125,98)"/><path d=" M 190.227 1045.022 C 190.227 1045.632 199.389 1050.824 210.994 1056.016 C 222.294 1061.208 272.075 1085.03 321.551 1108.851 C 420.808 1156.8 469.367 1176.957 491.662 1179.095 L 506.321 1180.622 L 489.524 1176.041 C 461.121 1167.795 405.232 1144.584 345.983 1115.876 C 257.416 1072.814 190.227 1042.273 190.227 1045.022 Z " fill="rgb(121,125,98)"/><path d=" M 917.092 1087.473 C 902.737 1091.443 893.27 1094.497 895.713 1094.803 C 898.156 1094.803 912.816 1091.749 927.781 1087.778 C 943.051 1083.808 952.519 1080.449 949.159 1080.449 C 945.8 1080.449 931.446 1083.503 917.092 1087.473 Z " fill="rgb(121,125,98)"/></g></svg>