<?xml version="1.0" encoding="UTF-8" standalone="no"?><!-- Generator: Gravit.io --><svg xmlns="http://www.w3.org/2000/svg" xmlns:xlink="http://www.w3.org/1999/xlink" style="isolation:isolate" viewBox="0 0 120 120" width="120pt" height="120pt"><defs><clipPath id="_clipPath_qe9d7mFgmi84AlK4JUMdBooIKxyUlGkw"><rect width="120" height="120"/></clipPath></defs><g clip-path="url(#_clipPath_qe9d7mFgmi84AlK4JUMdBooIKxyUlGkw)"><path d=" M 60 3.268 C 27.879 3.268 1.832 29.309 1.832 61.436 C 1.832 87.137 18.499 108.941 41.611 116.632 C 44.518 117.171 45.585 115.371 45.585 113.834 C 45.585 112.447 45.531 107.865 45.506 103.004 C 29.324 106.523 25.909 96.141 25.909 96.141 C 23.263 89.418 19.45 87.629 19.45 87.629 C 14.173 84.019 19.848 84.093 19.848 84.093 C 25.689 84.504 28.765 90.088 28.765 90.088 C 33.953 98.981 42.373 96.41 45.692 94.924 C 46.214 91.164 47.722 88.597 49.385 87.145 C 36.465 85.675 22.883 80.686 22.883 58.398 C 22.883 52.047 25.156 46.858 28.877 42.785 C 28.273 41.319 26.282 35.403 29.44 27.39 C 29.44 27.39 34.325 25.828 45.441 33.354 C 50.081 32.065 55.057 31.418 60 31.396 C 64.944 31.418 69.924 32.065 74.573 33.354 C 85.675 25.828 90.553 27.39 90.553 27.39 C 93.719 35.403 91.727 41.319 91.123 42.785 C 94.853 46.858 97.11 52.047 97.11 58.398 C 97.11 80.74 83.502 85.659 70.549 87.099 C 72.635 88.904 74.495 92.444 74.495 97.871 C 74.495 105.654 74.427 111.918 74.427 113.834 C 74.427 115.382 75.474 117.196 78.423 116.625 C 101.522 108.924 118.168 87.128 118.168 61.436 C 118.168 29.309 92.125 3.268 60 3.268 Z " fill-rule="evenodd" fill="rgb(255,236,204)"/></g></svg>