<?xml version="1.0" encoding="UTF-8" standalone="no"?><!-- Generator: Gravit.io --><svg xmlns="http://www.w3.org/2000/svg" xmlns:xlink="http://www.w3.org/1999/xlink" style="isolation:isolate" viewBox="0 0 350 550" width="350pt" height="550pt"><defs><clipPath id="_clipPath_nFdPdeS3bPSqijP0Us9AO42JjJxoHYez"><rect width="350" height="550"/></clipPath></defs><g clip-path="url(#_clipPath_nFdPdeS3bPSqijP0Us9AO42JjJxoHYez)"><rect width="350" height="550" style="fill:rgb(126,101,84)" fill-opacity="0"/><mask id="_mask_q2yorUWr6Blb5ISkjSOiltSUAQXh7GjA" x="-200%" y="-200%" width="400%" height="400%"><rect x="-200%" y="-200%" width="400%" height="400%" style="fill:white;"/><path d=" M 69.228 258.258 C 79.649 249.865 85.644 241.291 82.481 238.683 C 79.323 236.09 68.04 240.473 57.434 248.871 C 52.628 252.683 48.799 256.669 46.367 260.129 C 47.377 252.42 48.591 244.698 49.977 236.941 C 53.907 238.556 64.316 234.026 74.422 226.53 C 85.276 218.461 91.785 210.007 88.858 207.235 C 85.918 204.487 74.495 208.463 63.437 216.545 C 58.413 220.221 54.379 224.1 51.759 227.499 C 53.475 218.821 55.415 210.122 57.6 201.394 C 62.228 199.231 67.24 191.341 69.945 181.993 C 73.079 171.101 71.921 162.168 66.882 162.027 C 61.848 161.9 54.712 170.88 51.506 182.058 C 48.739 191.655 49.801 199.597 53.409 201.512 C 52.196 206.388 51.055 211.269 49.979 216.141 C 48.735 212.918 46.332 209.303 42.949 205.857 C 35.537 198.281 26.181 194.399 21.729 197.64 C 17.27 200.866 19.575 209.991 27.212 217.546 C 34.293 224.585 43.342 227.819 47.965 225.641 C 46.392 233.456 44.992 241.236 43.776 249.01 C 42.296 245.899 39.624 242.426 35.97 239.174 C 27.955 232.012 18.244 228.58 13.957 231.944 C 9.69 235.299 12.643 244.181 20.877 251.308 C 28.521 257.951 37.87 260.773 42.408 258.44 C 41.344 266.188 40.484 273.923 39.797 281.623 C 38.103 278.615 35.148 275.307 31.248 272.256 C 22.662 265.528 12.596 262.547 8.5 266.04 C 4.419 269.51 8.014 278.135 16.819 284.827 C 24.999 291.066 34.644 293.461 39.056 290.991 C 38.521 298.664 38.164 306.317 37.98 313.936 C 36.051 311.039 32.858 307.894 28.694 305.053 C 19.542 298.774 9.188 296.235 5.278 299.842 C 1.387 303.441 5.613 311.779 14.963 318.03 C 23.648 323.844 33.567 325.82 37.854 323.211 C 37.822 330.803 37.988 338.367 38.341 345.873 C 36.203 343.094 32.753 340.121 28.343 337.481 C 18.679 331.665 8.036 329.567 4.331 333.28 C 0.64 336.971 5.482 345.045 15.339 350.818 C 24.509 356.215 34.671 357.751 38.832 355.004 C 39.317 362.491 40.001 369.951 40.87 377.353 C 38.524 374.692 34.823 371.905 30.213 369.465 C 20.056 364.104 9.136 362.477 5.657 366.289 C 2.171 370.085 7.611 377.851 17.981 383.162 C 27.625 388.112 37.969 389.232 42.005 386.346 C 43.007 393.73 44.216 401.047 45.577 408.338 C 43.021 405.795 39.095 403.202 34.272 400.984 C 23.633 396.107 12.516 394.919 9.243 398.837 C 5.983 402.732 12.01 410.16 22.841 414.995 C 32.911 419.499 43.458 420.195 47.329 417.187 C 48.856 424.428 50.55 431.62 52.436 438.77 C 49.678 436.359 45.546 433.951 40.503 431.941 C 29.43 427.547 18.102 426.821 15.068 430.814 C 12.049 434.785 18.647 441.898 29.928 446.226 C 40.419 450.271 51.123 450.544 54.828 447.413 C 56.855 454.506 59.074 461.556 61.473 468.534 C 58.518 466.272 54.181 464.048 48.951 462.268 C 37.442 458.357 25.955 458.106 23.175 462.152 C 20.396 466.198 27.549 472.951 39.244 476.805 C 50.136 480.398 60.965 480.226 64.49 476.996 C 67.036 483.932 69.769 490.811 72.682 497.617 C 69.53 495.502 64.987 493.464 59.57 491.913 C 47.677 488.499 36.046 488.7 33.506 492.821 C 30.96 496.928 38.674 503.337 50.767 506.671 C 62.028 509.79 72.967 509.197 76.307 505.853 C 79.366 512.618 82.606 519.31 86.007 525.938 C 82.678 523.963 77.942 522.139 72.357 520.81 C 60.087 517.907 48.338 518.567 46.072 522.733 C 43.805 526.899 52.021 532.935 64.492 535.758 C 76.076 538.405 87.126 537.39 90.266 533.955 C 92.138 537.406 94.07 540.833 96.021 544.252 C 97.356 543.631 98.671 543.019 100.005 542.399 C 99.903 542.2 99.78 542.009 99.677 541.81 C 104.622 541.544 111.916 534.06 116.958 524.444 C 122.361 514.101 123.267 505.147 118.553 504.189 C 113.859 503.224 105.188 510.641 99.585 521.065 C 97.051 525.783 95.604 530.307 95.235 533.919 C 91.665 527.393 88.257 520.802 85.029 514.139 C 89.933 514.06 97.644 506.804 103.272 497.314 C 109.332 487.101 110.832 478.116 106.27 476.959 C 101.709 475.803 92.65 482.948 86.383 493.226 C 83.55 497.893 81.808 502.38 81.188 506.007 C 78.127 499.294 75.226 492.517 72.505 485.668 C 77.343 485.771 85.456 478.765 91.682 469.429 C 98.366 459.379 100.464 450.376 96.036 449.029 C 91.608 447.682 82.174 454.531 75.303 464.64 C 72.184 469.233 70.154 473.698 69.299 477.316 C 66.725 470.426 64.357 463.469 62.136 456.472 C 66.892 456.778 75.388 450.031 82.165 440.851 C 89.453 430.97 92.141 421.988 87.867 420.443 C 83.598 418.912 73.804 425.442 66.33 435.381 C 62.945 439.892 60.621 444.321 59.535 447.946 C 57.48 440.898 55.612 433.793 53.91 426.639 C 58.579 427.135 67.418 420.662 74.758 411.668 C 82.615 401.988 85.894 393.027 81.778 391.297 C 77.669 389.583 67.58 395.785 59.511 405.517 C 55.854 409.931 53.277 414.307 51.954 417.923 C 50.399 410.727 49.036 403.489 47.859 396.193 C 52.441 396.877 61.609 390.701 69.447 381.903 C 77.859 372.446 81.708 363.513 77.751 361.6 C 73.821 359.694 63.412 365.562 54.808 375.062 C 50.899 379.371 48.042 383.688 46.504 387.288 C 45.473 379.95 44.621 372.592 43.936 365.185 C 48.41 366.067 57.881 360.182 66.207 351.616 C 75.161 342.405 79.566 333.524 75.795 331.434 C 72.029 329.359 61.381 334.859 52.241 344.128 C 48.081 348.332 44.984 352.574 43.203 356.151 C 42.69 348.709 42.343 341.217 42.175 333.706 C 46.536 334.771 56.275 329.206 65.077 320.896 C 74.551 311.939 79.484 303.155 75.918 300.88 C 72.358 298.62 61.455 303.777 51.808 312.768 C 47.417 316.859 44.074 321.011 42.072 324.556 C 42.055 317.018 42.232 309.437 42.58 301.822 C 46.808 303.077 56.795 297.842 66.066 289.772 C 76.021 281.086 81.502 272.391 78.127 269.954 C 74.759 267.531 63.676 272.297 53.522 281.011 C 48.913 284.967 45.331 289.043 43.12 292.534 C 43.627 284.907 44.306 277.245 45.183 269.554 C 49.327 270.946 59.542 266.048 69.228 258.258 Z " fill="black" stroke="none"/></mask><path d=" M 69.228 258.258 C 79.649 249.865 85.644 241.291 82.481 238.683 C 79.323 236.09 68.04 240.473 57.434 248.871 C 52.628 252.683 48.799 256.669 46.367 260.129 C 47.377 252.42 48.591 244.698 49.977 236.941 C 53.907 238.556 64.316 234.026 74.422 226.53 C 85.276 218.461 91.785 210.007 88.858 207.235 C 85.918 204.487 74.495 208.463 63.437 216.545 C 58.413 220.221 54.379 224.1 51.759 227.499 C 53.475 218.821 55.415 210.122 57.6 201.394 C 62.228 199.231 67.24 191.341 69.945 181.993 C 73.079 171.101 71.921 162.168 66.882 162.027 C 61.848 161.9 54.712 170.88 51.506 182.058 C 48.739 191.655 49.801 199.597 53.409 201.512 C 52.196 206.388 51.055 211.269 49.979 216.141 C 48.735 212.918 46.332 209.303 42.949 205.857 C 35.537 198.281 26.181 194.399 21.729 197.64 C 17.27 200.866 19.575 209.991 27.212 217.546 C 34.293 224.585 43.342 227.819 47.965 225.641 C 46.392 233.456 44.992 241.236 43.776 249.01 C 42.296 245.899 39.624 242.426 35.97 239.174 C 27.955 232.012 18.244 228.58 13.957 231.944 C 9.69 235.299 12.643 244.181 20.877 251.308 C 28.521 257.951 37.87 260.773 42.408 258.44 C 41.344 266.188 40.484 273.923 39.797 281.623 C 38.103 278.615 35.148 275.307 31.248 272.256 C 22.662 265.528 12.596 262.547 8.5 266.04 C 4.419 269.51 8.014 278.135 16.819 284.827 C 24.999 291.066 34.644 293.461 39.056 290.991 C 38.521 298.664 38.164 306.317 37.98 313.936 C 36.051 311.039 32.858 307.894 28.694 305.053 C 19.542 298.774 9.188 296.235 5.278 299.842 C 1.387 303.441 5.613 311.779 14.963 318.03 C 23.648 323.844 33.567 325.82 37.854 323.211 C 37.822 330.803 37.988 338.367 38.341 345.873 C 36.203 343.094 32.753 340.121 28.343 337.481 C 18.679 331.665 8.036 329.567 4.331 333.28 C 0.64 336.971 5.482 345.045 15.339 350.818 C 24.509 356.215 34.671 357.751 38.832 355.004 C 39.317 362.491 40.001 369.951 40.87 377.353 C 38.524 374.692 34.823 371.905 30.213 369.465 C 20.056 364.104 9.136 362.477 5.657 366.289 C 2.171 370.085 7.611 377.851 17.981 383.162 C 27.625 388.112 37.969 389.232 42.005 386.346 C 43.007 393.73 44.216 401.047 45.577 408.338 C 43.021 405.795 39.095 403.202 34.272 400.984 C 23.633 396.107 12.516 394.919 9.243 398.837 C 5.983 402.732 12.01 410.16 22.841 414.995 C 32.911 419.499 43.458 420.195 47.329 417.187 C 48.856 424.428 50.55 431.62 52.436 438.77 C 49.678 436.359 45.546 433.951 40.503 431.941 C 29.43 427.547 18.102 426.821 15.068 430.814 C 12.049 434.785 18.647 441.898 29.928 446.226 C 40.419 450.271 51.123 450.544 54.828 447.413 C 56.855 454.506 59.074 461.556 61.473 468.534 C 58.518 466.272 54.181 464.048 48.951 462.268 C 37.442 458.357 25.955 458.106 23.175 462.152 C 20.396 466.198 27.549 472.951 39.244 476.805 C 50.136 480.398 60.965 480.226 64.49 476.996 C 67.036 483.932 69.769 490.811 72.682 497.617 C 69.53 495.502 64.987 493.464 59.57 491.913 C 47.677 488.499 36.046 488.7 33.506 492.821 C 30.96 496.928 38.674 503.337 50.767 506.671 C 62.028 509.79 72.967 509.197 76.307 505.853 C 79.366 512.618 82.606 519.31 86.007 525.938 C 82.678 523.963 77.942 522.139 72.357 520.81 C 60.087 517.907 48.338 518.567 46.072 522.733 C 43.805 526.899 52.021 532.935 64.492 535.758 C 76.076 538.405 87.126 537.39 90.266 533.955 C 92.138 537.406 94.07 540.833 96.021 544.252 C 97.356 543.631 98.671 543.019 100.005 542.399 C 99.903 542.2 99.78 542.009 99.677 541.81 C 104.622 541.544 111.916 534.06 116.958 524.444 C 122.361 514.101 123.267 505.147 118.553 504.189 C 113.859 503.224 105.188 510.641 99.585 521.065 C 97.051 525.783 95.604 530.307 95.235 533.919 C 91.665 527.393 88.257 520.802 85.029 514.139 C 89.933 514.06 97.644 506.804 103.272 497.314 C 109.332 487.101 110.832 478.116 106.27 476.959 C 101.709 475.803 92.65 482.948 86.383 493.226 C 83.55 497.893 81.808 502.38 81.188 506.007 C 78.127 499.294 75.226 492.517 72.505 485.668 C 77.343 485.771 85.456 478.765 91.682 469.429 C 98.366 459.379 100.464 450.376 96.036 449.029 C 91.608 447.682 82.174 454.531 75.303 464.64 C 72.184 469.233 70.154 473.698 69.299 477.316 C 66.725 470.426 64.357 463.469 62.136 456.472 C 66.892 456.778 75.388 450.031 82.165 440.851 C 89.453 430.97 92.141 421.988 87.867 420.443 C 83.598 418.912 73.804 425.442 66.33 435.381 C 62.945 439.892 60.621 444.321 59.535 447.946 C 57.48 440.898 55.612 433.793 53.91 426.639 C 58.579 427.135 67.418 420.662 74.758 411.668 C 82.615 401.988 85.894 393.027 81.778 391.297 C 77.669 389.583 67.58 395.785 59.511 405.517 C 55.854 409.931 53.277 414.307 51.954 417.923 C 50.399 410.727 49.036 403.489 47.859 396.193 C 52.441 396.877 61.609 390.701 69.447 381.903 C 77.859 372.446 81.708 363.513 77.751 361.6 C 73.821 359.694 63.412 365.562 54.808 375.062 C 50.899 379.371 48.042 383.688 46.504 387.288 C 45.473 379.95 44.621 372.592 43.936 365.185 C 48.41 366.067 57.881 360.182 66.207 351.616 C 75.161 342.405 79.566 333.524 75.795 331.434 C 72.029 329.359 61.381 334.859 52.241 344.128 C 48.081 348.332 44.984 352.574 43.203 356.151 C 42.69 348.709 42.343 341.217 42.175 333.706 C 46.536 334.771 56.275 329.206 65.077 320.896 C 74.551 311.939 79.484 303.155 75.918 300.88 C 72.358 298.62 61.455 303.777 51.808 312.768 C 47.417 316.859 44.074 321.011 42.072 324.556 C 42.055 317.018 42.232 309.437 42.58 301.822 C 46.808 303.077 56.795 297.842 66.066 289.772 C 76.021 281.086 81.502 272.391 78.127 269.954 C 74.759 267.531 63.676 272.297 53.522 281.011 C 48.913 284.967 45.331 289.043 43.12 292.534 C 43.627 284.907 44.306 277.245 45.183 269.554 C 49.327 270.946 59.542 266.048 69.228 258.258 Z " fill="rgb(238,216,184)"/><path d=" M 69.228 258.258 C 79.649 249.865 85.644 241.291 82.481 238.683 C 79.323 236.09 68.04 240.473 57.434 248.871 C 52.628 252.683 48.799 256.669 46.367 260.129 C 47.377 252.42 48.591 244.698 49.977 236.941 C 53.907 238.556 64.316 234.026 74.422 226.53 C 85.276 218.461 91.785 210.007 88.858 207.235 C 85.918 204.487 74.495 208.463 63.437 216.545 C 58.413 220.221 54.379 224.1 51.759 227.499 C 53.475 218.821 55.415 210.122 57.6 201.394 C 62.228 199.231 67.24 191.341 69.945 181.993 C 73.079 171.101 71.921 162.168 66.882 162.027 C 61.848 161.9 54.712 170.88 51.506 182.058 C 48.739 191.655 49.801 199.597 53.409 201.512 C 52.196 206.388 51.055 211.269 49.979 216.141 C 48.735 212.918 46.332 209.303 42.949 205.857 C 35.537 198.281 26.181 194.399 21.729 197.64 C 17.27 200.866 19.575 209.991 27.212 217.546 C 34.293 224.585 43.342 227.819 47.965 225.641 C 46.392 233.456 44.992 241.236 43.776 249.01 C 42.296 245.899 39.624 242.426 35.97 239.174 C 27.955 232.012 18.244 228.58 13.957 231.944 C 9.69 235.299 12.643 244.181 20.877 251.308 C 28.521 257.951 37.87 260.773 42.408 258.44 C 41.344 266.188 40.484 273.923 39.797 281.623 C 38.103 278.615 35.148 275.307 31.248 272.256 C 22.662 265.528 12.596 262.547 8.5 266.04 C 4.419 269.51 8.014 278.135 16.819 284.827 C 24.999 291.066 34.644 293.461 39.056 290.991 C 38.521 298.664 38.164 306.317 37.98 313.936 C 36.051 311.039 32.858 307.894 28.694 305.053 C 19.542 298.774 9.188 296.235 5.278 299.842 C 1.387 303.441 5.613 311.779 14.963 318.03 C 23.648 323.844 33.567 325.82 37.854 323.211 C 37.822 330.803 37.988 338.367 38.341 345.873 C 36.203 343.094 32.753 340.121 28.343 337.481 C 18.679 331.665 8.036 329.567 4.331 333.28 C 0.64 336.971 5.482 345.045 15.339 350.818 C 24.509 356.215 34.671 357.751 38.832 355.004 C 39.317 362.491 40.001 369.951 40.87 377.353 C 38.524 374.692 34.823 371.905 30.213 369.465 C 20.056 364.104 9.136 362.477 5.657 366.289 C 2.171 370.085 7.611 377.851 17.981 383.162 C 27.625 388.112 37.969 389.232 42.005 386.346 C 43.007 393.73 44.216 401.047 45.577 408.338 C 43.021 405.795 39.095 403.202 34.272 400.984 C 23.633 396.107 12.516 394.919 9.243 398.837 C 5.983 402.732 12.01 410.16 22.841 414.995 C 32.911 419.499 43.458 420.195 47.329 417.187 C 48.856 424.428 50.55 431.62 52.436 438.77 C 49.678 436.359 45.546 433.951 40.503 431.941 C 29.43 427.547 18.102 426.821 15.068 430.814 C 12.049 434.785 18.647 441.898 29.928 446.226 C 40.419 450.271 51.123 450.544 54.828 447.413 C 56.855 454.506 59.074 461.556 61.473 468.534 C 58.518 466.272 54.181 464.048 48.951 462.268 C 37.442 458.357 25.955 458.106 23.175 462.152 C 20.396 466.198 27.549 472.951 39.244 476.805 C 50.136 480.398 60.965 480.226 64.49 476.996 C 67.036 483.932 69.769 490.811 72.682 497.617 C 69.53 495.502 64.987 493.464 59.57 491.913 C 47.677 488.499 36.046 488.7 33.506 492.821 C 30.96 496.928 38.674 503.337 50.767 506.671 C 62.028 509.79 72.967 509.197 76.307 505.853 C 79.366 512.618 82.606 519.31 86.007 525.938 C 82.678 523.963 77.942 522.139 72.357 520.81 C 60.087 517.907 48.338 518.567 46.072 522.733 C 43.805 526.899 52.021 532.935 64.492 535.758 C 76.076 538.405 87.126 537.39 90.266 533.955 C 92.138 537.406 94.07 540.833 96.021 544.252 C 97.356 543.631 98.671 543.019 100.005 542.399 C 99.903 542.2 99.78 542.009 99.677 541.81 C 104.622 541.544 111.916 534.06 116.958 524.444 C 122.361 514.101 123.267 505.147 118.553 504.189 C 113.859 503.224 105.188 510.641 99.585 521.065 C 97.051 525.783 95.604 530.307 95.235 533.919 C 91.665 527.393 88.257 520.802 85.029 514.139 C 89.933 514.06 97.644 506.804 103.272 497.314 C 109.332 487.101 110.832 478.116 106.27 476.959 C 101.709 475.803 92.65 482.948 86.383 493.226 C 83.55 497.893 81.808 502.38 81.188 506.007 C 78.127 499.294 75.226 492.517 72.505 485.668 C 77.343 485.771 85.456 478.765 91.682 469.429 C 98.366 459.379 100.464 450.376 96.036 449.029 C 91.608 447.682 82.174 454.531 75.303 464.64 C 72.184 469.233 70.154 473.698 69.299 477.316 C 66.725 470.426 64.357 463.469 62.136 456.472 C 66.892 456.778 75.388 450.031 82.165 440.851 C 89.453 430.97 92.141 421.988 87.867 420.443 C 83.598 418.912 73.804 425.442 66.33 435.381 C 62.945 439.892 60.621 444.321 59.535 447.946 C 57.48 440.898 55.612 433.793 53.91 426.639 C 58.579 427.135 67.418 420.662 74.758 411.668 C 82.615 401.988 85.894 393.027 81.778 391.297 C 77.669 389.583 67.58 395.785 59.511 405.517 C 55.854 409.931 53.277 414.307 51.954 417.923 C 50.399 410.727 49.036 403.489 47.859 396.193 C 52.441 396.877 61.609 390.701 69.447 381.903 C 77.859 372.446 81.708 363.513 77.751 361.6 C 73.821 359.694 63.412 365.562 54.808 375.062 C 50.899 379.371 48.042 383.688 46.504 387.288 C 45.473 379.95 44.621 372.592 43.936 365.185 C 48.41 366.067 57.881 360.182 66.207 351.616 C 75.161 342.405 79.566 333.524 75.795 331.434 C 72.029 329.359 61.381 334.859 52.241 344.128 C 48.081 348.332 44.984 352.574 43.203 356.151 C 42.69 348.709 42.343 341.217 42.175 333.706 C 46.536 334.771 56.275 329.206 65.077 320.896 C 74.551 311.939 79.484 303.155 75.918 300.88 C 72.358 298.62 61.455 303.777 51.808 312.768 C 47.417 316.859 44.074 321.011 42.072 324.556 C 42.055 317.018 42.232 309.437 42.58 301.822 C 46.808 303.077 56.795 297.842 66.066 289.772 C 76.021 281.086 81.502 272.391 78.127 269.954 C 74.759 267.531 63.676 272.297 53.522 281.011 C 48.913 284.967 45.331 289.043 43.12 292.534 C 43.627 284.907 44.306 277.245 45.183 269.554 C 49.327 270.946 59.542 266.048 69.228 258.258 Z " fill="rgb(238,216,184)" mask="url(#_mask_q2yorUWr6Blb5ISkjSOiltSUAQXh7GjA)" vector-effect="non-scaling-stroke" stroke-width="4" stroke="rgb(230,198,151)" stroke-opacity="0.8" stroke-linejoin="miter" stroke-linecap="butt" stroke-miterlimit="10"/><path d=" M 350.063 550 L -0.063 550 C -0.581 550 -1 548.422 -1 546.468 L -1 546.468 C -1 544.515 -0.581 542.936 -0.063 542.936 L 350.063 542.936 C 350.581 542.936 351 544.515 351 546.468 L 351 546.468 C 350.997 548.422 350.578 550 350.063 550 Z " fill="rgb(230,198,151)"/><g><path d=" M 249.41 460.509 L 249.668 460.892 C 256.691 460.126 264.97 459.739 274.51 459.739 L 288.039 459.739 L 288.039 428.017 L 318.866 428.017 L 318.866 459.739 L 341.5 459.739 L 341.5 485.45 L 318.866 485.45 L 318.866 534.953 L 288.039 534.953 L 288.039 485.45 L 216.5 485.45 L 216.5 463.831 L 263.976 361.5 L 295.453 361.5 L 249.41 460.509 Z " fill="rgb(219,173,106)"/><path d=" M 242.91 460.509 L 243.168 460.892 C 250.191 460.126 258.47 459.739 268.01 459.739 L 281.539 459.739 L 281.539 428.017 L 312.366 428.017 L 312.366 459.739 L 335 459.739 L 335 485.45 L 312.366 485.45 L 312.366 534.953 L 281.539 534.953 L 281.539 485.45 L 210 485.45 L 210 463.831 L 257.476 361.5 L 288.953 361.5 L 242.91 460.509 Z " fill="rgb(110,110,86)"/></g><g><path d=" M 250 275 C 250 284.656 248.668 293.606 246.012 301.845 C 243.352 310.085 239.414 317.215 234.188 323.241 C 228.962 329.268 222.453 334.006 214.661 337.462 C 206.868 340.918 197.838 342.643 187.565 342.643 C 177.475 342.643 168.556 340.918 160.809 337.462 C 153.061 334.006 146.53 329.268 141.215 323.241 C 135.899 317.22 131.867 310.085 129.122 301.845 C 126.372 293.606 125 284.661 125 275 C 125 265.344 126.372 256.394 129.122 248.155 C 131.867 239.915 135.899 232.763 141.215 226.692 C 146.53 220.625 153.061 215.882 160.809 212.471 C 168.556 209.06 177.475 207.357 187.565 207.357 C 197.834 207.357 206.864 209.064 214.661 212.471 C 222.453 215.882 228.962 220.625 234.188 226.692 C 239.414 232.763 243.352 239.915 246.012 248.155 C 248.668 256.394 250 265.344 250 275 Z  M 216.891 275 C 216.891 261.535 214.37 251.19 209.323 243.97 C 204.276 236.75 197.024 233.138 187.565 233.138 C 178.016 233.138 170.72 236.75 165.673 243.97 C 160.626 251.19 158.104 261.535 158.104 275 C 158.104 288.47 160.626 298.81 165.673 306.03 C 170.715 313.25 178.016 316.862 187.565 316.862 C 197.024 316.862 204.276 313.254 209.323 306.03 C 214.37 298.81 216.891 288.465 216.891 275 Z " fill="rgb(110,110,86)"/><g style="opacity:0.85;"><path d=" M 188.352 238.202 C 185.744 238.429 184.299 246.322 185.128 255.817 C 185.956 265.312 188.745 272.836 191.353 272.608 C 193.961 272.381 195.406 264.488 194.578 254.993 C 193.749 245.498 190.96 237.974 188.352 238.202 Z " fill="rgb(230,198,151)" vector-effect="non-scaling-stroke" stroke-width="2" stroke="rgb(238,216,184)" stroke-opacity="0.8" stroke-linejoin="miter" stroke-linecap="butt" stroke-miterlimit="10"/><path d=" M 191.203 248.838 C 190.184 249.138 190.135 252.035 191.095 255.305 C 192.055 258.574 193.662 260.985 194.682 260.686 C 195.702 260.386 195.75 257.489 194.791 254.22 C 193.831 250.95 192.223 248.539 191.203 248.838 Z " fill="rgb(230,198,151)" vector-effect="non-scaling-stroke" stroke-width="2" stroke="rgb(238,216,184)" stroke-opacity="0.8" stroke-linejoin="miter" stroke-linecap="butt" stroke-miterlimit="10"/><path d=" M 200.809 250.222 C 197.385 243.761 193.011 239.361 191.048 240.401 C 189.086 241.441 190.272 247.531 193.696 253.992 C 197.12 260.453 201.493 264.853 203.456 263.813 C 205.419 262.773 204.233 256.683 200.809 250.222 Z " fill="rgb(230,198,151)" vector-effect="non-scaling-stroke" stroke-width="2" stroke="rgb(238,216,184)" stroke-opacity="0.8" stroke-linejoin="miter" stroke-linecap="butt" stroke-miterlimit="10"/><path d=" M 186.771 244.318 C 184.87 243.749 182.013 247.676 180.395 253.081 C 178.776 258.487 179.005 263.337 180.905 263.906 C 182.806 264.475 185.663 260.549 187.281 255.143 C 188.9 249.738 188.671 244.887 186.771 244.318 Z " fill="rgb(230,198,151)" vector-effect="non-scaling-stroke" stroke-width="2" stroke="rgb(238,216,184)" stroke-opacity="0.8" stroke-linejoin="miter" stroke-linecap="butt" stroke-miterlimit="10"/><path d=" M 184.054 246.29 C 182.433 244.724 177.734 246.955 173.567 251.269 C 169.4 255.582 167.334 260.356 168.955 261.922 C 170.576 263.488 175.276 261.257 179.442 256.944 C 183.609 252.63 185.676 247.856 184.054 246.29 Z " fill="rgb(230,198,151)" vector-effect="non-scaling-stroke" stroke-width="2" stroke="rgb(238,216,184)" stroke-opacity="0.8" stroke-linejoin="miter" stroke-linecap="butt" stroke-miterlimit="10"/><path d=" M 177.471 235.964 C 169.631 238.1 163.902 242.169 164.685 245.045 C 165.469 247.922 172.47 248.522 180.31 246.387 C 188.15 244.251 193.879 240.182 193.096 237.306 C 192.312 234.429 185.311 233.828 177.471 235.964 Z " fill="rgb(230,198,151)" vector-effect="non-scaling-stroke" stroke-width="2" stroke="rgb(238,216,184)" stroke-opacity="0.8" stroke-linejoin="miter" stroke-linecap="butt" stroke-miterlimit="10"/><path d=" M 173.062 235.117 C 166.437 235.666 161.217 238.027 161.413 240.385 C 161.609 242.743 167.146 244.212 173.772 243.662 C 180.397 243.112 185.617 240.751 185.421 238.393 C 185.225 236.035 179.688 234.567 173.062 235.117 Z " fill="rgb(230,198,151)" vector-effect="non-scaling-stroke" stroke-width="2" stroke="rgb(238,216,184)" stroke-opacity="0.8" stroke-linejoin="miter" stroke-linecap="butt" stroke-miterlimit="10"/><path d=" M 188.244 240.301 C 187.116 238.15 181.546 238.842 175.813 241.847 C 170.08 244.852 166.341 249.038 167.469 251.19 C 168.596 253.341 174.166 252.648 179.899 249.643 C 185.633 246.639 189.372 242.453 188.244 240.301 Z " fill="rgb(230,198,151)" vector-effect="non-scaling-stroke" stroke-width="2" stroke="rgb(238,216,184)" stroke-opacity="0.8" stroke-linejoin="miter" stroke-linecap="butt" stroke-miterlimit="10"/><path d=" M 178.283 230.957 C 173.422 229.784 169.159 230.145 168.768 231.762 C 168.378 233.38 172.007 235.646 176.868 236.819 C 181.729 237.992 185.992 237.632 186.382 236.014 C 186.773 234.396 183.143 232.131 178.283 230.957 Z " fill="rgb(230,198,151)" vector-effect="non-scaling-stroke" stroke-width="2" stroke="rgb(238,216,184)" stroke-opacity="0.8" stroke-linejoin="miter" stroke-linecap="butt" stroke-miterlimit="10"/></g><path d=" M 233.512 248.154 C 231.098 240.656 227.615 234.062 223.069 228.366 C 222.626 227.799 222.161 227.244 221.692 226.694 C 216.465 220.628 209.956 215.884 202.164 212.473 C 194.367 209.067 185.336 207.359 175.067 207.359 C 165.294 207.359 156.617 208.959 149.039 212.156 C 148.797 212.263 148.552 212.366 148.31 212.473 C 140.562 215.884 134.031 220.628 128.715 226.694 C 123.4 232.761 119.367 239.914 116.622 248.154 C 113.872 256.393 112.5 265.343 112.5 275 C 112.5 284.661 113.872 293.607 116.622 301.846 C 119.367 310.086 123.4 317.221 128.715 323.243 C 128.84 323.382 128.97 323.529 129.1 323.668 C 134.339 329.489 140.746 334.089 148.31 337.46 C 156.058 340.916 164.977 342.641 175.067 342.641 C 181.912 342.641 188.202 341.877 193.947 340.339 C 196.821 339.574 199.562 338.613 202.164 337.46 C 209.956 334.004 216.465 329.265 221.692 323.243 C 226.913 317.221 230.857 310.086 233.512 301.846 C 236.172 293.607 237.5 284.661 237.5 275 C 237.5 265.343 236.172 256.393 233.512 248.154 Z  M 175.067 316.863 C 165.518 316.863 158.222 313.256 153.174 306.031 C 148.23 298.958 145.713 288.89 145.614 275.818 C 145.61 275.545 145.61 275.273 145.61 275 C 145.61 269.099 146.093 263.805 147.063 259.107 C 148.301 253.076 150.335 248.033 153.174 243.969 C 158.222 236.749 165.518 233.141 175.067 233.141 C 184.527 233.141 191.778 236.749 196.826 243.969 C 201.869 251.194 204.39 261.534 204.39 275 C 204.39 288.47 201.869 298.811 196.826 306.031 C 191.778 313.251 184.527 316.863 175.067 316.863 Z " fill="rgb(219,173,106)"/></g><g><path d=" M 53.41 115.009 L 53.668 115.392 C 60.691 114.626 68.97 114.239 78.51 114.239 L 92.039 114.239 L 92.039 82.517 L 122.866 82.517 L 122.866 114.239 L 145.5 114.239 L 145.5 139.95 L 122.866 139.95 L 122.866 189.453 L 92.039 189.453 L 92.039 139.95 L 20.5 139.95 L 20.5 118.331 L 67.976 16 L 99.453 16 L 53.41 115.009 Z " fill="rgb(219,173,106)"/><path d=" M 46.91 115.169 L 47.168 115.552 C 54.191 114.781 62.47 114.398 72.01 114.398 L 85.539 114.398 L 85.539 82.624 L 116.366 82.624 L 116.366 114.398 L 139 114.398 L 139 140.152 L 116.366 140.152 L 116.366 189.737 L 85.539 189.737 L 85.539 140.157 L 14 140.157 L 14 118.504 L 61.476 16 L 92.953 16 L 46.91 115.169 Z " fill="rgb(110,110,86)"/></g><g filter="url(#tBn25tPHLG47Wq5s2261CBdj9NdtkvLU)"><g><g><path d=" M 180.231 525.964 C 180.417 526.328 190.901 539.668 190.901 539.668 C 190.901 539.668 203.505 537.223 204.081 537.011 C 204.658 536.799 215.559 530.728 215.559 530.728 L 216.328 528.078 L 205.228 512.73 L 180.231 525.964 Z " fill="rgb(188,126,87)"/><g><g><path d=" M 228.939 535.129 L 194.585 547.587 C 194.187 547.733 193.724 547.581 193.551 547.243 L 192.418 545.042 L 228.21 532.067 L 229.343 534.267 C 229.515 534.598 229.337 534.989 228.939 535.129 Z " fill="rgb(155,155,122)"/><g><path d=" M 227.753 531.186 L 228.21 532.067 L 192.418 545.042 L 187.203 534.936 L 190.867 535.248 C 195.095 535.612 198.13 534.638 201 532.014 L 202.405 530.105 C 204.048 527.859 206.487 526.096 209.37 525.049 C 211.908 524.128 214.585 523.896 217.117 524.234 C 217.667 524.307 218.217 524.406 218.76 524.545 C 219.197 524.651 219.641 524.777 220.066 524.917 C 223.386 526.03 226.215 528.203 227.753 531.186 Z " fill="rgb(82,82,65)"/></g></g><g><path d=" M 218.011 524.38 L 218.011 524.38 C 218.667 523.538 219.184 521.066 218.183 519.761 C 217.792 519.251 217.017 518.687 215.519 518.873 C 214.022 519.058 213.478 519.794 213.286 520.377 C 212.796 521.875 214.154 524.108 215.075 524.751 C 215.546 525.082 216.136 525.235 216.653 525.168 C 216.792 525.148 216.924 525.115 217.064 525.069 C 217.421 524.936 217.759 524.691 218.011 524.38 Z  M 215.665 519.701 C 216.454 519.602 217.004 519.767 217.342 520.211 C 218.124 521.232 217.627 523.339 217.176 523.922 L 217.176 523.922 C 216.957 524.201 216.686 524.32 216.5 524.347 C 216.315 524.366 216.01 524.32 215.705 524.108 C 215.069 523.664 213.856 521.775 214.24 520.602 C 214.36 520.251 214.618 519.999 215.042 519.847 C 215.221 519.781 215.427 519.728 215.665 519.701 Z " fill="rgb(219,173,106)"/><g opacity="0.1" style="mix-blend-mode:color-burn;"><path d=" M 218.011 524.38 L 218.011 524.38 C 218.667 523.538 219.184 521.066 218.183 519.761 C 217.792 519.251 217.017 518.687 215.519 518.873 C 214.022 519.058 213.478 519.794 213.286 520.377 C 212.796 521.875 214.154 524.108 215.075 524.751 C 215.546 525.082 216.136 525.235 216.653 525.168 C 216.792 525.148 216.924 525.115 217.064 525.069 C 217.421 524.936 217.759 524.691 218.011 524.38 Z  M 215.665 519.701 C 216.454 519.602 217.004 519.767 217.342 520.211 C 218.124 521.232 217.627 523.339 217.176 523.922 L 217.176 523.922 C 216.957 524.201 216.686 524.32 216.5 524.347 C 216.315 524.366 216.01 524.32 215.705 524.108 C 215.069 523.664 213.856 521.775 214.24 520.602 C 214.36 520.251 214.618 519.999 215.042 519.847 C 215.221 519.781 215.427 519.728 215.665 519.701 Z " fill="rgb(53,53,41)"/></g></g><g><path d=" M 216.719 525.023 C 216.977 524.645 217.017 524.128 216.825 523.638 C 216.447 522.683 214.453 520.808 212.617 520.655 C 211.901 520.596 210.887 520.755 210.138 521.862 C 209.383 522.968 209.734 523.783 210.158 524.267 C 211.252 525.52 214.181 526.017 215.354 525.805 L 215.354 525.805 C 215.513 525.778 215.659 525.738 215.804 525.685 C 216.195 525.539 216.527 525.307 216.719 525.023 Z  M 212.511 521.49 C 213.949 521.61 215.612 523.247 215.871 523.903 C 215.997 524.214 215.937 524.473 215.851 524.612 C 215.758 524.744 215.519 524.917 215.135 524.989 L 215.135 524.989 C 214.327 525.135 211.808 524.757 210.954 523.777 C 210.582 523.353 210.596 522.862 210.993 522.279 C 211.238 521.921 211.517 521.689 211.835 521.57 C 212.047 521.497 212.266 521.471 212.511 521.49 Z " fill="rgb(219,173,106)"/></g></g><g><path d=" M 195.089 541.02 C 195.387 541.02 195.685 540.973 195.977 540.867 C 196.58 540.649 197.044 540.225 197.249 539.694 C 197.428 539.231 197.402 538.734 197.17 538.29 L 197.17 538.29 C 196.666 537.315 195.321 536.865 194.181 537.282 C 193.578 537.501 193.114 537.925 192.909 538.455 C 192.73 538.919 192.756 539.416 192.988 539.86 C 193.366 540.583 194.207 541.02 195.089 541.02 Z  M 195.082 537.508 C 195.818 537.508 196.52 537.865 196.825 538.462 L 196.825 538.462 C 197.004 538.806 197.024 539.191 196.885 539.542 C 196.719 539.966 196.341 540.311 195.844 540.49 C 194.877 540.841 193.75 540.47 193.339 539.668 C 193.16 539.323 193.14 538.939 193.28 538.588 C 193.445 538.164 193.823 537.819 194.32 537.64 C 194.565 537.554 194.824 537.508 195.082 537.508 Z " fill="rgb(219,173,106)"/></g><g><path d=" M 213.511 536.202 C 213.803 536.202 214.101 536.156 214.386 536.05 C 214.983 535.831 215.433 535.413 215.639 534.89 C 215.818 534.433 215.791 533.942 215.566 533.498 L 215.566 533.498 C 215.069 532.537 213.743 532.087 212.61 532.504 C 212.02 532.716 211.563 533.14 211.358 533.664 C 211.179 534.121 211.205 534.612 211.431 535.056 C 211.808 535.765 212.643 536.202 213.511 536.202 Z  M 213.498 532.743 C 214.221 532.743 214.91 533.094 215.215 533.684 L 215.215 533.684 C 215.387 534.022 215.407 534.4 215.274 534.751 C 215.109 535.168 214.737 535.506 214.254 535.685 C 213.299 536.03 212.193 535.665 211.789 534.877 C 211.616 534.539 211.596 534.161 211.729 533.81 C 211.895 533.392 212.266 533.054 212.749 532.875 C 212.995 532.783 213.253 532.743 213.498 532.743 Z " fill="rgb(219,173,106)"/></g><g><path d=" M 210.735 528.329 C 210.967 528.329 211.205 528.29 211.431 528.21 C 211.901 528.038 212.272 527.7 212.431 527.282 C 212.577 526.918 212.551 526.52 212.372 526.162 C 211.974 525.394 210.92 525.036 210.019 525.367 C 209.549 525.539 209.178 525.877 209.018 526.295 C 208.873 526.659 208.899 527.057 209.078 527.415 C 209.37 527.985 210.039 528.329 210.735 528.329 Z  M 210.722 525.639 C 211.272 525.639 211.789 525.904 212.02 526.348 C 212.153 526.6 212.166 526.885 212.067 527.143 C 211.948 527.455 211.663 527.713 211.298 527.846 C 210.576 528.104 209.734 527.832 209.429 527.236 C 209.297 526.984 209.284 526.699 209.383 526.441 C 209.502 526.129 209.787 525.871 210.152 525.738 C 210.337 525.672 210.529 525.639 210.722 525.639 Z " fill="rgb(219,173,106)"/></g><path d=" M 218.753 524.545 C 212.378 527.574 214.559 534.592 215.394 536.712 L 214.3 537.11 C 213.492 535.036 211.272 527.865 217.117 524.241 C 217.667 524.313 218.21 524.413 218.753 524.545 Z " fill="rgb(155,155,122)"/></g><path d=" M 127.693 419.589 C 126.865 421.457 126.911 423.605 127.813 425.44 L 129.741 429.37 L 133.85 437.753 L 176.096 523.896 C 177.7 527.163 181.557 528.628 184.923 527.256 C 188.25 525.904 192.677 524.28 197.315 522.65 C 198.058 522.385 198.806 522.127 199.562 521.862 C 201.278 521.265 203.008 520.669 204.698 520.099 C 205.493 519.827 206.282 519.562 207.064 519.297 C 208.992 518.647 210.834 518.031 212.531 517.468 C 213.359 517.196 214.154 516.938 214.903 516.686 C 215.142 516.606 215.38 516.527 215.612 516.454 C 219.297 515.248 221.278 511.252 219.993 507.6 C 206.407 468.952 148.336 372.882 148.336 372.882 L 140.761 390.013 L 139.251 393.432 L 136.374 399.94 L 135.427 402.074 L 132.604 408.455 L 131.749 410.391 L 127.693 419.589 Z " fill="rgb(229,196,148)"/><g opacity="0.15"><path d=" M 127.693 419.589 C 126.865 421.457 126.911 423.605 127.813 425.44 L 129.741 429.37 L 133.85 437.753 L 176.096 523.896 C 177.7 527.163 181.557 528.628 184.923 527.256 C 188.25 525.904 192.677 524.28 197.315 522.65 C 198.058 522.385 198.806 522.127 199.562 521.862 C 201.278 521.265 203.008 520.669 204.698 520.099 C 205.493 519.827 206.282 519.562 207.064 519.297 C 208.992 518.647 210.834 518.031 212.531 517.468 C 213.359 517.196 214.154 516.938 214.903 516.686 C 215.142 516.606 215.38 516.527 215.612 516.454 C 219.297 515.248 221.278 511.252 219.993 507.6 C 206.407 468.952 148.336 372.882 148.336 372.882 L 140.761 390.013 L 139.251 393.432 L 136.374 399.94 L 135.427 402.074 L 132.604 408.455 L 131.749 410.391 L 127.693 419.589 Z " fill="rgb(53,53,41)"/></g><g><g opacity="0.7"><path d=" M 138.356 390 C 138.515 391.166 138.813 392.319 139.257 393.432 C 139.807 394.811 140.576 396.129 141.563 397.342 C 143.379 399.556 145.824 401.093 148.422 402.611 C 150.821 404.009 153.386 405.546 154.333 407.992 C 155.414 410.775 154.678 413.79 154.883 416.66 C 155.069 419.218 156.05 421.577 157.647 423.75 C 160.722 427.932 165.447 431.153 168.011 435.619 C 171.119 441.033 170.185 447.382 171.928 453.101 C 173.452 458.104 176.686 462.564 180.066 466.819 C 183.505 471.139 187.223 475.387 189.681 480.192 C 190.967 482.71 191.689 485.327 192.199 488.025 C 192.743 490.894 193.273 493.817 194.996 496.381 C 197.865 500.662 203.134 503.134 207.216 506.474 C 209.409 508.27 211.106 510.324 211.881 512.836 C 212.352 514.353 212.517 515.904 212.531 517.468 C 213.359 517.196 214.154 516.938 214.903 516.686 C 214.797 514.115 214.234 511.537 212.796 509.244 C 211.53 507.216 209.615 505.513 207.58 504.002 C 203.558 501.02 198.482 498.455 196.341 494.115 C 195.042 491.497 194.777 488.608 194.187 485.838 C 193.637 483.293 192.683 480.861 191.404 478.515 C 188.952 474.009 185.466 469.98 182.199 465.878 C 178.959 461.795 175.811 457.541 174.3 452.75 C 172.577 447.282 173.28 441.411 170.841 436.09 C 168.753 431.524 164.439 428.25 161.06 424.387 C 159.463 422.564 158.097 420.596 157.541 418.363 C 156.852 415.619 157.521 412.796 157.223 410.026 C 156.931 407.369 155.698 405.082 153.353 403.26 C 151.239 401.623 148.681 400.47 146.494 398.919 C 144.221 397.316 142.504 395.222 141.55 392.856 C 141.172 391.935 140.901 390.98 140.768 390.006 C 140.722 389.761 140.702 389.516 140.682 389.271 C 140.636 388.648 140.636 388.025 140.682 387.408 C 140.708 387.11 140.735 386.812 140.788 386.514 L 140.801 386.441 C 141.689 386.196 142.226 385.182 141.404 384.42 C 140.854 383.916 139.92 383.943 139.323 384.367 C 138.727 384.784 138.575 385.387 138.462 386.004 C 138.23 387.342 138.177 388.674 138.356 390 Z " fill="rgb(82,82,65)"/></g></g><g style="opacity:0.3;"><g opacity="0.5"><path d=" M 130.53 392.988 C 130.887 395.606 131.948 398.157 133.73 400.324 C 134.247 400.96 134.817 401.537 135.433 402.074 C 136.958 403.419 138.74 404.512 140.589 405.599 C 142.988 406.998 145.553 408.542 146.5 410.98 C 147.581 413.764 146.845 416.779 147.05 419.648 C 147.229 422.206 148.21 424.572 149.814 426.746 C 152.895 430.927 157.614 434.141 160.178 438.614 C 163.286 444.035 162.352 450.377 164.095 456.096 C 165.619 461.093 168.859 465.559 172.233 469.814 C 175.665 474.141 179.39 478.389 181.848 483.187 C 183.134 485.699 183.863 488.323 184.366 491.02 C 184.916 493.889 185.44 496.812 187.163 499.383 C 190.032 503.664 195.301 506.129 199.39 509.476 C 201.576 511.265 203.273 513.326 204.055 515.838 C 204.486 517.236 204.658 518.667 204.691 520.105 C 205.486 519.834 206.275 519.569 207.057 519.304 C 206.911 516.858 206.335 514.426 204.969 512.246 C 203.697 510.218 201.782 508.515 199.754 507.004 C 195.732 504.015 190.649 501.451 188.508 497.117 C 187.216 494.492 186.951 491.603 186.355 488.84 C 185.804 486.295 184.85 483.87 183.571 481.517 C 181.119 477.011 177.633 472.982 174.373 468.88 C 171.126 464.797 167.978 460.543 166.467 455.758 C 164.751 450.291 165.453 444.42 163.015 439.098 C 160.92 434.532 156.606 431.252 153.227 427.389 C 151.636 425.573 150.271 423.598 149.708 421.365 C 149.019 418.628 149.688 415.798 149.39 413.035 C 149.105 410.377 147.865 408.091 145.52 406.269 C 143.406 404.625 140.854 403.479 138.661 401.921 C 137.819 401.325 137.05 400.669 136.374 399.947 C 135.221 398.721 134.32 397.342 133.717 395.858 C 133.253 394.698 132.942 393.492 132.849 392.273 C 132.803 391.656 132.803 391.027 132.849 390.41 C 132.875 390.112 132.909 389.807 132.955 389.516 L 132.968 389.443 C 133.856 389.198 134.4 388.177 133.571 387.422 C 133.028 386.918 132.087 386.951 131.49 387.369 C 130.901 387.793 130.742 388.396 130.629 389.012 C 130.404 390.331 130.351 391.663 130.53 392.988 Z " fill="rgb(110,110,86)"/></g></g><g><g opacity="0.7"><path d=" M 123.545 398.906 C 123.903 401.524 124.963 404.068 126.746 406.242 C 128.124 407.919 129.86 409.211 131.756 410.397 C 132.359 410.782 132.975 411.146 133.604 411.517 C 136.003 412.915 138.568 414.459 139.516 416.898 C 140.596 419.681 139.867 422.697 140.066 425.566 C 140.251 428.124 141.225 430.483 142.829 432.657 C 145.911 436.838 150.629 440.059 153.193 444.526 C 156.308 449.94 155.367 456.288 157.11 462.007 C 158.634 467.011 161.875 471.471 165.248 475.725 C 168.681 480.052 172.405 484.3 174.863 489.098 C 176.156 491.616 176.878 494.234 177.382 496.931 C 177.932 499.801 178.455 502.723 180.178 505.288 C 183.048 509.569 188.323 512.04 192.405 515.38 C 194.592 517.17 196.295 519.224 197.07 521.742 C 197.163 522.04 197.242 522.345 197.309 522.644 C 198.051 522.378 198.8 522.12 199.555 521.855 C 199.224 520.569 198.72 519.323 197.978 518.144 C 196.706 516.116 194.797 514.413 192.763 512.909 C 188.74 509.92 183.664 507.355 181.523 503.015 C 180.225 500.397 179.96 497.508 179.37 494.738 C 178.82 492.193 177.859 489.767 176.586 487.415 C 174.135 482.909 170.642 478.879 167.382 474.777 C 164.135 470.695 160.993 466.441 159.476 461.65 C 157.759 456.189 158.462 450.318 156.023 444.99 C 153.929 440.424 149.615 437.15 146.242 433.286 C 144.645 431.464 143.28 429.496 142.716 427.263 C 142.027 424.526 142.703 421.696 142.398 418.926 C 142.113 416.269 140.874 413.989 138.528 412.167 C 136.706 410.748 134.559 409.695 132.597 408.442 C 132.279 408.237 131.968 408.031 131.663 407.819 C 129.396 406.216 127.68 404.121 126.719 401.756 C 126.255 400.596 125.944 399.39 125.851 398.171 C 125.805 397.554 125.805 396.925 125.851 396.308 C 125.877 396.004 125.911 395.705 125.964 395.407 C 125.97 395.381 125.97 395.361 125.977 395.334 C 126.865 395.082 127.395 394.075 126.58 393.313 C 126.037 392.809 125.095 392.843 124.499 393.26 C 123.909 393.677 123.75 394.287 123.644 394.897 C 123.419 396.242 123.366 397.574 123.545 398.906 Z " fill="rgb(82,82,65)"/></g></g><g><path d=" M 24.247 482.915 C 23.883 483.167 11.477 495.288 11.477 495.288 C 11.477 495.288 17.727 504.804 18.124 505.215 C 18.522 505.626 28.455 512.776 28.455 512.776 L 31.696 512.677 L 46.222 499.502 L 24.247 482.915 Z " fill="rgb(188,126,87)"/><g><g><path d=" M 27.077 524.804 L 3.426 500.443 C 3.154 500.158 3.2 499.748 3.538 499.516 L 5.745 497.998 L 30.391 523.386 L 28.184 524.903 C 27.846 525.122 27.349 525.082 27.077 524.804 Z " fill="rgb(155,155,122)"/><g><path d=" M 31.272 522.763 L 30.391 523.372 L 5.745 497.991 L 15.884 491.013 L 16.527 494.062 C 17.269 497.574 19.211 499.767 23.002 501.371 L 25.566 501.981 C 28.588 502.697 31.272 504.181 33.26 506.229 C 35.009 508.031 36.004 510.132 36.315 512.272 C 36.381 512.736 36.414 513.207 36.414 513.684 C 36.414 514.062 36.388 514.459 36.341 514.844 C 35.977 517.826 34.261 520.708 31.272 522.763 Z " fill="rgb(82,82,65)"/></g></g></g><g><path d=" M 13.313 500.463 C 13.817 500.463 14.32 500.324 14.744 500.033 L 14.744 500.033 C 15.235 499.695 15.533 499.211 15.586 498.674 C 15.639 498.157 15.454 497.653 15.069 497.263 C 14.274 496.447 12.849 496.321 11.882 496.991 C 11.391 497.329 11.093 497.813 11.04 498.349 C 10.987 498.866 11.173 499.37 11.557 499.761 C 12.001 500.225 12.657 500.463 13.313 500.463 Z  M 13.313 496.944 C 13.863 496.944 14.413 497.143 14.784 497.528 C 15.089 497.839 15.235 498.23 15.195 498.628 C 15.155 499.045 14.917 499.429 14.519 499.701 L 14.519 499.701 C 13.704 500.264 12.498 500.165 11.835 499.476 C 11.53 499.164 11.385 498.773 11.424 498.376 C 11.464 497.958 11.703 497.574 12.1 497.302 C 12.458 497.064 12.889 496.944 13.313 496.944 Z " fill="rgb(219,173,106)"/></g><g><path d=" M 23.837 514.015 C 24.334 514.015 24.831 513.876 25.248 513.591 L 25.248 513.591 C 25.732 513.26 26.03 512.783 26.083 512.253 C 26.136 511.742 25.951 511.245 25.573 510.854 C 24.791 510.046 23.379 509.926 22.425 510.583 C 21.941 510.914 21.643 511.391 21.59 511.921 C 21.537 512.431 21.723 512.928 22.1 513.319 C 22.544 513.777 23.187 514.015 23.837 514.015 Z  M 25.029 513.266 C 24.228 513.816 23.041 513.724 22.385 513.048 C 22.087 512.743 21.941 512.359 21.981 511.968 C 22.021 511.557 22.259 511.179 22.644 510.914 C 23.446 510.364 24.632 510.457 25.288 511.133 C 25.586 511.437 25.732 511.822 25.692 512.213 C 25.652 512.624 25.414 513.001 25.029 513.266 L 25.029 513.266 Z " fill="rgb(219,173,106)"/></g><g><path d=" M 31.643 509.337 C 32.041 509.337 32.438 509.224 32.77 508.999 L 32.77 508.999 C 33.161 508.734 33.393 508.349 33.439 507.925 C 33.479 507.514 33.333 507.117 33.028 506.805 C 32.405 506.162 31.279 506.063 30.516 506.587 C 30.125 506.852 29.894 507.236 29.847 507.66 C 29.807 508.071 29.953 508.469 30.258 508.78 C 30.616 509.151 31.126 509.337 31.643 509.337 Z  M 31.643 506.64 C 32.054 506.64 32.465 506.785 32.743 507.077 C 32.968 507.309 33.074 507.594 33.048 507.885 C 33.015 508.197 32.842 508.475 32.551 508.674 L 32.551 508.674 C 31.941 509.091 31.047 509.019 30.55 508.508 C 30.324 508.276 30.218 507.991 30.245 507.7 C 30.278 507.388 30.45 507.11 30.742 506.911 C 31.007 506.732 31.325 506.64 31.643 506.64 Z " fill="rgb(219,173,106)"/></g><g><path d=" M 36.395 513.028 L 36.395 513.028 C 37.534 513.333 40.503 513.068 41.729 511.901 C 42.206 511.451 42.644 510.662 42.014 509.502 C 41.385 508.343 40.397 508.104 39.681 508.104 C 37.833 508.117 35.646 509.827 35.169 510.748 C 34.923 511.219 34.903 511.742 35.122 512.14 C 35.182 512.246 35.255 512.345 35.347 512.445 C 35.593 512.703 35.964 512.909 36.395 513.028 Z  M 41.106 509.847 C 41.438 510.457 41.398 510.947 40.98 511.338 C 40.026 512.246 37.475 512.425 36.693 512.219 L 36.693 512.219 C 36.322 512.12 36.103 511.934 36.023 511.789 C 35.944 511.643 35.917 511.384 36.076 511.08 C 36.408 510.443 38.243 508.946 39.681 508.939 C 40.119 508.939 40.477 509.078 40.768 509.376 C 40.894 509.516 41.007 509.668 41.106 509.847 Z " fill="rgb(219,173,106)"/><g opacity="0.1" style="mix-blend-mode:color-burn;"><path d=" M 36.395 513.028 L 36.395 513.028 C 37.534 513.333 40.503 513.068 41.729 511.901 C 42.206 511.451 42.644 510.662 42.014 509.502 C 41.385 508.343 40.397 508.104 39.681 508.104 C 37.833 508.117 35.646 509.827 35.169 510.748 C 34.923 511.219 34.903 511.742 35.122 512.14 C 35.182 512.246 35.255 512.345 35.347 512.445 C 35.593 512.703 35.964 512.909 36.395 513.028 Z  M 41.106 509.847 C 41.438 510.457 41.398 510.947 40.98 511.338 C 40.026 512.246 37.475 512.425 36.693 512.219 L 36.693 512.219 C 36.322 512.12 36.103 511.934 36.023 511.789 C 35.944 511.643 35.917 511.384 36.076 511.08 C 36.408 510.443 38.243 508.946 39.681 508.939 C 40.119 508.939 40.477 509.078 40.768 509.376 C 40.894 509.516 41.007 509.668 41.106 509.847 Z " fill="rgb(53,53,41)"/></g></g><g><path d=" M 35.301 512.16 C 35.805 512.266 36.408 512.153 36.918 511.862 C 37.905 511.292 39.509 509.171 39.178 507.64 C 39.052 507.044 38.588 506.275 37.123 505.964 C 35.652 505.659 34.817 506.162 34.373 506.64 C 33.233 507.866 33.472 510.37 34.035 511.259 L 34.035 511.259 C 34.108 511.378 34.201 511.49 34.294 511.59 C 34.572 511.875 34.93 512.08 35.301 512.16 Z  M 38.197 507.786 C 38.449 508.979 37.037 510.775 36.355 511.166 C 36.03 511.351 35.719 511.378 35.54 511.338 C 35.361 511.298 35.102 511.159 34.917 510.867 L 34.917 510.867 C 34.532 510.258 34.274 508.117 35.162 507.156 C 35.546 506.746 36.11 506.62 36.885 506.779 C 37.355 506.878 37.7 507.037 37.925 507.269 C 38.064 507.415 38.157 507.587 38.197 507.786 Z " fill="rgb(219,173,106)"/></g><path d=" M 36.408 513.671 C 31.199 509.35 23.764 513.028 21.564 514.28 L 20.808 513.505 C 22.962 512.286 30.563 508.528 36.308 512.259 C 36.375 512.73 36.414 513.2 36.408 513.671 Z " fill="rgb(155,155,122)"/></g><path d=" M 21.305 484.492 L 24.738 488.588 L 26.123 490.238 L 26.494 490.675 L 27.872 492.319 L 29.953 494.804 L 31.338 496.454 L 31.689 496.872 L 33.074 498.515 L 34.579 500.304 L 35.911 501.888 L 43.79 511.285 C 87.793 488.396 113.339 458.442 128.137 432.266 C 142.425 406.998 146.706 385.241 147.905 376.719 L 147.905 376.706 C 148.21 374.546 148.316 373.24 148.343 372.949 C 148.349 372.902 148.349 372.882 148.349 372.882 L 147.349 373.035 L 134.539 375.003 L 132.087 375.381 L 130.298 375.652 L 127.6 376.063 L 125.811 376.335 L 122.955 376.772 L 119.204 377.349 L 115.414 377.932 L 113.598 378.21 L 110.344 378.714 L 105.48 379.463 C 98.687 381.656 84.83 416.375 84.83 416.375 C 82.471 422.538 21.305 484.492 21.305 484.492 Z " fill="rgb(229,196,148)"/><g><g opacity="0.6"><path d=" M 29.953 494.804 L 31.338 496.454 C 31.378 496.434 31.411 496.408 31.451 496.388 C 34.175 494.612 36.249 492.485 38.369 490.231 C 39.489 489.039 40.689 487.985 42.286 487.263 C 43.85 486.553 45.56 486.109 47.163 485.473 C 49.86 484.406 51.935 482.683 53.605 480.636 C 56.785 476.746 58.442 471.669 63.101 468.747 C 65.997 466.925 69.43 465.897 72.16 463.85 C 74.612 462.007 76.507 459.681 78.071 457.269 C 79.695 454.771 80.894 452.113 82.365 449.555 C 83.021 448.409 83.77 447.269 84.83 446.348 C 86.116 445.228 87.753 444.791 89.43 444.227 C 95.778 442.087 99.284 436.911 101.53 431.756 C 102.823 428.793 103.803 425.738 105.268 422.829 C 106.772 419.854 109.019 417.389 111.265 414.797 C 113.419 412.312 115.009 409.628 115.877 406.64 C 116.746 403.631 116.984 400.516 117.011 397.435 C 117.017 395.924 116.984 394.406 116.938 392.896 C 116.891 391.398 116.805 389.874 117.05 388.389 C 117.296 386.865 117.958 385.5 119.092 384.294 C 120.205 383.114 121.537 382.1 122.644 380.921 C 123.956 379.522 125.016 377.992 125.805 376.361 C 126.043 375.871 126.262 375.374 126.447 374.87 C 127.667 371.623 127.866 368.118 126.951 364.758 C 126.606 363.492 124.294 364.029 124.638 365.295 C 124.996 366.607 125.162 367.932 125.142 369.277 C 125.109 371.325 124.632 373.373 123.75 375.281 C 123.512 375.798 123.247 376.308 122.948 376.805 C 122.869 376.931 122.789 377.064 122.71 377.19 C 121.921 378.422 120.96 379.549 119.84 380.583 C 118.654 381.683 117.382 382.73 116.414 383.976 C 114.38 386.6 114.439 389.774 114.532 392.783 C 114.625 395.805 114.698 398.833 114.38 401.848 C 114.075 404.725 113.353 407.634 111.828 410.238 C 110.172 413.074 107.561 415.374 105.546 418.018 C 101.65 423.147 100.675 429.317 97.448 434.705 C 96.05 437.031 94.241 439.29 91.736 440.874 C 88.992 442.61 85.354 442.895 82.968 445.082 C 80.762 447.097 79.662 449.748 78.356 452.206 C 77.004 454.738 75.533 457.263 73.585 459.516 C 71.616 461.802 69.158 463.472 66.235 464.837 C 63.346 466.182 60.629 467.528 58.555 469.741 C 55.102 473.432 53.558 478.27 49.589 481.623 C 47.263 483.591 44.161 484.201 41.305 485.433 C 38.064 486.832 36.341 489.403 34.015 491.623 C 32.783 492.783 31.418 493.856 29.953 494.804 Z " fill="rgb(110,110,86)"/></g></g><g><g opacity="0.8"><path d=" M 34.572 500.311 L 35.904 501.895 C 36.719 501.444 37.965 500.755 38.588 500.351 C 41.312 498.575 43.386 496.447 45.506 494.194 C 46.626 493.001 47.826 491.948 49.423 491.225 C 50.987 490.516 52.697 490.072 54.3 489.436 C 56.998 488.369 59.072 486.646 60.742 484.598 C 63.923 480.708 65.579 475.632 70.238 472.71 C 73.134 470.887 76.567 469.86 79.297 467.813 C 81.749 465.97 83.644 463.644 85.208 461.232 C 86.832 458.734 88.031 456.076 89.502 453.518 C 90.158 452.372 90.907 451.232 91.968 450.311 C 93.253 449.191 94.89 448.754 96.567 448.19 C 102.915 446.05 106.421 440.874 108.667 435.719 C 109.96 432.756 110.94 429.701 112.405 426.792 C 113.909 423.817 116.156 421.351 118.402 418.76 C 120.556 416.275 122.147 413.591 123.015 410.603 C 123.883 407.594 124.121 404.479 124.148 401.398 C 124.154 399.887 124.121 398.369 124.075 396.858 C 124.029 395.361 123.942 393.837 124.188 392.352 C 124.433 390.828 125.095 389.463 126.229 388.257 C 127.342 387.077 128.674 386.063 129.781 384.884 C 131.49 383.068 132.769 381.007 133.585 378.833 C 134.048 377.594 134.367 376.315 134.526 375.023 C 134.797 372.929 134.658 370.795 134.088 368.721 C 133.744 367.455 131.431 367.992 131.775 369.257 C 132.133 370.57 132.299 371.895 132.279 373.24 C 132.266 373.963 132.2 374.691 132.08 375.401 C 131.862 376.719 131.464 378.005 130.887 379.244 C 130.589 379.9 130.245 380.536 129.847 381.153 C 129.058 382.385 128.097 383.512 126.978 384.546 C 125.791 385.646 124.519 386.693 123.551 387.939 C 121.517 390.563 121.577 393.737 121.669 396.746 C 121.762 399.768 121.835 402.796 121.517 405.811 C 121.212 408.687 120.49 411.597 118.966 414.201 C 117.309 417.037 114.698 419.337 112.683 421.981 C 108.787 427.11 107.806 433.28 104.585 438.667 C 103.187 440.994 101.378 443.253 98.873 444.837 C 96.129 446.573 92.491 446.858 90.106 449.045 C 87.899 451.06 86.799 453.711 85.493 456.169 C 84.141 458.701 82.67 461.225 80.722 463.479 C 78.754 465.765 76.295 467.435 73.373 468.8 C 70.483 470.145 67.766 471.491 65.692 473.704 C 62.239 477.395 60.695 482.233 56.726 485.586 C 54.4 487.554 51.298 488.164 48.442 489.396 C 45.202 490.795 43.479 493.366 41.153 495.586 C 39.45 497.203 36.786 499.065 34.572 500.311 Z " fill="rgb(82,82,65)"/></g></g><g><g opacity="0.8"><path d=" M 24.738 488.581 L 26.123 490.231 C 28.74 488.488 30.755 486.414 32.823 484.221 C 33.936 483.028 35.142 481.974 36.739 481.252 C 38.303 480.543 40.013 480.092 41.617 479.463 C 44.314 478.396 46.388 476.673 48.058 474.625 C 51.232 470.728 52.895 465.659 57.554 462.736 C 60.45 460.921 63.883 459.887 66.607 457.839 C 69.058 455.997 70.96 453.671 72.524 451.259 C 74.141 448.76 75.347 446.103 76.819 443.545 C 77.475 442.405 78.223 441.259 79.284 440.337 C 80.569 439.218 82.206 438.78 83.876 438.217 C 90.231 436.076 93.737 430.901 95.984 425.745 C 97.276 422.783 98.257 419.721 99.721 416.819 C 101.225 413.843 103.465 411.378 105.718 408.787 C 107.872 406.302 109.463 403.618 110.331 400.623 C 111.199 397.621 111.437 394.506 111.464 391.418 C 111.471 389.907 111.437 388.396 111.391 386.878 C 111.345 385.381 111.259 383.856 111.497 382.372 C 111.749 380.848 112.412 379.476 113.545 378.277 C 113.558 378.263 113.571 378.243 113.591 378.23 C 114.141 377.647 114.751 377.104 115.354 376.56 C 115.957 376.017 116.553 375.48 117.097 374.904 C 121.345 370.384 122.935 364.354 121.404 358.747 C 121.06 357.481 118.747 358.018 119.092 359.284 C 119.449 360.589 119.615 361.921 119.589 363.267 C 119.542 366.01 118.707 368.76 117.156 371.179 C 116.368 372.412 115.407 373.538 114.287 374.579 C 113.373 375.427 112.405 376.249 111.563 377.157 C 111.318 377.422 111.086 377.693 110.868 377.978 C 110.669 378.23 110.496 378.489 110.337 378.747 C 108.846 381.212 108.899 384.062 108.986 386.786 C 109.078 389.807 109.151 392.836 108.833 395.851 C 108.528 398.727 107.806 401.636 106.282 404.241 C 104.618 407.077 102.014 409.377 99.999 412.021 C 96.103 417.143 95.129 423.32 91.901 428.701 C 90.503 431.033 88.701 433.286 86.189 434.877 C 83.445 436.613 79.807 436.898 77.422 439.078 C 75.215 441.1 74.121 443.75 72.809 446.209 C 71.457 448.74 69.986 451.259 68.038 453.518 C 66.07 455.798 63.611 457.475 60.689 458.84 C 57.793 460.185 55.082 461.53 53.008 463.744 C 49.562 467.435 48.011 472.266 44.049 475.619 C 41.716 477.594 38.621 478.197 35.765 479.436 C 32.524 480.834 30.801 483.406 28.475 485.626 C 27.329 486.693 26.083 487.687 24.738 488.581 Z " fill="rgb(82,82,65)"/></g></g><path d=" M 123.439 346.587 L 139.96 369.522 C 141.086 371.08 143.386 371.723 145.394 371.033 L 179.893 357.236 C 184.678 355.321 188.621 352.187 191.152 348.277 L 192.504 346.189 C 194.347 342.498 192.504 332.637 192.504 332.637 C 192.193 331.199 191.338 331.173 190.655 331.424 C 190.125 331.623 189.88 332.134 190.039 332.604 C 191.205 336.09 184.446 342.843 184.446 342.843 C 186.441 336.07 183.81 335.533 183.81 335.533 C 180.775 334.195 177.189 345.056 177.103 345.261 L 149.979 351.398 C 149.211 351.61 148.416 351.643 147.66 351.504 C 147.402 351.458 147.143 351.391 146.905 351.305 C 146.156 351.047 145.486 350.609 144.996 350.026 L 134.837 337.965 L 123.439 346.587 Z " fill="rgb(188,126,87)"/><path d=" M 140.583 344.771 C 140.583 344.771 143.525 348.422 141.656 352.564 C 141.49 352.922 141.477 353.32 141.603 353.691 L 147.229 370.304 L 136.302 353.081 L 140.583 344.771 Z " fill="rgb(29,30,30)"/><path d=" M 133.624 308.356 C 133.624 308.356 136.321 310.066 133.624 315.646 C 133.624 315.646 133.154 317.634 133.591 319.874 C 134.426 324.148 134.466 328.502 133.399 332.743 L 132.471 336.421 C 132.471 336.421 116.421 334.181 116.123 333.976 C 115.957 333.863 108.76 343.393 100.921 345.235 C 98.469 345.811 95.871 345.215 93.604 344.267 C 89.721 342.65 88.137 338.688 90.066 335.427 C 92.982 330.51 97.892 323.645 103.035 322.77 C 103.757 322.65 104.386 322.253 104.738 321.676 C 105.599 320.271 107.673 317.707 111.61 317.183 C 111.61 317.183 114.539 316.58 114.015 311.431 C 114.015 311.431 112.889 303.539 123.028 301.398 C 123.035 301.398 133.624 301.067 133.624 308.356 Z " fill="rgb(179,107,62)"/><path d=" M 114.042 328.29 L 118.535 331.696 L 124.917 332.571 L 126.341 329.158 L 126.805 324.387 L 127.017 322.206 C 133.399 325.686 132.498 309.947 132.345 310.099 C 129.343 313.174 121.981 311.034 121.981 311.034 C 120.033 309.761 118.979 310.364 118.979 310.364 C 115.745 313.313 119.277 314.314 119.277 314.314 L 118.303 318.191 L 114.042 328.29 Z " fill="rgb(188,126,87)"/><path d=" M 113.068 297.468 C 107.335 301.55 112.279 305.99 115.897 306.415 C 117.508 306.607 119.118 306.096 120.152 305.361 C 121.186 304.625 122.093 303.34 122.239 301.895 C 122.571 298.661 118.8 293.386 113.068 297.468 Z " fill="rgb(179,107,62)"/><path d=" M 100.921 340.603 L 101.206 344.519 L 103.81 380.51 L 148.343 372.889 L 146.732 369.145 L 146.48 368.568 L 145.447 366.169 L 145.195 365.579 L 139.834 353.101 C 140.689 351.961 141.146 350.782 141.311 349.629 C 141.351 349.377 141.371 349.125 141.384 348.873 L 141.384 348.866 C 141.424 348.018 141.318 347.19 141.119 346.388 C 141.06 346.143 140.987 345.904 140.907 345.666 C 140.443 344.214 139.688 342.896 138.946 341.835 C 138.866 341.716 138.78 341.597 138.694 341.484 C 137.687 340.099 136.779 339.238 136.779 339.238 L 135.52 337.912 L 135.215 337.594 L 126.381 328.297 L 115.367 325.149 L 113.379 328.913 L 113.041 329.231 L 109.681 332.379 L 109.343 332.69 L 106.375 335.474 L 106.043 335.785 L 102.617 338.999 L 102.286 339.304 L 100.921 340.603 Z " fill="rgb(155,155,122)"/><path d=" M 106.673 359.98 C 106.673 360.344 109.178 378.588 109.734 371.312 C 109.748 371.139 109.767 370.967 109.787 370.788 C 109.873 370.033 110.013 369.244 110.192 368.429 C 110.218 368.27 110.258 368.111 110.291 367.952 C 110.569 366.759 110.927 365.526 111.318 364.3 C 111.371 364.148 111.424 363.996 111.471 363.843 C 113.306 358.35 115.891 353.267 115.891 353.267 C 115.891 353.267 111.802 349.516 111.709 349.145 C 111.61 348.78 106.673 359.609 106.673 359.98 Z " fill="rgb(29,30,30)"/><g><path d=" M 92.544 355.487 L 92.717 358.866 L 92.73 359.178 L 94.612 395.838 C 94.678 396.984 95.341 398.058 96.481 398.681 C 97.263 399.112 98.237 399.317 99.264 398.767 C 99.277 398.767 99.284 398.767 99.29 398.76 C 99.323 398.74 99.357 398.727 99.39 398.707 C 99.39 398.707 102.531 400.278 104.029 398.581 C 104.029 398.581 104.035 398.575 104.042 398.575 C 104.068 398.535 104.101 398.502 104.128 398.462 C 104.128 398.462 105.765 398.263 106.984 397.733 C 108.018 397.283 108.21 396.136 107.448 395.401 C 106.885 394.85 106.885 394.85 106.792 393.227 C 106.792 393.227 108.462 396.209 110.563 394.744 C 110.563 394.744 112.465 393.472 108.296 389.754 L 109.43 375.162 L 109.43 375.155 L 109.463 374.665 L 109.728 371.206 L 109.767 370.702 L 109.96 368.25 L 110.006 367.66 L 110.218 364.95 L 110.258 364.354 L 110.543 360.695 C 110.834 356.885 112.557 353.253 115.46 350.318 L 117.766 347.985 L 118.184 347.561 L 118.575 347.163 L 115.274 344.645 L 114.89 344.354 L 111.517 341.782 C 111.51 341.782 111.51 341.782 111.51 341.782 L 109.257 340.059 L 109.251 340.059 L 107.753 338.919 L 107.375 338.628 L 104.552 336.481 L 102.372 338.542 L 102.014 338.88 C 102.014 338.88 102.014 338.88 102.014 338.886 L 97.375 343.273 C 96.361 344.314 95.5 345.44 94.797 346.62 C 94.671 346.832 94.552 347.044 94.439 347.256 C 93.061 349.821 92.398 352.637 92.544 355.487 Z " fill="rgb(188,126,87)"/><path d=" M 99.39 398.893 C 99.39 398.893 97.269 396.931 97.859 394.937 C 97.859 394.937 98.674 398.031 99.39 398.893 Z " fill="rgb(29,30,30)"/><path d=" M 104.128 398.648 C 104.128 398.648 101.689 397.15 102.61 394.93 C 102.61 394.937 102.743 397.541 104.128 398.648 Z " fill="rgb(29,30,30)"/></g><path d=" M 98.064 342.074 L 101.206 344.519 L 101.915 345.069 L 104.088 346.759 L 118.018 357.601 L 120.311 355.473 L 121.358 354.499 L 123.426 352.584 L 123.763 352.273 L 126.388 349.834 L 125.347 348.025 L 125.102 347.594 L 121.669 341.603 L 121.457 341.239 L 119.145 337.196 L 118.932 336.839 L 114.042 328.29 L 113.339 328.9 L 112.982 329.211 L 109.562 332.153 L 109.204 332.458 L 105.917 335.301 L 105.533 335.626 L 102.319 338.403 L 101.941 338.727 L 98.064 342.074 Z " fill="rgb(155,155,122)"/><path d=" M 129.741 429.363 L 133.85 437.746 C 141.093 429.463 146.832 385.533 148.343 372.882 C 147.19 381.086 142.743 405.347 129.741 429.363 Z " fill="rgb(29,30,30)"/><path d=" M 197.72 331.226 L 189.668 327.422 C 189.038 327.124 188.243 327.356 187.965 327.906 L 180.582 342.418 C 180.357 342.856 180.529 343.366 180.993 343.644 L 188.455 348.124 C 189.078 348.502 189.953 348.297 190.264 347.707 L 198.237 332.518 C 198.488 332.047 198.263 331.484 197.72 331.226 Z " fill="rgb(29,30,30)"/><path d=" M 197.309 330.927 L 189.456 327.157 C 188.846 326.865 188.071 327.084 187.799 327.634 L 180.649 341.948 C 180.43 342.379 180.602 342.882 181.053 343.161 L 188.329 347.594 C 188.939 347.965 189.787 347.766 190.092 347.183 L 197.819 332.206 C 198.058 331.743 197.839 331.186 197.309 330.927 Z " fill="rgb(82,82,65)"/><path d=" M 195.851 331.915 L 189.171 328.721 C 188.647 328.469 187.991 328.661 187.759 329.125 L 181.663 341.265 C 181.477 341.63 181.623 342.061 182.001 342.293 L 188.19 346.05 C 188.707 346.361 189.436 346.196 189.688 345.705 L 196.275 333.002 C 196.487 332.597 196.301 332.127 195.851 331.915 Z " fill="rgb(238,216,184)"/><g style="mix-blend-mode:hard-light;"><path d=" M 195.851 331.915 L 189.171 328.721 C 188.647 328.469 187.991 328.661 187.759 329.125 L 181.663 341.265 C 181.477 341.63 181.623 342.061 182.001 342.293 L 188.19 346.05 C 188.707 346.361 189.436 346.196 189.688 345.705 L 196.275 333.002 C 196.487 332.597 196.301 332.127 195.851 331.915 Z " fill="rgb(238,216,184)"/></g><g><linearGradient id="_lgradient_6" x1="0.46676532534891635" y1="0.22053603279422873" x2="0.5327311189745387" y2="0.5066616687854296" gradientTransform="matrix(-2.5,0,0,1.28,194.189,329.091)" gradientUnits="userSpaceOnUse"><stop offset="0%" stop-opacity="1" style="stop-color:rgb(123,91,154)"/><stop offset="43.5%" stop-opacity="1" style="stop-color:rgb(122,90,152)"/><stop offset="59.17%" stop-opacity="1" style="stop-color:rgb(117,86,145)"/><stop offset="70.34%" stop-opacity="1" style="stop-color:rgb(108,78,134)"/><stop offset="79.38%" stop-opacity="1" style="stop-color:rgb(96,68,117)"/><stop offset="87.12%" stop-opacity="1" style="stop-color:rgb(80,54,95)"/><stop offset="93.84%" stop-opacity="1" style="stop-color:rgb(61,37,68)"/><stop offset="99.89%" stop-opacity="1" style="stop-color:rgb(38,17,37)"/><stop offset="100%" stop-opacity="1" style="stop-color:rgb(38,17,36)"/></linearGradient><path d=" M 194.101 330.371 C 194.134 330.371 194.168 330.351 194.181 330.318 C 194.201 330.271 194.181 330.218 194.134 330.198 L 191.815 329.098 C 191.769 329.079 191.716 329.098 191.696 329.145 C 191.676 329.191 191.696 329.244 191.742 329.264 L 194.062 330.364 C 194.075 330.371 194.088 330.371 194.101 330.371 Z " fill="url(#_lgradient_6)"/></g><path d=" M 115.46 307.462 C 115.712 309.224 115.791 310.994 115.639 312.757 C 115.566 313.638 115.473 314.519 115.215 315.367 C 114.963 316.209 114.532 317.024 113.823 317.641 C 113.121 318.257 112.147 318.601 111.159 318.833 C 110.158 319.065 109.111 319.231 108.091 319.423 C 106.03 319.808 103.976 320.172 101.908 320.57 C 100.881 320.795 99.827 321.08 98.933 321.643 C 98.025 322.2 97.468 323.041 97.031 323.843 C 96.58 324.645 96.189 325.474 95.506 326.096 C 94.837 326.739 93.843 327.018 92.823 327.197 C 91.809 327.375 90.715 327.521 89.768 327.978 C 88.813 328.409 88.018 329.045 87.388 329.774 C 86.136 331.232 85.427 332.935 84.804 334.625 C 85.526 332.969 86.288 331.285 87.581 329.894 C 88.21 329.198 88.992 328.601 89.913 328.204 C 90.821 327.786 91.862 327.667 92.902 327.501 C 93.426 327.415 93.949 327.309 94.459 327.13 C 94.963 326.951 95.44 326.68 95.818 326.335 C 96.58 325.646 96.978 324.784 97.428 324.002 C 97.872 323.207 98.389 322.445 99.211 321.955 C 100.019 321.451 101.02 321.179 102.027 320.967 C 104.068 320.563 106.136 320.185 108.19 319.788 C 109.217 319.582 110.245 319.417 111.278 319.171 C 112.299 318.926 113.346 318.542 114.095 317.853 C 114.85 317.17 115.274 316.302 115.513 315.427 C 115.752 314.546 115.831 313.658 115.877 312.77 C 115.944 310.994 115.818 309.211 115.46 307.462 Z " fill="rgb(179,107,62)"/><path d=" M 122.272 311.994 C 122.431 313.26 122.113 314.228 120.636 314.36 C 119.158 314.493 116.686 314.089 116.534 312.823 C 116.374 311.557 117.103 309.682 118.575 309.549 C 120.052 309.423 122.113 310.729 122.272 311.994 Z " fill="rgb(188,126,87)"/><linearGradient id="_lgradient_7" x1="0.5960273972602863" y1="-1.4893742615305854" x2="0.5428375733855262" y2="-0.7800591930373365" gradientTransform="matrix(-3.386,0,0,2.169,121.199,310.965)" gradientUnits="userSpaceOnUse"><stop offset="0%" stop-opacity="1" style="stop-color:rgb(123,91,154)"/><stop offset="68.37%" stop-opacity="1" style="stop-color:rgb(62,38,70)"/><stop offset="100%" stop-opacity="1" style="stop-color:rgb(38,17,36)"/></linearGradient><path d=" M 117.813 310.974 C 117.813 310.974 120.152 312.246 121.199 313.134 C 120.51 312.419 118.767 310.835 117.813 310.974 Z " fill="url(#_lgradient_7)"/><path d=" M 132.378 313.91 L 132.544 314.367 L 133.359 318.124 C 133.426 318.429 133.333 318.76 133.068 318.979 C 132.816 319.191 132.392 319.403 131.676 319.47 L 132.378 313.91 Z " fill="rgb(188,126,87)"/><linearGradient id="_lgradient_8" x1="0.2760047247283808" y1="-0.6550115272188677" x2="0.36160725880926836" y2="-0.15563115010903272" gradientTransform="matrix(-3.547,0,0,4.489,127.017,319.891)" gradientUnits="userSpaceOnUse"><stop offset="0%" stop-opacity="1" style="stop-color:rgb(251,82,87)"/><stop offset="0.8663237%" stop-opacity="1" style="stop-color:rgb(248,81,86)"/><stop offset="21.37%" stop-opacity="1" style="stop-color:rgb(185,62,71)"/><stop offset="40.98%" stop-opacity="1" style="stop-color:rgb(133,46,59)"/><stop offset="59.160000000000004%" stop-opacity="1" style="stop-color:rgb(92,33,49)"/><stop offset="75.61%" stop-opacity="1" style="stop-color:rgb(62,24,42)"/><stop offset="89.77000000000001%" stop-opacity="1" style="stop-color:rgb(44,19,38)"/><stop offset="100%" stop-opacity="1" style="stop-color:rgb(38,17,36)"/></linearGradient><path d=" M 126.805 324.38 L 127.017 322.2 C 127.017 322.2 124.85 321.034 123.817 319.953 C 123.697 319.827 123.452 319.907 123.472 320.073 C 123.604 321.073 124.194 323.101 126.805 324.38 Z " fill="url(#_lgradient_8)"/><path d=" M 146.182 355.242 C 146.182 355.242 146.838 353.234 147.667 351.491 C 147.408 351.444 147.15 351.378 146.911 351.292 C 146.156 352.326 145.652 353.678 146.182 355.242 Z " fill="rgb(29,30,30)"/></g><path d=" M 92.544 355.487 L 92.717 358.866 C 95.732 358.502 98.064 355.937 98.064 352.829 C 98.064 350.338 96.573 348.204 94.439 347.256 C 93.061 349.821 92.398 352.637 92.544 355.487 Z " fill="rgb(29,30,30)"/></g><defs><filter id="tBn25tPHLG47Wq5s2261CBdj9NdtkvLU" x="-200%" y="-200%" width="400%" height="400%" filterUnits="objectBoundingBox" color-interpolation-filters="sRGB"><feGaussianBlur xmlns="http://www.w3.org/2000/svg" in="SourceGraphic" stdDeviation="2.146804531419514"/><feOffset xmlns="http://www.w3.org/2000/svg" dx="0" dy="0" result="pf_100_offsetBlur"/><feFlood xmlns="http://www.w3.org/2000/svg" flood-color="#000000" flood-opacity="0.75"/><feComposite xmlns="http://www.w3.org/2000/svg" in2="pf_100_offsetBlur" operator="in" result="pf_100_dropShadow"/><feBlend xmlns="http://www.w3.org/2000/svg" in="SourceGraphic" in2="pf_100_dropShadow" mode="normal"/></filter></defs><g><g opacity="0.9"><mask id="_mask_2g6A2hNRPoIrz21JN0OsskRJTzjR4O2u"><path d=" M 297.863 40.358 C 300.91 40.489 304.019 41.059 307.098 42.082 C 323.487 47.53 332.861 63.785 328.016 78.358 C 326.637 82.506 324.254 86.074 321.175 88.933 C 320.553 89.7 319.818 90.285 318.9 90.81 C 315.172 93.579 310.684 95.448 305.842 96.242 C 305.012 96.518 304.327 96.691 303.773 96.78 C 297.982 98.182 291.785 98.291 285.58 96.864 C 285.182 96.773 284.789 96.657 284.394 96.553 C 276.272 112.334 258.227 121.238 240.139 117.079 C 221.942 112.896 209.561 96.833 209.29 78.957 C 200.638 84.396 189.924 86.541 179.179 84.071 C 157.787 79.153 144.423 57.811 149.344 36.406 C 149.383 36.234 149.422 36.066 149.461 35.898 C 149.499 35.73 149.538 35.562 149.577 35.39 C 154.498 13.986 175.841 0.622 197.233 5.54 C 207.978 8.01 216.679 14.619 222.088 23.29 C 230.138 7.328 248.29 -1.716 266.487 2.467 C 284.576 6.626 296.921 22.516 297.336 40.259 C 297.511 40.294 297.687 40.326 297.863 40.358 Z " fill="white" stroke="none"/></mask><path d=" M 297.863 40.358 C 300.91 40.489 304.019 41.059 307.098 42.082 C 323.487 47.53 332.861 63.785 328.016 78.358 C 326.637 82.506 324.254 86.074 321.175 88.933 C 320.553 89.7 319.818 90.285 318.9 90.81 C 315.172 93.579 310.684 95.448 305.842 96.242 C 305.012 96.518 304.327 96.691 303.773 96.78 C 297.982 98.182 291.785 98.291 285.58 96.864 C 285.182 96.773 284.789 96.657 284.394 96.553 C 276.272 112.334 258.227 121.238 240.139 117.079 C 221.942 112.896 209.561 96.833 209.29 78.957 C 200.638 84.396 189.924 86.541 179.179 84.071 C 157.787 79.153 144.423 57.811 149.344 36.406 C 149.383 36.234 149.422 36.066 149.461 35.898 C 149.499 35.73 149.538 35.562 149.577 35.39 C 154.498 13.986 175.841 0.622 197.233 5.54 C 207.978 8.01 216.679 14.619 222.088 23.29 C 230.138 7.328 248.29 -1.716 266.487 2.467 C 284.576 6.626 296.921 22.516 297.336 40.259 C 297.511 40.294 297.687 40.326 297.863 40.358 Z " fill="rgb(230,198,151)"/><path d=" M 297.863 40.358 C 300.91 40.489 304.019 41.059 307.098 42.082 C 323.487 47.53 332.861 63.785 328.016 78.358 C 326.637 82.506 324.254 86.074 321.175 88.933 C 320.553 89.7 319.818 90.285 318.9 90.81 C 315.172 93.579 310.684 95.448 305.842 96.242 C 305.012 96.518 304.327 96.691 303.773 96.78 C 297.982 98.182 291.785 98.291 285.58 96.864 C 285.182 96.773 284.789 96.657 284.394 96.553 C 276.272 112.334 258.227 121.238 240.139 117.079 C 221.942 112.896 209.561 96.833 209.29 78.957 C 200.638 84.396 189.924 86.541 179.179 84.071 C 157.787 79.153 144.423 57.811 149.344 36.406 C 149.383 36.234 149.422 36.066 149.461 35.898 C 149.499 35.73 149.538 35.562 149.577 35.39 C 154.498 13.986 175.841 0.622 197.233 5.54 C 207.978 8.01 216.679 14.619 222.088 23.29 C 230.138 7.328 248.29 -1.716 266.487 2.467 C 284.576 6.626 296.921 22.516 297.336 40.259 C 297.511 40.294 297.687 40.326 297.863 40.358 Z " fill="rgb(230,198,151)" mask="url(#_mask_2g6A2hNRPoIrz21JN0OsskRJTzjR4O2u)" vector-effect="non-scaling-stroke" stroke-width="10" stroke="rgb(238,216,184)" stroke-opacity="0.6" stroke-linejoin="miter" stroke-linecap="square" stroke-miterlimit="3"/></g><g opacity="0.85"><mask id="_mask_ZE4gkVacyqew4BXeBlCl1GMSNMMqny7j"><path d=" M 282.286 158.968 C 281.056 157.644 279.561 156.574 277.827 155.81 C 268.594 151.742 256.061 157.869 249.856 169.483 C 248.089 172.79 247.025 176.186 246.616 179.448 C 246.429 180.23 246.385 180.946 246.444 181.707 C 246.331 185.212 247.004 188.488 248.405 191.236 C 248.568 191.797 248.732 192.225 248.893 192.538 C 250.319 196.115 252.613 199.049 255.757 200.998 C 255.959 201.123 256.172 201.23 256.379 201.346 C 254.631 205.666 253.177 208.961 252.785 214.469 C 252.668 223.464 256.671 229.701 261.856 235.001 C 271.077 240.718 285.439 240.813 295.41 229.438 C 295.694 236.935 297.787 238.555 303.231 241.931 C 314.071 248.651 330.929 241.095 340.876 225.049 C 340.956 224.921 341.034 224.794 341.112 224.668 C 341.191 224.543 341.269 224.417 341.348 224.288 C 351.296 208.243 352.015 188.786 341.174 182.065 C 336.478 178.71 332.995 178.301 326.302 178.398 C 332.056 164.409 324.341 154.803 315.12 149.086 C 305.954 143.404 292.494 147.923 282.541 159.147 C 282.455 159.089 282.37 159.028 282.286 158.968 Z " fill="white" fill-opacity="0.9" stroke="none"/></mask><path d=" M 282.286 158.968 C 281.056 157.644 279.561 156.574 277.827 155.81 C 268.594 151.742 256.061 157.869 249.856 169.483 C 248.089 172.79 247.025 176.186 246.616 179.448 C 246.429 180.23 246.385 180.946 246.444 181.707 C 246.331 185.212 247.004 188.488 248.405 191.236 C 248.568 191.797 248.732 192.225 248.893 192.538 C 250.319 196.115 252.613 199.049 255.757 200.998 C 255.959 201.123 256.172 201.23 256.379 201.346 C 254.631 205.666 253.177 208.961 252.785 214.469 C 252.668 223.464 256.671 229.701 261.856 235.001 C 271.077 240.718 285.439 240.813 295.41 229.438 C 295.694 236.935 297.787 238.555 303.231 241.931 C 314.071 248.651 330.929 241.095 340.876 225.049 C 340.956 224.921 341.034 224.794 341.112 224.668 C 341.191 224.543 341.269 224.417 341.348 224.288 C 351.296 208.243 352.015 188.786 341.174 182.065 C 336.478 178.71 332.995 178.301 326.302 178.398 C 332.056 164.409 324.341 154.803 315.12 149.086 C 305.954 143.404 292.494 147.923 282.541 159.147 C 282.455 159.089 282.37 159.028 282.286 158.968 Z " fill="rgb(238,216,184)" fill-opacity="0.9"/><path d=" M 282.286 158.968 C 281.056 157.644 279.561 156.574 277.827 155.81 C 268.594 151.742 256.061 157.869 249.856 169.483 C 248.089 172.79 247.025 176.186 246.616 179.448 C 246.429 180.23 246.385 180.946 246.444 181.707 C 246.331 185.212 247.004 188.488 248.405 191.236 C 248.568 191.797 248.732 192.225 248.893 192.538 C 250.319 196.115 252.613 199.049 255.757 200.998 C 255.959 201.123 256.172 201.23 256.379 201.346 C 254.631 205.666 253.177 208.961 252.785 214.469 C 252.668 223.464 256.671 229.701 261.856 235.001 C 271.077 240.718 285.439 240.813 295.41 229.438 C 295.694 236.935 297.787 238.555 303.231 241.931 C 314.071 248.651 330.929 241.095 340.876 225.049 C 340.956 224.921 341.034 224.794 341.112 224.668 C 341.191 224.543 341.269 224.417 341.348 224.288 C 351.296 208.243 352.015 188.786 341.174 182.065 C 336.478 178.71 332.995 178.301 326.302 178.398 C 332.056 164.409 324.341 154.803 315.12 149.086 C 305.954 143.404 292.494 147.923 282.541 159.147 C 282.455 159.089 282.37 159.028 282.286 158.968 Z " fill="rgb(238,216,184)" fill-opacity="0.9" mask="url(#_mask_ZE4gkVacyqew4BXeBlCl1GMSNMMqny7j)" vector-effect="non-scaling-stroke" stroke-width="8" stroke="rgb(230,198,151)" stroke-opacity="0.5" stroke-linejoin="miter" stroke-linecap="square" stroke-miterlimit="3"/></g></g><defs><filter id="lTSM9Eorz6FvOlMTZWrAJdK9GJkIL0zb" x="-200%" y="-200%" width="400%" height="400%" filterUnits="objectBoundingBox" color-interpolation-filters="sRGB"><feGaussianBlur xmlns="http://www.w3.org/2000/svg" in="SourceGraphic" stdDeviation="0.42936090628390283"/><feOffset xmlns="http://www.w3.org/2000/svg" dx="0.5" dy="0.7" result="pf_100_offsetBlur"/><feFlood xmlns="http://www.w3.org/2000/svg" flood-color="#FFCB69" flood-opacity="1"/><feComposite xmlns="http://www.w3.org/2000/svg" in2="pf_100_offsetBlur" operator="in" result="pf_100_dropShadow"/><feBlend xmlns="http://www.w3.org/2000/svg" in="SourceGraphic" in2="pf_100_dropShadow" mode="normal"/></filter></defs><g filter="url(#lTSM9Eorz6FvOlMTZWrAJdK9GJkIL0zb)"><g clip-path="url(#_clipPath_9LIHVye2qFSruQ0tBee3ARVjMdCwm5WZ)"><text transform="matrix(1,0.026,-0.026,1,196.935,135.394)" style="font-family:'Sogeh Thin';font-weight:400;font-size:18px;font-style:normal;fill:#ffeccc;stroke:none;">page not found...</text></g><defs><clipPath id="_clipPath_9LIHVye2qFSruQ0tBee3ARVjMdCwm5WZ"><rect x="0" y="0" width="151.341" height="18" transform="matrix(1,0.026,-0.026,1,193.647,121.803)"/></clipPath></defs></g><g clip-path="url(#_clipPath_m02epC6iky6yoHaThTa5Fcb2FicrMd3Q)"><text transform="matrix(0.995,0.105,-0.105,0.995,184.784,58.941)" style="font-family:'Sogeh Black';font-weight:400;font-size:36px;font-style:normal;fill:#797d62;stroke:none;">Uh Oh!</text></g><defs><clipPath id="_clipPath_m02epC6iky6yoHaThTa5Fcb2FicrMd3Q"><rect x="0" y="0" width="110.687" height="47.388" transform="matrix(0.995,0.105,-0.105,0.995,184.226,26.009)"/></clipPath></defs></g></svg>