<?xml version="1.0" encoding="UTF-8" standalone="no"?><!-- Generator: Gravit.io --><svg xmlns="http://www.w3.org/2000/svg" xmlns:xlink="http://www.w3.org/1999/xlink" style="isolation:isolate" viewBox="0 0 120 120" width="120pt" height="120pt"><defs><clipPath id="_clipPath_yvDWaThx894it15gUwczvQ50xKQUrG1F"><rect width="120" height="120"/></clipPath></defs><g clip-path="url(#_clipPath_yvDWaThx894it15gUwczvQ50xKQUrG1F)"><path d=" M 26.59 116.372 C 26.556 116.368 26.533 116.354 26.498 116.354 C 24.676 116.326 22.842 116.279 21.02 116.22 C 21.295 116.087 21.478 115.692 21.318 115.386 C 20.688 114.198 20.023 113.035 19.347 111.883 C 19.862 112.364 20.355 112.867 20.894 113.336 C 21.352 113.744 22.166 113.217 21.788 112.64 C 18.304 107.272 14.819 101.902 11.347 96.533 C 15.324 100.888 19.312 105.243 23.301 109.598 C 23.736 110.073 24.561 109.451 24.195 108.904 C 20.011 102.544 15.817 96.185 11.622 89.827 C 15.392 93.986 19.163 98.144 22.945 102.303 C 23.369 102.782 24.195 102.157 23.839 101.609 C 21.627 98.203 19.415 94.795 17.203 91.388 C 19.083 93.142 21.089 94.766 23.266 96.215 C 23.736 96.535 24.344 95.906 24.046 95.431 C 20.86 90.391 17.673 85.351 14.487 80.311 C 17.054 83.367 19.61 86.424 22.166 89.481 C 22.59 89.981 23.415 89.333 23.071 88.786 C 21.18 85.771 19.301 82.756 17.421 79.741 C 19.335 81.514 21.433 83.1 23.713 84.47 C 24.241 84.788 24.722 84.175 24.493 83.686 C 22.968 80.336 21.261 77.083 19.404 73.924 C 19.943 74.603 20.493 75.282 21.043 75.961 C 21.455 76.49 22.223 75.817 21.937 75.266 C 19.782 71.121 17.639 66.975 15.484 62.829 C 17.008 64.776 18.613 66.661 20.332 68.453 C 20.722 68.849 21.49 68.445 21.295 67.895 C 19.943 64.008 18.155 60.343 15.988 56.912 C 17.948 58.634 20 60.254 22.177 61.728 C 22.647 62.046 23.289 61.414 22.968 60.946 C 19.839 56.33 16.722 51.716 13.593 47.102 C 16.665 50.007 19.725 52.914 22.796 55.82 C 23.175 56.187 23.965 55.827 23.748 55.263 C 22.842 52.841 21.776 50.516 20.562 48.272 C 21.753 49.291 23.014 50.233 24.367 51.076 C 24.882 51.39 25.421 50.779 25.157 50.292 C 24.55 49.157 23.931 48.021 23.324 46.886 C 24 47.677 24.665 48.469 25.329 49.26 C 25.811 49.825 26.613 49.01 26.143 48.449 C 24.309 46.279 22.475 44.109 20.642 41.938 C 20.206 41.426 19.45 42.08 19.748 42.633 C 20.848 44.686 21.948 46.738 23.049 48.791 C 21.261 47.48 19.645 46 18.212 44.338 C 17.284 42.918 16.286 41.535 15.221 40.193 C 15.221 40.192 15.221 40.19 15.221 40.189 C 15.221 40.189 15.221 40.189 15.221 40.189 C 15.186 40.151 15.163 40.111 15.129 40.073 C 15.06 39.984 14.968 39.942 14.888 39.917 C 19.289 39.979 23.702 40.043 28.103 40.106 C 27.599 65.528 27.094 90.95 26.59 116.372 L 26.59 116.372 L 26.59 116.372 Z  M 6.693 115.44 C 6.716 113.8 6.728 112.16 6.739 110.521 C 7.232 111.021 7.679 111.542 8.08 112.087 C 7.713 112.176 7.427 112.677 7.759 113.061 C 8.504 113.921 9.261 114.779 10.017 115.639 C 10.029 115.651 10.04 115.656 10.052 115.667 C 8.951 115.593 7.851 115.521 6.739 115.435 C 6.728 115.433 6.716 115.44 6.693 115.44 L 6.693 115.44 L 6.693 115.44 Z  M 7.519 90.658 C 7.335 90.453 7.072 90.458 6.877 90.566 C 6.888 88.632 6.9 86.7 6.911 84.767 C 11.026 91.003 15.14 97.24 19.255 103.477 C 15.335 99.204 11.427 94.93 7.519 90.658 L 7.519 90.658 L 7.519 90.658 Z  M 10.968 115.08 C 10.728 114.431 10.453 113.825 10.143 113.24 C 10.98 113.915 11.805 114.59 12.63 115.265 C 13.089 115.639 13.948 115.135 13.524 114.57 C 12.527 113.227 11.519 111.884 10.51 110.541 C 12.149 111.981 13.776 113.421 15.404 114.862 C 15.862 115.266 16.699 114.732 16.309 114.167 C 15.427 112.904 14.544 111.64 13.662 110.377 C 15.805 112.455 18.097 114.39 20.539 116.17 C 20.562 116.188 20.584 116.191 20.607 116.205 C 17.306 116.094 14.006 115.93 10.705 115.713 C 10.923 115.587 11.072 115.345 10.968 115.08 L 10.968 115.08 L 10.968 115.08 Z  M 6.751 107.417 C 7.771 108.77 8.779 110.122 9.788 111.475 C 8.94 110.781 8.092 110.089 7.244 109.396 C 7.083 109.265 6.9 109.241 6.739 109.274 C 6.751 108.655 6.751 108.036 6.751 107.417 L 6.751 107.417 L 6.751 107.417 Z  M 16.584 107.517 C 14.178 103.967 11.507 100.599 8.573 97.436 C 8.126 96.965 7.312 97.583 7.668 98.13 C 10.052 101.742 12.745 105.093 15.679 108.229 C 16.837 109.942 17.937 111.697 18.968 113.499 C 14.98 110.315 11.381 106.703 8.263 102.632 C 7.817 102.063 6.842 102.596 7.266 103.211 C 9.043 105.762 10.831 108.314 12.607 110.865 C 10.785 109.255 8.963 107.644 7.14 106.035 C 7.026 105.939 6.9 105.899 6.762 105.899 C 6.797 101.176 6.831 96.452 6.865 91.73 C 10.659 97.579 14.453 103.428 18.246 109.276 C 17.673 108.707 17.135 108.105 16.584 107.517 L 16.584 107.517 L 16.584 107.517 Z  M 7.198 39.805 C 9.673 39.841 12.149 39.876 14.636 39.912 C 14.304 39.999 14.017 40.405 14.235 40.768 C 15.152 42.309 16.195 43.741 17.341 45.072 C 19.026 47.647 20.47 50.355 21.685 53.194 C 17.983 49.685 14.281 46.174 10.579 42.665 C 10.132 42.234 9.307 42.8 9.685 43.359 L 20.16 58.839 C 17.203 56.602 14.476 54.115 11.977 51.377 C 11.244 50.503 10.499 49.642 9.719 48.812 C 9.203 48.265 8.447 49.063 8.905 49.622 C 9.605 50.472 10.338 51.277 11.072 52.084 C 14.43 56.11 17.123 60.573 19.129 65.415 C 16.046 61.94 13.318 58.202 10.991 54.166 C 10.613 53.524 9.662 54.092 9.994 54.745 C 12.756 60.063 15.519 65.382 18.281 70.701 C 15.484 67.211 12.676 63.722 9.88 60.233 C 9.41 59.658 8.619 60.473 9.066 61.043 C 14.43 67.611 18.945 74.761 22.613 82.39 C 19.278 80.135 16.39 77.395 13.983 74.235 C 12.733 72.243 11.496 70.25 10.246 68.259 C 9.857 67.629 8.928 68.179 9.261 68.837 C 10.327 70.99 11.61 73.002 13.031 74.885 C 14.602 77.388 16.16 79.891 17.719 82.393 C 15.094 79.254 12.47 76.115 9.845 72.975 C 9.421 72.476 8.596 73.124 8.94 73.67 C 13.135 80.3 17.318 86.929 21.513 93.559 C 18.556 91.31 15.92 88.723 13.604 85.858 C 11.862 83.183 10.132 80.508 8.39 77.833 C 7.988 77.213 7.06 77.752 7.404 78.41 C 8.894 81.326 10.67 84.038 12.688 86.544 C 14.785 89.779 16.894 93.013 18.991 96.247 L 7.461 83.539 C 7.312 83.369 7.106 83.343 6.923 83.399 C 7.026 68.918 7.117 54.437 7.221 39.954 C 7.221 39.898 7.209 39.853 7.198 39.805 L 7.198 39.805 L 7.198 39.805 Z  M 92.641 115.313 C 92.71 114.086 92.744 112.856 92.802 111.628 C 92.825 111.726 92.859 111.824 92.951 111.915 C 94.085 113.022 95.22 114.13 96.355 115.237 C 96.836 115.704 97.547 115.116 97.249 114.543 C 96.572 113.193 95.885 111.844 95.209 110.494 C 96.71 111.938 98.234 113.381 99.736 114.825 C 100.205 115.267 100.985 114.702 100.641 114.13 C 99.243 111.789 97.845 109.447 96.458 107.106 C 98.784 109.491 101.122 111.876 103.461 114.262 C 103.907 114.718 104.721 114.122 104.366 113.568 C 103.036 111.54 101.718 109.511 100.401 107.484 C 102.83 109.911 105.501 112.099 108.4 114.032 C 108.882 114.35 109.489 113.722 109.191 113.248 C 107.369 110.416 105.547 107.584 103.724 104.752 C 106.635 107.95 109.764 110.937 113.157 113.672 C 113.615 114.048 114.441 113.564 114.051 112.977 C 110.544 107.699 107.037 102.42 103.529 97.142 C 106.589 100.891 109.65 104.642 112.698 108.391 C 113.111 108.89 113.982 108.225 113.604 107.697 C 108.526 100.64 103.85 93.329 99.552 85.786 C 103.713 91.328 108.125 96.681 112.813 101.806 C 113.271 102.31 113.982 101.671 113.707 101.113 C 110.303 94.202 106.635 87.428 102.773 80.768 C 105.684 84.286 108.824 87.62 112.183 90.749 C 112.675 91.211 113.351 90.635 113.088 90.055 C 110.383 84.163 107.449 78.39 104.309 72.729 C 104.676 73.16 105.031 73.608 105.409 74.032 C 106.005 74.848 106.601 75.664 107.197 76.48 C 107.392 76.748 107.69 76.78 107.919 76.681 C 109.374 78.16 110.853 79.607 112.412 80.981 C 112.801 81.322 113.592 81.002 113.374 80.423 C 112.114 77.152 110.853 73.881 109.604 70.61 L 111.965 74.74 C 112.332 75.381 113.317 74.804 112.951 74.163 C 112.355 73.115 111.759 72.068 111.162 71.02 L 112.32 72.496 C 112.733 73.015 113.535 72.351 113.226 71.802 C 108.194 63.163 103.174 54.525 98.143 45.887 C 102.647 51.607 107.14 57.326 111.632 63.045 C 111.988 63.485 112.813 63.007 112.595 62.488 C 111.243 59.231 109.753 56.036 108.194 52.885 C 109.478 54.805 110.762 56.724 112.045 58.643 C 112.446 59.254 113.443 58.681 113.031 58.065 C 109.294 52.481 105.558 46.899 101.822 41.316 C 101.42 40.71 100.446 41.259 100.836 41.895 C 104.148 47.334 107.105 52.965 109.718 58.763 C 104.458 52.076 99.197 45.389 93.948 38.703 C 93.535 38.182 92.721 38.848 93.042 39.397 C 98.085 48.056 103.117 56.714 108.16 65.374 C 107.873 65.018 107.598 64.661 107.312 64.305 C 107.174 64.061 107.037 63.815 106.887 63.57 C 106.807 63.425 106.681 63.348 106.532 63.319 C 100.435 55.585 94.337 47.849 88.24 40.115 C 87.828 39.591 87.037 40.259 87.346 40.809 L 102.635 68.293 C 96.217 59.477 89.787 50.661 83.358 41.845 C 82.934 41.262 81.994 41.772 82.372 42.424 C 86.005 48.672 89.638 54.92 93.26 61.168 C 89.913 56.695 86.567 52.22 83.22 47.747 C 82.234 46.304 81.191 44.897 80.068 43.535 C 79.667 43.037 78.785 43.707 79.174 44.229 C 80.24 45.659 81.306 47.089 82.383 48.518 C 84.951 52.307 87.037 56.379 88.641 60.693 C 83.369 55.926 79.209 50.171 76.355 43.614 C 76.045 42.939 75.083 43.526 75.369 44.192 C 77.363 48.579 79.369 52.966 81.375 57.354 C 77.822 53.995 75.06 49.982 73.215 45.403 C 73.192 45.349 73.169 45.295 73.146 45.243 C 73.088 45.087 72.962 45.005 72.825 44.975 C 78.509 39.912 85.352 36.126 93.226 36.808 C 102.509 37.612 109.272 45.374 112.263 53.691 C 115.655 63.169 115.151 73.625 115.266 83.539 C 115.392 94.344 115.506 105.148 115.633 115.953 C 107.965 115.739 100.309 115.526 92.641 115.313 L 92.641 115.313 L 92.641 115.313 Z  M 93.592 107.373 C 93.398 107.185 93.168 107.176 92.974 107.263 C 93.008 106.049 93.019 104.835 93.042 103.621 C 94.532 106.114 96.011 108.609 97.501 111.103 C 96.194 109.86 94.899 108.616 93.592 107.373 L 93.592 107.373 L 93.592 107.373 Z  M 92.939 108.552 C 93.524 109.704 94.108 110.855 94.681 112.005 C 94.383 111.705 94.074 111.405 93.764 111.103 C 93.409 110.753 92.928 111.02 92.813 111.388 C 92.859 110.442 92.905 109.498 92.939 108.552 L 92.939 108.552 L 92.939 108.552 Z  M 106.051 64.537 C 107.827 69.18 109.615 73.825 111.403 78.468 C 110.016 77.172 108.675 75.837 107.38 74.455 L 91.805 46.477 C 96.561 52.496 101.306 58.517 106.051 64.537 L 106.051 64.537 L 106.051 64.537 Z  M 91.598 71.959 C 91.197 68.589 90.509 65.121 88.332 62.407 C 86.957 60.682 85.271 59.681 83.495 59.269 C 82.739 57.6 81.971 55.932 81.214 54.264 C 83.61 57.468 86.383 60.387 89.512 62.975 C 89.913 63.309 90.67 63.01 90.475 62.417 C 89.719 60.134 88.825 57.922 87.805 55.771 C 91.277 60.409 94.75 65.049 98.211 69.687 C 98.647 70.262 99.587 69.764 99.209 69.108 L 88.916 51.396 C 92.424 56.219 95.942 61.042 99.461 65.865 C 99.311 66.022 99.266 66.25 99.415 66.5 C 103.529 73.405 107.3 80.508 110.739 87.775 C 105.306 82.415 100.492 76.505 96.332 70.082 C 95.942 69.466 94.945 70.033 95.346 70.661 C 100.859 79.414 105.948 88.418 110.647 97.632 C 105.134 91.337 99.976 84.754 95.231 77.855 C 94.807 77.251 93.89 77.773 94.234 78.434 C 97.638 84.958 101.329 91.319 105.294 97.505 C 102.521 94.102 99.747 90.699 96.974 87.296 C 96.561 86.793 95.713 87.45 96.08 87.991 L 110.819 110.18 C 104.847 104.849 99.69 98.723 95.461 91.877 C 95.071 91.259 94.085 91.823 94.475 92.455 C 98.521 98.754 102.567 105.053 106.612 111.351 C 101.994 107.889 98.039 103.721 94.819 98.896 C 94.406 98.287 93.421 98.852 93.822 99.475 C 95.965 102.762 98.108 106.049 100.24 109.337 C 98.131 107.18 96.011 105.022 93.902 102.865 C 93.638 102.589 93.249 102.692 93.054 102.937 C 93.123 97.387 93.042 91.835 92.744 86.287 C 92.504 81.507 92.171 76.712 91.598 71.959 L 91.598 71.959 L 91.598 71.959 Z  M 78.888 59.433 C 78.991 59.271 79.014 59.057 78.922 58.841 L 76.928 54.14 C 78.292 55.907 79.827 57.544 81.524 59.044 C 80.641 59.045 79.759 59.187 78.888 59.433 L 78.888 59.433 L 78.888 59.433 Z  M 72.733 63.526 C 67.908 69.389 66.074 77.994 65.226 85.34 C 64.24 93.902 64.79 102.53 65.604 111.093 C 61.26 105.158 56.928 99.224 52.596 93.29 C 55.782 96.854 58.968 100.416 62.154 103.98 C 62.59 104.459 63.426 103.828 63.06 103.286 C 59.106 97.412 55.151 91.539 51.197 85.666 C 54.28 89.031 57.547 92.212 61.031 95.188 C 61.524 95.608 62.235 95.089 61.925 94.494 C 59.06 88.928 55.805 83.597 52.206 78.502 C 54.647 81.005 57.1 83.508 59.541 86.011 C 59.988 86.469 60.802 85.873 60.447 85.317 C 57.088 80.108 53.73 74.898 50.372 69.689 L 61.157 81.814 C 61.593 82.302 62.395 81.671 62.063 81.12 C 58.945 76.078 55.839 71.037 52.733 65.995 C 56.332 70.386 60.183 74.567 64.286 78.51 C 64.744 78.947 65.558 78.378 65.192 77.815 C 60.871 71.151 56.561 64.485 52.24 57.82 C 56.114 62.317 60.24 66.589 64.618 70.614 C 65.088 71.04 65.891 70.493 65.524 69.921 C 62.326 64.85 59.128 59.781 55.931 54.711 C 59.805 59.466 63.908 64.033 68.252 68.391 C 68.699 68.841 69.512 68.251 69.146 67.696 C 66.28 63.347 63.404 58.998 60.527 54.649 C 63.575 58.065 66.819 61.303 70.28 64.331 C 70.773 64.759 71.484 64.228 71.186 63.637 C 68.893 59.199 66.315 54.943 63.472 50.867 C 65.214 52.967 66.876 55.131 68.412 57.404 C 68.825 58.008 69.776 57.475 69.409 56.825 C 67.335 53.148 65.272 49.472 63.197 45.795 C 63.381 45.636 63.472 45.388 63.289 45.127 C 62.338 43.711 61.386 42.295 60.435 40.878 C 60.034 40.272 59.083 40.807 59.449 41.457 C 61.054 44.324 62.67 47.192 64.286 50.06 C 61.81 47.071 59.151 44.232 56.275 41.588 C 55.725 41.084 54.991 41.842 55.461 42.398 C 60.504 48.242 64.905 54.557 68.63 61.296 C 62.177 55.299 56.481 48.574 51.633 41.185 C 51.232 40.572 50.246 41.143 50.647 41.763 L 64.699 63.037 C 59.002 56.915 53.73 50.428 48.905 43.581 C 48.481 42.987 47.518 43.527 47.908 44.159 L 62.097 66.629 C 56.252 60.926 50.865 54.779 46.005 48.196 C 45.581 47.617 44.607 48.143 45.02 48.775 C 50.441 57.138 55.851 65.501 61.272 73.866 C 55.702 68.111 50.647 61.915 46.12 55.289 C 45.707 54.687 44.745 55.232 45.134 55.868 C 49.295 62.621 53.467 69.373 57.627 76.126 C 53.856 71.877 50.074 67.629 46.292 63.38 C 45.868 62.896 45.043 63.528 45.398 64.075 C 49.066 69.771 52.733 75.466 56.401 81.161 C 53.18 77.864 49.959 74.566 46.727 71.268 C 46.2 70.729 45.467 71.517 45.925 72.078 C 51.048 78.395 55.564 85.146 59.449 92.278 C 53.925 87.278 48.94 81.758 44.515 75.737 C 44.378 75.551 44.195 75.489 44.011 75.498 C 44.034 63.454 43.828 51.41 43.381 39.373 C 43.381 39.325 43.358 39.288 43.346 39.247 C 43.369 39.249 43.381 39.26 43.415 39.26 C 50.578 39.369 57.753 39.476 64.916 39.584 C 65.81 43.197 66.177 46.841 66.04 50.557 C 66.017 51.225 66.945 51.28 67.14 50.738 C 67.197 50.708 67.243 50.676 67.289 50.62 C 68.779 48.912 70.383 47.226 72.091 45.641 C 72.103 45.656 72.103 45.669 72.103 45.684 C 72.125 45.73 72.148 45.773 72.16 45.82 L 72.16 45.82 C 73.696 49.437 75.232 53.053 76.767 56.668 C 75.381 55.185 74.131 53.591 73.008 51.899 C 72.423 50.705 71.736 49.546 70.945 48.421 C 70.521 47.82 69.616 48.336 69.959 48.998 C 70.578 50.213 71.277 51.365 72.022 52.487 C 72.733 53.952 73.306 55.48 73.73 57.074 C 72.171 55.589 70.865 53.921 69.787 52.004 C 69.421 51.361 68.435 51.938 68.79 52.582 C 70.234 55.136 72.022 57.264 74.303 59.111 C 74.75 59.472 75.381 59.139 75.266 58.554 C 75.083 57.661 74.865 56.79 74.613 55.938 C 75.667 57.194 76.79 58.407 78.028 59.536 C 78.086 59.585 78.131 59.617 78.189 59.644 C 76.137 60.373 74.223 61.727 72.733 63.526 L 72.733 63.526 L 72.733 63.526 Z  M 66.051 115.713 C 65.512 115.672 64.962 115.656 64.412 115.62 C 64.424 115.482 64.378 115.333 64.263 115.197 C 59.896 110.344 55.816 105.256 52.034 99.955 C 56.023 104.394 60.355 108.507 65.031 112.246 C 65.237 112.403 65.501 112.396 65.719 112.299 C 65.822 113.438 65.937 114.577 66.051 115.713 L 66.051 115.713 L 66.051 115.713 Z  M 43.014 115.665 C 43.014 115.636 43.037 115.613 43.037 115.582 C 43.06 114.993 43.083 114.403 43.106 113.814 C 43.977 114.339 44.836 114.863 45.707 115.386 C 46.235 115.705 46.716 115.092 46.487 114.602 C 46.2 113.981 45.902 113.36 45.616 112.738 C 46.361 113.19 47.117 113.642 47.874 114.095 C 48.366 114.395 48.94 113.802 48.653 113.311 L 46.865 110.134 L 50.441 113.024 C 50.922 113.411 51.702 112.93 51.346 112.331 C 51.002 111.749 50.659 111.166 50.315 110.583 C 51.713 111.996 53.215 113.309 54.853 114.513 C 55.312 114.852 55.954 114.186 55.633 113.729 C 54.75 112.46 53.868 111.192 52.985 109.923 C 54.681 111.647 56.435 113.32 58.303 114.886 C 58.865 115.357 59.61 114.631 59.117 114.075 C 55.69 110.268 52.584 106.227 49.776 101.97 C 53.891 106.754 58.28 111.282 62.945 115.537 C 56.309 115.169 49.662 115.192 43.014 115.665 L 43.014 115.665 L 43.014 115.665 Z  M 44.836 84.605 C 50.624 92.533 56.424 100.462 62.212 108.389 C 55.747 102.752 49.982 96.389 45.031 89.35 C 44.619 88.756 43.656 89.288 44.046 89.928 C 47.644 95.843 51.587 101.522 55.851 106.957 C 52.217 103.146 48.768 99.175 45.547 95.005 C 45.134 94.477 44.344 95.149 44.642 95.698 C 46.968 99.899 49.558 103.909 52.424 107.729 C 50.143 105.296 48.023 102.721 46.074 99.987 C 45.65 99.393 44.653 99.955 45.088 100.565 C 47.484 104.012 49.879 107.461 52.286 110.909 C 49.742 108.564 47.564 105.893 45.753 102.888 C 45.364 102.258 44.378 102.829 44.756 103.466 C 46.086 105.706 47.415 107.946 48.745 110.185 C 47.599 109.259 46.452 108.333 45.295 107.407 C 44.813 107.017 44.057 107.499 44.401 108.102 C 45.134 109.398 45.868 110.695 46.601 111.992 C 45.925 111.589 45.26 111.188 44.584 110.786 C 44.057 110.471 43.576 111.079 43.805 111.57 C 44.091 112.188 44.378 112.805 44.676 113.423 C 44.183 113.13 43.702 112.836 43.22 112.543 C 43.197 112.531 43.175 112.531 43.163 112.521 C 43.667 100.694 43.954 88.859 44.011 77.023 L 57.455 97.012 C 53.547 92.645 49.639 88.277 45.73 83.91 C 45.306 83.434 44.447 84.074 44.836 84.605 L 44.836 84.605 L 44.836 84.605 Z  M 28.94 39.168 C 28.848 39.05 28.699 38.968 28.516 38.965 C 21.352 38.862 14.189 38.76 7.026 38.657 C 6.556 38.651 6.384 39.09 6.499 39.426 C 6.269 39.481 6.074 39.653 6.074 39.954 C 5.903 65.456 5.719 90.956 5.547 116.457 C 5.547 117.156 6.556 117.185 6.671 116.56 C 6.693 116.565 6.716 116.578 6.739 116.581 C 13.318 117.096 19.908 117.402 26.498 117.5 C 26.716 117.503 26.865 117.399 26.957 117.259 C 27.289 117.359 27.713 117.187 27.725 116.737 L 29.261 39.672 C 29.272 39.408 29.123 39.243 28.94 39.168 L 28.94 39.168 L 28.94 39.168 Z  M 116.458 87.484 C 116.354 78.633 116.733 69.576 115.243 60.815 C 112.985 47.428 103.426 33.605 88.194 35.847 C 79.621 37.108 72.79 42.743 67.186 49.017 C 67.186 45.801 66.831 42.636 66.074 39.495 C 66.464 39.223 66.361 38.46 65.753 38.451 C 58.303 38.338 50.853 38.226 43.415 38.114 C 42.968 38.107 42.796 38.507 42.877 38.836 C 42.567 38.789 42.223 38.962 42.235 39.373 C 43.186 64.77 43.071 90.195 41.891 115.582 C 41.868 115.89 42.063 116.062 42.292 116.112 C 42.2 116.45 42.372 116.853 42.819 116.821 C 50.75 116.247 58.682 116.27 66.601 116.892 C 66.922 116.917 67.094 116.72 67.14 116.486 C 67.209 116.396 67.255 116.279 67.243 116.119 C 66.269 106.582 65.329 96.948 66.166 87.363 C 66.601 82.375 67.553 77.417 69.249 72.696 C 70.922 67.997 73.398 62.626 78.372 60.717 C 80.011 60.089 81.444 59.887 82.681 60.021 C 82.842 60.115 83.002 60.138 83.14 60.101 C 91.289 61.592 91.14 78.307 91.507 84.613 C 92.126 95.03 92.08 105.469 91.472 115.884 C 91.438 116.333 91.85 116.504 92.194 116.405 C 92.251 116.431 92.32 116.451 92.401 116.452 C 100.32 116.673 108.251 116.894 116.171 117.114 C 116.572 117.125 116.744 116.798 116.721 116.491 C 116.756 116.417 116.779 116.332 116.779 116.229 C 116.675 106.647 116.561 97.066 116.458 87.484 L 116.458 87.484 L 116.458 87.484 Z  M 25.444 25.125 C 20.539 29.789 12.94 29.674 8.046 25.015 C 5.937 23 4.779 20.422 4.458 17.745 C 7.198 20.836 10.132 23.703 13.306 26.349 C 13.696 26.672 14.498 26.38 14.269 25.79 C 13.902 24.851 13.49 23.943 13.043 23.055 C 14.476 24.61 15.908 26.165 17.341 27.721 C 17.788 28.201 18.579 27.582 18.246 27.026 C 17.18 25.252 16.115 23.479 15.049 21.705 C 16.745 23.471 18.59 25.115 20.573 26.627 C 21.077 27.016 21.559 26.295 21.352 25.843 C 20.137 23.188 18.762 20.628 17.249 18.153 C 19.243 20.202 21.306 22.193 23.45 24.094 C 23.839 24.437 24.63 24.114 24.412 23.537 C 23.645 21.561 22.751 19.661 21.742 17.827 C 22.98 19.009 24.263 20.16 25.593 21.25 C 26.063 21.631 26.877 21.145 26.498 20.555 C 24.561 17.545 22.636 14.536 20.711 11.526 L 26.395 17.771 C 26.831 18.255 27.633 17.631 27.301 17.077 C 25.788 14.592 24.286 12.107 22.785 9.623 C 24.275 10.865 25.753 12.106 27.243 13.348 C 27.805 13.818 28.619 13.012 28.057 12.537 L 20.928 6.579 C 20.458 6.184 19.668 6.682 20.034 7.274 C 21.112 9.067 22.2 10.86 23.278 12.654 L 16.974 5.728 C 16.539 5.25 15.725 5.873 16.069 6.422 C 18.51 10.216 20.94 14.01 23.369 17.804 C 21.776 16.342 20.286 14.788 18.854 13.18 C 17.593 11.396 16.206 9.693 14.693 8.077 C 14.258 7.613 13.398 8.238 13.788 8.772 C 13.822 8.811 13.845 8.847 13.88 8.888 L 13.88 8.888 C 13.88 8.89 13.88 8.891 13.88 8.893 C 15.163 10.64 16.539 12.297 17.971 13.901 C 19.645 16.278 21.089 18.805 22.304 21.472 C 18.051 17.535 14.109 13.313 10.499 8.771 C 10.017 8.201 9.238 9.015 9.696 9.582 C 13.467 14.05 16.653 18.901 19.255 24.113 C 15.92 21.275 13.043 17.999 10.636 14.353 C 9.903 13.129 9.169 11.904 8.424 10.68 C 8.046 10.046 7.095 10.608 7.438 11.258 C 8.115 12.517 8.86 13.729 9.627 14.909 C 11.209 17.542 12.791 20.175 14.372 22.807 C 12.859 21.162 11.347 19.517 9.822 17.873 C 8.688 16.387 7.404 14.995 5.983 13.705 C 5.444 13.208 4.676 13.97 5.18 14.515 C 6.43 15.879 7.69 17.244 8.951 18.608 C 10.201 20.234 11.266 21.982 12.172 23.847 C 9.994 21.919 7.943 19.878 5.994 17.728 C 6.086 17.491 6.052 17.207 5.776 17.032 C 5.421 16.799 5.054 16.568 4.699 16.335 C 4.584 16.263 4.481 16.246 4.378 16.251 C 4.378 12.897 5.685 9.517 8.149 6.993 C 13.18 2.505 21.169 2.376 25.88 7.434 C 30.579 12.472 30.441 20.374 25.444 25.125 L 25.444 25.125 Z  M 26.968 6.933 C 21.868 1.122 12.94 1.183 7.335 6.183 C 2.201 11.444 1.65 20.154 6.946 25.541 C 12.229 30.917 20.802 31.145 26.258 25.935 C 31.61 20.816 31.828 12.479 26.968 6.933 L 26.968 6.933 Z " fill-rule="evenodd" fill="rgb(254,234,203)"/></g></svg>