<?xml version="1.0" encoding="UTF-8" standalone="no"?><!-- Generator: Gravit.io --><svg xmlns="http://www.w3.org/2000/svg" xmlns:xlink="http://www.w3.org/1999/xlink" style="isolation:isolate" viewBox="0 0 120 120" width="120pt" height="120pt"><defs><clipPath id="_clipPath_OX012QL2E257dmEJY2QEWqonEvvDFHhd"><rect width="120" height="120"/></clipPath></defs><g clip-path="url(#_clipPath_OX012QL2E257dmEJY2QEWqonEvvDFHhd)"><path d=" M 30.543 29.329 C 31.523 25.541 32.58 21.773 33.708 18.027 C 33.651 18.648 33.593 19.279 33.533 19.9 C 33.401 19.952 33.293 20.055 33.255 20.221 C 32.961 21.556 32.625 22.871 32.279 24.185 C 31.7 25.903 31.121 27.611 30.543 29.329 L 30.543 29.329 Z  M 104.779 109.309 C 98.854 112.693 92.048 114.391 85.256 114.649 C 70.774 115.208 57.195 108.998 46.026 100.159 C 41.788 96.805 37.808 93.1 34.073 89.156 C 34.3 89.125 34.515 88.97 34.547 88.669 C 34.77 86.558 34.992 84.446 35.214 82.345 C 35.392 85.14 35.725 87.924 36.218 90.709 C 36.329 91.34 37.166 91.092 37.234 90.574 C 37.822 86.051 38.41 81.538 38.999 77.025 C 39 82.169 39.001 87.314 39.002 92.447 C 39.002 93.131 39.959 93.1 40.037 92.447 C 40.443 89.052 40.848 85.658 41.253 82.263 L 41.404 94.528 C 41.41 95.087 42.335 95.263 42.421 94.663 C 42.792 92.085 43.163 89.498 43.534 86.92 C 43.704 89.87 44.121 92.799 44.786 95.708 C 44.895 96.184 45.702 96.215 45.784 95.708 C 46.362 92.085 46.942 88.463 47.52 84.829 L 48.355 97.323 C 48.4 97.995 49.318 97.975 49.39 97.323 C 49.516 96.153 49.643 94.973 49.77 93.803 C 49.75 95.294 49.73 96.774 49.71 98.265 C 49.701 98.948 50.661 98.906 50.745 98.265 C 51.069 95.811 51.392 93.369 51.716 90.926 C 51.977 94.456 52.239 97.975 52.501 101.504 C 52.55 102.177 53.487 102.177 53.536 101.504 C 53.56 101.183 53.584 100.863 53.608 100.531 C 53.742 101.328 53.891 102.115 54.078 102.891 C 54.212 103.471 55.088 103.336 55.094 102.757 C 55.134 98.896 55.625 95.128 56.551 91.423 C 56.926 95.211 57.299 98.989 57.673 102.777 C 57.74 103.45 58.63 103.44 58.708 102.777 C 58.919 101.007 59.129 99.238 59.34 97.478 C 59.607 101.08 59.875 104.672 60.142 108.274 C 60.192 108.946 61.125 108.946 61.177 108.274 C 61.356 106.007 61.535 103.74 61.714 101.463 C 61.801 102.105 62.807 102.105 62.743 101.442 C 62.554 99.517 62.363 97.581 62.173 95.646 C 62.109 94.983 61.192 94.973 61.138 95.646 L 60.675 101.525 C 60.442 98.389 60.209 95.252 59.976 92.116 C 59.927 91.443 59.019 91.464 58.941 92.116 L 58.239 98.026 C 57.929 94.89 57.618 91.744 57.309 88.607 C 57.253 88.048 56.475 87.883 56.293 88.473 C 55.302 91.671 54.651 94.911 54.318 98.213 C 54.162 96.826 54.081 95.428 54.086 94.042 C 54.211 92.334 54.336 90.636 54.462 88.939 C 54.503 88.359 53.526 88.214 53.445 88.794 C 53.438 88.845 53.435 88.887 53.429 88.939 C 53.428 88.939 53.427 88.939 53.427 88.939 C 53.424 88.949 53.423 88.97 53.422 88.99 C 53.205 90.584 53.089 92.178 53.07 93.772 C 53.053 94.01 53.034 94.259 53.017 94.507 C 52.803 91.64 52.591 88.773 52.378 85.906 C 52.328 85.223 51.429 85.254 51.343 85.906 C 51.183 87.117 51.022 88.338 50.862 89.549 L 50.951 82.894 C 50.96 82.211 49.986 82.242 49.916 82.894 C 49.609 85.73 49.302 88.566 48.994 91.402 C 48.746 87.686 48.498 83.97 48.249 80.244 C 48.213 79.706 47.33 79.499 47.232 80.109 C 46.566 84.281 45.9 88.452 45.234 92.623 C 44.404 87.79 44.263 82.904 44.819 77.988 C 44.883 77.418 43.884 77.273 43.801 77.853 C 43.32 81.196 42.839 84.54 42.358 87.883 C 42.303 83.391 42.248 78.888 42.193 74.396 C 42.184 73.713 41.235 73.754 41.158 74.396 C 40.783 77.532 40.41 80.658 40.035 83.794 C 40.034 78.899 40.033 73.992 40.032 69.086 C 40.032 68.403 39.081 68.455 38.997 69.086 C 38.226 75.007 37.455 80.938 36.682 86.858 C 36.033 81.735 35.93 76.601 36.361 71.467 C 36.489 70.256 36.616 69.045 36.743 67.834 C 36.814 67.171 35.794 67.192 35.708 67.834 C 35.55 69.034 35.43 70.235 35.329 71.436 C 35.009 74.479 34.688 77.522 34.367 80.565 C 34.363 75.348 34.584 70.142 35.081 64.936 C 35.144 64.263 34.131 64.294 34.046 64.936 C 33.39 69.904 32.734 74.862 32.077 79.82 C 31.643 74.883 31.688 69.935 32.213 64.998 C 32.392 63.621 32.572 62.244 32.751 60.857 C 32.825 60.288 31.826 60.143 31.735 60.723 C 31.518 62.068 31.352 63.424 31.207 64.78 C 30.771 68.134 30.336 71.487 29.902 74.831 C 29.518 69.107 29.514 63.373 29.903 57.638 C 29.948 56.966 28.937 56.986 28.868 57.638 C 28.549 60.599 28.232 63.569 27.914 66.529 C 27.915 62.658 27.916 58.777 27.918 54.906 C 27.918 54.347 26.983 54.171 26.901 54.771 C 26.337 58.849 25.772 62.938 25.208 67.016 C 25.209 63.331 25.21 59.646 25.211 55.951 C 25.211 55.765 25.125 55.63 25.007 55.548 C 25.913 50.072 26.969 44.617 28.175 39.204 C 28.266 38.997 28.352 38.78 28.441 38.572 C 28.502 38.521 28.555 38.448 28.587 38.355 L 28.797 37.734 C 30.205 34.349 31.43 30.903 32.469 27.394 L 27.169 49.617 C 27.01 50.289 27.918 50.496 28.167 49.896 C 30.078 45.28 31.403 40.508 32.379 35.664 L 32.151 39.732 C 32.117 40.322 33.014 40.425 33.166 39.866 C 33.723 37.838 34.28 35.809 34.837 33.791 C 34.732 35.736 34.734 37.713 34.87 39.69 C 34.91 40.27 35.697 40.394 35.887 39.825 C 36.355 38.428 36.788 37.02 37.194 35.602 C 37.18 36.989 37.224 38.386 37.328 39.784 C 37.369 40.322 38.229 40.529 38.345 39.918 C 38.671 38.2 38.998 36.492 39.325 34.774 C 39.366 35.364 39.419 35.964 39.493 36.554 C 39.561 37.103 40.333 37.299 40.509 36.699 C 41.304 33.987 42.099 31.286 42.894 28.584 C 42.921 30.344 42.949 32.114 42.976 33.873 C 42.985 34.453 43.829 34.577 43.992 34.008 C 44.173 33.377 44.355 32.745 44.536 32.124 C 44.509 32.683 44.484 33.252 44.457 33.822 C 44.426 34.484 45.461 34.484 45.492 33.822 C 45.587 31.793 45.681 29.764 45.776 27.735 C 45.803 27.146 44.918 27.052 44.76 27.601 C 44.492 28.532 44.225 29.464 43.957 30.396 C 43.93 28.646 43.903 26.907 43.876 25.168 C 43.867 24.589 43.025 24.465 42.86 25.034 C 42.008 27.932 41.156 30.83 40.303 33.728 C 40.235 31.938 40.315 30.158 40.542 28.388 L 41.31 24.361 C 41.433 23.709 40.48 23.43 40.311 24.082 C 39.951 25.489 39.688 26.887 39.509 28.294 C 39.09 30.499 38.67 32.693 38.251 34.898 C 38.293 33.232 38.413 31.586 38.626 29.94 C 39.084 27.901 39.499 25.852 39.829 23.782 C 39.932 23.14 39.006 22.85 38.832 23.512 C 38.285 25.583 37.878 27.673 37.604 29.774 C 37.084 32.072 36.487 34.36 35.804 36.627 C 35.786 33.128 36.147 29.671 36.898 26.276 C 37.331 24.703 37.764 23.119 38.197 21.546 C 38.375 20.894 37.408 20.635 37.199 21.266 C 36.672 22.86 36.236 24.454 35.88 26.069 C 35.072 29.019 34.263 31.959 33.456 34.908 C 33.632 31.772 33.808 28.636 33.983 25.5 C 34.832 21.939 35.68 18.389 36.528 14.828 C 36.684 14.176 35.743 13.928 35.53 14.549 C 35.313 15.201 35.096 15.843 34.878 16.484 C 34.971 15.408 35.062 14.331 35.153 13.255 C 35.203 12.655 34.306 12.582 34.136 13.12 C 32.074 19.59 30.246 26.131 28.631 32.724 C 28.64 32.352 28.642 31.979 28.656 31.607 C 28.659 31.596 28.661 31.576 28.664 31.555 C 28.669 31.524 28.66 31.503 28.66 31.472 C 28.919 24.744 29.799 18.068 31.296 11.485 C 31.443 10.833 30.449 10.553 30.298 11.206 C 29.379 15.149 28.669 19.134 28.146 23.129 C 27.894 22.912 27.416 22.933 27.282 23.357 C 26.575 25.541 25.932 27.756 25.318 29.971 C 26.195 23.74 27.072 17.509 27.948 11.278 C 28.039 10.636 27.099 10.336 26.951 10.999 C 24.96 19.952 22.971 28.905 20.98 37.869 C 22.224 28.874 23.12 19.838 23.651 10.771 C 23.685 10.181 22.779 10.067 22.634 10.626 C 21.922 13.358 21.25 16.101 20.594 18.844 L 21.824 11.247 C 21.93 10.595 21.045 10.336 20.826 10.978 C 18.759 17.054 17.007 23.212 15.532 29.443 C 16.198 24.278 16.865 19.103 17.532 13.938 C 17.608 13.348 16.67 13.255 16.516 13.793 C 15.272 18.161 14.178 22.56 13.22 26.99 C 13.586 23.771 13.953 20.563 14.321 17.344 C 14.389 16.743 13.471 16.671 13.304 17.209 C 12.708 19.113 12.165 21.039 11.65 22.964 C 11.822 21.701 11.994 20.428 12.167 19.155 C 12.254 18.513 11.384 18.223 11.169 18.875 C 10.564 20.707 10.039 22.56 9.587 24.413 C 9.651 23.202 9.716 21.991 9.78 20.78 C 9.811 20.2 8.876 20.066 8.764 20.645 C 7.69 26.142 6.616 31.648 5.542 37.144 C 5.292 34.546 5.043 31.938 4.793 29.34 C 4.77 29.102 4.623 28.957 4.447 28.884 C 5.075 26.514 6.093 24.185 7.547 21.918 C 9.722 18.544 12.485 15.573 15.373 12.789 C 18.1 10.16 21.552 5.968 25.456 5.388 C 28.961 4.871 31.624 7.862 33.895 10.077 C 34.95 11.112 36.021 12.096 37.184 12.944 C 39.482 15.077 41.781 17.219 44.08 19.351 C 47.066 22.881 49.365 26.98 48.477 31.731 C 47.547 36.699 42.824 39.111 39.187 41.947 C 35.853 44.534 33.509 47.743 33.546 52.132 C 33.591 57.307 36.583 61.706 39.672 65.598 C 43.402 70.307 47.407 74.81 51.592 79.116 C 55.105 82.728 58.905 87.127 63.903 88.618 C 68.291 89.932 72.706 88.349 76.213 85.647 C 80.202 82.573 82.118 78.153 85.534 74.634 C 90.912 69.076 98.653 72.885 102.974 77.75 C 106.704 81.942 109.263 87.013 113.528 90.709 C 113.562 90.812 113.624 90.916 113.744 90.988 C 113.959 91.112 114.141 91.257 114.327 91.402 C 114.341 91.412 114.353 91.423 114.368 91.433 C 114.377 91.443 114.387 91.443 114.397 91.454 C 118.306 94.528 115.578 100.055 112.782 103.046 C 110.458 105.531 107.73 107.621 104.779 109.309 L 104.779 109.309 Z  M 23.769 56.696 C 23.724 56.986 23.9 57.204 24.116 57.297 C 23.924 60.878 23.366 64.397 22.444 67.865 C 21.965 63.89 21.944 59.905 22.376 55.9 C 22.419 55.496 22.047 55.341 21.736 55.434 C 22.44 50.434 23.144 45.425 23.848 40.425 C 24.951 35.136 26.314 29.899 27.939 24.734 C 27.568 27.911 27.326 31.099 27.204 34.298 C 26.06 41.761 24.915 49.234 23.769 56.696 L 23.769 56.696 Z  M 9.043 34.567 C 9.077 33.935 9.111 33.294 9.146 32.662 C 9.375 30.789 9.678 28.926 10.059 27.073 C 9.721 29.568 9.382 32.072 9.043 34.567 L 9.043 34.567 Z  M 5.447 44.534 C 3.861 40.053 3.293 35.612 3.946 31.306 C 4.248 34.443 4.549 37.589 4.851 40.725 C 4.902 41.264 5.746 41.481 5.867 40.87 C 6.696 36.627 7.524 32.383 8.352 28.139 C 8.274 29.599 8.195 31.058 8.118 32.528 C 7.718 35.788 7.534 39.08 7.591 42.392 C 7.594 42.589 7.686 42.723 7.81 42.796 C 7.633 44.245 7.472 45.704 7.338 47.164 C 7.286 47.733 8.276 47.878 8.355 47.298 C 8.905 43.23 9.458 39.152 10.009 35.084 C 10.706 31.182 11.568 27.301 12.587 23.471 C 11.761 30.696 10.935 37.921 10.11 45.156 C 9.85 47.205 9.608 49.254 9.407 51.304 C 9.342 51.977 10.368 51.956 10.443 51.304 C 10.672 49.296 10.903 47.277 11.133 45.259 C 12.138 37.351 13.592 29.516 15.485 21.784 C 14.513 29.319 13.541 36.854 12.57 44.4 C 11.956 48.271 11.452 52.163 11.063 56.075 C 10.996 56.748 12.015 56.728 12.098 56.075 C 12.593 52.235 13.088 48.395 13.584 44.555 C 15.012 35.54 17.066 26.638 19.706 17.892 C 18.469 25.541 17.233 33.18 15.996 40.819 C 15.105 45.756 14.297 50.714 13.591 55.682 C 13.499 56.334 14.482 56.624 14.589 55.962 L 16.993 41.098 C 18.487 32.818 20.229 24.589 22.238 16.412 C 21.232 29.826 19.442 43.158 16.87 56.365 C 16.744 57.017 17.723 57.297 17.868 56.645 L 25.123 23.989 C 24.365 29.381 23.606 34.774 22.848 40.156 C 21.352 47.329 20.319 54.585 19.79 61.903 C 19.749 62.483 20.725 62.627 20.807 62.048 C 20.89 61.447 20.974 60.847 21.058 60.257 C 20.971 63.662 21.208 67.068 21.773 70.463 C 21.862 71.001 22.629 70.908 22.771 70.463 C 23.336 68.672 23.803 66.871 24.173 65.049 C 24.173 68.206 24.172 71.374 24.171 74.531 C 24.171 75.089 25.105 75.255 25.187 74.665 C 25.751 70.587 26.316 66.499 26.88 62.41 C 26.879 67.016 26.878 71.612 26.876 76.218 C 26.876 76.901 27.842 76.87 27.911 76.218 C 28.148 74.003 28.386 71.788 28.623 69.573 C 28.71 72.937 28.922 76.301 29.276 79.654 C 29.347 80.327 30.226 80.317 30.312 79.654 C 30.475 78.381 30.641 77.118 30.805 75.845 C 30.9 78.578 31.136 81.321 31.519 84.053 C 31.519 84.053 31.519 84.053 31.518 84.053 C 31.519 84.053 31.519 84.053 31.519 84.053 C 31.527 84.105 31.531 84.146 31.537 84.188 C 31.627 84.829 32.485 84.571 32.554 84.053 C 32.816 82.066 33.079 80.079 33.342 78.091 C 33.291 81.579 33.336 85.067 33.509 88.566 C 27.018 81.61 21.293 73.889 16.318 65.888 C 12.137 59.17 8.09 52.018 5.447 44.534 L 5.447 44.534 Z  M 114.785 90.44 C 107.432 84.457 104.266 73.04 93.99 70.991 C 89.847 70.173 86.355 71.891 83.77 75.089 C 80.241 79.457 77.711 84.302 72.383 86.827 C 65.837 89.943 60.347 86.279 55.692 81.755 C 51.247 77.439 47.039 72.874 43.062 68.124 C 39.11 63.404 34.182 57.887 34.601 51.273 C 34.976 45.373 40.06 42.775 44.191 39.535 C 47.975 36.565 50.279 32.776 49.509 27.818 C 48.968 24.34 47.181 21.411 44.972 18.782 C 44.959 18.772 44.955 18.751 44.939 18.741 C 44.927 18.73 44.914 18.72 44.901 18.699 C 44.63 18.379 44.355 18.068 44.073 17.747 C 44.059 17.799 44.041 17.84 44.027 17.892 C 42.046 16.05 40.065 14.207 38.084 12.365 C 38.094 12.344 38.1 12.334 38.111 12.313 C 37.93 12.178 37.753 12.034 37.575 11.889 C 37.527 11.847 37.479 11.806 37.433 11.765 C 37.402 11.733 37.368 11.723 37.333 11.702 C 33.84 8.804 31.033 4.385 26.355 4.281 C 23.05 4.209 20.529 6.672 18.238 8.732 C 15.299 11.371 12.403 14.083 9.853 17.105 C 5.003 22.86 1.75 29.702 2.65 37.382 C 3.642 45.859 8.212 53.974 12.367 61.282 C 20.817 76.145 31.836 90.243 45.294 100.894 C 57.398 110.468 72.267 116.999 87.962 115.509 C 95.808 114.763 103.523 112.093 109.76 107.197 C 114.146 103.761 121.516 95.149 114.785 90.44 L 114.785 90.44 Z  M 113.586 94.797 C 113.519 94.124 112.632 94.135 112.551 94.797 C 112.538 94.911 112.523 95.025 112.51 95.149 C 112.277 94.073 112.044 93.006 111.812 91.93 C 111.697 91.412 110.964 91.475 110.814 91.93 C 110.356 93.338 109.897 94.735 109.438 96.143 C 109.081 95.108 108.898 94.062 108.888 92.986 C 108.949 92.271 109.009 91.568 109.069 90.853 C 109.119 90.274 108.154 90.139 108.054 90.719 C 107.924 91.454 107.865 92.168 107.863 92.862 C 107.651 95.356 107.44 97.84 107.228 100.324 C 105.731 96.536 105.026 92.561 105.09 88.504 C 105.14 87.562 105.191 86.63 105.242 85.688 C 105.278 85.016 104.274 85.036 104.207 85.688 C 104.108 86.641 104.068 87.583 104.053 88.525 C 103.823 92.81 103.591 97.085 103.359 101.359 C 101.65 95.449 100.713 89.384 100.573 83.204 C 100.556 82.542 99.542 82.542 99.537 83.204 C 99.488 89.994 99.438 96.784 99.388 103.564 C 96.846 94.911 95.776 85.947 96.227 76.911 C 96.259 76.238 95.225 76.238 95.192 76.911 C 94.837 84.126 94.749 91.34 94.905 98.565 C 94.016 91.785 93.519 84.974 93.426 78.133 C 93.417 77.47 92.403 77.47 92.391 78.133 C 92.237 86.755 92.084 95.366 91.93 103.988 C 90.768 96.101 90.232 88.152 90.342 80.172 C 90.351 79.499 89.32 79.499 89.307 80.172 L 88.816 103.316 C 87.758 97.581 87.212 91.795 87.163 85.989 L 87.487 76.818 C 87.511 76.145 86.507 76.166 86.452 76.818 C 86.2 79.871 86.103 82.935 86.128 85.978 C 85.881 92.996 85.633 100.003 85.386 107.011 C 84.111 100.21 83.425 93.327 83.314 86.413 C 83.319 84.653 83.323 82.884 83.328 81.114 C 83.33 80.451 82.312 80.451 82.293 81.114 C 82.246 82.884 82.251 84.653 82.279 86.423 C 82.256 94.528 82.233 102.622 82.21 110.727 C 80.502 105.251 79.483 99.62 79.137 93.917 L 79.142 84.881 C 79.143 84.208 78.151 84.219 78.106 84.881 C 77.906 87.935 77.92 90.978 78.102 94 C 78.101 98.006 78.099 102.011 78.097 106.017 C 77.025 100.2 76.411 94.331 76.268 88.411 C 76.252 87.738 75.228 87.738 75.233 88.411 C 75.278 94.787 75.322 101.173 75.368 107.559 C 74.674 105.044 74.145 102.508 73.781 99.941 C 73.752 96.784 73.554 93.627 73.171 90.481 C 73.094 89.829 72.147 89.787 72.136 90.481 C 72.089 93.7 72.302 96.888 72.747 100.045 C 72.768 102.612 72.671 105.168 72.457 107.735 C 71.903 105.23 71.507 102.715 71.266 100.179 C 71.429 97.437 71.353 94.673 71.015 91.909 C 70.937 91.257 70.005 91.226 69.98 91.909 C 69.878 94.694 69.969 97.457 70.228 100.21 C 70.107 102.156 69.852 104.092 69.476 106.017 C 68.887 101.515 68.297 97.022 67.708 92.52 C 67.622 91.868 66.726 91.837 66.673 92.52 C 66.316 97.116 65.961 101.711 65.604 106.307 C 64.959 102.001 64.731 97.675 64.934 93.327 C 65.239 93.327 65.566 93.068 65.485 92.686 C 65.348 92.023 65.213 91.361 65.077 90.709 C 64.952 90.098 64.106 90.295 64.061 90.843 C 63.509 97.457 63.933 104.03 65.307 110.509 C 65.434 111.11 66.281 110.923 66.323 110.375 C 66.657 106.079 66.99 101.784 67.323 97.488 C 67.824 101.308 68.326 105.137 68.827 108.967 C 68.898 109.505 69.683 109.723 69.844 109.102 C 70.238 107.601 70.55 106.079 70.791 104.558 C 71.143 106.7 71.598 108.822 72.172 110.934 C 72.336 111.534 73.122 111.348 73.188 110.799 C 73.417 108.884 73.573 106.969 73.672 105.065 C 74.146 107.145 74.718 109.215 75.411 111.265 C 75.593 111.793 76.433 111.731 76.428 111.12 C 76.406 108.015 76.384 104.92 76.362 101.815 C 76.816 104.961 77.394 108.098 78.114 111.203 C 78.246 111.782 79.13 111.648 79.13 111.068 C 79.131 108.232 79.132 105.396 79.134 102.56 C 79.845 106.452 80.865 110.282 82.22 114.039 C 82.41 114.567 83.234 114.515 83.236 113.894 C 83.249 109.371 83.261 104.847 83.275 100.314 C 83.761 104.071 84.419 107.808 85.249 111.513 C 85.381 112.093 86.246 111.938 86.267 111.379 C 86.439 106.504 86.611 101.628 86.783 96.753 C 87.222 100.542 87.87 104.32 88.737 108.056 C 88.871 108.636 89.742 108.491 89.753 107.922 L 89.993 96.598 C 90.419 101.028 91.03 105.438 91.847 109.826 C 91.956 110.406 92.853 110.25 92.863 109.681 C 92.966 103.937 93.068 98.192 93.171 92.447 C 93.644 97.416 94.324 102.363 95.217 107.28 C 95.321 107.86 96.262 107.725 96.234 107.145 C 95.985 102.136 95.861 97.126 95.859 92.116 C 96.559 97.167 97.735 102.146 99.383 107.021 C 99.565 107.559 100.396 107.487 100.4 106.876 C 100.432 102.384 100.465 97.892 100.498 93.4 C 101.114 97.126 102.017 100.8 103.22 104.413 C 103.405 104.972 104.206 104.868 104.238 104.278 C 104.396 101.339 104.555 98.399 104.714 95.46 C 105.228 97.923 106.02 100.335 107.12 102.674 C 107.359 103.191 108.046 102.881 108.085 102.415 C 108.245 100.531 108.407 98.637 108.567 96.753 C 108.708 97.136 108.863 97.509 109.048 97.892 C 109.254 98.316 109.865 98.161 109.994 97.768 C 110.399 96.526 110.806 95.284 111.212 94.042 C 111.526 95.491 111.839 96.929 112.153 98.368 C 112.287 98.989 113.104 98.772 113.169 98.233 C 113.201 97.975 113.233 97.706 113.265 97.447 C 113.55 97.478 113.843 97.323 113.806 96.96 C 113.733 96.236 113.66 95.522 113.586 94.797 Z " fill-rule="evenodd" fill="rgb(254,234,203)"/></g></svg>