<?xml version="1.0" encoding="UTF-8" standalone="no"?><!-- Generator: Gravit.io --><svg xmlns="http://www.w3.org/2000/svg" xmlns:xlink="http://www.w3.org/1999/xlink" style="isolation:isolate" viewBox="0 0 120 120" width="120pt" height="120pt"><defs><clipPath id="_clipPath_vL5a8SNHn8MQfq3qQv5EMKNnMrLyPNBj"><rect width="120" height="120"/></clipPath></defs><g clip-path="url(#_clipPath_vL5a8SNHn8MQfq3qQv5EMKNnMrLyPNBj)"><path d=" M 38.535 64.78 C 39.643 67.102 41.043 69.274 42.735 71.278 C 42.983 71.568 43.582 71.343 43.534 70.95 C 43.453 70.267 43.371 69.583 43.29 68.909 C 44.182 71.39 45.298 73.778 46.649 76.081 C 46.879 76.474 47.534 76.315 47.522 75.847 C 47.478 74.311 47.359 72.795 47.199 71.278 C 48.144 73.815 49.269 76.287 50.577 78.684 C 50.787 79.067 51.51 78.918 51.45 78.45 C 51.273 77.045 51.096 75.641 50.92 74.246 C 51.84 76.83 53.009 79.32 54.438 81.708 C 54.728 82.194 55.371 81.848 55.293 81.352 C 54.874 78.618 54.453 75.884 54.034 73.16 C 55.216 76.221 56.727 79.152 58.566 81.923 C 58.795 82.269 59.502 82.185 59.438 81.689 C 59.186 79.704 58.935 77.729 58.683 75.753 C 59.43 77.644 60.366 79.47 61.497 81.211 C 61.733 81.577 62.402 81.464 62.369 80.977 C 62.186 78.225 62.001 75.482 61.818 72.729 C 62.624 75.191 63.596 77.598 64.777 79.938 C 64.978 80.331 65.702 80.163 65.649 79.704 C 65.506 78.44 65.362 77.186 65.218 75.931 C 65.78 77.476 66.343 79.03 66.904 80.575 C 66.977 80.781 67.138 80.874 67.305 80.893 C 62.526 85.546 53.998 83.206 48.997 79.414 C 44.689 76.146 41 69.845 35.298 68.928 C 35.548 68.89 35.772 68.656 35.719 68.338 C 35.526 67.187 35.331 66.026 35.136 64.865 C 35.852 66.466 36.702 68.001 37.698 69.48 C 37.963 69.874 38.538 69.714 38.57 69.237 C 38.672 67.739 38.659 66.25 38.535 64.78 L 38.535 64.78 L 38.535 64.78 L 38.535 64.78 L 38.535 64.78 L 38.535 64.78 L 38.535 64.78 Z  M 73.645 51.982 C 74.129 52.731 74.711 53.424 75.425 54.051 C 75.729 54.323 76.211 54.135 76.224 53.723 C 76.239 53.274 76.254 52.834 76.268 52.385 C 77.02 53.583 77.773 54.772 78.525 55.961 C 78.694 56.233 79.187 56.307 79.334 55.961 C 79.613 55.306 79.819 54.66 79.97 54.004 C 80.664 56.045 81.717 57.899 83.126 59.612 C 80.657 57.721 77.873 56.186 75.303 54.866 C 73.694 54.032 72.056 53.274 70.394 52.591 C 70.529 52.488 70.619 52.319 70.587 52.094 C 70.386 50.727 70.186 49.361 69.986 47.994 C 70.79 49.791 71.739 51.523 72.882 53.171 C 73.116 53.508 73.812 53.443 73.754 52.937 L 73.645 51.982 L 73.645 51.982 L 73.645 51.982 L 73.645 51.982 L 73.645 51.982 L 73.645 51.982 L 73.645 51.982 Z  M 50.665 43.696 C 51.246 44.745 51.825 45.794 52.406 46.852 C 52.617 47.226 53.34 47.086 53.278 46.608 C 53.039 44.782 52.798 42.947 52.559 41.122 C 53.499 43.191 54.672 45.147 56.087 46.982 C 56.345 47.32 56.974 47.263 56.959 46.748 C 56.921 45.466 56.803 44.202 56.642 42.947 C 57.45 44.633 58.395 46.243 59.488 47.797 C 59.729 48.144 60.4 48.069 60.36 47.563 C 60.286 46.655 60.178 45.756 60.049 44.867 C 60.748 46.037 61.574 47.142 62.528 48.172 C 62.797 48.471 63.346 48.246 63.326 47.844 C 63.276 46.777 63.168 45.719 63.033 44.67 C 63.931 46.533 64.993 48.321 66.232 50.016 C 66.541 50.437 67.199 50.194 67.087 49.651 C 66.895 48.724 66.703 47.797 66.512 46.87 C 67.383 48.752 68.416 50.55 69.614 52.282 C 64.951 50.428 60.103 49.098 55.122 48.256 C 53.644 48.003 51.997 47.666 50.481 47.095 C 50.643 47.039 50.776 46.898 50.788 46.674 C 50.844 45.653 50.795 44.67 50.665 43.696 L 50.665 43.696 L 50.665 43.696 L 50.665 43.696 L 50.665 43.696 L 50.665 43.696 L 50.665 43.696 Z  M 46.851 38.566 C 45.647 40.176 45.239 42.189 45.656 44.118 C 45.724 44.174 45.787 44.239 45.826 44.342 C 45.969 44.698 46.105 45.063 46.23 45.428 C 46.291 45.447 46.351 45.485 46.408 45.541 C 46.609 45.737 46.798 45.943 46.984 46.159 C 49.374 48.125 53.027 48.818 56.089 49.361 C 62.887 50.568 69.472 52.806 75.568 56.055 C 81.074 58.994 87.938 63.067 89.151 69.761 C 90.426 76.792 85.378 83.945 80.484 88.467 C 71.41 96.875 58.351 99.721 46.656 95.639 C 40.451 93.467 34.684 89.469 30.806 84.123 C 28.906 81.502 27.375 78.243 28.089 74.939 C 29.106 70.239 33.676 68.619 37.795 70.772 C 40.624 72.252 42.647 74.911 44.9 77.092 C 46.939 79.077 49.16 80.921 51.667 82.279 C 56.341 84.806 62.65 85.64 67.124 82.204 C 70.373 79.713 72.131 75.107 70.345 71.24 C 68.018 66.203 62.023 64.968 57.078 64.378 C 50.122 63.545 43.167 62.131 37.611 57.543 C 32.643 53.452 29.384 46.73 30.751 40.232 C 32.115 33.744 37.932 29.437 43.571 26.713 C 50.125 23.539 57.698 22.097 64.914 23.427 C 71.853 24.7 78.859 28.511 82.718 34.577 C 84.76 37.789 85.707 42.002 83.395 45.344 C 80.184 49.988 74.621 47.582 71.456 44.305 C 69.056 41.815 67.283 38.744 64.47 36.665 C 62.406 35.139 59.914 34.24 57.351 34.081 C 53.206 33.819 49.422 35.56 46.788 38.491 C 46.814 38.51 46.83 38.547 46.851 38.566 L 46.851 38.566 L 46.851 38.566 L 46.851 38.566 L 46.851 38.566 L 46.851 38.566 L 46.851 38.566 Z  M 22.259 65.436 C 22.152 65.37 22.049 65.352 21.955 65.37 C 19.303 57.843 16.654 50.306 14.003 42.769 C 17.141 50.138 20.519 57.394 24.41 64.406 C 24.855 65.726 25.301 67.037 25.747 68.357 C 24.776 67.215 23.616 66.222 22.259 65.436 L 22.259 65.436 L 22.259 65.436 L 22.259 65.436 L 22.259 65.436 L 22.259 65.436 L 22.259 65.436 Z  M 27.905 94.581 C 28.436 96.107 28.966 97.633 29.497 99.15 C 27.844 96.023 26.345 92.821 24.997 89.553 C 25.967 91.229 26.936 92.905 27.905 94.581 L 27.905 94.581 L 27.905 94.581 L 27.905 94.581 L 27.905 94.581 L 27.905 94.581 L 27.905 94.581 Z  M 58.001 109.935 C 57.624 108.287 57.246 106.64 56.869 104.982 C 56.735 104.402 55.832 104.645 55.966 105.235 C 56.211 106.303 56.456 107.379 56.7 108.446 C 55.098 106.602 53.829 104.542 52.94 102.23 C 52.728 101.677 51.853 101.893 52.037 102.473 C 52.779 104.833 53.52 107.192 54.262 109.551 C 52.875 107.566 51.736 105.451 50.847 103.175 C 50.633 102.623 49.78 102.829 49.945 103.419 C 50.362 104.936 50.782 106.452 51.199 107.969 L 48.744 104.243 C 48.414 103.737 47.603 104.205 47.935 104.711 C 49.302 106.789 50.668 108.858 52.035 110.937 C 52.32 111.368 53.037 111.105 52.891 110.572 C 52.659 109.738 52.427 108.896 52.196 108.063 C 53.068 109.533 54.061 110.937 55.174 112.276 C 55.478 112.641 56.092 112.248 55.957 111.826 C 55.465 110.253 54.972 108.69 54.48 107.126 C 55.279 108.287 56.187 109.383 57.219 110.394 C 57.561 110.731 58.104 110.385 58.001 109.935 L 58.001 109.935 L 58.001 109.935 L 58.001 109.935 L 58.001 109.935 Z  M 87.35 55.633 C 86.747 55.633 86.746 56.57 87.35 56.57 C 87.952 56.57 87.953 55.633 87.35 55.633 L 87.35 55.633 L 87.35 55.633 L 87.35 55.633 Z  M 62.623 10.226 C 62.577 9.627 61.64 9.617 61.687 10.226 C 61.876 12.688 62.065 15.15 62.254 17.613 C 61.286 15.104 60.531 12.538 59.981 9.889 C 59.844 9.299 58.956 9.552 59.078 10.132 C 59.789 13.212 60.056 16.283 59.894 19.41 C 58.56 17.416 57.558 15.272 56.872 12.978 C 56.724 12.257 56.543 11.546 56.323 10.825 C 56.144 10.245 55.3 10.488 55.42 11.078 C 55.569 11.808 55.756 12.51 55.964 13.212 C 56.348 15.113 56.474 17.023 56.342 18.97 C 54.76 16.705 53.647 14.224 52.972 11.518 C 52.826 10.937 51.928 11.181 52.07 11.771 C 52.602 13.98 52.792 16.18 52.688 18.409 C 51.322 15.984 50.547 13.381 50.383 10.554 C 50.348 9.954 49.412 9.945 49.446 10.554 C 49.651 14.055 50.703 17.238 52.653 20.15 C 52.924 20.553 53.476 20.375 53.525 19.916 C 53.662 18.633 53.685 17.369 53.624 16.124 C 54.362 17.678 55.269 19.148 56.361 20.553 C 56.643 20.918 57.119 20.571 57.161 20.225 C 57.303 19.055 57.355 17.903 57.32 16.761 C 58.02 18.231 58.86 19.644 59.864 20.983 C 60.145 21.367 60.693 21.236 60.736 20.749 C 60.867 19.307 60.902 17.875 60.851 16.452 C 61.353 17.875 61.904 19.289 62.537 20.684 C 62.728 21.105 63.444 20.899 63.409 20.45 C 63.147 17.042 62.885 13.634 62.623 10.226 L 62.623 10.226 L 62.623 10.226 Z  M 63.944 14.13 C 63.341 14.13 63.34 15.066 63.944 15.066 C 64.546 15.066 64.547 14.13 63.944 14.13 L 63.944 14.13 Z  M 28.099 72.379 C 29.284 70.251 31.362 68.738 34.132 68.816 C 34.469 68.825 34.796 68.862 35.121 68.909 C 35.025 68.881 34.934 68.816 34.864 68.703 C 33.025 65.773 31.656 62.674 30.724 59.35 C 30.561 58.77 31.464 58.526 31.627 59.097 C 32.302 61.513 33.22 63.797 34.381 65.988 C 34.013 63.807 33.646 61.616 33.279 59.434 C 33.181 58.854 34.038 58.592 34.182 59.182 C 34.916 62.224 36.082 65.052 37.683 67.711 C 37.72 65.352 37.49 63.039 36.944 60.717 C 36.806 60.127 37.669 59.893 37.847 60.464 C 38.857 63.722 40.374 66.69 42.41 69.377 C 42.16 67.299 41.91 65.211 41.66 63.133 C 41.596 62.608 42.472 62.505 42.579 63.011 C 43.382 66.812 44.684 70.417 46.478 73.834 C 46.274 70.548 45.809 67.29 45.05 64.069 C 44.917 63.479 45.815 63.236 45.952 63.825 C 46.901 68.01 48.317 72.036 50.19 75.875 C 49.833 73.057 49.477 70.239 49.122 67.411 C 49.055 66.887 49.95 66.775 50.042 67.29 C 50.767 71.39 52.088 75.285 53.983 78.946 C 53.374 74.985 52.764 71.016 52.153 67.055 C 52.064 66.475 52.917 66.203 53.057 66.803 C 54.115 71.362 55.852 75.659 58.243 79.648 L 56.919 69.237 C 56.852 68.713 57.756 68.6 57.838 69.115 C 58.408 72.664 59.563 75.978 61.306 79.077 L 60.589 68.338 C 60.553 67.814 61.39 67.711 61.508 68.216 C 62.208 71.222 63.17 74.115 64.395 76.923 C 64.209 75.294 64.024 73.675 63.837 72.046 C 63.774 71.484 64.591 71.465 64.757 71.924 C 65.773 74.723 66.791 77.523 67.808 80.331 C 67.811 80.341 67.809 80.35 67.812 80.35 C 68.376 79.704 68.882 78.946 69.306 78.056 C 71.232 74.021 69.449 69.92 65.74 67.711 C 62.076 65.52 57.677 65.473 53.571 64.893 C 47.728 64.078 41.888 62.168 37.237 58.442 C 32.671 54.772 29.532 49.183 29.517 43.247 C 29.503 37.349 32.973 32.546 37.586 29.175 C 46.331 22.781 58.206 20.272 68.605 23.399 C 68.534 23.342 68.472 23.277 68.443 23.155 C 67.392 18.998 66.343 14.842 65.292 10.685 C 65.143 10.095 66.047 9.851 66.195 10.432 C 67.245 14.598 68.296 18.755 69.345 22.912 C 69.431 23.249 69.16 23.474 68.89 23.483 C 70.707 24.054 72.483 24.775 74.181 25.692 C 74.933 26.104 75.69 26.563 76.438 27.059 C 76.415 27.031 76.39 27.013 76.374 26.975 C 75.496 25.271 74.734 23.53 74.052 21.76 C 74.12 22.154 74.189 22.547 74.259 22.949 C 74.343 23.427 73.637 23.82 73.403 23.305 C 71.945 20.084 70.487 16.864 69.03 13.643 C 68.783 13.1 69.59 12.623 69.839 13.175 C 70.798 15.291 71.759 17.416 72.719 19.532 C 72.445 17.959 72.171 16.386 71.896 14.804 C 71.794 14.224 72.66 13.961 72.799 14.561 C 73.605 18.015 74.761 21.33 76.242 24.532 C 76.148 21.405 76.054 18.278 75.96 15.15 C 75.944 14.636 76.797 14.504 76.879 15.029 C 77.448 18.652 78.524 22.088 80.109 25.355 C 79.888 22.528 79.668 19.701 79.447 16.873 C 79.405 16.33 80.228 16.255 80.368 16.751 C 81.408 20.431 82.45 24.11 83.491 27.79 C 83.221 25.327 82.952 22.865 82.682 20.412 C 82.625 19.878 83.514 19.766 83.601 20.281 C 84.916 28.033 86.229 35.785 87.543 43.537 C 87.074 37.311 86.78 31.076 86.711 24.841 C 86.703 24.232 87.634 24.232 87.647 24.841 C 87.944 39.287 90.197 53.611 94.325 67.449 C 93.669 59.697 93.012 51.945 92.356 44.193 C 91.876 39.156 91.472 34.109 91.076 29.072 C 91.028 28.473 91.962 28.483 92.012 29.072 C 92.437 34.081 92.861 39.09 93.285 44.099 C 93.471 46.056 93.671 48.003 93.885 49.95 C 93.554 42.891 93.683 35.813 94.287 28.745 C 94.338 28.145 95.198 28.136 95.224 28.745 C 95.779 42.245 97.418 55.652 100.089 68.881 C 98.547 55.137 98.058 41.3 98.674 27.462 C 98.701 26.844 99.542 26.872 99.61 27.462 C 100.448 34.699 101.401 41.918 102.456 49.126 C 102.35 47.179 102.263 45.222 102.22 43.266 C 102.209 42.741 103.036 42.62 103.14 43.144 C 104.11 47.975 105.081 52.815 106.052 57.646 C 105.946 54.332 106.079 51.008 106.458 47.685 C 106.512 47.207 107.28 47.001 107.377 47.563 L 109.196 58.039 C 109.268 56.776 109.341 55.512 109.413 54.257 C 109.448 53.649 110.309 53.658 110.35 54.257 L 110.911 62.655 C 110.952 63.264 110.015 63.254 109.975 62.655 C 109.956 62.365 109.937 62.075 109.917 61.794 C 109.911 61.897 109.905 62 109.899 62.112 C 109.87 62.608 109.074 62.777 108.98 62.234 C 108.348 58.601 107.717 54.969 107.086 51.336 C 106.763 56.635 107.047 61.944 107.972 67.205 C 108.074 67.795 107.188 68.048 107.068 67.458 C 105.843 61.354 104.619 55.259 103.394 49.155 C 103.685 54.491 104.209 59.809 104.971 65.099 C 105.633 69.022 106.326 72.935 107.053 76.839 C 107.162 77.429 106.275 77.682 106.15 77.092 C 105.311 73.132 104.611 69.162 104.037 65.164 C 102.266 54.678 100.723 44.155 99.412 33.604 C 99.085 48.836 100.065 64.078 102.364 79.152 C 102.453 79.732 101.609 80.004 101.462 79.404 C 101.169 78.206 100.896 77.008 100.62 75.8 C 100.485 83.318 101.211 90.77 102.789 98.092 C 102.832 91.154 102.875 84.207 102.917 77.26 C 102.932 76.661 103.857 76.652 103.853 77.26 C 103.702 83.599 104.446 89.853 106.069 95.957 C 106.368 90.443 106.226 84.928 105.639 79.423 C 105.583 78.899 106.462 78.787 106.559 79.301 C 107.392 83.711 108.225 88.121 109.059 92.54 C 109.062 89.151 109.066 85.761 109.071 82.382 C 109.071 81.829 109.825 81.764 109.99 82.251 C 110.849 84.788 111.707 87.316 112.566 89.843 C 112.626 87.409 112.685 84.984 112.745 82.559 C 112.759 82.017 113.499 81.942 113.666 82.438 C 114.504 84.938 115.342 87.437 116.18 89.937 L 116.18 89.937 C 117.272 84.451 115.754 78.328 110.487 75.528 C 110.386 75.482 110.33 75.397 110.295 75.322 C 110.066 75.257 109.876 75.051 109.958 74.761 C 112.178 66.831 112.488 58.489 110.914 50.4 C 108.129 36.103 99.67 23.296 87.171 15.694 C 74.781 8.157 59.487 5.844 45.472 9.617 C 45.164 9.702 44.954 9.486 44.907 9.243 C 44.808 9.215 44.714 9.159 44.644 9.056 C 41.12 3.494 33.41 3.101 27.558 4.187 C 21.727 5.264 16.224 8.129 11.984 12.267 C 2.621 21.423 0.85 36.16 7.107 47.535 C 7.139 47.591 7.153 47.647 7.16 47.703 C 7.24 47.769 7.32 47.834 7.4 47.9 C 7.692 47.872 8.01 48.106 7.906 48.471 C 5.702 56.139 5.374 64.228 6.912 72.055 C 9.6 85.733 17.726 97.97 29.739 105.16 C 41.645 112.285 56.289 114.373 69.664 110.619 C 69.897 110.553 70.072 110.665 70.165 110.825 C 70.324 110.806 70.485 110.862 70.575 111.059 C 70.927 111.817 71.456 112.444 72.169 112.884 C 72.239 112.931 72.288 112.987 72.323 113.043 C 83.203 119.55 96.671 115.515 105.424 107.173 C 109.872 102.923 114.028 97.455 115.801 91.501 C 115.904 91.154 115.994 90.808 116.076 90.452 C 115.847 90.639 115.422 90.621 115.298 90.246 C 114.737 88.57 114.176 86.904 113.616 85.228 C 113.556 87.643 113.496 90.059 113.437 92.484 C 113.424 93.027 112.685 93.102 112.518 92.605 C 111.679 90.134 110.841 87.671 110.003 85.2 C 109.998 89.3 109.994 93.401 109.988 97.502 C 109.987 98.017 109.168 98.148 109.069 97.624 C 108.414 94.159 107.76 90.695 107.106 87.222 C 107.223 91.032 107.133 94.843 106.827 98.663 C 106.784 99.178 106.068 99.309 105.907 98.785 C 104.977 95.779 104.276 92.727 103.777 89.647 C 103.752 93.785 103.726 97.914 103.7 102.043 C 103.698 102.567 102.914 102.679 102.781 102.164 C 101.891 98.71 101.198 95.227 100.688 91.707 C 101.032 95.18 101.583 98.635 102.353 102.061 C 102.489 102.661 101.673 102.848 101.45 102.305 C 98.947 96.219 96.992 89.946 95.565 83.552 L 97.718 108.559 C 97.768 109.139 96.98 109.121 96.798 108.69 C 95.817 106.321 94.957 103.924 94.2 101.49 C 94.455 103.662 94.71 105.825 94.965 107.997 C 95.034 108.568 94.225 108.559 94.046 108.119 C 92.727 104.917 91.643 101.649 90.765 98.316 C 91.053 101.078 91.341 103.84 91.629 106.602 C 91.675 107.051 90.935 107.267 90.756 106.836 C 88.885 102.427 87.363 97.914 86.187 93.289 L 87.931 113.09 C 87.98 113.643 87.171 113.68 87.012 113.212 C 85.949 110.085 85.049 106.911 84.289 103.719 C 84.618 107.023 84.947 110.338 85.275 113.643 C 85.321 114.101 84.602 114.279 84.403 113.877 C 83.091 111.218 82.001 108.475 81.118 105.675 C 81.455 108.465 81.792 111.255 82.13 114.055 C 82.187 114.532 81.47 114.663 81.257 114.289 C 79.686 111.489 78.397 108.578 77.376 105.582 C 77.666 107.651 77.956 109.72 78.246 111.798 C 78.317 112.304 77.695 112.632 77.39 112.154 C 75.948 109.907 74.765 107.538 73.843 105.076 C 74.147 107.332 74.451 109.589 74.755 111.845 C 74.822 112.36 74.205 112.678 73.898 112.21 C 72.779 110.478 71.896 108.662 71.225 106.771 L 71.418 109.645 C 71.452 110.15 70.787 110.235 70.545 109.879 C 69.612 108.521 68.865 107.108 68.278 105.628 C 68.374 106.789 68.471 107.941 68.566 109.102 C 68.608 109.598 67.93 109.692 67.695 109.336 C 66.536 107.595 65.602 105.769 64.844 103.859 C 64.897 105.301 64.951 106.743 65.005 108.175 C 65.024 108.671 64.379 108.774 64.132 108.409 C 63.566 107.585 63.075 106.743 62.65 105.862 C 62.695 107.051 62.684 108.241 62.568 109.448 C 62.527 109.87 61.924 110.141 61.695 109.682 C 60.229 106.78 58.764 103.878 57.298 100.966 C 57.026 100.432 57.835 99.955 58.107 100.498 C 59.313 102.885 60.521 105.282 61.729 107.679 C 61.788 105.75 61.626 103.84 61.253 101.94 C 61.15 101.5 61.056 101.06 60.981 100.61 C 60.884 100.03 61.735 99.768 61.883 100.367 C 61.994 100.807 62.069 101.247 62.157 101.687 C 62.556 103.353 63.168 104.926 64.003 106.424 C 63.932 104.524 63.861 102.623 63.79 100.732 C 63.77 100.189 64.569 100.105 64.71 100.601 C 65.36 102.932 66.284 105.104 67.47 107.173 L 66.885 100.151 C 66.834 99.543 67.749 99.571 67.821 100.151 C 68.162 102.895 69.02 105.441 70.358 107.801 C 70.205 105.507 70.051 103.204 69.898 100.91 C 69.817 100.142 69.757 99.374 69.743 98.588 C 69.732 97.979 70.639 97.998 70.679 98.588 C 70.728 99.337 70.778 100.077 70.828 100.825 C 71.159 103.953 72.065 106.92 73.529 109.701 C 72.985 105.657 72.441 101.612 71.897 97.567 C 71.818 96.987 72.709 96.725 72.8 97.324 C 73.464 101.706 74.877 105.844 77.013 109.682 C 76.357 104.992 75.7 100.301 75.044 95.62 L 75.047 95.62 C 75.041 95.573 75.033 95.536 75.027 95.489 C 74.959 94.965 75.875 94.852 75.947 95.367 C 75.955 95.423 75.963 95.489 75.971 95.545 C 76.71 101.172 78.371 106.565 80.899 111.62 C 80.344 107.014 79.788 102.408 79.233 97.801 C 78.945 96.079 78.73 94.328 78.6 92.559 C 78.555 91.95 79.466 91.978 79.536 92.559 C 79.742 94.272 79.948 95.976 80.154 97.68 C 80.911 102.249 82.218 106.686 84.071 110.946 C 83.437 104.552 82.803 98.167 82.168 91.772 C 82.108 91.173 83.035 91.182 83.104 91.772 C 83.792 97.567 84.976 103.269 86.623 108.858 C 85.941 101.125 85.259 93.382 84.578 85.649 C 84.531 85.125 85.41 85.003 85.497 85.527 C 86.523 91.622 88.145 97.586 90.353 103.344 C 89.721 97.287 89.09 91.22 88.457 85.153 C 88.404 84.544 89.332 84.563 89.393 85.153 C 89.971 91.716 91.392 98.129 93.597 104.318 C 93.239 101.275 92.88 98.232 92.524 95.199 C 91.198 89.366 90.479 83.402 90.426 77.382 C 90.421 76.764 91.294 76.802 91.363 77.382 C 92.054 83.243 92.743 89.104 93.433 94.974 C 94.231 98.485 95.25 101.949 96.505 105.348 C 95.588 94.693 94.67 84.039 93.753 73.375 C 93.7 72.766 94.612 72.795 94.689 73.375 C 95.758 81.483 97.706 89.413 100.458 97.09 C 99.295 89.918 99.022 82.644 99.687 75.379 C 99.724 74.957 100.171 74.836 100.433 75.004 C 97.576 62.384 95.68 49.567 94.75 36.665 C 94.242 50.812 95.597 64.958 98.819 78.768 C 98.956 79.358 98.063 79.601 97.915 79.021 C 96.793 74.583 95.879 70.117 95.108 65.632 C 95.279 67.645 95.449 69.658 95.62 71.68 C 95.667 72.233 94.856 72.27 94.7 71.802 C 92.103 63.872 90.136 55.774 88.796 47.563 C 89.053 50.447 89.343 53.33 89.686 56.205 C 89.749 56.729 88.854 56.841 88.767 56.326 C 87.483 48.752 86.2 41.187 84.917 33.613 C 84.693 33.828 84.213 33.772 84.111 33.416 C 82.989 29.456 81.868 25.496 80.747 21.536 L 81.221 27.612 C 81.259 28.089 80.568 28.239 80.35 27.846 C 78.943 25.346 77.841 22.734 77.043 20.019 C 77.11 22.266 77.178 24.504 77.245 26.741 C 77.255 27.078 76.898 27.265 76.622 27.181 C 80.7 29.924 84.459 33.894 85.467 38.669 C 86.441 43.284 83.794 48.958 78.515 48.93 C 72.047 48.892 69.094 42.011 64.947 38.266 C 59.887 33.697 52.567 34.278 48.065 38.584 C 46.491 40.242 46 42.582 46.773 44.698 C 47.581 45.644 48.685 46.327 49.901 46.852 C 49.89 46.833 49.876 46.814 49.869 46.795 C 49.209 44.951 48.549 43.097 47.889 41.253 C 47.684 40.682 48.59 40.438 48.791 41 C 49.096 41.852 49.401 42.704 49.706 43.565 C 49.543 42.498 49.263 41.449 48.855 40.391 C 48.659 39.886 49.46 39.577 49.71 40.036 C 50.484 41.431 51.257 42.835 52.03 44.23 L 51.102 37.143 C 51.031 36.6 51.877 36.534 52.021 37.012 C 52.905 39.961 54.207 42.666 55.926 45.166 C 55.733 42.46 55.266 39.802 54.486 37.18 C 54.326 36.6 55.218 36.356 55.389 36.927 C 56.245 40.054 57.525 42.966 59.219 45.691 C 59.034 44.239 58.771 42.816 58.434 41.412 C 58.108 40.485 57.844 39.53 57.654 38.538 C 57.541 37.957 58.374 37.714 58.557 38.294 C 58.852 39.231 59.101 40.167 59.327 41.122 C 60.009 43.05 60.987 44.829 62.279 46.449 C 62.046 43.678 61.534 40.981 60.705 38.313 C 60.554 37.723 61.429 37.489 61.607 38.06 C 62.485 41.459 63.852 44.614 65.697 47.544 C 65.201 45.147 64.705 42.751 64.208 40.345 C 64.087 39.764 64.965 39.511 65.112 40.101 C 66.011 43.696 67.437 47.067 69.37 50.194 C 69.058 48.069 68.747 45.943 68.435 43.809 C 68.35 43.228 69.165 42.966 69.338 43.565 C 70.104 46.196 71.196 48.649 72.593 50.971 C 72.517 50.316 72.441 49.651 72.366 48.995 C 72.305 48.462 73.156 48.378 73.286 48.874 C 73.677 50.353 74.346 51.551 75.324 52.619 C 75.343 52.029 75.362 51.439 75.381 50.849 C 75.397 50.381 76.005 50.222 76.254 50.615 L 78.825 54.688 C 79.167 53.649 79.322 52.637 79.315 51.495 C 79.311 50.98 80.132 50.849 80.235 51.373 C 80.725 53.883 81.699 56.139 83.181 58.171 C 83.182 56.336 83.183 54.51 83.185 52.684 C 83.185 52.123 83.916 52.104 84.104 52.563 L 85.576 56.148 C 85.497 55.755 85.418 55.371 85.338 54.978 C 85.217 54.388 86.12 54.145 86.241 54.735 C 86.653 56.747 87.066 58.76 87.479 60.773 C 87.603 61.373 86.801 61.569 86.576 61.017 C 85.757 59.032 84.938 57.038 84.119 55.044 C 84.118 56.532 84.117 58.021 84.115 59.519 C 84.115 59.781 83.858 59.987 83.611 59.987 C 86.108 61.972 88.232 64.34 89.393 67.252 C 91.693 73.029 89.052 79.32 85.639 84.048 C 82.162 88.87 77.419 92.746 72.033 95.255 C 61.01 100.385 47.989 99.168 37.983 92.278 C 33.317 89.066 28.026 84.067 27.104 78.197 C 26.863 76.666 27.022 75.073 27.547 73.651 C 27.54 73.643 27.535 73.631 27.531 73.618 L 27.136 72.448 C 26.229 70.126 24.715 68.226 22.658 66.803 C 23.145 69.677 23.823 72.486 24.699 75.248 C 25.615 76.83 26.261 78.571 26.606 80.453 C 26.716 81.052 25.933 81.249 25.703 80.696 C 25.01 79.039 24.395 77.354 23.849 75.659 C 23.395 74.873 22.868 74.133 22.268 73.441 C 24.499 82.269 27.594 90.827 31.561 99.037 C 31.615 99.15 31.617 99.253 31.595 99.356 C 32.927 101.556 34.438 103.653 36.127 105.628 C 34.646 100.723 33.166 95.826 31.686 90.93 C 31.532 90.415 32.284 90.106 32.542 90.564 C 34.137 93.401 35.732 96.238 37.327 99.075 C 36.963 98.213 36.598 97.361 36.233 96.5 C 35.832 95.601 35.443 94.703 35.081 93.785 C 34.885 93.289 35.731 92.942 35.937 93.429 C 36.322 94.337 36.708 95.246 37.095 96.154 C 38.663 99.646 40.545 102.97 42.727 106.115 C 41.87 103.475 41.015 100.835 40.159 98.195 C 39.989 97.67 40.738 97.408 41.015 97.83 C 43.185 101.163 45.354 104.496 47.524 107.819 C 47.761 107.698 48.116 107.744 48.229 108.072 C 48.435 108.681 48.641 109.289 48.847 109.888 C 49.026 110.422 48.268 110.675 47.992 110.253 L 42.143 101.275 L 44.534 108.653 C 44.713 109.205 43.973 109.401 43.678 109.018 C 42.679 107.707 41.742 106.368 40.855 105.001 C 41.054 105.469 41.254 105.937 41.455 106.415 C 41.683 106.949 40.95 107.426 40.646 106.883 L 33.817 94.74 C 35.094 98.972 36.37 103.194 37.646 107.417 C 37.78 107.857 37.182 108.212 36.863 107.875 C 34.472 105.319 32.398 102.53 30.63 99.562 C 31.136 101.013 31.642 102.464 32.148 103.915 C 32.327 104.43 31.554 104.72 31.292 104.28 C 27.55 97.951 24.453 91.295 22.013 84.357 C 21.935 84.142 22.038 83.964 22.197 83.861 C 18.069 75.772 14.501 67.421 11.507 58.845 C 14.229 69.948 17.733 80.827 22.017 91.435 C 22.217 91.931 21.389 92.268 21.162 91.8 C 17.658 84.554 14.521 77.139 11.747 69.593 C 13.878 77.579 16.008 85.565 18.139 93.551 C 18.272 94.047 17.498 94.412 17.283 93.916 C 13.847 85.977 10.411 78.038 6.976 70.108 C 6.738 69.555 7.545 69.078 7.784 69.63 C 10.393 75.659 13.002 81.689 15.612 87.709 C 12.682 76.736 9.753 65.754 6.822 54.772 C 6.667 54.192 7.555 53.948 7.726 54.519 C 10.154 62.711 13.013 70.754 16.28 78.627 C 13.697 70.978 11.502 63.198 9.705 55.315 C 9.631 54.997 9.873 54.781 10.126 54.744 C 9.947 54.192 9.757 53.639 9.581 53.087 C 9.4 52.506 10.304 52.263 10.485 52.834 C 13.251 61.597 16.618 70.145 20.563 78.44 C 16.859 68.479 13.154 58.517 9.45 48.565 C 9.24 47.994 10.145 47.75 10.353 48.312 C 15.048 60.932 19.742 73.562 24.438 86.183 C 24.497 86.342 24.452 86.473 24.361 86.576 C 24.969 87.634 25.578 88.683 26.187 89.74 C 26.044 89.3 25.89 88.87 25.76 88.42 C 25.709 88.252 25.756 88.111 25.845 88.018 C 23.878 82.766 22.227 77.401 20.923 71.933 C 20.813 71.474 21.361 71.156 21.705 71.474 C 22.184 71.924 22.619 72.401 23.034 72.888 C 22.593 71.259 22.212 69.602 21.904 67.935 C 21.871 67.889 21.839 67.851 21.816 67.795 C 17.14 56.055 12.464 44.314 7.789 32.574 C 7.565 32.012 8.471 31.769 8.691 32.321 C 10.538 36.965 12.386 41.599 14.234 46.243 C 11.595 38.744 8.956 31.235 6.318 23.736 C 6.115 23.165 7.005 22.94 7.22 23.492 C 11.437 34.268 15.691 45.054 20.787 55.446 C 16.286 43.547 13.609 31.02 12.88 18.268 C 12.85 17.734 13.677 17.641 13.8 18.146 C 16.849 30.626 21.37 42.676 27.271 54.07 C 23.919 44.239 20.944 34.287 18.333 24.232 C 17.584 21.676 16.925 19.083 16.385 16.461 C 16.264 15.871 17.147 15.619 17.288 16.208 C 17.909 18.811 18.564 21.395 19.235 23.979 C 20.637 28.763 22.403 33.435 24.527 37.957 C 22.474 30.121 20.421 22.285 18.369 14.439 C 18.213 13.849 19.055 13.643 19.272 14.196 C 21.152 18.942 23.032 23.698 24.912 28.445 C 23.467 22.949 22.021 17.454 20.576 11.949 C 20.419 11.359 21.269 11.153 21.479 11.705 L 27.416 27.237 C 26.227 21.283 25.038 15.319 23.85 9.365 C 23.731 8.765 24.549 8.55 24.752 9.112 C 26.518 14.036 28.283 18.97 30.049 23.895 C 29.215 19.794 28.383 15.703 27.551 11.612 C 27.387 10.891 27.237 10.16 27.105 9.421 C 27 8.831 27.887 8.578 28.008 9.168 L 28.45 11.349 C 29.401 15.553 30.895 19.57 32.923 23.371 C 32.784 18.465 32.191 13.596 31.133 8.793 C 31.002 8.194 31.826 7.988 32.035 8.541 C 33.405 12.183 34.775 15.825 36.145 19.467 C 35.688 16.218 35.233 12.969 34.777 9.72 C 34.711 9.243 35.402 8.822 35.632 9.355 C 37.082 12.707 38.532 16.049 39.981 19.401 C 39.666 15.806 39.014 12.286 37.989 8.803 C 37.842 8.307 38.627 7.951 38.845 8.438 C 40.108 11.284 41.372 14.13 42.635 16.976 C 42.434 15.047 42.232 13.119 42.031 11.19 C 41.972 10.638 42.789 10.6 42.95 11.068 C 43.726 13.315 44.504 15.553 45.28 17.8 C 45.132 16.265 44.984 14.729 44.836 13.203 C 44.781 12.623 45.574 12.641 45.756 13.072 C 46.494 14.842 47.231 16.611 47.969 18.381 L 47.592 13.868 C 47.546 13.315 48.366 13.25 48.511 13.737 C 48.709 14.401 48.906 15.057 49.103 15.722 C 49.196 16.031 48.978 16.246 48.73 16.283 C 48.87 17.95 49.009 19.616 49.148 21.283 L 49.148 21.283 C 49.196 21.863 48.411 21.845 48.229 21.414 C 47.507 19.682 46.786 17.959 46.065 16.227 L 46.588 21.657 C 46.642 22.21 45.83 22.247 45.669 21.779 L 43.384 15.179 C 43.547 16.733 43.71 18.296 43.874 19.85 C 43.921 20.309 43.186 20.506 43.001 20.084 C 42.044 17.931 41.086 15.778 40.128 13.624 C 40.669 16.405 40.993 19.223 41.103 22.079 C 41.119 22.519 40.418 22.743 40.23 22.313 C 38.874 19.186 37.52 16.049 36.165 12.922 C 36.656 16.433 37.149 19.935 37.64 23.436 C 37.723 24.026 36.953 24.26 36.738 23.689 C 35.489 20.365 34.241 17.051 32.992 13.737 C 33.569 17.538 33.874 21.376 33.893 25.243 C 33.895 25.711 33.253 25.88 33.02 25.477 C 31.938 23.623 30.985 21.713 30.16 19.747 C 30.857 23.183 31.555 26.61 32.253 30.046 C 32.373 30.636 31.553 30.861 31.35 30.289 C 29.566 25.318 27.782 20.337 25.998 15.356 C 27.135 21.058 28.272 26.75 29.408 32.452 C 29.528 33.051 28.719 33.257 28.506 32.696 C 26.896 28.492 25.287 24.279 23.677 20.066 C 25.05 25.29 26.423 30.514 27.797 35.738 C 27.953 36.337 27.11 36.534 26.893 35.982 C 25.006 31.216 23.119 26.441 21.231 21.676 C 23.018 28.501 24.806 35.326 26.593 42.152 C 26.725 42.657 25.988 42.985 25.737 42.507 C 24.538 40.242 23.439 37.92 22.424 35.57 C 24.744 43.556 27.291 51.467 30.083 59.303 C 30.265 59.809 29.482 60.109 29.227 59.659 C 22.781 48.246 17.753 36.103 14.234 23.483 C 15.576 36.955 19.111 50.11 24.704 62.44 C 24.724 62.468 24.748 62.496 24.762 62.533 C 24.774 62.571 24.786 62.608 24.799 62.646 C 25.321 63.797 25.856 64.94 26.415 66.072 C 26.556 66.353 26.4 66.615 26.18 66.718 C 26.819 68.608 27.459 70.497 28.099 72.379 L 28.099 72.379 L 28.099 72.379 L 28.099 72.379 L 28.099 72.379 L 28.099 72.379 Z  M 110.96 74.723 C 110.952 74.714 110.943 74.723 110.935 74.714 C 114.834 60.474 112.563 44.867 104.934 32.227 C 97.258 19.504 84.25 10.816 69.737 7.941 C 61.699 6.341 53.404 6.565 45.481 8.653 C 45.47 8.625 45.469 8.606 45.452 8.578 C 42.099 3.288 35.26 2.315 29.49 2.961 C 23.152 3.663 17.096 6.425 12.337 10.666 C 1.867 19.972 -0.396 35.776 6.274 47.956 C 6.256 48.078 6.292 48.2 6.424 48.312 C 6.578 48.434 6.732 48.555 6.885 48.677 C 3.122 62.253 5.241 77.139 12.488 89.207 C 19.81 101.397 32.268 109.72 46.174 112.435 C 53.864 113.942 61.79 113.699 69.353 111.667 C 69.377 111.742 69.421 111.808 69.45 111.882 C 69.455 111.892 69.459 111.892 69.463 111.892 C 69.561 112.014 69.671 112.126 69.774 112.238 C 69.912 112.21 70.057 112.238 70.165 112.36 C 70.582 112.866 71.035 113.324 71.499 113.774 C 71.575 113.783 71.645 113.783 71.708 113.764 C 83.472 120.945 98.04 116.096 107.149 106.78 C 111.895 101.93 116.457 95.573 117.363 88.683 C 118.081 83.234 115.982 77.392 110.96 74.723 L 110.96 74.723 L 110.96 74.723 L 110.96 74.723 L 110.96 74.723 L 110.96 74.723 L 110.96 74.723 Z  M 70.447 17.706 C 70.384 17.117 69.447 17.107 69.511 17.706 C 69.558 18.146 69.605 18.577 69.65 19.017 C 68.727 16.424 68.012 13.765 67.516 11.04 C 67.408 10.451 66.506 10.703 66.613 11.293 C 67.328 15.225 68.485 18.989 70.077 22.65 C 70.26 23.062 70.998 22.865 70.95 22.406 C 70.782 20.843 70.615 19.279 70.447 17.706 Z " fill-rule="evenodd" fill="rgb(254,234,203)"/></g></svg>