<?xml version="1.0" standalone="no"?>
<!DOCTYPE svg PUBLIC "-//W3C//DTD SVG 1.1//EN" "http://www.w3.org/Graphics/SVG/1.1/DTD/svg11.dtd" >
<svg xmlns="http://www.w3.org/2000/svg">
<metadata></metadata>
<defs>
<font id="golden_ratioregular" horiz-adv-x="650" >
<font-face units-per-em="1000" ascent="800" descent="-200" />
<missing-glyph horiz-adv-x="385" />
<glyph horiz-adv-x="385" />
<glyph horiz-adv-x="385" />
<glyph horiz-adv-x="333" />
<glyph unicode=" "  horiz-adv-x="385" />
<glyph unicode="&#x09;" horiz-adv-x="385" />
<glyph unicode="&#xa0;" horiz-adv-x="385" />
<glyph unicode="!" horiz-adv-x="225" d="M75 75v-37v-38h-37h-38v38v37h38h37zM75 800v-312v-313h-37h-38v313v312h38h37z" />
<glyph unicode="&#x22;" horiz-adv-x="500" d="M275 600v162v163h37h38v-163v-162h-38h-37zM50 925h38h37v-163v-162h-37h-38v162v163z" />
<glyph unicode="#" horiz-adv-x="850" d="M637 800l-27 -106l-26 -106h116v-76h-135l-28 -112l-28 -112h191v-76h-210l-26 -106l-27 -106h-77l26 106l27 106h-220l-27 -106l-26 -106h-78l27 106l27 106h-116v76h134l29 112l28 112h-191v76h209l27 106l27 106h77l-27 -106l-26 -106h220l26 106l27 106h77zM432 288 l28 112l28 112h-220l-28 -112l-28 -112h220z" />
<glyph unicode="$" horiz-adv-x="549" d="M162 366q-67 13 -114.5 70.5t-47.5 126t47.5 126t114.5 70.5v41h76v-41q36 -7 70 -30.5t58 -58t30 -70.5l-2 -1l-3 -2l-33 -10l-34 -11q-2 21 -11 41q-7 13 -21 29t-27 24q-13 7 -27 12v-248q44 -8 81 -37.5t59 -72t22 -86.5q0 -69 -47.5 -126.5t-114.5 -70.5v-41h-76v41 q-55 11 -101.5 57.5t-56.5 101.5l36 12l36 11q2 -21 11 -40q7 -14 21 -29.5t27 -23.5q13 -7 27 -12v248zM288 326q-10 11 -23 18.5t-27 12.5v-239q14 5 27 12q25 16 42.5 47t17.5 61q0 14 -5 30.5t-13.5 32t-18.5 25.5zM112 651q-16 -15 -26.5 -41t-10.5 -48q0 -19 8 -40 t22 -39t30 -28q13 -7 27 -12v239q-14 -5 -27 -12.5t-23 -18.5z" />
<glyph unicode="%" horiz-adv-x="825" d="M138 525h-1q-15 0 -33.5 5.5t-35.5 14.5t-28 20q-16 17 -28 45.5t-12 51.5q0 57 40.5 97.5t97 40.5t97 -40.5t40.5 -97t-40.5 -97t-96.5 -40.5zM137.5 725q-25.5 0 -44 -18.5t-18.5 -44t18.5 -44t44 -18.5t44 18.5t18.5 44t-18.5 44t-44 18.5zM400 138q0 15 5.5 33.5 t14.5 35.5t20 28q17 16 45.5 28t52.5 12q56 0 96.5 -40.5t40.5 -97t-40.5 -97t-97 -40.5t-97 40.5t-40.5 97.5zM600 138q0 25 -18.5 43.5t-44 18.5t-44 -18.5t-18.5 -44t18.5 -44t44 -18.5t44 18.5t18.5 43.5v1zM96 0l200 400l199 400h42h42l-200 -400l-199 -400h-42h-42z " />
<glyph unicode="&#x26;" horiz-adv-x="803" d="M354 60q-61 -61 -147 -61t-146.5 61t-60.5 147t61 147l47 46l47 47l-34 33l-33 33q-49 49 -49 119t49 119l1 1q49 49 118.5 49t119 -49.5t49.5 -119t-49 -119.5l-33 -33l-33 -33l47 -47l46 -46l47 -47l47 -47l76 76l76 76l26 -27l27 -26l-76 -76l-76 -76l76 -76l76 -76 l-27 -27l-26 -26l-76 76l-76 76l-47 -47zM141 566l33 -33l33 -33l33 33l34 33q27 28 27 66.5t-27.5 66t-66 27.5t-66 -27.5t-27.5 -66t27 -66.5zM348 160l46 47l-46 47l-47 47l-47 46l-47 47l-47 -47l-46 -46l-1 -1q-38 -39 -38 -93q0 -55 38.5 -94t93.5 -39t94 39z" />
<glyph unicode="'" horiz-adv-x="275" d="M0 925h38h37v-163v-162h-37h-38v162v163z" />
<glyph unicode="(" horiz-adv-x="415" d="M55 105q-22 59 -38.5 145.5t-16.5 149.5t16.5 149.5t38.5 145.5q27 70 66 133q39 65 88 122l29 -24l28 -25q-94 -109 -142 -237q-20 -53 -34.5 -130t-14.5 -134t14.5 -134t34.5 -130q48 -128 142 -237l-28 -25l-29 -24q-49 57 -88 122q-39 63 -66 133z" />
<glyph unicode=")" horiz-adv-x="415" d="M211 105q-27 -70 -66 -133q-39 -65 -88 -122l-29 24l-28 25q94 109 142 237q10 26 19 60.5t15.5 69.5t10.5 70.5t4 63.5q0 57 -14.5 134t-34.5 130q-48 128 -142 237l28 25l29 24q49 -57 88 -122q39 -63 66 -133q22 -59 38.5 -145.5t16.5 -149.5q0 -31 -4.5 -70.5 t-12 -79t-17.5 -78t-21 -67.5z" />
<glyph unicode="*" horiz-adv-x="523" d="M149 800h38h37v-66v-66l63 20l63 21l12 -36l11 -36l-63 -20l-63 -21l39 -53l39 -54l-30 -22l-31 -22l-39 54l-38 53l-39 -53l-39 -54l-31 22l-30 22l39 54l39 53l-63 21l-63 20l12 36l11 36l63 -21l63 -20v66v66z" />
<glyph unicode="+" horiz-adv-x="550" d="M162 200v81v81h-81h-81v38v38h81h81v81v81h38h38v-81v-81h81h81v-38v-38h-81h-81v-81v-81h-38h-38z" />
<glyph unicode="," horiz-adv-x="301" d="M0 -129q25 25 48 70q29 57 29 109v75h75v-75q0 -72 -39 -147q-28 -54 -60 -85l-26 26z" />
<glyph unicode="-" horiz-adv-x="550" d="M400 438v-38v-38h-200h-200v38v38h200h200z" />
<glyph unicode="." horiz-adv-x="225" d="M75 75v-37v-38h-37h-38v38v37h38h37z" />
<glyph unicode="/" horiz-adv-x="427" d="M277 800l-100 -400l-100 -400h-38h-39l100 400l100 400h39h38z" />
<glyph unicode="0" horiz-adv-x="699" d="M274.5 0q-121.5 0 -198.5 117q-76 114 -76 283t76 283q77 117 199 117q124 0 201 -117q74 -113 74 -283q0 -169 -76 -283q-78 -117 -199.5 -117zM75 400v-1q0 -35 4 -69t13 -66q8 -29 20 -57q11 -25 26 -48q13 -20 30 -37q15 -15 33 -26q17 -11 35.5 -16t38 -5t38.5 5 t36 16q18 11 33 26q17 17 30 37q15 23 26 48q12 28 20 57q8 32 13 66q4 34 4 69v1v0.5v0.5q0 35 -4 70q-4 33 -13 66q-7 29 -19 56q-11 26 -26 49q-13 19 -29 36q-15 15 -33 26q-17 11 -36.5 16t-39.5 5v0q-20 0 -38 -5q-19 -5 -36 -16q-18 -11 -33 -26q-17 -17 -30 -37 q-15 -23 -26 -48q-12 -28 -20 -57q-9 -32 -13 -66t-4 -69v-1z" />
<glyph unicode="1" horiz-adv-x="550" d="M325 650l-140 -105l-140 -105l-23 30l-22 30l200 150l200 150v-54v-55v-51v-51v-294v-295h-38h-37v279v280v45v46z" />
<glyph unicode="2" d="M500 550q0 -39 -18 -87.5t-44 -77.5v0l-136 -155l-136 -155h334v-75h-500l134 152q38 44 123.5 141.5t124.5 141.5v0q18 20 30.5 54t12.5 61q0 73 -51.5 124t-123.5 51q-48 0 -88 -23.5t-63.5 -63.5t-23.5 -88q0 -30 15 -66.5t36 -57.5l-26 -26l-27 -27 q-30 31 -51.5 82.5t-21.5 94.5q0 104 73 177t176.5 73t177 -73t73.5 -177z" />
<glyph unicode="3" d="M371 469q53 -30 91 -94t38 -125q0 -103 -73 -176.5t-176.5 -73.5t-177 73.5t-73.5 176.5q0 13 1.5 25.5t3.5 24.5l37 -7l36 -8q-1 -9 -2 -17.5t-1 -17.5q0 -73 51.5 -124t124 -51t123.5 51t51 124q0 35 -13.5 67.5t-37 56t-56 37.5t-68.5 14h-25v75h25q31 0 57 15t41 41 t15 57q0 46 -33 79t-80 33q-30 0 -56 -15t-41.5 -41t-15.5 -56q0 -15 4 -29t11 -27l-33 -18l-32 -19q-5 9 -9.5 21t-8 24t-5.5 25t-2 23q0 77 55 132t133 55t133 -55t55 -132q0 -37 -20 -79t-47 -65z" />
<glyph unicode="4" d="M400 725v-375h100v-75h-100v-275h-75v275h-325v75l162 225l163 225h75v-75zM93 350h232v322l-116 -161z" />
<glyph unicode="5" horiz-adv-x="649" d="M250 500q103 0 176.5 -73t73.5 -177q0 -68 -33.5 -125.5t-91 -91t-125.5 -33.5q-103 0 -176 73t-74 176h75q1 -72 52 -123t123 -51q73 0 124 51t51 124q0 47 -23 87.5t-63.5 64t-88.5 23.5v0h-200v375h400v-75h-325v-225h125z" />
<glyph unicode="6" d="M250 500q104 0 177 -73t73 -177t-73 -177t-177 -73t-177 73t-73 177v137q0 77 33 152t93 135t135 93t152 33v-75q-118 0 -217 -88q-98 -87 -117 -205q29 28 79.5 48t91.5 20zM374 126q24 25 38 57q13 32 13 67q0 72 -51 122.5t-123 50.5t-123 -50.5t-51 -122.5 q0 -48 23.5 -88t63.5 -63t87 -23q30 0 66 14.5t57 35.5z" />
<glyph unicode="7" horiz-adv-x="600" d="M368 800h1h2h40h39l-184 -400l-184 -400h-40h-40l166 362l165 363h-166h-167v37v38h184h184z" />
<glyph unicode="8" d="M371 469q53 -30 91 -94t38 -125q0 -104 -73 -177t-177 -73t-177 73t-73 177q0 61 38 125t91 94q-27 23 -47 65t-20 79q0 77 55 132t133 55q51 0 94 -25t68.5 -68t25.5 -94q0 -37 -20 -79t-47 -65zM170 533q16 -16 36.5 -24.5t43.5 -8.5q46 0 78.5 32.5t32.5 79.5 q0 30 -14.5 56t-40.5 41t-56 15q-47 0 -79.5 -33t-32.5 -79q0 -19 9.5 -42.5t22.5 -36.5zM374 126q24 25 38 57q13 32 13 67q0 72 -51 122.5t-123 50.5t-123 -50.5t-51 -122.5t51 -123t123 -51q30 0 66 14.5t57 35.5z" />
<glyph unicode="9" d="M250 800q104 0 177 -73t73 -177v-300q0 -104 -73.5 -177t-176.5 -73q-85 0 -156.5 58.5t-88.5 141.5l37 7l36 8q6 -25 18 -48q13 -25 38.5 -46t56 -33.5t59.5 -12.5q72 0 123.5 51.5t51.5 123.5v121q-20 -19 -50.5 -35.5t-63.5 -26t-61 -9.5q-104 0 -177 73t-73 176.5 t73 177t177 73.5zM374 426q24 25 38 57q13 32 13 67q0 47 -23.5 87t-63.5 63t-87 23q-72 0 -123 -50.5t-51 -122.5t51 -123t123 -51q30 0 66 14.5t57 35.5z" />
<glyph unicode=":" horiz-adv-x="225" d="M75 475v-37v-38h-37h-38v38v37h38h37zM75 75v-37v-38h-37h-38v38v37h38h37z" />
<glyph unicode=";" horiz-adv-x="301" d="M152 400h-38h-37v38v37h37h38v-37v-38zM152 50q0 -72 -39 -147q-28 -54 -60 -85l-26 26l-27 27q25 25 48 70q29 57 29 109v75h75v-75z" />
<glyph unicode="&#x3c;" horiz-adv-x="684" d="M498 705l19 -33l18 -33l-196 -119l-195 -120l195 -120l196 -119l-18 -33l-19 -33l-249 153l-249 152l249 152z" />
<glyph unicode="=" horiz-adv-x="550" d="M400 325v-38v-37h-200h-200v37v38h200h200zM400 550v-38v-37h-200h-200v37v38h200h200z" />
<glyph unicode="&#x3e;" horiz-adv-x="684" d="M36 705l250 -153l249 -152l-249 -152l-250 -153l-18 33l-18 33l195 119l196 120l-196 120l-195 119l18 33z" />
<glyph unicode="?" horiz-adv-x="600" d="M85 522l-36 -13l-35 -13q-14 38 -14 79q0 93 66 159t159 66t159 -66t66 -159v-1q0 -29 -7.5 -56.5t-22.5 -52.5q-12 -20 -29 -38q-10 -12 -32 -34q-49 -50 -67 -83q-30 -55 -30 -135h-74q0 100 39 172q23 42 79 99q37 37 49 57q20 32 20 72q0 62 -44 106t-106 44 t-106 -44t-44 -106q0 -14 2.5 -27t7.5 -26zM188 0v38v37h37h37v-37v-38h-37h-37z" />
<glyph unicode="@" horiz-adv-x="950" d="M683 683q27 -28 49 -60q18 -27 36 -69t24 -74q8 -40 8 -80v-1q0 -28 -4 -55q-3 -26 -10 -50q-7 -21 -17 -41q-9 -18 -22 -34q-11 -13 -25 -25q-13 -10 -28 -18q-14 -6 -28 -10t-29 -4q-17 0 -39 8t-35 18q-32 26 -45 67q-21 -18 -56 -30.5t-62 -12.5q-78 0 -133 55 t-55 133t55 133t132.5 55t133 -55t55.5 -133v-103q0 -26 14 -42.5t36 -16.5q32 0 56 36q31 45 31 126q0 88 -43.5 163t-118.5 118.5t-163 43.5t-163 -43.5t-118.5 -118.5t-43.5 -163t43.5 -163t118.5 -118.5t163 -43.5q20 0 40 2.5t39 7.5l9 -37l9 -36q-48 -12 -97 -12 q-40 0 -79.5 8t-76.5 23q-45 20 -96.5 62.5t-79.5 83.5q-12 18 -24.5 43.5t-22 52t-13.5 47.5q-8 40 -8 80t8 79.5t23 76.5q20 45 62.5 96.5t83.5 79.5q18 12 43.5 24.5t52 22t47.5 13.5q40 8 80 8t79.5 -8t76.5 -23q30 -13 67 -38t60 -48zM400 288q22 0 43 8q29 12 49 42 t20 61q0 47 -32.5 79.5t-79 32.5t-79 -32.5t-32.5 -79t32.5 -79t78.5 -32.5z" />
<glyph unicode="A" d="M288 800l212 -800h-75l-59 225h-229l-59 -225h-78l212 800h76zM157 300h189l-92 344l-3 11l-1 -6l-1 -2l-1 -6z" />
<glyph unicode="B" horiz-adv-x="649" d="M250 0h-250v800h212h1q77 0 132 -55t55 -132q0 -32 -16 -70.5t-38 -61.5q64 -27 109 -94.5t45 -136.5q0 -29 -6.5 -57t-19 -53t-29.5 -46.5t-38.5 -38.5t-46.5 -29.5t-53 -19t-57 -6.5zM75 725v-225h137h1q46 0 79 33t33 79.5t-33 79.5t-79 33h-1h-137zM75 425v-350h175 q73 0 124 51.5t51 123.5t-51 123.5t-124 51.5h-175z" />
<glyph unicode="C" horiz-adv-x="649" d="M300 0q-124 0 -212 88t-88 212v200q0 82 40.5 151t109.5 109t150 40q47 0 106 -22.5t94 -53.5l-25 -28l-25 -28q-27 24 -71 40.5t-79 16.5q-93 0 -159 -66t-66 -159v-200q0 -93 66 -159t159 -66q35 0 79 16.5t71 40.5l25 -28l25 -28q-35 -31 -93.5 -53.5t-106.5 -22.5z " />
<glyph unicode="D" d="M100 0h-100v800h100q166 0 283 -117t117 -283t-117 -283t-283 -117zM75 725v-650h25h1q41 0 94 16t86 39q22 15 48 41t41 48q17 26 29 55q13 29 19.5 61t6.5 65t-6.5 65t-19.5 61q-12 29 -29 55q-15 22 -41 48t-48 41t-56 29t-60 20q-32 6 -65 6h-25z" />
<glyph unicode="E" d="M75 0h-13h-12h-25h-25v400v400h25h25h12h13h213h212v-38v-37h-212h-213v-113v-112h113h112v-38v-37h-112h-113v-175v-175h213h212v-37v-38h-212h-213z" />
<glyph unicode="F" horiz-adv-x="648" d="M75 425v-213v-212h-37h-38v212v213v37v38v112v113v37v38h38h37h212h212v-38v-37h-212h-212v-113v-112h114h113v-38v-37h-113h-114z" />
<glyph unicode="G" horiz-adv-x="750" d="M300 0q-124 0 -212 88t-88 212v200q0 124 88 212t212 88q47 0 106 -22.5t94 -53.5l-25 -28l-25 -28q-27 24 -71 40.5t-79 16.5q-61 0 -113 -30t-82 -82t-30 -113v-200q0 -93 66 -159t159 -66t159 66t66 159h-175v75h250v-75q0 -124 -88 -212t-212 -88z" />
<glyph unicode="H" d="M425 500v150v150h37h38v-400v-400h-38h-37v212v213h-175h-175v-213v-212h-37h-38v400v400h38h37v-150v-150h175h175z" />
<glyph unicode="I" horiz-adv-x="225" d="M75 800v-400v-400h-37h-38v400v400h38h37z" />
<glyph unicode="J" horiz-adv-x="550" d="M188 0h-1q-52 0 -107 33t-80 79l33 18l33 18q5 -9 11 -17t13 -16q8 -8 20 -15.5t25 -13t27 -8.5t26 -3q56 0 96.5 40t40.5 97v588h75v-588q0 -87 -62.5 -149.5t-149.5 -62.5z" />
<glyph unicode="K" horiz-adv-x="651" d="M75 344v-172v-172h-37h-38v400v400h38h37v-172v-172l162 172l161 172h30h30h22h21l-188 -200l-188 -200l188 -200l188 -200h-21h-22h-30h-30l-161 172z" />
<glyph unicode="L" horiz-adv-x="550" d="M75 0h-37h-38v38v37v363v362h38h37v-362v-363h163h162v-37v-38h-162h-163z" />
<glyph unicode="M" horiz-adv-x="750" d="M75 255v-128v-127h-37h-38v400v400h38h37l113 -150l112 -150l113 150l112 150h38h37v-273v-272v-128v-127h-37h-38v338v337l-82 -110l-83 -110l-30 -40l-30 -40l-30 40l-30 40l-82 110l-83 110v-210v-210z" />
<glyph unicode="N" d="M75 643v-321v-322h-37h-38v400v400h27h27h11h10l175 -322l175 -321v321v322h38h37v-400v-400h-27h-27h-11h-10l-175 322z" />
<glyph unicode="O" horiz-adv-x="750" d="M300 800q124 0 212 -88t88 -212v-200q0 -124 -88 -212t-212 -88t-212 88t-88 212v200q0 124 88 212t212 88zM525 300v200q0 46 -18 87.5t-48 72t-71.5 48t-87.5 17.5q-93 0 -159 -66t-66 -159v-200q0 -93 66 -159t159 -66t159 66t66 159z" />
<glyph unicode="P" d="M75 250v-250h-75v800h225q114 0 194.5 -80.5t80.5 -194.5t-80.5 -194.5t-194.5 -80.5h-150zM75 725v-400h150q83 0 141.5 58.5t58.5 141.5t-58.5 141.5t-141.5 58.5h-150z" />
<glyph unicode="Q" horiz-adv-x="770" d="M300 0q-124 0 -212 88t-88 212v200q0 124 88 212t212 88t212 -88t88 -212v-200q0 -28 -8.5 -62.5t-23 -66.5t-30.5 -54l41 -42l42 -41l-27 -27l-27 -26l-41 41l-41 42q-34 -27 -88 -45.5t-97 -18.5zM75 500v-200q0 -93 66 -159t159 -66q35 0 69 11t62 31l-41 41l-42 42 l27 26l26 27l42 -41l41 -42q20 29 30 62q11 33 11 68v200q0 46 -18 87.5t-48 72t-71.5 48t-87.5 17.5q-93 0 -159 -66t-66 -159z" />
<glyph unicode="R" d="M225 800q114 0 194.5 -80.5t80.5 -194.5q0 -70 -44 -141.5t-106 -103.5q24 -15 50.5 -43.5t40.5 -53.5q14 -26 24 -64.5t10 -68.5v-50h-75v50q0 83 -58.5 141.5t-141.5 58.5h-125v-250h-75v800h225zM366 384q25 24 42 65.5t17 75.5q0 83 -58.5 141.5t-141.5 58.5h-150 v-400h150h1q34 0 75 17t65 42z" />
<glyph unicode="S" d="M250 0q-104 0 -177 73t-73 177h75q0 -73 51.5 -124t124 -51t123.5 51t51 124q0 35 -13.5 67.5t-37 56t-56 37.5t-68.5 14q-78 0 -133 55t-55 132.5t55 132.5t133 55t133 -55t55 -133h-76v1q0 46 -33 79t-79.5 33t-79.5 -33t-33 -79.5t33 -79.5t80 -33q104 0 177 -73 t73 -177t-73 -177t-177 -73z" />
<glyph unicode="T" d="M213 0v362v363h-107h-106v37v38h106h107h37h38h106h106v-38v-37h-106h-106v-363v-362h-38h-37z" />
<glyph unicode="U" d="M250 0q-104 0 -177 73t-73 177v550h75v-550q0 -73 51.5 -124t123.5 -51t123.5 51t51.5 124v550h75v-550q0 -104 -73 -177t-177 -73z" />
<glyph unicode="V" d="M288 0h-38h-38l-106 400l-106 400h39h39l10 -38l10 -37l76 -287l76 -287l76 287l76 287l10 37l10 38h39h39l-106 -400z" />
<glyph unicode="W" horiz-adv-x="850" d="M188 0h-38h-37l-57 400l-56 400h38h38l5 -38l5 -37l43 -299l42 -300l56 105l57 105l33 61l33 61l33 -61l33 -61l57 -105l56 -105l42 300l43 299l5 37l5 38h38h38l-56 -400l-57 -400h-37h-38l-81 150l-81 150l-81 -150z" />
<glyph unicode="X" d="M85 0h-43h-42l104 200l104 200l-104 200l-104 200h42h43l82 -159l83 -160l83 160l82 159h43h42l-104 -200l-104 -200l104 -200l104 -200h-42h-43l-82 159l-83 160l-83 -160z" />
<glyph unicode="Y" d="M250 481l83 160l82 159h43h42l-104 -200l-104 -200l-2 -5l-2 -4v-196v-195h-38h-38v195v196l-2 4l-2 5l-104 200l-104 200h42h43l82 -159z" />
<glyph unicode="Z" d="M83 0h-41h-42l188 362l189 363h-189h-188v37v38h208h208h1h41h42l-188 -362l-189 -363h189h188v-37v-38h-208h-208h-1z" />
<glyph unicode="[" horiz-adv-x="400" d="M250 875h-88h-87v-475v-475h87h88v-37v-38h-88h-87h-38h-37v38v37v475v475v37v38h37h38h87h88v-38v-37z" />
<glyph unicode="\" horiz-adv-x="427" d="M0 800h39h38l100 -400l100 -400h-38h-39l-100 400z" />
<glyph unicode="]" horiz-adv-x="400" d="M0 875v37v38h88h87h38h37v-38v-37v-475v-475v-37v-38h-37h-38h-87h-88v38v37h88h87v475v475h-87h-88z" />
<glyph unicode="^" horiz-adv-x="497" d="M174 715l-69 -37l-69 -38l-18 33l-18 33l87 47l87 47l87 -47l87 -47l-18 -33l-18 -33l-69 38z" />
<glyph unicode="_" horiz-adv-x="750" d="M0 0v38v37h300h300v-37v-38h-300h-300z" />
<glyph unicode="`" horiz-adv-x="504" d="M355 680l-13 -35l-13 -35l-165 60l-164 60l13 35l13 35l164 -60z" />
<glyph unicode="a" d="M137 225l-30 -113l-29 -112h-78l106 400l106 400h76l106 -400l106 -400h-75l-29 112l-30 113h-229zM250 649l-46 -174l-47 -175h189l-47 175l-46 174l-1 -3l-1 -3v3z" />
<glyph unicode="b" horiz-adv-x="649" d="M250 0h-250v800h212h1q77 0 132 -55t55 -132q0 -32 -16 -70.5t-38 -61.5q64 -27 109 -94.5t45 -136.5q0 -29 -6.5 -57t-19 -53t-29.5 -46.5t-38.5 -38.5t-46.5 -29.5t-53 -19t-57 -6.5zM75 725v-225h137h1q46 0 79 33t33 79.5t-33 79.5t-79 33h-1h-137zM75 425v-350h175 q73 0 124 51.5t51 123.5t-51 123.5t-124 51.5h-175z" />
<glyph unicode="c" horiz-adv-x="649" d="M300 0q-124 0 -212 88t-88 212v200q0 82 40.5 151t109.5 109t150 40q47 0 106 -22.5t94 -53.5l-25 -28l-25 -28q-27 24 -71 40.5t-79 16.5q-93 0 -159 -66t-66 -159v-200q0 -93 66 -159t159 -66q35 0 79 16.5t71 40.5l25 -28l25 -28q-35 -31 -93.5 -53.5t-106.5 -22.5z " />
<glyph unicode="d" d="M100 0h-100v800h100q166 0 283 -117t117 -283t-117 -283t-283 -117zM75 725v-650h25h1q41 0 94 16t86 39q22 15 48 41t41 48q17 26 29 55q13 29 19.5 61t6.5 65t-6.5 65t-19.5 61q-12 29 -29 55q-15 22 -41 48t-48 41t-56 29t-60 20q-32 6 -65 6h-25z" />
<glyph unicode="e" d="M75 0h-13h-12h-25h-25v400v400h25h25h12h13h213h212v-38v-37h-212h-213v-113v-112h113h112v-38v-37h-112h-113v-175v-175h213h212v-37v-38h-212h-213z" />
<glyph unicode="f" horiz-adv-x="648" d="M75 425v-213v-212h-37h-38v212v213v37v38v112v113v37v38h38h37h212h212v-38v-37h-212h-212v-113v-112h114h113v-38v-37h-113h-114z" />
<glyph unicode="g" horiz-adv-x="750" d="M300 0q-124 0 -212 88t-88 212v200q0 124 88 212t212 88q47 0 106 -22.5t94 -53.5l-25 -28l-25 -28q-27 24 -71 40.5t-79 16.5q-61 0 -113 -30t-82 -82t-30 -113v-200q0 -93 66 -159t159 -66t159 66t66 159h-175v75h250v-75q0 -124 -88 -212t-212 -88z" />
<glyph unicode="h" d="M425 500v150v150h37h38v-400v-400h-38h-37v212v213h-175h-175v-213v-212h-37h-38v400v400h38h37v-150v-150h175h175z" />
<glyph unicode="i" horiz-adv-x="225" d="M75 800v-400v-400h-37h-38v400v400h38h37z" />
<glyph unicode="j" horiz-adv-x="550" d="M188 0h-1q-52 0 -107 33t-80 79l33 18l33 18q5 -9 11 -17t13 -16q8 -8 20 -15.5t25 -13t27 -8.5t26 -3q56 0 96.5 40t40.5 97v588h75v-588q0 -87 -62.5 -149.5t-149.5 -62.5z" />
<glyph unicode="k" horiz-adv-x="651" d="M75 344v-172v-172h-37h-38v400v400h38h37v-172v-172l162 172l161 172h30h30h22h21l-188 -200l-188 -200l188 -200l188 -200h-21h-22h-30h-30l-161 172z" />
<glyph unicode="l" horiz-adv-x="550" d="M75 0h-37h-38v38v37v363v362h38h37v-362v-363h163h162v-37v-38h-162h-163z" />
<glyph unicode="m" horiz-adv-x="750" d="M75 255v-128v-127h-37h-38v400v400h38h37l113 -150l112 -150l113 150l112 150h38h37v-273v-272v-128v-127h-37h-38v338v337l-82 -110l-83 -110l-30 -40l-30 -40l-30 40l-30 40l-82 110l-83 110v-210v-210z" />
<glyph unicode="n" d="M75 643v-321v-322h-37h-38v400v400h27h27h11h10l175 -322l175 -321v321v322h38h37v-400v-400h-27h-27h-11h-10l-175 322z" />
<glyph unicode="o" horiz-adv-x="750" d="M300 800q124 0 212 -88t88 -212v-200q0 -124 -88 -212t-212 -88t-212 88t-88 212v200q0 124 88 212t212 88zM525 300v200q0 46 -18 87.5t-48 72t-71.5 48t-87.5 17.5q-93 0 -159 -66t-66 -159v-200q0 -93 66 -159t159 -66t159 66t66 159z" />
<glyph unicode="p" d="M75 250v-250h-75v800h225q114 0 194.5 -80.5t80.5 -194.5t-80.5 -194.5t-194.5 -80.5h-150zM75 725v-400h150q83 0 141.5 58.5t58.5 141.5t-58.5 141.5t-141.5 58.5h-150z" />
<glyph unicode="q" horiz-adv-x="770" d="M300 0q-124 0 -212 88t-88 212v200q0 124 88 212t212 88t212 -88t88 -212v-200q0 -28 -8.5 -62.5t-23 -66.5t-30.5 -54l41 -42l42 -41l-27 -27l-27 -26l-41 41l-41 42q-34 -27 -88 -45.5t-97 -18.5zM75 500v-200q0 -93 66 -159t159 -66q35 0 69 11t62 31l-41 41l-42 42 l27 26l26 27l42 -41l41 -42q20 29 30 62q11 33 11 68v200q0 46 -18 87.5t-48 72t-71.5 48t-87.5 17.5q-93 0 -159 -66t-66 -159z" />
<glyph unicode="r" d="M225 800q114 0 194.5 -80.5t80.5 -194.5q0 -70 -44 -141.5t-106 -103.5q24 -15 50.5 -43.5t40.5 -53.5q14 -26 24 -64.5t10 -68.5v-50h-75v50q0 83 -58.5 141.5t-141.5 58.5h-125v-250h-75v800h225zM366 384q25 24 42 65.5t17 75.5q0 83 -58.5 141.5t-141.5 58.5h-150 v-400h150h1q34 0 75 17t65 42z" />
<glyph unicode="s" d="M250 0q-104 0 -177 73t-73 177h75q0 -73 51.5 -124t124 -51t123.5 51t51 124q0 35 -13.5 67.5t-37 56t-56 37.5t-68.5 14q-78 0 -133 55t-55 132.5t55 132.5t133 55t133 -55t55 -133h-76v1q0 46 -33 79t-79.5 33t-79.5 -33t-33 -79.5t33 -79.5t80 -33q104 0 177 -73 t73 -177t-73 -177t-177 -73z" />
<glyph unicode="t" d="M213 0v362v363h-107h-106v37v38h106h107h37h38h106h106v-38v-37h-106h-106v-363v-362h-38h-37z" />
<glyph unicode="u" d="M250 0q-104 0 -177 73t-73 177v550h75v-550q0 -73 51.5 -124t123.5 -51t123.5 51t51.5 124v550h75v-550q0 -104 -73 -177t-177 -73z" />
<glyph unicode="v" d="M288 0h-38h-38l-106 400l-106 400h39h39l10 -38l10 -37l76 -287l76 -287l76 287l76 287l10 37l10 38h39h39l-106 -400z" />
<glyph unicode="w" horiz-adv-x="850" d="M188 0h-38h-37l-57 400l-56 400h38h38l5 -38l5 -37l43 -299l42 -300l56 105l57 105l33 61l33 61l33 -61l33 -61l57 -105l56 -105l42 300l43 299l5 37l5 38h38h38l-56 -400l-57 -400h-37h-38l-81 150l-81 150l-81 -150z" />
<glyph unicode="x" d="M85 0h-43h-42l104 200l104 200l-104 200l-104 200h42h43l82 -159l83 -160l83 160l82 159h43h42l-104 -200l-104 -200l104 -200l104 -200h-42h-43l-82 159l-83 160l-83 -160z" />
<glyph unicode="y" d="M250 481l83 160l82 159h43h42l-104 -200l-104 -200l-2 -5l-2 -4v-196v-195h-38h-38v195v196l-2 4l-2 5l-104 200l-104 200h42h43l82 -159z" />
<glyph unicode="z" d="M83 0h-41h-42l188 362l189 363h-189h-188v37v38h208h208h1h41h42l-188 -362l-189 -363h189h188v-37v-38h-208h-208h-1z" />
<glyph unicode="{" horiz-adv-x="390" d="M109 -24q-8 34 -10 78v29v51q1 33 1 49q0 37 -3 62q-8 54 -39 89l-29 33l-29 33l29 33l29 33q30 35 38 88q3 25 3 62v50q-1 34 -1 51v29q2 45 10 79q5 23 15 44q9 19 22 36q15 18 35 29q14 8 38 16l11 -34l11 -34q-16 -5 -24 -10q-8 -4 -14 -12q-9 -10 -14 -23 q-7 -14 -10 -29q-7 -28 -8 -68v-23v-49q1 -35 1 -51q0 -48 -5 -81q-12 -69 -54 -117l-8 -9l-9 -10l9 -10l8 -9q43 -49 55 -118q5 -33 5 -81q0 -16 -1 -50q-1 -33 -1 -49q0 -12 1 -23q1 -39 8 -67q3 -15 9 -29q6 -13 14 -24q6 -8 15 -12q8 -5 23 -10l-12 -34l-12 -34 q-22 8 -36 16q-20 12 -35 30q-13 17 -21 36q-10 22 -15 44z" />
<glyph unicode="|" horiz-adv-x="225" d="M75 840v-440v-440h-37h-38v440v440h38h37z" />
<glyph unicode="}" horiz-adv-x="390" d="M132 -24q-6 -22 -15 -44q-9 -19 -22 -36q-14 -18 -35 -30q-14 -8 -36 -16l-12 34l-12 34q15 5 23 10q9 4 15 12q9 11 14 24q6 14 10 29q6 28 8 67v23q0 16 -1 49q-1 34 -1 50q0 48 6 81q12 69 54 118l9 9l8 10l-8 10l-9 9q-42 48 -53 117q-6 33 -6 81q0 16 1 51 q1 32 1 49v23q-2 40 -8 68q-4 15 -10 29q-6 13 -14 23q-6 8 -15 12q-8 5 -24 10l11 34l12 34q23 -8 37 -16q21 -11 35 -29q13 -17 22 -36q10 -21 15 -44q9 -34 10 -79q1 -13 1 -29q0 -17 -1 -51t-1 -50q0 -37 4 -62q8 -53 37 -88l29 -33l29 -33l-29 -33l-29 -33 q-30 -35 -38 -89q-4 -25 -4 -62q0 -16 1 -49q1 -34 1 -51q0 -16 -1 -29q-1 -44 -9 -78z" />
<glyph unicode="~" horiz-adv-x="712" d="M470 427q7 9 14.5 19t15.5 22l31 -20l32 -20q-9 -14 -18 -26t-17 -23l-2 -2l-2 -2v-1l-2 -2l-2 -2v0q-20 -23 -46 -40q-36 -23 -76 -24q-2 -1 -3.5 -1h-2.5q-36 0 -71 17.5t-69 50.5q-23 23 -45 35t-42 12h-2h-1q-12 -1 -23 -5q-12 -5 -22 -12q-7 -5 -12.5 -10t-10.5 -11 l-1 -1l-1 -2q-7 -7 -14.5 -17t-14.5 -21l-32 20l-31 21q9 14 18 25.5t18 21.5v1h1q8 10 17 18.5t19 15.5q19 14 41 22q22 7 44 8q2 1 3.5 1h3.5q36 0 71 -17.5t69 -50.5q23 -23 44.5 -35t42.5 -12h1h2q21 1 41 15q15 10 26 23q1 1 1 1.5t1 0.5v0q1 1 1.5 2t1.5 1v1l1.5 1.5z " />
<glyph unicode="&#xa2;" horiz-adv-x="649" d="M228 800h76v-100q46 -1 103.5 -23t92.5 -53l-25 -28l-25 -28q-26 23 -69 40t-77 17v-450q17 0 37.5 5t40 12.5t37.5 18t31 21.5l25 -28l25 -28q-11 -10 -26 -19.5t-31.5 -18t-34.5 -15.5t-36 -12t-35.5 -8t-32.5 -3v-100h-76v109q-94 23 -161 108.5t-67 182.5t67 182.5 t161 108.5v109zM141 241q18 -19 41 -33q22 -13 46 -21v426q-24 -8 -46 -21q-29 -18 -53.5 -50t-39 -70t-14.5 -72q0 -25 9 -55.5t24 -58t33 -45.5z" />
<glyph unicode="&#xa3;" horiz-adv-x="675" d="M0 301v75h81q-26 43 -38 74q-18 47 -18 99q0 68 33.5 126t91 91t125.5 33q104 0 177 -73t73 -177q0 -26 -5 -51q-6 -25 -16 -49l-34 15l-35 15q15 33 15 70q0 73 -51.5 124t-123.5 51t-123.5 -51t-51.5 -124v-1q0 -40 15 -77q10 -23 35 -63q6 -10 10 -16q5 -9 9 -16h181 v-75h-151q4 -15 5 -30v-16.5v-16.5q-3 -36 -16 -76q-14 -40 -38 -87h325v-75h-460q54 78 82.5 138.5t31.5 104.5v12q0 9 -1 19q-2 14 -6 27h-122z" />
<glyph unicode="&#xa5;" d="M208 400l-104 200l-104 200h42h43l82 -159l83 -160l83 160l82 159h43h42l-104 -200l-104 -200l-2 -5l-3 -4h82h81v-38v-37h-81h-82v-38v-37h82h81v-38v-37h-81h-82v-83v-83h-37h-38v83v83h-81h-81v37v38h81h81v37v38h-81h-81v37v38h81h81l-2 4z" />
<glyph unicode="&#xa6;" horiz-adv-x="225" d="M75 800v-176v-176h-37h-38v176v176h38h37zM75 352v-176v-176h-37h-38v176v176h38h37z" />
<glyph unicode="&#xa8;" horiz-adv-x="450" d="M75 800v-75v-75h-37h-38v75v75h38h37zM300 800v-75v-75h-38h-37v75v75h37h38z" />
<glyph unicode="&#xa9;" horiz-adv-x="950" d="M400 800h1q44 0 98 -15.5t103 -42.5t81 -59q48 -49 82.5 -131.5t34.5 -151.5q0 -166 -117 -283t-283 -117t-283 117t-117 283t117 283t283 117zM725 400q0 33 -6.5 65t-19.5 61q-7 19 -20.5 39.5t-29 40t-33.5 36.5t-35 28q-14 10 -35 20t-42.5 17.5t-38.5 11.5 q-32 6 -65 6t-65 -6.5t-61 -19.5q-37 -15 -79 -49.5t-65 -68.5q-15 -22 -29 -56t-20 -60q-6 -32 -6 -65t6.5 -65t19.5 -61q15 -37 49.5 -79t68.5 -65q22 -15 56 -29t60 -20q32 -6 65 -6t65 6.5t61 19.5q25 10 52.5 29.5t52 43t39.5 45.5q7 10 14.5 25t14.5 31t12 31.5 t8 28.5q6 32 6 65zM480 320l8 10t7 10l32 -20l32 -20q-23 -36 -69.5 -62t-89.5 -26q-78 0 -133 55t-55 133q0 51 25.5 94t68.5 68.5t94 25.5q43 0 89.5 -26t69.5 -62l-32 -20l-32 -20q-3 5 -7 10l-8 10q-14 13 -37.5 23t-42.5 10q-47 0 -80 -33t-33 -80t33 -80t80 -33 q9 0 20.5 3t22 7t20.5 10.5t17 12.5z" />
<glyph unicode="&#xab;" horiz-adv-x="800" d="M274 61l-137 170l-137 169l137 169l137 170l30 -24l29 -24l-118 -145l-118 -146l118 -146l118 -145l-29 -24zM592 739l29 -24l29 -24l-118 -145l-118 -146l118 -146l118 -145l-29 -24l-29 -24l-137 170l-138 169l138 169z" />
<glyph unicode="&#xad;" horiz-adv-x="550" d="M400 437v-37v-38h-200h-200v38v37h200h200z" />
<glyph unicode="&#xb0;" horiz-adv-x="437" d="M0 662v1q0 23 12 51.5t28.5 45t45 28.5t52.5 12q56 0 96.5 -40.5t40.5 -97t-40.5 -97t-97 -40.5t-97 40.5t-40.5 96.5zM200 662.5q0 25.5 -18.5 44t-44 18.5t-44 -18.5t-18.5 -44t18.5 -44t44 -18.5t44 18.5t18.5 44z" />
<glyph unicode="&#xb4;" horiz-adv-x="504" d="M0 680l164 60l165 60l13 -35l13 -35l-165 -60l-164 -60l-13 35z" />
<glyph unicode="&#xb7;" horiz-adv-x="225" d="M75 438v-38v-38h-37h-38v38v38h38h37z" />
<glyph unicode="&#xbb;" horiz-adv-x="800" d="M376 61l-30 24l-29 24l118 145l118 146l-118 146l-118 145l29 24l30 24l137 -170l137 -169l-137 -169zM58 739l137 -170l138 -169l-138 -169l-137 -170l-29 24l-29 24l118 145l118 146l-118 146l-118 145l29 24z" />
<glyph unicode="&#xc0;" d="M427 933l-13 -35l-13 -35l-165 60l-164 60l13 35l13 35l164 -60zM288 800l212 -800h-75l-59 225h-229l-59 -225h-78l212 800h76zM157 300h189l-92 344l-3 11l-1 -6l-1 -2l-1 -6z" />
<glyph unicode="&#xc1;" d="M72 933l164 60l165 60l13 -35l13 -35l-165 -60l-164 -60l-13 35zM212 800h76l212 -800h-78l-59 225h-229l-59 -225h-75zM343 300l-91 341l-1 6l-1 2l-1 6l-3 -11l-92 -344h189z" />
<glyph unicode="&#xc2;" d="M250 968l-69 -37l-69 -38l-18 33l-18 33l87 47l87 47l87 -47l87 -47l-18 -33l-18 -33l-69 38zM288 800l212 -800h-75l-59 225h-229l-59 -225h-78l212 800h76zM157 300h189l-92 344l-3 11l-1 -6l-1 -2l-1 -6z" />
<glyph unicode="&#xc4;" d="M174 1053v-75v-75h-38h-38v75v75h38h38zM398 1053v-75v-75h-37h-37v75v75h37h37zM288 800l212 -800h-75l-59 225h-229l-59 -225h-78l212 800h76zM157 300h189l-92 344l-3 11l-1 -6l-1 -2l-1 -6z" />
<glyph unicode="&#xc6;" horiz-adv-x="1048" d="M449 800h450v-75h-351l-1 -1h-73v-224h225v-75h-225v-350h425v-75h-500v425h-159l-80 -213l-80 -212h-40h-40l150 399l150 400h99v1h50zM399 500v224h-47l-9 -25l-10 -25l-32 -87l-33 -87h131z" />
<glyph unicode="&#xc7;" horiz-adv-x="649" d="M300 1q-32 0 -64 6v-32q38 0 69.5 -18.5t50 -50t18.5 -69.5q0 -56 -40.5 -96.5t-97.5 -40.5q-36 0 -73 23.5t-52 57.5l34 15l34 16q8 -17 23 -27q16 -10 34 -10q26 0 44.5 18.5t18.5 44t-18.5 44t-44.5 18.5h-75v134q-67 35 -114 113t-47 153v201q0 124 88 211.5 t212 87.5q31 0 68.5 -10t72.5 -28t59 -38l-25 -28l-25 -28q-27 24 -71 40.5t-79 16.5q-93 0 -159 -65.5t-66 -158.5v-1v-200q0 -93 66 -159t159 -66q35 0 79 17t71 41l25 -28l25 -28q-36 -32 -94 -54t-106 -22z" />
<glyph unicode="&#xc8;" d="M427 933l-13 -35l-13 -35l-165 60l-164 60l13 35l13 35l164 -60zM75 0h-13h-12h-25h-25v400v400h25h25h12h13h213h212v-38v-37h-212h-213v-113v-112h113h112v-38v-37h-112h-113v-175v-175h213h212v-37v-38h-212h-213z" />
<glyph unicode="&#xc9;" d="M72 933l164 60l165 60l13 -35l13 -35l-165 -60l-164 -60l-13 35zM75 0h-13h-12h-25h-25v400v400h25h25h12h13h213h212v-38v-37h-212h-213v-113v-112h113h112v-38v-37h-112h-113v-175v-175h213h212v-37v-38h-212h-213z" />
<glyph unicode="&#xca;" d="M250 968l-69 -37l-69 -38l-18 33l-18 33l87 47l87 47l87 -47l87 -47l-18 -33l-18 -33l-69 38zM75 0h-13h-12h-25h-25v400v400h25h25h12h13h213h212v-38v-37h-212h-213v-113v-112h113h112v-38v-37h-112h-113v-175v-175h213h212v-37v-38h-212h-213z" />
<glyph unicode="&#xcb;" d="M174 1053v-75v-75h-38h-38v75v75h38h38zM398 1053v-75v-75h-37h-37v75v75h37h37zM75 0h-13h-12h-25h-25v400v400h25h25h12h13h213h212v-38v-37h-212h-213v-113v-112h113h112v-38v-37h-112h-113v-175v-175h213h212v-37v-38h-212h-213z" />
<glyph unicode="&#xcc;" horiz-adv-x="504" d="M355 933l-13 -35l-13 -35l-165 60l-164 60l13 35l13 35l164 -60zM215 800v-400v-400h-37h-38v400v400h38h37z" />
<glyph unicode="&#xcd;" horiz-adv-x="504" d="M0 933l164 60l165 60l13 -35l13 -35l-165 -60l-164 -60l-13 35zM140 800h37h38v-400v-400h-38h-37v400v400z" />
<glyph unicode="&#xce;" horiz-adv-x="497" d="M174 967l-69 -37l-69 -37l-18 33l-18 33l87 47l87 47l87 -47l87 -47l-18 -33l-18 -33l-69 37zM212 800v-400v-400h-38h-37v400v400h37h38z" />
<glyph unicode="&#xcf;" horiz-adv-x="450" d="M188 800v-400v-400h-38h-37v400v400h37h38zM76 1053v-75v-75h-38h-38v75v75h38h38zM300 1053v-75v-75h-37h-37v75v75h37h37z" />
<glyph unicode="&#xd2;" horiz-adv-x="750" d="M477 933l-13 -35l-13 -35l-165 60l-164 60l13 35l13 35l164 -60zM300 800q124 0 212 -88t88 -212v-200q0 -124 -88 -212t-212 -88t-212 88t-88 212v200q0 124 88 212t212 88zM525 300v200q0 46 -18 87.5t-48 72t-71.5 48t-87.5 17.5q-93 0 -159 -66t-66 -159v-200 q0 -93 66 -159t159 -66t159 66t66 159z" />
<glyph unicode="&#xd3;" horiz-adv-x="750" d="M300 800q124 0 212 -88t88 -212v-200q0 -124 -88 -212t-212 -88t-212 88t-88 212v200q0 124 88 212t212 88zM75 300q0 -93 66 -159t159 -66t159 66t66 159v200q0 46 -18 87.5t-48 72t-71.5 48t-87.5 17.5q-93 0 -159 -66t-66 -159v-200zM122 933l164 60l165 60l13 -35 l13 -35l-165 -60l-164 -60l-13 35z" />
<glyph unicode="&#xd4;" horiz-adv-x="750" d="M300 968l-69 -37l-69 -38l-18 33l-18 33l87 47l87 47l87 -47l87 -47l-18 -33l-18 -33l-69 38zM300 800q124 0 212 -88t88 -212v-200q0 -124 -88 -212t-212 -88t-212 88t-88 212v200q0 124 88 212t212 88zM525 300v200q0 46 -18 87.5t-48 72t-71.5 48t-87.5 17.5 q-93 0 -159 -66t-66 -159v-200q0 -93 66 -159t159 -66t159 66t66 159z" />
<glyph unicode="&#xd6;" horiz-adv-x="750" d="M224 1053v-75v-75h-38h-38v75v75h38h38zM448 1053v-75v-75h-37h-37v75v75h37h37zM300 800q124 0 212 -88t88 -212v-200q0 -124 -88 -212t-212 -88t-212 88t-88 212v200q0 124 88 212t212 88zM525 300v200q0 46 -18 87.5t-48 72t-71.5 48t-87.5 17.5q-93 0 -159 -66 t-66 -159v-200q0 -93 66 -159t159 -66t159 66t66 159z" />
<glyph unicode="&#xd8;" horiz-adv-x="842" d="M692 752l-42 -50l-41 -50q17 -29 29 -73.5t12 -78.5v-200q0 -124 -88 -212t-212 -88q-51 0 -113 25.5t-99 61.5l-36 -43l-37 -44l-28 24l-29 24l42 50l41 50q-17 29 -29 73.5t-12 78.5v200q0 124 88 212t212 88q34 0 74 -11.5t77 -32t61 -43.5l36 43l37 44l28 -24z M125 300q0 -23 5 -46q4 -22 13 -43l185 222l185 222l-2 2l-2 2q-27 27 -73.5 46.5t-85.5 19.5q-61 0 -113 -30t-82 -82t-30 -113v-200zM575 500q0 23 -5 46q-4 22 -13 43l-185 -222l-185 -222l2 -2l2 -2q18 -18 45.5 -33.5t58 -24t55.5 -8.5q93 0 159 66t66 159v200z" />
<glyph unicode="&#xd9;" d="M427 933l-13 -35l-13 -35l-165 60l-164 60l13 35l13 35l164 -60zM250 0q-104 0 -177 73t-73 177v550h75v-550q0 -73 51.5 -124t123.5 -51t123.5 51t51.5 124v550h75v-550q0 -104 -73 -177t-177 -73z" />
<glyph unicode="&#xda;" d="M72 933l164 60l165 60l13 -35l13 -35l-165 -60l-164 -60l-13 35zM250 0q-104 0 -177 73t-73 177v550h75v-550q0 -73 51.5 -124t123.5 -51t123.5 51t51.5 124v550h75v-550q0 -104 -73 -177t-177 -73z" />
<glyph unicode="&#xdb;" d="M250 968l-69 -37l-69 -38l-18 33l-18 33l87 47l87 47l87 -47l87 -47l-18 -33l-18 -33l-69 38zM250 0q-104 0 -177 73t-73 177v550h75v-550q0 -73 51.5 -124t123.5 -51t123.5 51t51.5 124v550h75v-550q0 -104 -73 -177t-177 -73z" />
<glyph unicode="&#xdc;" d="M174 1053v-75v-75h-38h-38v75v75h38h38zM398 1053v-75v-75h-37h-37v75v75h37h37zM250 0q-104 0 -177 73t-73 177v550h75v-550q0 -73 51.5 -124t123.5 -51t123.5 51t51.5 124v550h75v-550q0 -104 -73 -177t-177 -73z" />
<glyph unicode="&#xe0;" d="M427 933l-13 -35l-13 -35l-165 60l-164 60l13 35l13 35l164 -60zM288 800l212 -800h-75l-59 225h-229l-59 -225h-78l212 800h76zM157 300h189l-92 344l-3 11l-1 -6l-1 -2l-1 -6z" />
<glyph unicode="&#xe1;" d="M72 933l164 60l165 60l13 -35l13 -35l-165 -60l-164 -60l-13 35zM212 800h76l212 -800h-78l-59 225h-229l-59 -225h-75zM343 300l-91 341l-1 6l-1 2l-1 6l-3 -11l-92 -344h189z" />
<glyph unicode="&#xe2;" d="M250 968l-69 -37l-69 -38l-18 33l-18 33l87 47l87 47l87 -47l87 -47l-18 -33l-18 -33l-69 38zM288 800l212 -800h-75l-59 225h-229l-59 -225h-78l212 800h76zM157 300h189l-92 344l-3 11l-1 -6l-1 -2l-1 -6z" />
<glyph unicode="&#xe4;" d="M174 1053v-75v-75h-38h-38v75v75h38h38zM398 1053v-75v-75h-37h-37v75v75h37h37zM288 800l212 -800h-75l-59 225h-229l-59 -225h-78l212 800h76zM157 300h189l-92 344l-3 11l-1 -6l-1 -2l-1 -6z" />
<glyph unicode="&#xe6;" horiz-adv-x="1048" d="M449 800h450v-75h-351l-1 -1h-73v-224h225v-75h-225v-350h425v-75h-500v425h-159l-80 -213l-80 -212h-40h-40l150 399l150 400h99v1h50zM399 500v224h-47l-9 -25l-10 -25l-32 -87l-33 -87h131z" />
<glyph unicode="&#xe7;" horiz-adv-x="649" d="M300 1q-32 0 -64 6v-32q38 0 69.5 -18.5t50 -50t18.5 -69.5q0 -56 -40.5 -96.5t-97.5 -40.5q-36 0 -73 23.5t-52 57.5l34 15l34 16q8 -17 23 -27q16 -10 34 -10q26 0 44.5 18.5t18.5 44t-18.5 44t-44.5 18.5h-75v134q-67 35 -114 113t-47 153v201q0 124 88 211.5 t212 87.5q31 0 68.5 -10t72.5 -28t59 -38l-25 -28l-25 -28q-27 24 -71 40.5t-79 16.5q-93 0 -159 -65.5t-66 -158.5v-1v-200q0 -93 66 -159t159 -66q35 0 79 17t71 41l25 -28l25 -28q-36 -32 -94 -54t-106 -22z" />
<glyph unicode="&#xe8;" d="M427 933l-13 -35l-13 -35l-165 60l-164 60l13 35l13 35l164 -60zM75 0h-13h-12h-25h-25v400v400h25h25h12h13h213h212v-38v-37h-212h-213v-113v-112h113h112v-38v-37h-112h-113v-175v-175h213h212v-37v-38h-212h-213z" />
<glyph unicode="&#xe9;" d="M72 933l164 60l165 60l13 -35l13 -35l-165 -60l-164 -60l-13 35zM75 0h-13h-12h-25h-25v400v400h25h25h12h13h213h212v-38v-37h-212h-213v-113v-112h113h112v-38v-37h-112h-113v-175v-175h213h212v-37v-38h-212h-213z" />
<glyph unicode="&#xea;" d="M250 968l-69 -37l-69 -38l-18 33l-18 33l87 47l87 47l87 -47l87 -47l-18 -33l-18 -33l-69 38zM75 0h-13h-12h-25h-25v400v400h25h25h12h13h213h212v-38v-37h-212h-213v-113v-112h113h112v-38v-37h-112h-113v-175v-175h213h212v-37v-38h-212h-213z" />
<glyph unicode="&#xeb;" d="M174 1053v-75v-75h-38h-38v75v75h38h38zM398 1053v-75v-75h-37h-37v75v75h37h37zM75 0h-13h-12h-25h-25v400v400h25h25h12h13h213h212v-38v-37h-212h-213v-113v-112h113h112v-38v-37h-112h-113v-175v-175h213h212v-37v-38h-212h-213z" />
<glyph unicode="&#xec;" horiz-adv-x="504" d="M355 933l-13 -35l-13 -35l-165 60l-164 60l13 35l13 35l164 -60zM215 800v-400v-400h-37h-38v400v400h38h37z" />
<glyph unicode="&#xed;" horiz-adv-x="504" d="M0 933l164 60l165 60l13 -35l13 -35l-165 -60l-164 -60l-13 35zM140 800h37h38v-400v-400h-38h-37v400v400z" />
<glyph unicode="&#xee;" horiz-adv-x="497" d="M174 967l-69 -37l-69 -37l-18 33l-18 33l87 47l87 47l87 -47l87 -47l-18 -33l-18 -33l-69 37zM212 800v-400v-400h-38h-37v400v400h37h38z" />
<glyph unicode="&#xef;" horiz-adv-x="450" d="M188 800v-400v-400h-38h-37v400v400h37h38zM76 1053v-75v-75h-38h-38v75v75h38h38zM300 1053v-75v-75h-37h-37v75v75h37h37z" />
<glyph unicode="&#xf2;" horiz-adv-x="750" d="M477 933l-13 -35l-13 -35l-165 60l-164 60l13 35l13 35l164 -60zM300 800q124 0 212 -88t88 -212v-200q0 -124 -88 -212t-212 -88t-212 88t-88 212v200q0 124 88 212t212 88zM525 300v200q0 46 -18 87.5t-48 72t-71.5 48t-87.5 17.5q-93 0 -159 -66t-66 -159v-200 q0 -93 66 -159t159 -66t159 66t66 159z" />
<glyph unicode="&#xf3;" horiz-adv-x="750" d="M300 800q124 0 212 -88t88 -212v-200q0 -124 -88 -212t-212 -88t-212 88t-88 212v200q0 124 88 212t212 88zM75 300q0 -93 66 -159t159 -66t159 66t66 159v200q0 46 -18 87.5t-48 72t-71.5 48t-87.5 17.5q-93 0 -159 -66t-66 -159v-200zM122 933l164 60l165 60l13 -35 l13 -35l-165 -60l-164 -60l-13 35z" />
<glyph unicode="&#xf4;" horiz-adv-x="750" d="M300 968l-69 -37l-69 -38l-18 33l-18 33l87 47l87 47l87 -47l87 -47l-18 -33l-18 -33l-69 38zM300 800q124 0 212 -88t88 -212v-200q0 -124 -88 -212t-212 -88t-212 88t-88 212v200q0 124 88 212t212 88zM525 300v200q0 46 -18 87.5t-48 72t-71.5 48t-87.5 17.5 q-93 0 -159 -66t-66 -159v-200q0 -93 66 -159t159 -66t159 66t66 159z" />
<glyph unicode="&#xf6;" horiz-adv-x="750" d="M224 1053v-75v-75h-38h-38v75v75h38h38zM448 1053v-75v-75h-37h-37v75v75h37h37zM300 800q124 0 212 -88t88 -212v-200q0 -124 -88 -212t-212 -88t-212 88t-88 212v200q0 124 88 212t212 88zM525 300v200q0 46 -18 87.5t-48 72t-71.5 48t-87.5 17.5q-93 0 -159 -66 t-66 -159v-200q0 -93 66 -159t159 -66t159 66t66 159z" />
<glyph unicode="&#xf7;" d="M0 362v38v38h250h250v-38v-38h-250h-250zM212 550v38v37h38h38v-37v-38h-38h-38zM212 174v38v38h38h38v-38v-38h-38h-38z" />
<glyph unicode="&#xf8;" horiz-adv-x="842" d="M692 752l-42 -50l-41 -50q17 -29 29 -73.5t12 -78.5v-200q0 -124 -88 -212t-212 -88q-51 0 -113 25.5t-99 61.5l-36 -43l-37 -44l-28 24l-29 24l42 50l41 50q-17 29 -29 73.5t-12 78.5v200q0 124 88 212t212 88q34 0 74 -11.5t77 -32t61 -43.5l36 43l37 44l28 -24z M125 300q0 -23 5 -46q4 -22 13 -43l185 222l185 222l-2 2l-2 2q-27 27 -73.5 46.5t-85.5 19.5q-61 0 -113 -30t-82 -82t-30 -113v-200zM575 500q0 23 -5 46q-4 22 -13 43l-185 -222l-185 -222l2 -2l2 -2q18 -18 45.5 -33.5t58 -24t55.5 -8.5q93 0 159 66t66 159v200z" />
<glyph unicode="&#xf9;" d="M427 933l-13 -35l-13 -35l-165 60l-164 60l13 35l13 35l164 -60zM250 0q-104 0 -177 73t-73 177v550h75v-550q0 -73 51.5 -124t123.5 -51t123.5 51t51.5 124v550h75v-550q0 -104 -73 -177t-177 -73z" />
<glyph unicode="&#xfa;" d="M72 933l164 60l165 60l13 -35l13 -35l-165 -60l-164 -60l-13 35zM250 0q-104 0 -177 73t-73 177v550h75v-550q0 -73 51.5 -124t123.5 -51t123.5 51t51.5 124v550h75v-550q0 -104 -73 -177t-177 -73z" />
<glyph unicode="&#xfb;" d="M250 968l-69 -37l-69 -38l-18 33l-18 33l87 47l87 47l87 -47l87 -47l-18 -33l-18 -33l-69 38zM250 0q-104 0 -177 73t-73 177v550h75v-550q0 -73 51.5 -124t123.5 -51t123.5 51t51.5 124v550h75v-550q0 -104 -73 -177t-177 -73z" />
<glyph unicode="&#xfc;" d="M174 1053v-75v-75h-38h-38v75v75h38h38zM398 1053v-75v-75h-37h-37v75v75h37h37zM250 0q-104 0 -177 73t-73 177v550h75v-550q0 -73 51.5 -124t123.5 -51t123.5 51t51.5 124v550h75v-550q0 -104 -73 -177t-177 -73z" />
<glyph unicode="&#x152;" horiz-adv-x="1051" d="M451 800h450v-75h-425v-225h225v-75h-225v-350h425v-75h-601q-124 0 -212 88t-88 212v200q0 124 88 212t212 88h151zM401 75v650h-101q-93 0 -159 -66t-66 -159v-200q0 -93 66 -159t159 -66h101z" />
<glyph unicode="&#x153;" horiz-adv-x="1051" d="M451 800h450v-75h-425v-225h225v-75h-225v-350h425v-75h-601q-124 0 -212 88t-88 212v200q0 124 88 212t212 88h151zM401 75v650h-101q-93 0 -159 -66t-66 -159v-200q0 -93 66 -159t159 -66h101z" />
<glyph unicode="&#x2000;" horiz-adv-x="526" />
<glyph unicode="&#x2001;" horiz-adv-x="1053" />
<glyph unicode="&#x2002;" horiz-adv-x="526" />
<glyph unicode="&#x2003;" horiz-adv-x="1053" />
<glyph unicode="&#x2004;" horiz-adv-x="351" />
<glyph unicode="&#x2005;" horiz-adv-x="263" />
<glyph unicode="&#x2006;" horiz-adv-x="175" />
<glyph unicode="&#x2007;" horiz-adv-x="175" />
<glyph unicode="&#x2008;" horiz-adv-x="131" />
<glyph unicode="&#x2009;" horiz-adv-x="210" />
<glyph unicode="&#x200a;" horiz-adv-x="58" />
<glyph unicode="&#x2010;" horiz-adv-x="550" d="M400 438v-38v-38h-200h-200v38v38h200h200z" />
<glyph unicode="&#x2011;" horiz-adv-x="550" d="M400 438v-38v-38h-200h-200v38v38h200h200z" />
<glyph unicode="&#x2012;" horiz-adv-x="550" d="M400 438v-38v-38h-200h-200v38v38h200h200z" />
<glyph unicode="&#x2013;" d="M500 438v-38v-38h-250h-250v38v38h250h250z" />
<glyph unicode="&#x2014;" horiz-adv-x="1150" d="M1000 438v-38v-38h-500h-500v38v38h500h500z" />
<glyph unicode="&#x2018;" horiz-adv-x="301" d="M202 872q-26 -25 -48 -70q-29 -58 -29 -109v-75h-75v75q0 71 39 147q28 53 59 85l27 -27z" />
<glyph unicode="&#x2019;" horiz-adv-x="351" d="M0 671q25 25 48 70q29 57 29 109v75h75v-75q0 -72 -39 -147q-28 -54 -60 -85l-26 26z" />
<glyph unicode="&#x201a;" horiz-adv-x="351" d="M0 -72q25 25 48 70q29 58 29 109v75h75v-75q0 -71 -39 -147q-28 -53 -60 -85l-26 27z" />
<glyph unicode="&#x201c;" horiz-adv-x="550" d="M75 618h-75v75q0 71 39 147q28 53 59 85l27 -27l27 -26q-26 -25 -48 -70q-29 -58 -29 -109v-75zM273 618h-75v75q0 71 39 147q28 53 60 85l26 -27l27 -26q-25 -25 -48 -70q-29 -58 -29 -109v-75z" />
<glyph unicode="&#x201d;" horiz-adv-x="500" d="M325 925h75v-75q0 -72 -39 -147q-28 -54 -59 -85l-27 26l-27 27q26 25 48 70q29 57 29 109v75zM127 925h75v-75q0 -72 -39 -147q-28 -54 -60 -85l-26 26l-27 27q25 25 48 70q29 57 29 109v75z" />
<glyph unicode="&#x201e;" horiz-adv-x="550" d="M275 182h75v-75q0 -71 -39 -147q-28 -53 -59 -85l-27 27l-27 26q26 25 48 70q29 58 29 109v75zM77 182h75v-75q0 -71 -39 -147q-28 -53 -60 -85l-26 27l-27 26q25 25 48 70q29 58 29 109v75z" />
<glyph unicode="&#x202f;" horiz-adv-x="210" />
<glyph unicode="&#x205f;" horiz-adv-x="263" />
<glyph unicode="&#x20ac;" horiz-adv-x="749" d="M0 338h100v124h-100v76h102q14 108 101 185t197 77q47 0 106 -22.5t94 -53.5l-25 -28l-25 -28q-13 11 -31.5 22t-39 18.5t-41.5 12t-38 4.5q-57 0 -115.5 -35.5t-84.5 -86.5q-16 -31 -22 -65h222v-76h-225v-124h225v-76h-222q13 -77 78 -132t144 -55q36 0 79.5 17 t70.5 40l25 -28l25 -28q-35 -31 -94 -53.5t-106 -22.5q-72 0 -137.5 35t-108.5 95.5t-52 131.5h-102v76z" />
<glyph unicode="&#x25fc;" horiz-adv-x="800" d="M0 800h800v-800h-800v800z" />
</font>
</defs>
</svg>
