<?xml version="1.0" standalone="no"?>
<!DOCTYPE svg PUBLIC "-//W3C//DTD SVG 1.1//EN" "http://www.w3.org/Graphics/SVG/1.1/DTD/svg11.dtd" >
<svg xmlns="http://www.w3.org/2000/svg" xmlns:xlink="http://www.w3.org/1999/xlink" version="1.1">
<metadata>
Created by FontForge 20170731 at Thu Apr 19 17:00:59 2018
 By Aleksey,,,
Copyright 2018 Unbranded Design Studio
</metadata>
<defs>
<font id="Nervesans-Light" horiz-adv-x="475" >
  <font-face 
    font-family="Nerve sans Light"
    font-weight="400"
    font-stretch="normal"
    units-per-em="1000"
    panose-1="0 0 5 0 0 0 0 0 0 0"
    ascent="800"
    descent="-200"
    x-height="492"
    cap-height="700"
    bbox="-21 -210 731 799"
    underline-thickness="50"
    underline-position="-150"
    unicode-range="U+0020-007D"
  />
<missing-glyph horiz-adv-x="353" 
 />
    <glyph glyph-name=".notdef" horiz-adv-x="353" 
 />
    <glyph glyph-name=".null" horiz-adv-x="0" 
 />
    <glyph glyph-name="nonmarkingreturn" horiz-adv-x="333" 
 />
    <glyph glyph-name="space" unicode=" " horiz-adv-x="200" 
 />
    <glyph glyph-name="exclam" unicode="!" horiz-adv-x="277" 
d="M126 222q-10 0 -10 10l-10 457q0 10 10 10h19q10 0 10 -10l6 -457q0 -10 -10 -10h-15zM104.5 18q-12.5 14 -12.5 34q0 19 13.5 33t30.5 14q18 0 31.5 -14t13.5 -33q0 -20 -13 -34t-32 -14t-31.5 14z" />
    <glyph glyph-name="quotedbl" unicode="&#x22;" horiz-adv-x="202" 
d="M30 699q1 10 11 8l31 -9q8 -2 9 -10l-1 -9l-5 1h-2q-8 0 -8 -8l-7 -168q0 -4 -2 -6t-5 -1l-7 3q-8 3 -7 10zM127 699q1 10 11 8l31 -9q8 -2 9 -10l-1 -9l-5 1h-2q-8 0 -8 -8l-7 -168q0 -4 -2 -6t-5 -1l-7 3q-8 3 -7 10z" />
    <glyph glyph-name="numbersign" unicode="#" horiz-adv-x="612" 
d="M537 451q0 -10 -10 -10l-74 8q-5 0 -5 -4l-18 -189q0 -4 3 -3l60 -7q10 0 10 -10v-15q0 -10 -10 -10l-63 6q-5 0 -5 -4l-36 -192q-1 -9 -10 -9l-19 1q-4 0 -7 3t-2 8l34 187q0 4 -3 4l-180 -10q-5 0 -5 -4l-35 -180q-1 -9 -10 -9l-19 1q-4 0 -7 3t-2 8l34 175q0 4 -3 4
l-71 8q-10 0 -10 10l1 15q0 10 10 10l73 -8q5 0 5 4l18 189q0 5 -3 3l-60 7q-10 0 -10 10l1 15q0 10 10 10l63 -6q5 0 5 4l35 193q2 9 10 9l19 -1q4 0 7 -3t2 -8l-34 -188q0 -4 3 -4l180 10q5 0 5 4l35 181q2 9 10 9l20 -1q4 0 7 -3t2 -8l-35 -176q0 -4 3 -4l71 -8
q10 0 10 -10v-15zM385 250q5 0 5 4l18 188q0 4 -3 4l-180 -9q-5 0 -5 -4l-17 -188q0 -4 3 -4z" />
    <glyph glyph-name="dollar" unicode="$" horiz-adv-x="479" 
d="M381.5 46q-42.5 -45 -120.5 -49q-4 0 -3 -4l13 -64v-2q0 -8 -10 -8l-10 -1q-10 0 -11 10l-13 64q-1 4 -5 4q-72 5 -116.5 49t-48.5 116l-2 29q0 10 10 10l17 1q11 0 11 -9l1 -25q4 -65 45.5 -102t107.5 -34q65 0 101.5 35t36.5 98q0 38 -17 67.5t-51 54.5q-24 18 -95 60
q-64 39 -92 63t-45 54q-18 33 -18 81q0 72 42 118t111 53q4 0 4 4l-4 71q0 9 11 9l11 -1q9 -1 9 -11l3 -70q0 -4 4 -4q72 -10 111.5 -55t39.5 -114q0 -18 -1 -21l-2 -26q-1 -9 -11 -9l-19 2q-10 1 -9 11l2 23l1 16q0 60 -34.5 97.5t-96.5 42.5q-59 5 -96 -33.5t-37 -102.5
q0 -70 61 -112q29 -20 89 -56q67 -39 100.5 -67.5t50.5 -60.5q17 -39 17 -80q0 -77 -42.5 -122z" />
    <glyph glyph-name="percent" unicode="%" horiz-adv-x="823" 
d="M164 367.5q-31 18.5 -49 49.5q-18 32 -18 68t18 67.5t49 49.5q30 18 67 18q36 0 67 -18t49 -49t18 -68q0 -36 -18 -67t-48 -50q-31 -19 -68 -19q-36 0 -67 18.5zM217 0q-5 0 -7.5 3.5t0.5 8.5l372 681q3 7 12 7h11q5 0 7.5 -3.5t-0.5 -8.5l-372 -681q-3 -7 -12 -7h-11z
M305 409.5q31 31.5 31 75.5t-30.5 75t-74.5 31t-74.5 -31t-30.5 -75q0 -45 30.5 -76t74.5 -31q43 0 74 31.5zM506 58.5q-31 18.5 -49 49.5q-18 32 -18 68t18 67.5t49 49.5q30 18 67 18q36 0 67 -18.5t49 -49.5t18 -67t-18 -67t-49 -50t-67 -19t-67 18.5zM647 100.5
q31 31.5 31 75.5t-30.5 75t-74.5 31t-74.5 -31t-30.5 -75q0 -45 30.5 -76t74.5 -31q43 0 74 31.5z" />
    <glyph glyph-name="ampersand" unicode="&#x26;" horiz-adv-x="584" 
d="M521 12l2 -6q0 -6 -9 -6h-21q-10 0 -27 23l-15 18q-25 28 -32 39q-3 4 -6 1q-42 -49 -83 -69t-97 -20q-79 0 -125 41.5t-46 115.5q0 69 32.5 128t99.5 113q2 0 1 4q-34 58 -48 92.5t-14 63.5q0 17 1 20q7 53 39.5 83t80.5 30q58 0 94.5 -34t36.5 -87q0 -79 -72 -135
q-27 -21 -69 -48q-2 0 -2 -3l43 -52l28 -34l19 -26l13 -17q6 -6 24 -33q3 -4 7.5 -9.5t9.5 -13.5l30 -41q3 -4 6 0q5 5 12 26q10 28 23 45l13 20q5 8 13 3l14 -9q9 -6 3 -14q-17 -25 -31 -56q-13 -28 -26 -46q-1 -3 0 -6zM192 623q-24 -27 -24 -74q0 -20 4.5 -32.5
t22.5 -49.5l11 -22q10 -20 16 -34q2 -4 5 -1q70 43 96.5 75.5t26.5 76.5q0 39 -26 63.5t-69 24.5q-39 0 -63 -27zM318.5 45.5q35.5 18.5 73.5 65.5q2 3 0 6l-48 71l-18 24l-36 48l-24 31q-54 70 -51 67q-1 3 -4 0q-57 -48 -83.5 -99t-26.5 -109t35.5 -90.5t97.5 -32.5
q49 0 84.5 18.5z" />
    <glyph glyph-name="quotesingle" unicode="'" horiz-adv-x="105" 
d="M30 699q1 10 11 8l31 -9q8 -2 9 -10l-1 -9l-5 1h-2q-8 0 -8 -8l-7 -168q0 -4 -2 -6t-5 -1l-7 3q-8 3 -7 10z" />
    <glyph glyph-name="parenleft" unicode="(" horiz-adv-x="201" 
d="M94 -110q-8 0 -12 7q-39 76 -63 191.5t-24 233.5q0 125 24.5 243t65.5 193q4 7 12 7h17q5 0 7.5 -3.5t-0.5 -8.5q-36 -78 -58.5 -194.5t-22.5 -234.5q0 -116 22.5 -230.5t58.5 -191.5q1 -1 1 -5q0 -7 -8 -7h-20z" />
    <glyph glyph-name="parenright" unicode=")" horiz-adv-x="201" 
d="M107 -110h-20q-5 0 -7 3.5t0 8.5q36 77 58.5 191.5t22.5 230.5q0 118 -22.5 234.5t-58.5 194.5l-2 5q0 3 2.5 5t6.5 2h17q8 0 12 -7q41 -75 65.5 -193t24.5 -243q0 -118 -24 -233.5t-63 -191.5q-4 -7 -12 -7z" />
    <glyph glyph-name="asterisk" unicode="*" horiz-adv-x="378" 
d="M184 393q-10 0 -10 10l-4 142q1 4 -4 4l-113 -77l-5 -2q-4 0 -9 6l-4 8l-2 6q0 5 5 8l119 75l3 3q0 1 -2 3l-120 63q-4 2 -4.5 6t1.5 8l4 8q6 10 14 4l123 -69q5 -2 5 2l-7 136q0 10 10 10h10q10 0 10 -10l4 -141q-1 -4 4 -4l113 76l5 2q5 0 9 -6l5 -8l2 -5q0 -4 -6 -9
l-119 -75q-2 -2 -2 -3v-3l121 -63q9 -6 4 -14l-5 -8q-4 -10 -14 -4l-123 70q-5 2 -5 -2l7 -137q0 -10 -10 -10h-10z" />
    <glyph glyph-name="plus" unicode="+" 
d="M425 337q10 0 10 -10v-13q0 -10 -10 -10l-166 -1q-4 0 -4 -4l-1 -164q0 -10 -10 -10h-13q-10 0 -10 10l-1 164q0 4 -4 4l-166 1q-10 0 -10 10v13q0 10 10 10l166 1q4 0 4 4l1 168q0 10 10 10h13q10 0 10 -10l1 -168q0 -4 4 -4z" />
    <glyph glyph-name="comma" unicode="," horiz-adv-x="213" 
d="M84 -62q-1 -9 -11 -9h-8q-4 0 -6 2.5t-1 6.5l46 186v3q0 9 -9 9h-5l2 11q3 9 12 9l38 -1q10 -1 9 -12z" />
    <glyph glyph-name="hyphen" unicode="-" horiz-adv-x="346" 
d="M50 300q-10 0 -10 10v15q0 10 10 10h247q10 0 10 -10v-15q0 -10 -10 -10h-247z" />
    <glyph glyph-name="period" unicode="." horiz-adv-x="229" 
d="M81 19q-13 14 -13 34q0 19 13.5 33t31.5 14t31.5 -14t13.5 -33q0 -20 -13.5 -34t-31.5 -14q-19 0 -32 14z" />
    <glyph glyph-name="slash" unicode="/" horiz-adv-x="288" 
d="M42 0q-11 0 -9 11l184 680q2 9 11 9h18q11 0 9 -11l-184 -680q-1 -9 -11 -9h-18z" />
    <glyph glyph-name="zero" unicode="0" horiz-adv-x="481" 
d="M109.5 38q-47.5 47 -50.5 126v372q3 79 50.5 126t123.5 47q85 0 135.5 -51t47.5 -134v-348q3 -83 -47.5 -134t-135.5 -51q-76 0 -123.5 47zM340 66.5q39 40.5 37 105.5v356q2 65 -37 105.5t-106 40.5q-59 0 -96.5 -37t-39.5 -99v-376q2 -62 39.5 -99t96.5 -37
q67 0 106 40.5z" />
    <glyph glyph-name="one" unicode="1" horiz-adv-x="291" 
d="M158 687l6 7q4 6 7 6h22q10 0 10 -10v-680q0 -10 -10 -10h-19q-10 0 -10 10l-1 633l-29 -17l-24 -14q-16 -8 -23 -13q-20 -11 -22 -11t-7 6l-5 7q-3 2 -8 9q-1 1 -1 3q0 4 8 9z" />
    <glyph glyph-name="two" unicode="2" horiz-adv-x="455" 
d="M66 0q-10 0 -10 10v18q0 9 4 13l24 35q125 183 182 280q69 116 72 177q4 62 -30.5 101t-95.5 39q-52 0 -85 -34.5t-35 -92.5l-2 -34q0 -10 -10 -10l-20 1q-10 0 -10 11l2 37q4 70 48.5 113.5t112.5 43.5q51 0 90 -22.5t58 -62.5q17 -36 17 -81q0 -44 -12 -80t-38 -78
q-26 -43 -58 -90l-21 -33q-34 -50 -142 -221q-1 -1 0 -3t3 -2h276q10 0 10 -10v-15q0 -10 -10 -10h-320z" />
    <glyph glyph-name="three" unicode="3" horiz-adv-x="450" 
d="M62 235l18 -4q11 -2 8 -12q-5 -47 -5 -63q0 -49 26 -83t71 -43q17 -3 30 -3q54 0 83.5 38t45.5 120q8 46 8 76q0 118 -96 136q-22 2 -23 1t-2 0h-4q-6 2 -7 6l-6 11l-2 6q0 4 4 8l117 227q1 1 0 3t-3 2l-262 9q-10 1 -10 11v15q1 10 11 9l306 -10q10 -1 9 -11v-18
q0 -5 -5 -13l-109 -228q-1 -1 -0.5 -2.5t2.5 -2.5q96 -18 114 -113q5 -32 5 -51q0 -42 -10.5 -90t-31.5 -90q-46 -84 -132 -84q-24 0 -39 4q-61 13 -95 56t-34 108q0 28 6 67q1 10 12 8z" />
    <glyph glyph-name="four" unicode="4" horiz-adv-x="446" 
d="M390 214q1 -1 4.5 -2t4.5 -3t1 -5v-15q0 -13 -10 -10l-76 20q-4 1 -4 -4v-185q0 -10 -10 -10h-19q-10 0 -10 10v185q0 4 -4 4h-216q-10 0 -10 10v16l2 12l157 455q3 8 11 8h20q5 0 7.5 -3.5t0.5 -8.5l-153 -449q-2 -5 3 -5h178q4 0 4 4v176q0 10 10 10h19q10 0 10 -10
v-176q0 -3 4 -4z" />
    <glyph glyph-name="five" unicode="5" horiz-adv-x="449" 
d="M400 241q0 -19 -2 -43q-6 -68 -25 -112t-56 -69q-34 -25 -83 -25q-71 0 -113.5 38t-52.5 108q-2 26 -2 34v2q2 8 10 8l19 -2q5 -1 7 -3.5t3 -7.5l2 -25q5 -55 37 -86t86 -31q42 0 72 25.5t44 72.5q16 45 16 123q0 80 -37 116q-37 31 -93 31q-40 0 -69 -19t-43 -55
q-2 -8 -12 -8l-21 2q-11 2 -9 11l31 364q1 5 3 7.5t7 2.5l244 -10q10 0 10 -10v-15q0 -10 -10 -10l-211 10q-4 0 -4 -4l-26 -277q-1 -1 -0.5 -1.5t1.5 -0.5q1 -1 4 1q44 48 112 48q64 0 105 -32t51 -92q5 -33 5 -66z" />
    <glyph glyph-name="six" unicode="6" horiz-adv-x="450" 
d="M69 536q0 78 45.5 125t118.5 47q68 0 111 -46.5t43 -121.5v-7q0 -10 -10 -10h-19q-4 0 -7 2.5t-3 6.5v9q0 58 -32.5 94.5t-83.5 36.5q-54 0 -89 -38t-35 -98v-178q0 -3 2 -3t3 3q35 68 126 68q57 0 93.5 -27t53.5 -83q14 -42 14 -105q0 -56 -11 -91q-31 -122 -153 -122
q-60 0 -99.5 29.5t-55.5 86.5q-12 41 -12 98v324zM118.5 117.5q10.5 -35.5 36.5 -61.5q15 -13 33.5 -18t45.5 -5q49 0 80.5 27t40.5 78q6 26 6 74q0 58 -9 86q-10 45 -40.5 69.5t-77.5 24.5t-77.5 -25t-40.5 -72q-8 -34 -8 -83q0 -59 10.5 -94.5z" />
    <glyph glyph-name="seven" unicode="7" horiz-adv-x="405" 
d="M36 693q0 7 10 7h326q10 0 10 -10v-19l-2 -12l-67 -219h20q8 0 8 -8v-20q0 -8 -8 -8h-31l-125 -396q-3 -8 -12 -8h-22q-11 0 -8 11l126 393h-22q-8 0 -8 8v20q0 8 8 8h33l68 220q2 5 -4 5h-247q-4 0 -4 -4v-43q0 -10 -10 -10h-9q-4 0 -6 2t-2.5 4.5t-1.5 3.5l-20 72v3z
" />
    <glyph glyph-name="eight" unicode="8" horiz-adv-x="462" 
d="M308 373q42 -20 64.5 -67t22.5 -114q0 -127 -79 -176q-37 -24 -87 -24q-51 0 -87.5 24t-56.5 69q-21 48 -21 108q0 64 23 111.5t65 68.5l21 14q-37 10 -64.5 50t-27.5 88q0 47 19 82.5t55 56.5q31 18 75 18q43 0 75.5 -17.5t50.5 -50.5q22 -34 22 -89q0 -48 -27.5 -88
t-66.5 -50zM175 410.5q24 -12.5 54 -12.5q67 0 96 53q19 28 19 73q0 54 -29 90t-86 36q-33 0 -58 -14.5t-39 -40.5q-16 -28 -16 -73q0 -44 20 -76q15 -23 39 -35.5zM356 194q0 51 -14.5 89t-42.5 57t-70 19q-65 0 -95.5 -46.5t-30.5 -119.5q0 -58 19 -95q29 -71 108 -71
q77 0 108 72q18 41 18 95z" />
    <glyph glyph-name="nine" unicode="9" horiz-adv-x="455" 
d="M400 170q0 -78 -45.5 -125t-118.5 -47q-68 0 -111 46.5t-43 121.5v7q0 10 10 10h19q4 0 7 -2.5t3 -6.5v-9q0 -58 32.5 -94.5t83.5 -36.5q54 0 89 38t35 98v178q0 3 -2 3q-1 0 -3 -3q-35 -68 -126 -68q-57 0 -93.5 27t-53.5 83q-14 42 -14 105q0 56 11 91q31 122 153 122
q60 0 99.5 -29.5t55.5 -86.5q12 -40 12 -98v-324zM350.5 588.5q-10.5 35.5 -36.5 61.5q-15 13 -33.5 18t-45.5 5q-49 0 -80.5 -27t-40.5 -78q-6 -25 -6 -74q0 -57 9 -86q10 -45 40.5 -69.5t77.5 -24.5t77.5 25t40.5 72q8 34 8 83q0 59 -10.5 94.5z" />
    <glyph glyph-name="colon" unicode=":" horiz-adv-x="254" 
d="M95 346.5q-13 13.5 -13 33.5q0 19 13.5 33t31.5 14t31.5 -14t13.5 -33q0 -20 -13 -33.5t-32 -13.5t-32 13.5zM95 56q-13 14 -13 34q0 19 14 32.5t31 13.5q18 0 31.5 -13.5t13.5 -32.5q0 -20 -13 -34t-32 -14t-32 14z" />
    <glyph glyph-name="semicolon" unicode=";" horiz-adv-x="242" 
d="M91 335.5q-13 13.5 -13 33.5q0 19 13.5 33t31.5 14t31.5 -14t13.5 -33t-13.5 -33t-31.5 -14q-19 0 -32 13.5zM84 -62q-1 -9 -11 -9h-8q-4 0 -6 2.5t-1 6.5l46 186v3q0 9 -9 9h-5l2 11q3 9 12 9l38 -1q10 -1 9 -12z" />
    <glyph glyph-name="less" unicode="&#x3c;" 
d="M405 69q0 -5 -3.5 -7.5t-8.5 0.5l-326 184q-7 4 -7 12v22q0 8 7 12l326 184l5 2q3 0 5 -2.5t2 -6.5v-19q0 -8 -7 -12l-295 -166q-5 -3 0 -6l295 -166q7 -4 7 -12v-19z" />
    <glyph glyph-name="equal" unicode="=" 
 />
    <glyph glyph-name="greater" unicode="&#x3e;" 
d="M60 88q0 8 7 12l295 166q4 3 0 6l-295 166q-7 4 -7 12v19q0 4 2 6.5t5 2.5l5 -2l326 -184q7 -4 7 -12v-22q0 -8 -7 -12l-326 -184l-5 -2q-3 0 -5 2.5t-2 6.5v19z" />
    <glyph glyph-name="question" unicode="?" horiz-adv-x="386" 
d="M167 160q-10 0 -10 10v70l-1 53q0 37 10 60t34 38q36 21 52 35t31 37q15 24 21 58q4 19 4 35q0 52 -32 84.5t-85 32.5q-50 0 -82.5 -28.5t-31.5 -74.5l1 -37q0 -10 -10 -10h-19q-10 0 -10 10l-1 36q-1 39 20 71.5t58 50.5q37 17 76 17q18 0 34 -3q56 -10 88.5 -50
t32.5 -98q0 -12 -5 -44q-14 -77 -65 -119q-28 -21 -54 -36q-16 -15 -22.5 -31t-6.5 -38l2 -26l1 -24v-69q0 -10 -10 -10h-20zM148.5 27.5q-12.5 13.5 -12.5 33.5q0 19 13 32t31 13t31 -13t13 -32t-13.5 -33t-31.5 -14t-30.5 13.5z" />
    <glyph glyph-name="at" unicode="@" horiz-adv-x="798" 
d="M593 564q66 -35 102 -99t36 -147q0 -36 -4 -53q-22 -165 -164 -197l-1.5 -0.5t-2.5 0.5q-9 0 -18 12q-12 14 -30 45l-13 23q-2 5 -5 0q-12 -33 -40 -51.5t-66 -18.5q-69 0 -90 81q-2 15 -4 53l-1 26l-1 42q0 40 8 67t26 45q35 35 87 35q38 0 62 -28q1 -1 4 -1q1 0 1 3
l19 24q0 7 8 9l13 2h2q4 0 6.5 -2.5t2.5 -6.5l-18 -208q0 -12 1 -15q7 -45 23 -81q15 -38 32 -33q49 12 82 57t44 116q4 25 4 51q0 77 -32.5 134.5t-92.5 88.5q-58 31 -137 31q-84 0 -158 -40t-122 -112q-49 -73 -55 -176q-1 -3 -1 -31q0 -83 31.5 -149t87.5 -99
q50 -26 115 -26q53 0 107 17t81 41q2 2 6 2q7 0 8 -3l7 -7q2 -2 2 -6q0 -7 -3 -8q-33 -29 -92 -47.5t-122 -18.5q-79 0 -136.5 37t-89.5 111q-35 68 -35 156q0 30 1 33q7 104 59.5 187t139.5 128q82 42 173 42q87 0 153 -35zM453.5 130.5q23.5 23.5 26.5 60.5l2 41l-1 32
q0 34 -2 61t-6 38q-6 14 -21 25.5t-39 11.5q-35 0 -60 -24t-29 -60l-2 -37l1 -37l1 -31q0 -41 4.5 -57.5t20.5 -30.5q16 -16 45 -16q36 0 59.5 23.5z" />
    <glyph glyph-name="A" unicode="A" horiz-adv-x="506" 
d="M437 0q-9 0 -11 8l-39 167q-1 3 -5 3h-262q-2 0 -4 -3l-37 -166q-1 -9 -11 -9h-19q-11 0 -9 11l188 681q2 8 11 8h26q9 0 11 -8l189 -681l1 -3q0 -8 -10 -8h-19zM127 186q-1 3 -1 17q0 9 2 9l2 -1h242q2 0 1.5 1.5t-1.5 2.5l-118 422l-2 2l-2 -2z" />
    <glyph glyph-name="B" unicode="B" horiz-adv-x="535" 
d="M367 363l1 -2q51 -20 78.5 -65.5t27.5 -110.5q0 -84 -48.5 -133.5t-131.5 -51.5l-184 -3q-10 0 -10 10l-3 683q0 10 10 10h179q84 0 133.5 -47.5t49.5 -131.5q0 -56 -25 -96t-73 -60zM140 665q-4 0 -4 -4v-278q0 -4 4 -4h146q67 0 105.5 37.5t38.5 102.5q0 68 -38.5 107
t-105.5 39h-146zM293 36q66 1 104 42.5t38 111.5q0 73 -41 115t-110 40l-147 -3q-4 0 -4 -4l5 -301q1 -4 5 -3z" />
    <glyph glyph-name="C" unicode="C" horiz-adv-x="522" 
d="M169 10.5q-45 24.5 -70 68.5q-25 43 -25 100v344q0 53 26.5 97.5t72.5 71.5q46 25 102 25q79 -8 125.5 -56.5t46.5 -122.5q0 -21 -1 -25l-1 -9q-1 -10 -11 -9l-20 1q-10 0 -9 10l1 13q1 3 1 19q0 59 -36.5 98.5t-98.5 46.5q-44 0 -80.5 -21t-57.5 -57q-21 -37 -21 -81
v-348q0 -44 20 -79.5t56 -55.5q35 -20 80 -20q68 4 106.5 48t33.5 111l-1 12q0 9 10 9l20 1q4 0 7 -2.5t3 -6.5l1 -9q6 -83 -43 -137.5t-135 -60.5q-57 0 -102 24.5z" />
    <glyph glyph-name="D" unicode="D" horiz-adv-x="539" 
d="M107 0q-10 0 -10 10v680q0 10 10 10h185q82 0 129.5 -49t47.5 -134v-334q0 -85 -47.5 -134t-129.5 -49h-185zM136 39q0 -4 4 -4h153q63 0 99.5 40t36.5 110v329q0 70 -36.5 110.5t-99.5 40.5h-153q-4 0 -4 -4v-622z" />
    <glyph glyph-name="E" unicode="E" horiz-adv-x="520" 
d="M463 675q0 -10 -10 -10h-313q-4 0 -4 -4l-1 -293q0 -4 4 -4l133 6l4 1q5 0 8 -8l3 -15l1 -4q0 -5 -8 -8l-139 -7q-4 0 -4 -4l-1 -286q0 -4 4 -4h313q10 0 10 -10v-15q0 -10 -10 -10h-346q-10 0 -10 10v680q0 10 10 10h346q10 0 10 -10v-15z" />
    <glyph glyph-name="F" unicode="F" horiz-adv-x="484" 
d="M462 675q0 -10 -10 -10h-312q-4 0 -4 -4l-1 -294q0 -4 4 -4l125 9h2q8 0 8 -9l1 -15v-2q0 -7 -9 -9l-125 -9q-4 0 -3 -4l-2 -314q0 -10 -10 -10h-19q-10 0 -10 10v680q0 10 10 10h345q10 0 10 -10v-15z" />
    <glyph glyph-name="G" unicode="G" horiz-adv-x="521" 
d="M406 301v16q0 19 3 24.5t14 5.5q5 -1 17 -1q5 0 5 -8v-305q0 -8 -7 -9l-26 -4q-47 -10 -86 -10q-44 0 -99 5t-67 11q-18 8 -34 36.5t-23 62.5q-6 28 -9 52t-4 54l-2 62v123q0 81 4 98q8 68 20.5 100.5t29.5 49.5q9 9 25 19q25 16 73 16l197 -11q4 0 6 -2.5t1 -6.5
q-5 -11 -19 -11h-16l-168 -2q-47 0 -67 -27q-14 -15 -21.5 -29.5t-12.5 -39.5q-1 -4 -2 -11.5t-3 -19.5q-4 -27 -6 -65l-2 -55v-123q0 -82 4 -101l5 -31q6 -54 18 -70q4 -6 11 -18.5t21 -17.5t45 -9q47 -6 90 -6q35 0 84 11q6 2 6 9l-1 26z" />
    <glyph glyph-name="H" unicode="H" horiz-adv-x="567" 
d="M432 690q0 10 10 10h19q10 0 10 -10v-680q0 -10 -10 -10h-19q-10 0 -10 10v324q0 4 -4 4h-288q-4 0 -4 -4v-324q0 -10 -10 -10h-19q-10 0 -10 10v680q0 10 10 10h19q10 0 10 -10v-313q0 -4 4 -4h288q4 0 4 4v313z" />
    <glyph glyph-name="I" unicode="I" horiz-adv-x="232" 
d="M101 0q-10 0 -10 10v680q0 10 10 10h19q10 0 10 -10v-680q0 -10 -10 -10h-19z" />
    <glyph glyph-name="J" unicode="J" horiz-adv-x="494" 
d="M34 206q0 10 11 10l19 -1q9 0 9 -10v-21q0 -70 39.5 -114t102.5 -44q64 0 104 40.5t40 105.5v490q0 8 -8 8h-150q-8 0 -8 8v14q0 8 8 8h189q8 0 8 -8v-519q0 -53 -23 -94.5t-65 -64.5q-44 -23 -95 -23q-82 0 -131.5 54t-49.5 141v20z" />
    <glyph glyph-name="K" unicode="K" horiz-adv-x="519" 
d="M470 13q3 -5 8 -5h5q-39 0 -81.5 32.5t-91.5 96.5q-39 50 -126 176l-20 30q-5 6 0 11l251 333q3 5 10 5q16 0 34 -2q2 -1 0 -3q-1 -3 -4 -6l-241 -318q-2 -2 -2 -6t2 -6zM104 16v675q0 8 -1 8h-2q33 0 37 -1q8 -2 10 -8q1 -3 1 -28v-617q0 -25 -1 -28q-2 -6 -10 -7
q-16 -2 -37 -2q3 0 3 8z" />
    <glyph glyph-name="L" unicode="L" 
d="M109 0q-10 0 -10 10v680q0 10 10 10h19q10 0 10 -10v-651q0 -4 4 -4h280q10 0 10 -10v-15q0 -10 -10 -10h-313z" />
    <glyph glyph-name="M" unicode="M" horiz-adv-x="611" 
d="M107 0q-10 0 -10 10v680q0 10 10 10h20q9 0 12 -7l163 -408q2 -2 3 -2t3 2l164 408q3 7 12 7h21q10 0 10 -10v-680q0 -10 -10 -10h-19q-10 0 -10 10v578q0 3 -1 3l-4 -2l-148 -364q-3 -7 -12 -7h-9q-9 0 -12 7l-149 364q-2 2 -3 2q-2 0 -2 -3v-578q0 -10 -10 -10h-19z
" />
    <glyph glyph-name="N" unicode="N" horiz-adv-x="582" 
d="M113 0q-10 0 -10 10l-12 680q0 10 10 10h20q9 0 12 -7l313 -600q5 -2 5 3l10 594q0 10 10 10h19q10 0 10 -9l-8 -681q0 -10 -10 -10h-21q-9 0 -12 7l-313 599q-3 2 -4.5 1.5t-0.5 -3.5l11 -594q0 -10 -10 -10h-19z" />
    <glyph glyph-name="O" unicode="O" horiz-adv-x="535" 
d="M166 16q-44 24 -68 68t-24 101v329q0 57 24 101t68 69q44 24 101 24t101 -24.5t69 -68.5q24 -43 24 -101v-329q0 -57 -24.5 -101t-68.5 -68q-43 -24 -101 -24q-57 0 -101 24zM379 70.5q43 43.5 43 113.5v331q0 70 -43 114t-112 44t-111.5 -43.5t-42.5 -114.5v-331
q0 -70 42.5 -113.5t111.5 -43.5t112 43.5z" />
    <glyph glyph-name="P" unicode="P" horiz-adv-x="510" 
d="M273 702q51 0 96.5 -24t72.5 -66q28 -43 28 -97q0 -94 -42 -141.5t-125 -42.5l-168 10q-4 0 -4 -4v-327q0 -10 -10 -10h-19q-10 0 -10 10v682q0 10 10 10h171zM300 365q131 -8 131 150q0 42 -22.5 77.5t-61.5 54.5q-37 19 -77 19h-135q-4 0 -4 -4v-283q0 -4 4 -4z" />
    <glyph glyph-name="Q" unicode="Q" horiz-adv-x="502" 
d="M65 518q0 85 51.5 137.5t134.5 52.5t134 -52.5t51 -137.5v-336q0 -76 -42 -126q-4 -4 -1 -11l22 -38q1 -1 1 -4q0 -2 -2 -4t-5 -2l-22 1q-6 0 -9 5l-10 17q-4 6 -9 4q-48 -33 -109 -33q-49 0 -91 22.5t-68 64.5q-26 44 -26 104v336zM104 180q0 -68 41 -110.5t106 -42.5
q55 0 89 28q6 5 3 11l-14 24q-3 5 0 11l11 19q1 4 6 4q4 0 5 -4l14 -25q1 -4 6 -4q4 0 5 4q21 35 21 85v340q0 68 -40 110.5t-106 42.5q-65 0 -106 -42.5t-41 -110.5v-340z" />
    <glyph glyph-name="R" unicode="R" horiz-adv-x="521" 
d="M448 0q-8 0 -11 8l-164 332q-1 3 -4 3l-129 -7q-4 0 -4 -4v-322q0 -10 -10 -10h-19q-10 0 -10 10v682q0 10 10 10h196q49 0 88.5 -24.5t62.5 -68.5q22 -43 22 -99q-4 -66 -50 -112.5t-113 -53.5q-3 -2 -2 -5l163 -327l1 -4q0 -8 -9 -8h-18zM140 666q-4 0 -4 -4v-288
q0 -4 4 -4l157 5q58 -4 97 34t43 104q0 67 -38.5 110t-97.5 43h-161z" />
    <glyph glyph-name="S" unicode="S" horiz-adv-x="499" 
d="M111 43.5q-49 51.5 -44 130.5l2 28q0 9 11 9l18 -1q9 -1 9 -11l-2 -25q-4 -65 35.5 -107t110.5 -47q69 0 111.5 40t42.5 103q0 39 -16.5 68t-52.5 54q-39 25 -96 58q-68 37 -99.5 60.5t-51.5 54.5q-21 36 -21 87q0 76 50.5 122t132.5 47q89 -4 138 -54.5t44 -131.5
l-1 -25q-1 -10 -11 -10l-19 1q-9 2 -9 11l1 23q4 66 -35 107t-111 45q-65 -2 -103 -39t-38 -98q0 -38 16 -65t49 -48q35 -23 93 -53q69 -39 104 -67t55 -61q20 -35 20 -81q0 -53 -24.5 -94.5t-69.5 -64.5q-48 -23 -103 -23q-87 6 -136 57.5z" />
    <glyph glyph-name="T" unicode="T" horiz-adv-x="482" 
d="M428 700q10 0 10 -10v-15q0 -10 -10 -10l-168 3q-4 -1 -4 -5v-653q0 -10 -10 -10h-19q-10 0 -10 10v649q0 3 -4 3l-159 3q-10 0 -10 10v15q0 10 10 10h374z" />
    <glyph glyph-name="U" unicode="U" horiz-adv-x="566" 
d="M181 17q-44 25 -68 71q-24 47 -24 106v496q0 10 10 10h19q10 0 10 -10v-500q0 -73 42.5 -118t111.5 -45q70 0 112.5 45t42.5 118v500q0 10 10 10h19q10 0 10 -10v-496q0 -91 -53 -146.5t-141 -55.5q-57 0 -101 25z" />
    <glyph glyph-name="V" unicode="V" horiz-adv-x="495" 
d="M246 0q-9 0 -11 9l-195 680l-1 3q0 8 10 8h20q10 0 11 -9l176 -620l2 -2l2 2l156 620q2 9 11 9h19q11 0 9 -11l-176 -680q-1 -9 -11 -9h-22z" />
    <glyph glyph-name="W" unicode="W" horiz-adv-x="735" 
d="M196 0q-9 0 -11 9l-154 680l-1 4q0 7 9 7h21q10 0 11 -9l133 -604q2 -3 3 -3t2 3l137 484q2 9 11 9h21q10 0 11 -9l147 -484l2 -3q1 0 2 3l124 604q2 9 11 9h20q5 0 7.5 -3t0.5 -8l-145 -680q-1 -9 -11 -9h-20q-9 0 -11 9l-146 488q-1 3 -2 3l-2 -3l-140 -488
q-1 -9 -11 -9h-19z" />
    <glyph glyph-name="X" unicode="X" horiz-adv-x="492" 
d="M51 0q-6 0 -8.5 3.5t0.5 8.5l181 305q2 3 0 6l-181 365q-1 1 -1 5q0 3 2.5 5t6.5 2h21q9 0 12 -7l160 -335q2 -2 3 -2t3 2l158 335q3 7 12 7h21q6 0 8.5 -3.5t-0.5 -8.5l-181 -366q-1 -3 0 -6l181 -304q1 -1 1 -5q0 -3 -2.5 -5t-6.5 -2h-21q-9 0 -12 7l-158 274
q-2 2 -3 2t-3 -2l-160 -274q-3 -7 -12 -7h-21z" />
    <glyph glyph-name="Y" unicode="Y" horiz-adv-x="473" 
d="M227 0q-10 0 -10 10v296q0 4 -1 5l-173 377q-1 1 -1 5q0 7 8 7h20q9 0 12 -7l152 -339q2 -2 3 -2t3 2l150 339q3 7 12 7h20q5 0 7 -3.5t0 -8.5l-172 -377q-1 -1 -1 -5v-296q0 -10 -10 -10h-19z" />
    <glyph glyph-name="Z" unicode="Z" horiz-adv-x="466" 
d="M55 0q-10 0 -10 10v19q0 6 3 13l321 618q2 5 -3 5h-311q-10 0 -10 10v15q0 10 10 10h349q10 0 10 -10v-19q0 -5 -3 -13l-321 -618q-2 -5 3 -5h311q10 0 10 -10v-15q0 -10 -10 -10h-349z" />
    <glyph glyph-name="bracketleft" unicode="[" horiz-adv-x="323" 
d="M38 -99q-10 0 -10 10v831q0 10 10 10l151 10q10 0 10 -10v-15q0 -5 -2.5 -7t-7.5 -3l-118 -10q-4 0 -4 -4v-773q0 -4 4 -4l119 -10q5 -1 7.5 -3t2.5 -7v-15q0 -10 -10 -10z" />
    <glyph glyph-name="backslash" unicode="\" horiz-adv-x="288" 
d="M256 8q0 -8 -10 -8h-18q-9 0 -11 9l-184 680l-1 3q0 8 10 8h18q10 0 11 -9l184 -680z" />
    <glyph glyph-name="bracketright" unicode="]" horiz-adv-x="323" 
d="M295 -89q0 -10 -10 -10l-152 -10q-10 0 -10 10v15q0 5 2.5 7t7.5 3l119 10q4 0 4 4v773q0 4 -4 4l-118 10q-5 1 -7.5 3t-2.5 7v15q0 10 10 10l151 -10q10 0 10 -10v-831z" />
    <glyph glyph-name="asciicircum" unicode="^" horiz-adv-x="412" 
d="M52 362q-5 0 -7.5 3.5t-0.5 8.5l140 318q3 8 11 8h22q8 0 11 -8l140 -318l1 -4q0 -8 -9 -8h-16q-8 0 -11 8l-124 284q-1 3 -3 3q-1 0 -3 -3l-124 -284q-3 -8 -11 -8h-16z" />
    <glyph glyph-name="underscore" unicode="_" horiz-adv-x="411" 
d="M40 20q-10 0 -10 10v14q0 10 10 10h331q10 0 10 -10v-14q0 -10 -10 -10h-331z" />
    <glyph glyph-name="grave" unicode="`" horiz-adv-x="172" 
d="M37 715q0 7 7 8l32 7h3q7 0 9 -5l4 -9l-5 -1q-9 -2 -5 -12l70 -153q2 -8 -4 -9l-7 -1h-2q-6 0 -9 6l-92 165z" />
    <glyph glyph-name="a" unicode="a" horiz-adv-x="449" 
d="M343 470.5q40 -40.5 46 -112.5l-7 -348q0 -10 -10 -10h-19q-10 0 -10 10v45q0 2 -2 3t-3 -1q-21 -32 -57.5 -48.5t-84.5 -16.5q-68 0 -106.5 36t-38.5 102q1 74 50 115.5t134 42.5h104q10 0 10 4l1 62q1 56 -30.5 89t-85.5 33q-51 0 -84.5 -26.5t-36.5 -68.5
q-1 -12 -10 -10h-21q-10 2 -9 9q2 57 48 94t116 37q66 0 106 -40.5zM303 60.5q40 33.5 40 87.5v103q0 4 -4 4h-102q-69 0 -107.5 -32.5t-38.5 -91.5q0 -50 29.5 -77t81.5 -27q61 0 101 33.5z" />
    <glyph glyph-name="b" unicode="b" horiz-adv-x="474" 
d="M410 318q0 -39 -2.5 -93t-5.5 -83q-8 -71 -50.5 -110t-101.5 -39q-45 0 -79 18.5t-52 53.5q0 3 -2 2.5t-3 -3.5l7 -54q0 -10 -10 -10h-19q-10 0 -10 10v680q0 10 10 10h19q10 0 10 -10l7 -242q0 -3 2 -3.5t3 2.5q18 31 48 47t70 16q66 0 108.5 -39.5t48.5 -105.5z
M368.5 216.5q2.5 60.5 2.5 102.5q0 50 -8 77t-31 47q-37 33 -86 33q-47 0 -77.5 -28.5t-38.5 -77.5q-5 -28 -8 -88.5t-3 -95.5q0 -48 8 -75.5t28 -48.5q33 -34 83 -34q48 0 81.5 28.5t41.5 76.5q5 23 7.5 83.5z" />
    <glyph glyph-name="c" unicode="c" horiz-adv-x="450" 
d="M126.5 29q-45.5 40 -53.5 103q-6 42 -6 120q0 65 3.5 98.5t15.5 63.5q23 62 91 89q31 11 61 11q65 -3 108.5 -41t47.5 -93l3 -15q-2 -11 -10 -11h-19q-10 1 -11 10q2 8 0 9q-3 43 -37 73.5t-84 32.5q-51 0 -86 -33t-40 -84q-4 -36 -4 -129q0 -73 9.5 -112.5t33.5 -62.5
q34 -34 86 -34q48 2 82.5 30.5t39.5 68.5q1 1 1 12l3 5q3 4 7 3h19q5 0 8.5 -4.5t3.5 -9.5l-1 -10q-5 -54 -50.5 -91t-110.5 -39q-65 0 -110.5 40z" />
    <glyph glyph-name="d" unicode="d" horiz-adv-x="474" 
d="M353 690q0 10 10 10h19q10 0 10 -10v-680q0 -10 -10 -10h-19q-10 0 -10 10v49q0 3 -2 3.5t-3 -2.5q-13 -31 -45.5 -49t-76.5 -18q-59 0 -99.5 36t-51.5 97q-5 28 -8 92.5t-3 105.5q0 54 10.5 86t37.5 59q41 41 111 41q78 0 125 -68q1 -3 3 -2.5t2 3.5v247zM354 203
q0 44 -1 53q-1 64 -5 98q-3 32 -14.5 56.5t-36.5 44.5q-27 21 -68 21q-51 0 -84.5 -31.5t-38.5 -82.5l-2 -61q0 -45 1 -54q1 -12 1 -34q2 -65 10 -98.5t39 -58.5q31 -28 80 -28q50 0 81.5 31.5t35.5 82.5z" />
    <glyph glyph-name="e" unicode="e" horiz-adv-x="461" 
d="M313 49.5q33 22.5 43 61.5q3 8 12 8l16 -1q9 -1 7 -12q-15 -52 -57 -83t-101 -31q-66 0 -109 37.5t-51 100.5q-4 17 -4 79v40l-1 67q0 60 11 93t41 60q44 41 115 41q67 0 110.5 -39t50.5 -104q5 -31 6 -114q0 -10 -10 -10l-280 -5q-4 0 -4 -4v-52q0 -50 8 -75.5t32 -48.5
q34 -31 86 -31q46 0 79 22.5zM147.5 443.5q-34.5 -31.5 -39.5 -83.5l-1 -33l1 -52q0 -4 4 -4l247 4q4 0 4 4q-1 57 -3 78.5t-11 43.5q-12 32 -41.5 53t-72.5 21q-53 0 -87.5 -31.5z" />
    <glyph glyph-name="f" unicode="f" horiz-adv-x="305" 
d="M234 670q-3 1 -16 1q-40 0 -58.5 -25t-18.5 -80l1 -24v-66q0 -3 4 -4l73 -20q1 -1 4.5 -2t4.5 -3t1 -5v-14q0 -13 -10 -10l-73 20q-4 1 -4 -4v-424q0 -10 -10 -10h-18q-10 0 -10 10v424q0 4 -4 4h-55q-10 0 -10 10v14q0 10 10 10h55q4 0 4 4v67q-2 86 24 124.5t86 38.5
q19 0 22 -1l18 -1q10 -1 10 -11l-2 -15q0 -11 -11 -9z" />
    <glyph glyph-name="g" unicode="g" horiz-adv-x="463" 
d="M70 -168q0 7 8 7l204 -2q69 2 76 39v-1q5 17 5 45q0 20 -2.5 30.5t-9.5 20.5q-9 12 -22 18t-49 6q-172 0 -191 10q-17 11 -17 49q0 33 5 51t16 28q10 10 36 22v6q-25 15 -36.5 30t-15.5 38q-5 28 -5 65q0 66 4 101q3 38 14 55q12 17 22 21q25 16 86 16h196q8 0 8 -10
q0 -7 -3 -10t-11 -3l-14 1q-18 0 -24 -1l-2 -5q14 -22 19.5 -38.5t6.5 -39.5q1 -15 1 -80q0 -73 -3 -96q-3 -24 -14 -40.5t-28 -22.5q-15 -7 -52 -7h-117q-23 0 -42 -10q-7 -4 -12.5 -14.5t-5.5 -21.5v-29q0 -18 6 -25.5t19 -9.5l45 -3q17 -1 114 -1q50 0 72 -6
q21 -7 28.5 -26.5t7.5 -64.5q0 -49 -9 -72t-33 -32t-74 -9h-43q-44 0 -100 2q-34 1 -47 5q-14 5 -17 13v1zM119 199.5q22 -34.5 75 -34.5h33q63 0 85 6q24 6 31 28q7 20 7 81v37q0 68 -5 101q-6 27 -27 35q-24 8 -78 8h-47q-38 0 -58.5 -12.5t-28.5 -42.5q-9 -30 -9 -87
q0 -85 22 -119.5z" />
    <glyph glyph-name="h" unicode="h" 
d="M359 463.5q41 -45.5 37 -122.5l4 -331q0 -10 -10 -10h-19q-10 0 -10 10l-4 328q3 62 -29 99.5t-90 37.5q-52 0 -85 -35t-36 -93l4 -337q0 -10 -10 -10h-19q-10 0 -10 10v680q0 10 10 10h19q10 0 10 -10l1 -239q0 -3 1.5 -3.5t2.5 1.5q18 30 48.5 45t70.5 15
q73 0 114 -45.5z" />
    <glyph glyph-name="i" unicode="i" horiz-adv-x="214" 
d="M81.5 593q-10.5 11 -10.5 27q0 15 10.5 25.5t26.5 10.5t26 -10.5t10 -25.5q0 -17 -10 -27.5t-26 -10.5t-26.5 11zM98 0q-10 0 -10 10v462q0 10 10 10h19q10 0 10 -10v-462q0 -10 -10 -10h-19z" />
    <glyph glyph-name="j" unicode="j" horiz-adv-x="203" 
d="M75.5 592q-10.5 10 -10.5 27t10.5 27t26.5 10q17 0 27.5 -10t10.5 -27t-10.5 -27t-27.5 -10q-16 0 -26.5 10zM-21 -200v15q0 10 10 10q45 2 69 31t24 80v546q0 10 10 10h19q10 0 10 -10v-545q0 -143 -132 -147q-10 0 -10 10z" />
    <glyph glyph-name="k" unicode="k" horiz-adv-x="435" 
d="M92 0q-10 0 -10 10v680q0 10 10 10h17q10 0 10 -10v-457q0 -2 2 -3t3 1l213 265q5 6 12 6h23q6 0 8 -3.5t-2 -8.5l-169 -215l-1 -5l192 -258q1 -1 1 -5q0 -7 -8 -7h-21q-6 0 -11 8l-171 236q-1 2 -3 2.5t-3 -1.5l-61 -70l-2 -5v-160q0 -10 -10 -10h-19z" />
    <glyph glyph-name="l" unicode="l" horiz-adv-x="196" 
d="M89 0q-10 0 -10 10v680q0 10 10 10h19q10 0 10 -10v-680q0 -10 -10 -10h-19z" />
    <glyph glyph-name="m" unicode="m" horiz-adv-x="731" 
d="M621 464q39 -45 38 -120l-6 -336q0 -10 -11 -10h-19q-9 0 -9 10l5 331q1 61 -29.5 98t-81.5 37q-53 0 -85 -35t-33 -94l-5 -333q0 -10 -10 -10l-19 1q-3 0 -4.5 0.5t-1.5 3.5v3v331q0 60 -31 96.5t-81 36.5q-54 0 -85 -35.5t-29 -95.5l-3 -333q0 -10 -10 -10h-19
q-10 0 -10 10v482q0 6 1 7.5t6 1.5l19 1q10 0 11 -10l1 -45q0 -3 2 -3l3 3q17 30 49.5 46t73.5 16q46 0 80 -21.5t51 -62.5q2 -5 5 1q18 41 52 62t81 21q65 0 104 -45z" />
    <glyph glyph-name="n" unicode="n" 
d="M362.5 466q40.5 -44 39.5 -119l-6 -338q0 -10 -10 -10h-19q-10 0 -10 10l6 333q1 61 -31.5 97t-88.5 36q-53 0 -87.5 -37.5t-34.5 -97.5v-330q0 -10 -10 -10h-19q-10 0 -10 10v482q0 10 10 10h19q10 0 10 -10v-48q0 -3 1.5 -3.5t2.5 1.5q42 68 127 68q70 0 110.5 -44z
" />
    <glyph glyph-name="o" unicode="o" horiz-adv-x="468" 
d="M128.5 30q-45.5 38 -55.5 101q-5 35 -6 120l-1 64q0 61 11 94.5t42 62.5q21 18 49 28t59 10q32 0 62 -10t52 -29q49 -43 56 -112q3 -67 4 -107l1 -64q0 -61 -11.5 -95.5t-41.5 -61.5q-44 -39 -110 -39q-65 0 -110.5 38zM322.5 57.5q33.5 30.5 38.5 82.5q1 6 1 68v43v23
l-3 85q-3 27 -12.5 46t-28.5 36q-40 34 -87 34q-51 0 -85 -31t-39 -82q-1 -6 -1 -68v-43l3 -98q4 -60 43 -94q21 -16 40.5 -24t43.5 -8q53 0 86.5 30.5z" />
    <glyph glyph-name="p" unicode="p" horiz-adv-x="481" 
d="M416 303q0 -47 -1 -56q-3 -84 -6 -112q-5 -35 -18.5 -63.5t-46.5 -52.5q-38 -26 -88 -26q-46 0 -78 17.5t-45 49.5q-1 3 -3 2.5t-2 -3.5v-247q0 -10 -10 -10h-19q-10 0 -10 10v680q0 10 10 10h19q10 0 10 -10v-49q0 -3 2 -3.5t3 2.5q47 68 126 68q66 0 108 -39.5
t47 -104.5zM375 222q3 61 3 100q0 45 -8.5 72.5t-29.5 48.5q-36 33 -87 33q-45 0 -76.5 -29t-39.5 -77q-5 -28 -8 -88.5t-3 -95.5q0 -48 8 -75.5t28 -48.5q33 -34 83 -34q47 0 81 29t41 76q5 28 8 89z" />
    <glyph glyph-name="q" unicode="q" horiz-adv-x="481" 
d="M353 492q0 10 10 10h19q10 0 10 -10v-680q0 -10 -10 -10h-19q-10 0 -10 10v247q0 3 -2 3.5t-3 -2.5q-13 -32 -44.5 -49.5t-76.5 -17.5q-61 0 -101.5 36t-51.5 98q-5 21 -7.5 84.5t-2.5 110.5q0 54 10.5 87t37.5 60q41 41 110 41q79 0 126 -68q1 -3 3 -2.5t2 3.5v49z
M354 203q0 44 -1 53q-1 64 -5 98q-3 32 -14.5 56.5t-36.5 44.5q-27 21 -68 21q-52 0 -86 -32t-38 -83q-1 -6 -1 -49q0 -108 7 -160q3 -33 14 -56t32 -40q31 -28 78 -28q50 0 81.5 31.5t35.5 82.5z" />
    <glyph glyph-name="r" unicode="r" horiz-adv-x="317" 
d="M296 490q4 -2 5 -6t-2 -7l-11 -19q-4 -9 -12 -3q-19 12 -41 15q-2 1 -11 1q-29 0 -53 -22t-37 -59q-13 -33 -13 -75v-305q0 -10 -10 -10h-19q-10 0 -10 10l2 477l-1 5q0 5 8 7l18 5l5 1q5 0 8 -8l-1 -74q0 -3 1.5 -3.5t2.5 2.5q19 41 48.5 65t61.5 24q12 0 14 -1
q25 -4 47 -20z" />
    <glyph glyph-name="s" unicode="s" horiz-adv-x="416" 
d="M100 33.5q-43 37.5 -41 91.5v9q0 11 11 9h18q9 -1 9 -10v-10q-2 -39 30.5 -67t85.5 -30q52 0 84.5 29t32.5 73q0 30 -16 51t-40 32q-34 14 -70 26q-54 18 -80.5 33t-43.5 39q-20 26 -20 67q0 59 43.5 96t111.5 37q68 -3 109.5 -41t39.5 -94v-3q0 -11 -11 -9h-17
q-10 1 -10 8v6q2 42 -29.5 70t-84.5 30q-50 0 -82 -28t-32 -70q0 -30 12 -48t31 -28t53 -22q5 -1 23 -8q57 -19 84 -34t47 -39q21 -27 21 -70q0 -59 -44 -97.5t-113 -38.5q-69 3 -112 40.5z" />
    <glyph glyph-name="t" unicode="t" horiz-adv-x="306" 
d="M256 449q0 -11 -10 -10l-101 10q-4 0 -4 -4l-8 -319q6 -45 24.5 -65.5t52.5 -20.5l23 2l16 2h3q6 0 8 -8l2 -16v-2q0 -7 -9 -9l-20 -3l-31 -2q-48 0 -74 26.5t-33 83.5l7 331q0 4 -4 4h-51q-10 0 -10 10v13q0 10 10 10h51q4 0 4 4v133q0 10 10 10h19q10 0 10 -10v-133
q0 -4 4 -4l101 -10q5 -1 7.5 -3t2.5 -7v-13z" />
    <glyph glyph-name="u" unicode="u" horiz-adv-x="474" 
d="M353 492q0 10 10 10h19q10 0 10 -10v-482q0 -10 -10 -10h-19q-10 0 -10 10v46q0 7 -5 2q-40 -66 -124 -66q-72 0 -112.5 41.5t-39.5 115.5l6 344q0 10 10 10h19q10 0 10 -10l-6 -335q-1 -61 31.5 -96t88.5 -35q53 0 87.5 37.5t34.5 97.5v330z" />
    <glyph glyph-name="v" unicode="v" horiz-adv-x="404" 
d="M193 0q-9 0 -12 8l-151 473l-1 3q0 8 10 8h22q8 0 11 -8l129 -420q2 -2 3 -2t3 2l124 420q3 8 11 8h22q11 0 9 -11l-145 -473q-3 -8 -12 -8h-23z" />
    <glyph glyph-name="w" unicode="w" horiz-adv-x="610" 
d="M166 0q-9 0 -11 9l-122 482l-1 4q0 7 9 7h19q10 0 11 -9l104 -433l2 -3q1 0 2 3l104 353q2 9 11 9h19q10 0 11 -9l106 -352l2 -3q1 0 2 3l105 432q2 9 11 9h19q11 0 8 -11l-124 -482q-1 -9 -11 -9h-20q-9 0 -11 9l-106 337q-1 3 -2 3l-2 -3l-103 -337q-1 -9 -11 -9h-21z
" />
    <glyph glyph-name="x" unicode="x" horiz-adv-x="398" 
d="M36 0q-6 0 -8 3.5t1 8.5l147 206q2 3 0 6l-147 266l-2 6q0 6 9 6h22q8 0 12 -7l126 -238q1 -1 3 -1t3 1l126 238q4 7 12 7h22q6 0 8 -3.5t-1 -8.5l-147 -266q-1 -3 0 -6l147 -206l2 -6q0 -6 -9 -6h-21q-8 0 -12 7l-126 178q-2 2 -3 2t-3 -2l-127 -178q-4 -7 -12 -7h-22z
" />
    <glyph glyph-name="y" unicode="y" horiz-adv-x="391" 
d="M54 -200q-7 0 -7 10v15q0 10 7 10h6q34 1 52.5 13.5t31.5 44.5l12 26q7 13 19 58q1 1 1 4l-1 2l-150 508l-1 3q0 8 10 8h20q8 0 11 -8l128 -455q2 -2 3 -2t3 2l127 455q3 8 11 8h20q11 0 9 -11l-167 -557q-9 -27 -16 -43.5t-20 -39.5q-18 -29 -40 -40t-63 -11h-6z" />
    <glyph glyph-name="z" unicode="z" horiz-adv-x="397" 
d="M49 0q-10 0 -10 10v19q0 6 4 13l267 415q1 1 0 3t-3 2l-254 10h-2q-8 0 -8 9l-1 16v2q0 8 9 9l299 -11q11 0 9 -11v-19q0 -4 -5 -12l-268 -414q-1 -1 0 -3t3 -2h259q10 0 9 -10v-16q-1 -10 -11 -10h-297z" />
    <glyph glyph-name="braceleft" unicode="{" horiz-adv-x="255" 
d="M178 -108q-47 -3 -70 21t-27 82l9 228q-2 41 -14.5 62t-37.5 25q-9 2 -9 10l-1 15v2q0 7 8 9q25 7 34.5 28.5t7.5 63.5l3 220q4 58 27 82t70 21l43 -3q10 -1 9 -11l-1 -15q0 -11 -11 -9l-36 2q-30 2 -45 -15.5t-18 -59.5l-2 -208q2 -45 -7 -70.5t-31 -38.5q-5 -2 0 -5
q24 -11 36 -36t14 -69l-10 -220q3 -42 18 -59.5t45 -15.5l36 2h2q9 0 9 -9l1 -15v-2q0 -7 -9 -9z" />
    <glyph glyph-name="bar" unicode="|" horiz-adv-x="137" 
d="M59 -80q-10 0 -10 10v820q0 10 10 10h19q10 0 10 -10v-820q0 -10 -10 -10h-19z" />
    <glyph glyph-name="braceright" unicode="}" horiz-adv-x="255" 
d="M37 -105q-10 1 -9 11l1 15q0 11 11 9l36 -2q30 -2 45 15.5t18 59.5l-10 220q2 44 14 69t36 36q5 3 0 5q-22 13 -31 38.5t-7 70.5l-2 208q-3 42 -18 59.5t-45 15.5l-36 -2h-2q-9 0 -9 9l-1 15v2q0 8 9 9l43 3q47 3 70 -21t27 -82l3 -220q-2 -42 7.5 -63.5t34.5 -28.5
q9 -1 8 -11l-1 -15q0 -8 -9 -10q-25 -4 -37.5 -25t-14.5 -62l9 -228q-4 -58 -27 -82t-70 -21z" />
    </font>
</defs>
</svg>
