<?xml version="1.0" encoding="UTF-8" standalone="no"?><!-- Generator: Gravit.io --><svg xmlns="http://www.w3.org/2000/svg" xmlns:xlink="http://www.w3.org/1999/xlink" style="isolation:isolate" viewBox="0 0 150 120" width="150pt" height="120pt"><defs><clipPath id="_clipPath_Hxcx2TsV5IGwlb4ctixggzI6bylvHNW1"><rect width="150" height="120"/></clipPath></defs><g clip-path="url(#_clipPath_Hxcx2TsV5IGwlb4ctixggzI6bylvHNW1)"><path d=" M 75.001 79.426 C 51.474 67.771 29.284 53.595 8.791 37.19 C 8.843 37.101 8.877 37 8.865 36.886 L 7.794 25.813 C 8.76 28.74 9.726 31.666 10.693 34.58 C 10.812 34.947 11.115 35.061 11.39 35.011 C 12.07 36.772 12.836 38.507 13.689 40.205 C 14.03 40.876 14.972 40.382 14.847 39.711 C 14.55 38.114 14.253 36.518 13.956 34.922 C 15.15 37.886 16.556 40.762 18.174 43.549 C 18.558 44.208 19.441 43.739 19.332 43.068 C 18.896 40.344 18.459 37.62 18.022 34.909 C 19.407 39.052 21.066 43.118 23.022 47.071 C 23.363 47.755 24.289 47.236 24.18 46.577 C 23.407 41.966 22.635 37.342 21.863 32.73 C 23.34 38.456 24.816 44.195 26.292 49.921 C 26.501 50.732 27.632 50.365 27.514 49.579 C 26.481 42.738 25.448 35.897 24.414 29.057 C 26.748 37.139 29.08 45.234 31.414 53.329 C 31.604 53.988 32.754 53.899 32.658 53.164 C 31.98 48.034 31.304 42.903 30.627 37.772 C 32.097 43.144 33.888 48.426 36.03 53.608 C 36.342 54.368 37.376 54.089 37.251 53.279 C 36.684 49.541 36.118 45.804 35.55 42.067 C 37.226 47.692 39.266 53.19 41.689 58.561 C 42.003 59.258 42.975 58.739 42.848 58.08 C 40.99 48.401 39.619 38.647 38.731 28.841 C 41.172 40.078 43.613 51.302 46.055 62.526 C 46.204 63.211 47.359 63.071 47.299 62.362 C 46.864 57.256 46.431 52.151 45.996 47.058 C 47.173 52.658 48.615 58.207 50.358 63.679 C 50.566 64.325 51.658 64.249 51.603 63.502 C 50.824 52.886 50.046 42.257 49.267 31.628 C 51.145 41.814 53.022 52.012 54.901 62.197 C 55.029 62.894 56.192 62.742 56.145 62.02 C 55.494 52.176 54.843 42.32 54.193 32.464 C 56.501 45.449 58.81 58.435 61.119 71.42 C 61.244 72.129 62.384 71.952 62.363 71.255 C 62.109 62.754 61.856 54.254 61.604 45.766 C 62.986 55.445 65.051 65.009 67.814 74.422 C 68.008 75.081 69.125 74.992 69.058 74.257 C 68.066 63.261 67.469 52.24 67.25 41.206 C 68.573 53.519 70.702 65.732 73.67 77.766 C 73.871 78.577 75.003 78.223 74.892 77.437 C 72.984 64.047 71.989 50.568 71.887 37.063 C 73.997 48.287 76.109 59.499 78.218 70.723 C 78.35 71.42 79.508 71.268 79.464 70.558 C 79.027 63.439 78.59 56.319 78.152 49.212 C 78.758 52.924 79.436 56.623 80.207 60.297 C 80.354 60.994 81.478 60.842 81.453 60.132 C 81.25 54.583 81.046 49.047 80.845 43.498 C 81.98 50.162 83.549 56.737 85.586 63.211 C 85.794 63.869 86.846 63.781 86.83 63.033 C 86.612 52.683 86.396 42.32 86.178 31.958 C 87.544 40.091 88.91 48.224 90.276 56.357 C 90.397 57.066 91.538 56.889 91.52 56.192 C 91.418 51.822 91.315 47.451 91.211 43.08 C 92.029 48.148 93.124 53.177 94.523 58.143 C 94.714 58.827 95.77 58.7 95.765 57.978 C 95.734 51.936 95.701 45.905 95.668 39.875 C 96.325 44.411 97.208 48.921 98.341 53.38 C 98.516 54.077 99.592 53.937 99.585 53.215 C 99.522 47.704 99.459 42.194 99.396 36.683 C 100.202 41.75 101.009 46.818 101.815 51.885 C 101.931 52.62 103.034 52.404 103.059 51.72 C 103.246 46.628 103.433 41.548 103.621 36.468 C 104.315 41.953 105.383 47.375 106.84 52.721 C 107.026 53.405 108.089 53.279 108.084 52.556 C 108.037 46.083 107.992 39.622 107.946 33.148 C 109.252 39.242 110.559 45.348 111.867 51.442 C 112.018 52.138 113.122 51.986 113.111 51.277 C 113.015 44.968 112.92 38.659 112.822 32.35 C 113.947 37.658 115.071 42.966 116.194 48.287 C 116.345 48.984 117.438 48.819 117.44 48.11 C 117.447 42.561 117.455 37.012 117.462 31.451 C 118.168 35.099 118.874 38.748 119.579 42.396 C 119.723 43.131 120.782 42.903 120.825 42.219 C 121.039 38.862 121.253 35.492 121.468 32.135 C 122.496 35.492 123.523 38.849 124.549 42.219 C 124.759 42.903 125.77 42.764 125.794 42.054 C 125.945 37.443 126.097 32.832 126.248 28.22 C 127.017 31.882 127.786 35.53 128.555 39.191 C 128.708 39.913 129.766 39.711 129.8 39.027 C 129.936 36.265 130.073 33.503 130.208 30.741 C 130.456 32.426 130.705 34.124 130.953 35.821 C 131.063 36.569 132.141 36.303 132.197 35.644 C 132.434 32.87 132.67 30.083 132.906 27.296 L 134.023 36.303 C 134.123 37.114 135.189 37.114 135.289 36.303 L 136.15 29.259 C 136.255 30.97 136.359 32.667 136.462 34.365 C 136.504 35.023 137.568 35.277 137.707 34.529 C 138.189 31.945 138.672 29.361 139.155 26.776 C 139.396 28.474 139.64 30.171 139.882 31.869 C 139.969 32.477 141.003 32.464 141.103 31.869 C 141.295 30.716 141.488 29.563 141.681 28.398 C 141.777 29.171 141.873 29.943 141.971 30.716 C 142.071 31.514 143.339 31.527 143.238 30.716 C 142.959 28.486 142.681 26.269 142.403 24.04 C 142.323 23.406 141.288 23.102 141.159 23.875 C 140.952 25.117 140.746 26.346 140.539 27.587 L 139.846 22.748 C 139.759 22.127 138.735 22.152 138.625 22.748 C 138.221 24.901 137.818 27.055 137.414 29.221 C 137.275 26.941 137.134 24.648 136.995 22.368 C 136.944 21.544 135.825 21.57 135.728 22.368 C 135.369 25.294 135.011 28.233 134.652 31.159 C 134.242 27.853 133.831 24.547 133.421 21.24 C 133.322 20.442 132.225 20.404 132.154 21.24 L 131.395 30.171 C 131.099 28.144 130.802 26.117 130.505 24.091 C 130.397 23.356 129.293 23.584 129.261 24.255 C 129.098 27.536 128.937 30.818 128.777 34.099 C 127.984 30.323 127.191 26.561 126.399 22.786 C 126.248 22.064 125.177 22.266 125.155 22.963 C 124.988 28.043 124.82 33.136 124.653 38.216 C 123.659 34.96 122.663 31.717 121.668 28.461 C 121.456 27.752 120.469 27.916 120.424 28.626 L 119.873 37.266 C 119.065 33.085 118.257 28.917 117.449 24.737 C 117.31 24.027 116.206 24.205 116.205 24.914 C 116.197 30.64 116.189 36.379 116.18 42.105 C 115.021 36.632 113.861 31.147 112.7 25.674 C 112.551 24.977 111.445 25.129 111.456 25.839 C 111.553 32.173 111.65 38.507 111.746 44.841 C 110.457 38.824 109.169 32.819 107.879 26.802 C 107.728 26.092 106.63 26.269 106.635 26.966 C 106.683 33.706 106.731 40.433 106.778 47.16 C 105.207 40.129 104.276 32.996 104.016 25.775 C 103.986 24.965 102.779 24.965 102.749 25.775 C 102.51 32.262 102.271 38.748 102.031 45.234 C 101.113 39.457 100.194 33.693 99.276 27.916 C 99.162 27.207 98.024 27.384 98.032 28.081 C 98.104 34.479 98.177 40.876 98.25 47.274 C 96.605 39.28 95.703 31.185 95.577 23.001 C 95.564 22.19 94.306 22.19 94.31 23.001 C 94.364 32.971 94.419 42.928 94.472 52.898 C 92.225 43.587 90.979 34.086 90.773 24.483 C 90.752 23.673 89.488 23.673 89.506 24.483 C 89.686 32.11 89.866 39.749 90.046 47.375 C 88.689 39.293 87.331 31.21 85.974 23.128 C 85.854 22.418 84.713 22.596 84.729 23.305 C 84.974 34.985 85.219 46.666 85.465 58.346 C 82.689 48.452 80.95 38.317 80.28 28.043 C 80.226 27.232 78.982 27.22 79.013 28.043 C 79.303 35.986 79.593 43.942 79.883 51.885 C 78.182 42.168 77.052 32.376 76.513 22.507 C 76.464 21.709 75.202 21.696 75.246 22.507 C 76.024 35.175 76.801 47.831 77.579 60.487 C 75.68 50.39 73.781 40.293 71.88 30.197 C 71.746 29.487 70.646 29.677 70.638 30.374 C 70.47 41.915 70.975 53.443 72.12 64.908 C 69.481 51.556 67.835 38.026 67.208 24.395 C 67.17 23.584 65.954 23.584 65.941 24.395 C 65.713 38.786 66.147 53.177 67.235 67.518 C 63.778 54.115 61.692 40.407 61.031 26.561 C 60.992 25.75 59.739 25.75 59.764 26.561 C 60.123 38.583 60.48 50.618 60.84 62.64 C 58.366 48.718 55.89 34.808 53.416 20.898 C 53.292 20.189 52.125 20.353 52.172 21.063 C 52.837 31.122 53.501 41.18 54.166 51.239 C 52.244 40.825 50.324 30.399 48.403 19.973 C 48.275 19.277 47.106 19.429 47.159 20.151 C 48.077 32.68 48.996 45.209 49.913 57.738 C 47.266 48.325 45.435 38.71 44.458 28.968 C 44.315 27.27 44.17 25.573 44.026 23.875 C 43.957 23.077 42.703 23.052 42.76 23.875 C 42.879 25.598 43.027 27.321 43.198 29.044 C 43.868 36.924 44.538 44.803 45.21 52.683 C 42.814 41.674 40.417 30.653 38.022 19.631 C 37.871 18.947 36.735 19.087 36.778 19.796 C 37.441 30.855 38.723 41.864 40.603 52.772 C 36.674 42.954 33.969 32.718 32.531 22.203 C 32.408 21.392 31.201 21.747 31.31 22.545 C 32.589 30.97 33.87 39.394 35.15 47.818 C 31.787 38.583 29.436 29.019 28.181 19.239 C 28.076 18.441 26.81 18.428 26.914 19.239 C 28.043 27.79 29.171 36.341 30.299 44.892 L 22.966 19.441 C 22.735 18.643 21.626 18.998 21.744 19.783 L 24.442 37.658 C 22.777 31.198 21.111 24.724 19.445 18.263 C 19.237 17.452 18.092 17.807 18.224 18.605 C 19.538 26.472 20.855 34.339 22.171 42.206 C 18.986 34.884 16.756 27.22 15.516 19.289 C 15.387 18.491 14.17 18.833 14.295 19.631 C 15.367 26.308 16.439 32.984 17.51 39.66 C 15.032 34.795 13.19 29.677 11.986 24.357 C 11.645 22.532 11.305 20.708 10.966 18.884 C 10.814 18.073 9.632 18.428 9.743 19.226 C 10.003 21.063 10.351 22.862 10.757 24.661 C 11.383 28.018 12.008 31.375 12.633 34.732 C 12.122 33.427 11.671 32.097 11.261 30.767 C 10.465 26.536 9.67 22.292 8.873 18.06 C 8.742 17.364 7.577 17.516 7.629 18.225 C 7.745 19.821 7.939 21.392 8.181 22.95 C 7.865 22 7.549 21.037 7.232 20.087 C 7.021 19.441 5.916 19.505 5.988 20.252 L 6.628 26.865 C 6.272 26.586 5.591 26.738 5.574 27.334 C 5.49 30.336 5.993 33.11 7.083 35.821 C 6.265 35.163 5.43 34.517 4.616 33.845 C 4.785 33.757 4.914 33.592 4.918 33.339 C 5.002 28.056 5.085 22.786 5.17 17.503 C 5.17 17.465 5.156 17.44 5.152 17.402 L 5.152 16.35 C 28.167 16.502 51.18 16.654 74.195 16.806 C 74.203 16.806 74.208 16.806 74.215 16.806 C 74.771 16.819 75.327 16.844 75.884 16.857 C 75.993 16.857 76.084 16.844 76.164 16.806 C 99.059 16.654 121.953 16.502 144.849 16.35 L 144.849 17.402 C 144.844 17.44 144.83 17.465 144.831 17.503 C 144.915 22.786 144.998 28.056 145.083 33.339 C 145.087 33.592 145.216 33.757 145.384 33.845 C 123.751 51.695 100.125 66.973 75.001 79.426 L 75.001 79.426 Z  M 146.35 33.339 C 146.269 28.284 146.189 23.229 146.108 18.174 C 146.109 18.162 146.116 18.149 146.116 18.136 L 146.116 15.603 C 146.116 15.045 145.52 14.881 145.147 15.083 C 122.033 15.235 98.92 15.387 75.806 15.539 C 75.729 15.539 75.666 15.565 75.604 15.577 C 75.028 15.565 74.452 15.539 73.877 15.527 C 73.849 15.527 73.829 15.539 73.802 15.539 C 50.819 15.387 27.836 15.235 4.853 15.083 C 4.48 14.881 3.885 15.045 3.885 15.603 L 3.885 18.136 C 3.885 18.149 3.892 18.162 3.893 18.174 C 3.812 23.229 3.732 28.284 3.651 33.339 C 3.65 33.44 3.668 33.528 3.7 33.605 C 3.683 33.605 3.673 33.63 3.656 33.63 C 3.714 34.023 3.754 34.403 3.779 34.795 C 25.432 52.645 49.056 67.961 74.195 80.439 C 74.319 80.731 74.637 80.946 75.001 80.832 C 75.363 80.946 75.682 80.731 75.805 80.439 C 100.944 67.961 124.568 52.645 146.222 34.795 C 146.248 34.403 146.286 34.023 146.344 33.63 C 146.327 33.63 146.317 33.605 146.301 33.605 C 146.334 33.528 146.351 33.44 146.35 33.339 L 146.35 33.339 Z  M 144.54 114.416 C 144.539 114.555 144.58 114.657 144.637 114.746 C 144.637 114.746 144.637 116.316 144.644 116.342 C 140.267 116.266 135.889 116.202 131.512 116.164 C 131.738 116.076 131.917 115.886 131.889 115.594 C 131.172 108.133 130.135 100.722 128.799 93.361 L 134.579 113.365 C 134.809 114.163 135.935 113.821 135.8 113.035 L 131.323 86.85 C 132.746 92.816 134.168 98.771 135.591 104.737 C 135.754 105.421 136.862 105.282 136.834 104.573 C 136.611 98.72 136.158 92.893 135.479 87.103 C 136.397 90.194 137.413 93.247 138.539 96.288 C 138.828 97.06 139.879 96.756 139.761 95.946 C 138.692 88.725 137.624 81.504 136.556 74.283 C 137.714 77.488 138.872 80.693 140.03 83.911 C 140.253 84.531 141.366 84.493 141.274 83.733 C 140.858 80.325 140.443 76.905 140.027 73.497 C 140.537 75.588 141.046 77.678 141.555 79.781 C 141.72 80.452 142.855 80.325 142.798 79.603 C 142.572 76.677 142.346 73.751 142.119 70.824 C 142.488 71.268 143.39 70.926 143.215 70.242 C 142.662 68.062 142.11 65.884 141.558 63.717 C 141.387 63.033 140.258 63.16 140.314 63.882 C 140.519 66.53 140.725 69.19 140.931 71.85 C 140.192 68.81 139.454 65.77 138.715 62.729 C 138.551 62.058 137.383 62.184 137.471 62.906 C 138.095 68.025 138.719 73.155 139.343 78.286 C 138.103 74.84 136.864 71.407 135.624 67.974 C 135.343 67.188 134.285 67.518 134.403 68.316 C 135.446 75.372 136.49 82.428 137.534 89.485 C 135.939 84.481 134.632 79.388 133.593 74.232 C 133.318 72.686 133.031 71.128 132.723 69.57 C 132.563 68.759 131.369 69.114 131.5 69.912 C 131.761 71.458 132.055 73.003 132.366 74.549 C 133.707 82.162 134.641 89.839 135.179 97.554 C 132.795 87.559 130.412 77.576 128.028 67.581 C 127.835 66.77 126.671 67.125 126.805 67.923 C 128.759 79.337 130.711 90.752 132.665 102.178 C 130.042 93.095 127.419 84.012 124.795 74.929 C 124.569 74.143 123.371 74.473 123.574 75.271 C 126.691 87.483 128.927 99.885 130.287 112.414 C 124.333 101.051 120.542 88.725 119.16 75.93 C 119.057 75.144 117.804 75.119 117.893 75.93 C 119.066 85.013 120.238 94.096 121.411 103.167 C 118.929 96.3 116.448 89.434 113.966 82.568 C 113.742 81.947 112.636 81.972 112.722 82.733 C 113.511 89.738 114.3 96.756 115.09 103.762 C 112.429 96.047 109.768 88.332 107.107 80.617 C 106.839 79.831 105.752 80.148 105.886 80.946 C 107.034 87.775 107.736 94.641 108.027 101.532 C 106.426 94.995 104.824 88.446 103.223 81.896 C 103.024 81.086 101.882 81.453 102.001 82.238 C 102.936 88.357 103.869 94.489 104.803 100.62 C 103.385 95.946 101.967 91.258 100.549 86.584 C 100.346 85.925 99.287 86.026 99.304 86.761 C 99.472 93.957 99.639 101.165 99.807 108.361 C 99.063 106.068 98.445 103.749 97.977 101.406 C 97.581 97.58 97.186 93.754 96.789 89.941 C 96.707 89.143 95.513 89.105 95.522 89.941 C 95.56 93.906 95.969 97.82 96.737 101.659 C 97.027 104.471 97.319 107.284 97.609 110.083 C 95.273 103.863 93.628 97.44 92.689 90.828 C 92.569 90.03 91.355 90.371 91.468 91.17 C 92.41 97.44 93.351 103.699 94.292 109.97 C 91.941 104.978 90.3 99.733 89.427 94.286 C 89.288 93.26 89.15 92.234 89.012 91.208 C 88.917 90.511 87.689 90.676 87.768 91.385 C 87.878 92.398 88.015 93.399 88.174 94.4 C 88.873 99.569 89.57 104.737 90.269 109.919 C 88.173 105.954 86.578 101.773 85.514 97.44 C 85.142 95.439 84.768 93.45 84.394 91.461 C 84.265 90.777 83.056 90.916 83.15 91.626 C 83.158 91.689 83.169 91.74 83.177 91.803 C 83.176 91.803 83.174 91.803 83.173 91.803 C 83.181 91.841 83.189 91.892 83.198 91.93 C 83.458 93.817 83.804 95.68 84.243 97.504 C 84.902 101.026 85.562 104.535 86.221 108.057 C 83.67 102.571 81.534 96.921 79.85 91.106 C 79.618 90.296 78.502 90.65 78.629 91.436 C 79.574 97.301 80.519 103.179 81.465 109.045 C 78.496 104.345 76.27 99.29 74.825 93.881 C 74.61 93.082 73.453 93.425 73.602 94.223 C 74.538 99.138 75.473 104.066 76.408 108.981 C 74.333 104.319 72.782 99.467 71.764 94.438 C 71.602 93.64 70.41 93.982 70.543 94.78 C 71.46 100.24 72.377 105.7 73.294 111.16 C 70.615 105.966 68.641 100.481 67.401 94.729 C 67.217 93.931 66.007 94.261 66.18 95.059 C 67.098 99.062 68.015 103.065 68.934 107.056 C 66.969 101.621 65.004 96.174 63.039 90.726 C 62.764 89.966 61.642 90.257 61.818 91.068 C 63.495 98.72 65.174 106.384 66.852 114.036 C 62.892 105.194 60 95.946 58.225 86.394 C 58.066 85.583 56.856 85.925 57.003 86.723 C 58.698 95.249 60.391 103.762 62.085 112.288 C 59.146 105.878 56.688 99.29 54.698 92.551 C 53.796 89.041 52.894 85.532 51.992 82.036 C 51.788 81.238 50.599 81.58 50.77 82.365 C 51.539 85.912 52.451 89.409 53.472 92.867 C 54.373 96.364 55.273 99.86 56.174 103.369 C 53.804 97.364 51.435 91.36 49.065 85.367 C 48.773 84.62 47.613 84.899 47.843 85.697 C 49.778 92.436 51.711 99.163 53.644 105.903 C 50.567 99.594 47.931 93.095 45.751 86.419 C 45.498 85.646 44.324 85.95 44.529 86.748 C 46.193 93.209 47.855 99.67 49.518 106.118 C 48.811 104.281 48.154 102.432 47.539 100.557 C 46.176 95.198 44.814 89.839 43.451 84.481 C 43.247 83.683 42.086 84.025 42.23 84.823 C 43.219 90.27 44.59 95.616 46.307 100.848 C 46.674 102.292 47.04 103.737 47.408 105.168 C 45.107 100.063 43.195 94.793 41.687 89.396 C 41.032 86.482 40.345 83.581 39.606 80.693 C 39.404 79.895 38.229 80.237 38.387 81.022 C 38.962 83.961 39.663 86.862 40.465 89.738 C 41.893 96.085 43.107 102.47 44.134 108.905 C 38.215 98.201 33.816 86.774 31.054 74.84 C 30.855 74.042 29.649 74.384 29.833 75.169 C 32.187 84.544 34.54 93.906 36.895 103.268 C 32.218 92.715 28.387 81.82 25.439 70.647 C 25.228 69.861 24.009 70.191 24.218 70.989 C 27.155 81.909 30.092 92.842 33.029 103.762 C 28.487 94.286 24.782 84.443 21.907 74.333 C 21.192 71.622 20.476 68.899 19.76 66.175 C 19.552 65.389 18.351 65.719 18.539 66.504 C 19.186 69.253 19.915 71.964 20.684 74.663 C 22.721 82.416 24.758 90.169 26.795 97.909 C 21.793 84.291 16.792 70.672 11.789 57.054 C 11.511 56.294 10.403 56.585 10.568 57.396 C 12.155 65.136 14.007 72.813 16.099 80.414 C 13.809 73.7 11.584 66.96 9.496 60.17 C 9.257 59.397 8.052 59.727 8.275 60.512 C 12.363 75.017 16.452 89.51 20.541 104.015 C 16.502 95.515 12.896 86.812 9.731 77.944 C 8.901 75.448 8.052 72.952 7.167 70.482 C 6.895 69.722 5.689 70.026 5.945 70.812 C 6.764 73.32 7.628 75.815 8.516 78.299 C 12.093 89.067 15.154 99.987 17.691 111.046 C 15.635 107.879 13.866 104.56 12.378 101.127 C 10.839 95.933 9.301 90.739 7.762 85.545 C 7.526 84.747 6.406 85.089 6.539 85.874 C 7.459 91.334 9.035 96.604 11.203 101.621 C 11.564 102.837 11.923 104.053 12.285 105.269 C 10.421 101.33 8.559 97.39 6.695 93.45 C 6.393 92.804 5.287 93.26 5.539 93.944 C 7.511 99.227 8.983 104.636 9.998 110.172 C 9.048 108.247 8.098 106.321 7.149 104.395 C 6.818 103.724 5.841 104.218 5.991 104.889 C 6.41 106.777 6.831 108.665 7.251 110.552 C 6.821 109.653 6.39 108.753 5.961 107.854 C 5.835 107.588 5.615 107.512 5.399 107.537 L 4.889 50.073 C 24.833 63.603 45.183 76.512 65.916 88.801 C 66.015 88.927 66.163 89.016 66.365 89.029 C 66.458 89.054 66.548 89.054 66.632 89.041 C 69.02 89.13 71.408 89.219 73.797 89.307 C 73.885 89.358 73.985 89.396 74.113 89.383 C 74.409 89.371 74.704 89.358 75.001 89.358 C 75.296 89.358 75.592 89.371 75.889 89.383 C 76.015 89.396 76.117 89.358 76.204 89.307 C 78.592 89.219 80.98 89.13 83.368 89.041 C 83.453 89.054 83.543 89.054 83.637 89.029 C 83.837 89.016 83.986 88.927 84.084 88.801 C 104.818 76.512 125.169 63.603 145.112 50.073 L 144.54 114.416 L 144.54 114.416 Z  M 83.559 116.481 C 79.846 116.57 76.129 116.582 72.414 116.557 C 71.784 113.821 71.156 111.072 70.526 108.335 C 71.552 110.628 72.701 112.883 73.99 115.075 C 74.374 115.721 75.26 115.265 75.146 114.581 C 74.638 111.553 74.129 108.525 73.621 105.498 C 74.689 108.348 75.932 111.135 77.37 113.859 C 77.723 114.53 78.655 114.036 78.527 113.365 C 77.819 109.653 77.112 105.928 76.406 102.204 C 77.923 105.675 79.782 108.994 82.002 112.136 C 82.428 112.731 83.276 112.364 83.16 111.642 C 82.48 107.423 81.801 103.205 81.121 98.986 C 82.846 103.737 84.841 108.386 87.165 112.909 C 87.512 113.58 88.448 113.086 88.323 112.414 C 87.946 110.4 87.57 108.399 87.194 106.397 C 88.221 108.791 89.408 111.148 90.784 113.415 C 91.184 114.074 92.033 113.605 91.942 112.934 C 91.583 110.261 91.224 107.601 90.863 104.928 C 91.967 108.057 93.319 111.11 94.948 114.061 C 95.322 114.733 96.206 114.239 96.106 113.567 C 95.759 111.262 95.412 108.943 95.063 106.638 C 95.964 109.399 96.989 112.123 98.151 114.809 C 98.398 115.379 99.395 115.1 99.331 114.492 C 99.155 112.795 98.979 111.084 98.802 109.387 C 99.15 110.413 99.518 111.439 99.921 112.452 C 100.166 113.073 101.182 113.061 101.165 112.288 C 101.002 105.32 100.84 98.353 100.678 91.385 C 102.5 97.39 104.32 103.382 106.141 109.387 C 106.383 110.185 107.484 109.843 107.362 109.057 C 106.701 104.712 106.041 100.379 105.379 96.047 L 108.208 107.613 C 108.379 108.31 109.459 108.158 109.454 107.436 C 109.405 100.722 108.952 94.033 108.106 87.394 C 110.652 94.767 113.198 102.153 115.745 109.539 C 115.961 110.16 117.074 110.122 116.989 109.374 C 116.186 102.242 115.382 95.11 114.579 87.977 C 117.106 94.97 119.633 101.963 122.159 108.969 C 122.383 109.577 123.501 109.551 123.403 108.791 L 121.482 93.919 C 123.704 101.545 126.769 108.931 130.709 115.911 C 130.774 116.038 130.876 116.114 130.99 116.152 C 128.359 116.126 125.727 116.101 123.095 116.088 C 109.916 116.038 96.736 116.177 83.559 116.481 L 83.559 116.481 Z  M 68.693 116.532 C 67.5 111.084 66.309 105.65 65.116 100.202 C 67.082 105.65 69.048 111.097 71.014 116.544 C 70.24 116.544 69.467 116.532 68.693 116.532 L 68.693 116.532 Z  M 64.203 116.456 L 61.965 105.206 C 63.318 109.032 64.856 112.807 66.585 116.494 C 65.792 116.481 64.998 116.481 64.203 116.456 L 64.203 116.456 Z  M 9.618 116.088 C 9.686 115.962 9.719 115.81 9.682 115.645 L 8.36 109.703 C 9.163 111.325 9.965 112.959 10.768 114.581 C 11.115 115.278 12.015 114.733 11.926 114.087 C 11.383 110.147 10.576 106.27 9.557 102.457 L 14.678 113.276 C 14.985 113.935 16.036 113.479 15.834 112.795 L 14.476 108.209 C 15.701 110.362 17.04 112.465 18.507 114.505 C 18.919 115.075 19.825 114.746 19.664 114.011 C 18.189 107.284 16.511 100.62 14.651 93.995 C 17.088 99.721 19.702 105.384 22.513 110.945 C 22.84 111.591 23.863 111.135 23.671 110.451 C 21.541 102.9 19.411 95.337 17.281 87.787 C 20.433 96.718 23.765 105.586 27.276 114.391 C 27.574 115.138 28.794 114.821 28.499 114.049 C 22.486 98.467 17.59 82.479 13.809 66.213 C 19.267 81.073 24.725 95.946 30.184 110.806 C 30.46 111.553 31.615 111.262 31.405 110.464 C 29.792 104.332 28.181 98.201 26.568 92.069 C 28.976 98.175 31.686 104.18 34.732 110.02 C 35.067 110.666 36.073 110.21 35.89 109.526 C 34.519 104.433 33.148 99.328 31.777 94.235 C 33.855 99.594 36.132 104.877 38.627 110.058 C 38.946 110.73 39.955 110.248 39.785 109.577 C 38.576 104.763 37.368 99.961 36.159 95.147 C 38.597 101.165 41.466 106.992 44.773 112.617 C 45.162 113.276 46.031 112.807 45.93 112.136 C 45.329 108.069 44.621 104.015 43.859 99.974 C 45.371 103.901 47.093 107.74 49.038 111.49 C 49.35 112.085 50.212 111.743 50.205 111.148 C 50.685 112.262 51.178 113.365 51.692 114.467 C 52.002 115.125 53.023 114.657 52.85 113.973 C 51.497 108.728 50.144 103.471 48.791 98.213 C 50.786 103.002 53.015 107.689 55.493 112.262 C 55.835 112.896 56.848 112.465 56.65 111.781 C 55.325 107.157 54.002 102.546 52.676 97.935 C 54.688 103.027 56.699 108.12 58.709 113.213 C 59.002 113.96 60.138 113.694 59.93 112.883 C 59.417 110.882 58.904 108.893 58.392 106.904 C 59.705 110.122 61.127 113.301 62.668 116.43 C 56.673 116.329 50.68 116.19 44.69 116.139 C 42.097 116.114 19.246 115.911 9.618 116.088 L 9.618 116.088 Z  M 5.364 114.746 C 5.42 114.657 5.461 114.555 5.46 114.416 L 5.418 109.64 C 6.45 111.794 7.479 113.947 8.511 116.101 C 6.558 116.152 5.366 116.215 5.364 116.316 L 5.364 114.746 L 5.364 114.746 Z  M 146.388 48.959 C 146.395 48.312 145.591 48.186 145.264 48.578 C 145.156 48.578 145.04 48.604 144.921 48.68 C 124.796 62.336 104.256 75.372 83.326 87.775 C 80.551 87.876 77.776 87.977 75.001 88.091 C 72.225 87.977 69.449 87.876 66.674 87.775 C 45.746 75.372 25.204 62.336 5.08 48.68 C 4.961 48.604 4.846 48.578 4.735 48.578 C 4.409 48.186 3.605 48.312 3.612 48.959 C 3.804 70.672 3.998 92.386 4.191 114.099 C 4.136 114.188 4.097 114.289 4.097 114.416 L 4.097 116.316 C 4.097 116.557 4.212 116.722 4.368 116.81 C 4.274 117.178 4.463 117.621 4.95 117.621 C 18.059 117.355 31.172 117.292 44.282 117.406 C 51.91 117.469 59.567 117.685 67.212 117.799 C 67.516 118.419 67.806 119.053 68.119 119.686 C 68.455 120.345 69.425 119.863 69.277 119.192 C 69.177 118.736 69.077 118.28 68.977 117.824 C 73.601 117.875 78.221 117.887 82.828 117.773 C 95.995 117.456 109.165 117.317 122.333 117.355 C 129.907 117.38 137.48 117.469 145.05 117.621 C 145.538 117.621 145.726 117.178 145.633 116.81 C 145.789 116.722 145.904 116.557 145.904 116.316 L 145.904 114.416 C 145.904 114.289 145.864 114.188 145.809 114.099 C 146.003 92.386 146.196 70.672 146.388 48.959 L 146.388 48.959 Z " fill-rule="evenodd" fill="rgb(254,234,203)"/></g></svg>