<?xml version="1.0" encoding="UTF-8" standalone="no"?><!-- Generator: Gravit.io --><svg xmlns="http://www.w3.org/2000/svg" xmlns:xlink="http://www.w3.org/1999/xlink" style="isolation:isolate" viewBox="0 0 120 120" width="120pt" height="120pt"><defs><clipPath id="_clipPath_5Bjj9VbrQvSfNpxcW9GQHSpYs3ugmdLV"><rect width="120" height="120"/></clipPath></defs><g clip-path="url(#_clipPath_5Bjj9VbrQvSfNpxcW9GQHSpYs3ugmdLV)"><path d=" M 76.557 115.789 C 76 113.776 75.442 111.762 74.883 109.749 L 77.22 114.532 C 77.453 115.014 78.26 114.683 78.084 114.173 L 74.981 105.26 C 76.634 108.161 78.488 110.931 80.549 113.587 C 80.834 113.955 81.508 113.549 81.339 113.124 C 80.534 111.091 79.731 109.05 78.927 107.018 C 80.22 109.163 81.637 111.233 83.158 113.237 C 81.051 114.286 78.851 115.146 76.557 115.789 Z  M 73.86 116.432 C 73.897 116.195 73.935 115.95 73.973 115.713 C 74.011 115.467 73.88 115.288 73.708 115.193 C 73.537 113.899 73.385 112.594 73.244 111.299 C 74.039 112.878 74.834 114.456 75.63 116.035 C 75.044 116.176 74.457 116.318 73.86 116.432 Z  M 72.711 105.458 C 73.263 107.453 73.816 109.437 74.368 111.432 C 74.246 111.195 74.124 110.95 74.002 110.704 C 73.808 110.316 73.346 110.458 73.19 110.751 C 73.003 108.993 72.844 107.226 72.711 105.458 Z  M 72.421 100.78 C 73.142 102.859 73.864 104.929 74.586 106.999 C 74.213 106.233 73.84 105.468 73.467 104.712 C 73.29 104.343 72.824 104.438 72.652 104.721 C 72.558 103.407 72.484 102.094 72.421 100.78 Z  M 96.242 44.25 C 96.138 38.012 95.38 31.821 94.377 25.659 C 95.674 30.271 96.971 34.884 98.267 39.496 C 98.437 40.091 99.268 39.827 99.178 39.241 C 98.938 37.653 98.698 36.065 98.457 34.477 C 102.452 46.367 106.446 58.248 110.44 70.138 C 109.337 68.871 108.283 67.567 107.277 66.225 C 107.613 66.423 108.148 66.187 107.981 65.733 C 104.987 57.615 101.993 49.505 99 41.396 C 98.791 40.829 97.877 41.074 98.089 41.642 C 101.072 49.732 104.055 57.813 107.037 65.894 C 104.106 61.943 101.597 57.709 99.553 53.239 C 98.45 50.242 97.346 47.246 96.242 44.25 Z  M 100.488 36.547 C 100.658 37.01 101.489 36.991 101.416 36.424 C 100.969 32.974 100.522 29.525 100.074 26.075 C 100.788 28.74 101.502 31.405 102.215 34.071 C 102.343 34.553 102.992 34.487 103.117 34.071 C 104.847 42.814 107.32 51.386 110.512 59.703 C 106.221 51.396 102.474 42.823 99.298 34.014 C 99.13 33.551 98.498 33.627 98.385 33.995 C 98.027 31.632 97.67 29.269 97.313 26.907 C 98.245 30.158 99.3 33.371 100.488 36.547 Z  M 30.872 24.874 C 31.026 25.357 31.846 25.3 31.8 24.742 C 31.596 22.247 31.392 19.752 31.187 17.257 C 32.118 20.309 33.048 23.372 33.978 26.425 C 34.127 26.916 34.945 26.85 34.907 26.302 C 34.759 24.175 34.611 22.039 34.464 19.912 C 35.158 22.351 36.062 24.733 37.174 27.048 C 37.375 27.464 38.088 27.266 38.054 26.812 C 37.929 25.073 37.803 23.334 37.676 21.595 C 38.344 24.194 39.181 26.755 40.21 29.26 C 40.44 29.818 41.224 29.619 41.121 29.005 C 40.39 24.657 39.927 20.272 39.711 15.877 C 40.944 21.047 42.463 26.132 44.278 31.131 C 44.484 31.698 45.325 31.481 45.189 30.886 C 44.197 26.481 43.431 22.048 42.894 17.578 C 44.023 22.474 45.341 27.322 46.891 32.114 C 46.897 32.133 46.912 32.143 46.923 32.171 C 46.254 32.426 45.59 32.7 44.936 33.012 C 40.181 29.534 34.798 27.247 28.986 26.245 C 28.971 26.236 28.96 26.245 28.946 26.245 C 28.946 26.188 28.945 26.132 28.945 26.075 C 29.228 26.33 29.785 26.236 29.741 25.763 C 29.539 23.655 29.336 21.548 29.134 19.44 C 29.713 21.245 30.293 23.06 30.872 24.874 Z  M 16.904 73.711 C 14.604 66.112 12.81 58.39 11.549 50.564 C 13.792 58.853 16.372 67.047 19.287 75.128 C 19.391 75.421 19.682 75.497 19.913 75.421 C 20.024 76.745 20.135 78.077 20.247 79.4 C 18.946 77.208 18.116 74.845 17.756 72.265 C 17.683 71.735 16.797 71.868 16.827 72.387 C 16.854 72.832 16.879 73.266 16.904 73.711 Z  M 27.999 26.046 C 28.05 31.802 28.1 37.549 28.151 43.296 C 28.151 43.324 28.163 43.352 28.167 43.371 C 22.736 51.632 21.786 62.473 26.066 71.442 C 29.973 79.637 37.949 85.468 46.81 87.094 C 46.68 87.17 46.579 87.292 46.577 87.481 C 46.536 91.092 44.806 95.402 40.605 95.563 C 36.631 95.714 33.657 92.67 31.088 90.062 C 26.98 85.894 22.403 83.191 16.445 82.916 C 15.964 82.898 15.821 83.559 16.207 83.795 C 22.249 87.444 21.877 95.563 25.752 100.95 C 25.465 100.837 25.064 100.997 25.093 101.366 C 25.168 102.415 25.364 103.398 25.669 104.334 C 23.596 100.827 22.24 96.99 21.655 92.897 C 21.569 92.302 20.659 92.557 20.743 93.152 C 20.924 94.428 21.104 95.704 21.284 96.98 C 20.453 93.842 19.794 90.657 19.362 87.425 C 19.284 86.848 18.379 86.801 18.417 87.425 C 18.567 89.901 18.718 92.368 18.87 94.835 C 17.896 91.839 17.159 88.776 16.662 85.638 C 16.551 85.034 15.656 85.289 15.751 85.884 C 16.314 88.965 16.52 92.037 16.412 95.128 C 15.443 92.217 14.76 89.239 14.403 86.168 C 14.334 85.572 13.388 85.563 13.458 86.168 C 13.918 90.118 14.85 93.918 16.298 97.623 C 16.493 98.124 17.178 98.048 17.226 97.5 C 17.356 96.026 17.386 94.57 17.369 93.105 C 17.868 94.854 18.43 96.583 19.09 98.294 C 19.268 98.748 20.054 98.738 20.018 98.162 L 19.832 95.118 C 20.464 97.812 21.232 100.477 22.15 103.105 C 22.356 103.691 23.146 103.445 23.062 102.859 C 22.955 102.094 22.848 101.337 22.74 100.581 C 23.711 102.973 24.977 105.25 26.534 107.386 C 26.731 107.651 27.083 107.651 27.277 107.472 C 27.638 107.972 28.036 108.454 28.487 108.908 C 28.765 109.192 29.312 108.993 29.294 108.577 C 29.288 108.464 29.283 108.341 29.278 108.228 C 29.662 109.069 30.133 109.872 30.695 110.647 C 17.563 102.944 7.837 89.721 4.71 74.637 C 4.556 73.89 4.42 73.144 4.296 72.397 C 6.118 78.503 8.677 84.334 11.961 89.807 C 12.237 90.27 12.953 89.967 12.824 89.447 C 10.892 81.622 8.96 73.796 7.028 65.97 C 6.882 65.384 5.97 65.639 6.117 66.225 L 11.083 86.338 C 8.284 81.149 6.105 75.677 4.583 69.958 C 4.494 69.618 4.162 69.561 3.92 69.684 C 3.173 63.229 3.546 56.736 4.914 50.469 C 5.194 51.84 5.496 53.21 5.821 54.571 C 6.807 59.051 7.87 63.503 9.013 67.936 C 8.257 65.715 7.501 63.493 6.745 61.272 C 6.551 60.705 5.638 60.951 5.834 61.528 L 13.833 85.034 C 14.028 85.61 14.925 85.374 14.744 84.788 C 13.221 79.826 11.802 74.835 10.479 69.817 C 11.497 72.529 12.599 75.223 13.801 77.869 C 14.03 78.37 14.778 78.002 14.665 77.501 C 12.98 70.1 11.295 62.69 9.611 55.28 C 11.858 61.906 14.104 68.522 16.35 75.147 C 16.456 75.459 16.768 75.525 17.004 75.431 L 17.14 77.775 C 16.875 77.056 16.612 76.348 16.348 75.639 C 16.139 75.072 15.225 75.317 15.437 75.884 C 16.07 77.595 16.704 79.306 17.337 81.017 C 17.511 81.48 18.299 81.461 18.266 80.894 C 18.192 79.627 18.119 78.361 18.046 77.094 C 18.653 78.625 19.456 80.081 20.463 81.461 C 20.709 81.801 21.388 81.735 21.344 81.225 C 21.136 78.748 20.929 76.272 20.721 73.796 C 21.662 76.697 22.938 79.485 24.558 82.132 C 24.798 82.519 25.447 82.368 25.439 81.886 C 25.394 79.419 25.229 76.962 24.955 74.523 C 26.03 78.436 27.106 82.359 28.182 86.272 C 28.311 86.744 28.856 86.678 29.038 86.347 C 29.541 87.463 30.111 88.559 30.749 89.618 C 30.971 89.996 31.691 89.873 31.63 89.381 C 31.473 88.105 31.315 86.82 31.158 85.534 C 31.835 87.33 32.662 89.069 33.654 90.752 C 33.876 91.12 34.589 90.997 34.535 90.506 C 34.474 89.977 34.414 89.438 34.353 88.909 C 35.083 90.572 36.025 92.151 37.203 93.644 C 37.535 94.06 38.05 93.578 37.992 93.181 L 37.588 90.345 C 38.051 91.385 38.582 92.396 39.193 93.389 C 39.424 93.757 40.115 93.644 40.074 93.152 L 39.864 90.648 C 40.087 91.177 40.333 91.697 40.604 92.217 C 40.824 92.633 41.494 92.434 41.485 91.98 C 41.48 91.678 41.474 91.376 41.468 91.083 C 41.743 91.706 42.052 92.321 42.444 92.916 C 42.686 93.294 43.344 93.171 43.325 92.68 C 43.297 91.999 43.271 91.319 43.244 90.629 C 43.476 90.96 43.739 91.272 44.057 91.574 C 44.499 91.99 45.169 91.319 44.725 90.903 C 43.805 90.033 43.302 89.164 43.135 87.841 C 43.06 87.255 42.165 87.217 42.189 87.841 C 42.225 88.767 42.262 89.703 42.299 90.629 C 41.852 89.608 41.543 88.55 41.4 87.387 C 41.328 86.801 40.444 86.763 40.455 87.387 C 40.469 88.143 40.483 88.899 40.497 89.655 C 40 88.351 39.645 87.018 39.435 85.582 C 39.359 85.062 38.463 85.175 38.507 85.705 C 38.655 87.472 38.802 89.239 38.949 91.007 C 37.805 88.729 37.043 86.328 36.653 83.767 C 36.56 83.162 35.657 83.427 35.741 84.013 C 36.095 86.508 36.45 88.994 36.803 91.479 C 35.025 88.776 33.95 85.742 33.625 82.472 C 33.558 81.877 32.62 81.858 32.68 82.472 C 32.893 84.362 33.107 86.243 33.321 88.134 C 31.799 85.071 30.784 81.839 30.28 78.408 C 30.203 77.888 29.286 78.002 29.351 78.531 C 29.697 81.338 30.042 84.155 30.388 86.962 C 29.514 85.204 28.816 83.389 28.301 81.508 C 27.963 79.58 27.625 77.652 27.287 75.733 C 27.196 75.213 26.316 75.327 26.358 75.856 C 26.368 75.97 26.386 76.092 26.396 76.206 C 25.29 72.179 24.184 68.153 23.078 64.127 C 22.917 63.541 22.018 63.786 22.166 64.382 C 23.459 69.524 24.213 74.741 24.434 80.024 C 22.278 76.102 20.858 71.886 20.181 67.416 C 20.101 66.896 19.207 67.019 19.252 67.548 C 19.421 69.552 19.589 71.565 19.757 73.569 C 15.834 62.246 13.645 50.441 13.282 38.485 C 14.759 46.178 17.135 53.654 20.419 60.809 C 20.641 61.291 21.462 60.951 21.283 60.441 C 17.908 50.97 16.247 41.037 16.326 31.009 C 18.042 37.776 20.072 44.468 22.456 51.036 C 22.664 51.613 23.472 51.386 23.366 50.791 C 22.727 47.152 22.086 43.513 21.447 39.874 C 22.228 42.02 23.12 44.137 24.134 46.197 C 24.339 46.613 25.047 46.424 25.016 45.961 C 24.818 43.088 24.514 40.224 24.144 37.369 C 24.497 38.759 24.851 40.139 25.204 41.519 C 25.333 42.029 26.173 41.935 26.132 41.396 C 25.923 38.608 25.608 35.829 25.224 33.069 C 25.361 33.579 25.498 34.09 25.635 34.6 C 25.78 35.129 26.522 34.988 26.563 34.468 C 26.877 30.612 26.456 26.888 25.296 23.192 C 25.114 22.616 24.202 22.861 24.385 23.438 C 25.185 25.99 25.615 28.561 25.696 31.179 C 24.858 28.069 24.022 24.95 23.184 21.841 C 23.026 21.255 22.138 21.5 22.273 22.096 C 23.26 26.406 24.006 30.753 24.547 35.139 C 23.762 32.067 22.976 28.986 22.191 25.914 C 22.04 25.328 21.153 25.574 21.28 26.169 C 22.495 31.84 23.336 37.558 23.842 43.333 C 22.007 39.156 20.652 34.818 19.771 30.356 L 19.258 27.436 C 19.151 26.831 18.258 27.096 18.346 27.691 C 18.492 28.665 18.667 29.629 18.856 30.593 C 19.713 35.451 20.567 40.318 21.423 45.176 C 19.487 39.326 17.809 33.39 16.393 27.389 C 16.267 26.859 15.49 27.001 15.465 27.521 C 15.078 35.517 15.82 43.475 17.62 51.225 C 15.544 45.139 14.068 38.863 13.248 32.455 C 13.172 31.869 12.315 31.821 12.303 32.455 C 12.133 40.677 12.817 48.881 14.334 56.925 C 12.917 52.114 11.607 47.265 10.422 42.379 C 10.299 41.878 9.431 41.972 9.494 42.502 C 10.222 48.891 11.3 55.214 12.706 61.471 C 10.998 56.433 9.291 51.396 7.583 46.358 C 7.388 45.791 6.535 46.018 6.672 46.613 C 8.644 55.29 10.617 63.966 12.589 72.633 C 10.205 66.754 8.265 60.715 6.783 54.552 C 6.32 52.454 5.871 50.356 5.443 48.248 C 8.635 35.886 15.732 24.544 25.83 16.387 C 26.493 15.848 27.17 15.338 27.853 14.837 C 27.799 14.903 27.764 14.998 27.775 15.121 C 27.995 17.417 28.216 19.723 28.437 22.02 C 27.877 20.451 27.317 18.882 26.758 17.304 C 26.593 16.841 25.763 16.869 25.83 17.436 C 25.888 17.918 25.946 18.41 26.005 18.892 C 25.7 18.816 25.301 19.052 25.395 19.459 C 25.866 21.5 26.336 23.532 26.807 25.574 C 26.924 26.084 27.8 25.98 27.735 25.451 C 27.58 24.147 27.424 22.852 27.268 21.557 C 27.758 22.927 28.247 24.298 28.735 25.678 C 28.456 25.498 27.995 25.621 27.999 26.046 Z  M 27.678 103.048 C 31.091 105.931 35.611 107.131 39.932 106.479 C 39.866 106.555 39.821 106.649 39.824 106.772 C 39.867 108.237 39.91 109.712 39.952 111.186 C 39.882 110.987 39.811 110.798 39.741 110.609 C 39.533 110.042 38.619 110.288 38.829 110.855 C 39.237 111.97 39.645 113.076 40.052 114.182 C 40.226 114.655 40.997 114.626 40.981 114.059 C 40.948 112.944 40.916 111.838 40.884 110.732 C 41.144 111.366 41.432 111.999 41.777 112.613 C 41.995 113.001 42.704 112.849 42.658 112.377 L 42.59 111.677 C 42.603 111.715 42.616 111.753 42.629 111.8 C 42.737 112.141 43.101 112.188 43.342 112.055 C 43.28 113.341 43.198 114.636 43.076 115.921 C 38.986 114.787 35.088 113.142 31.438 111.082 C 31.611 111.025 31.747 110.893 31.736 110.657 L 31.685 109.513 C 32.046 110.241 32.467 110.94 32.987 111.63 C 33.277 112.008 33.814 111.876 33.867 111.394 C 33.932 110.808 33.995 110.222 34.058 109.645 C 34.436 110.524 34.939 111.347 35.602 112.131 C 35.88 112.462 36.398 112.178 36.409 111.8 C 36.412 111.677 36.416 111.564 36.418 111.441 C 36.769 112.292 37.19 113.124 37.687 113.936 C 37.935 114.343 38.551 114.163 38.568 113.691 C 38.632 111.914 38.695 110.146 38.76 108.369 C 38.781 107.755 37.836 107.765 37.814 108.369 C 37.772 109.56 37.729 110.742 37.686 111.933 C 37.166 110.855 36.762 109.73 36.48 108.54 C 36.355 108.01 35.567 108.143 35.552 108.662 L 35.503 110.401 C 34.882 109.4 34.496 108.322 34.307 107.103 C 34.219 106.536 33.432 106.744 33.379 107.226 C 33.275 108.171 33.171 109.126 33.067 110.071 C 32.341 108.889 31.833 107.632 31.525 106.224 C 31.412 105.704 30.573 105.808 30.597 106.347 C 30.636 107.216 30.676 108.086 30.714 108.955 C 29.924 107.585 29.39 106.12 29.101 104.504 C 29.006 103.984 28.149 104.107 28.173 104.636 C 28.212 105.506 28.25 106.375 28.289 107.245 C 27.72 106.517 27.255 105.751 26.9 104.929 C 26.61 103.719 26.321 102.509 26.033 101.3 C 26.517 101.923 27.049 102.509 27.678 103.048 Z  M 43.4 105.543 C 43.462 107.386 43.454 109.22 43.389 111.063 C 42.972 109.73 42.555 108.398 42.138 107.056 C 41.987 106.574 41.156 106.63 41.209 107.188 C 41.286 107.972 41.362 108.757 41.439 109.551 C 41.121 108.615 40.892 107.651 40.753 106.64 C 40.735 106.517 40.67 106.432 40.583 106.375 C 41.539 106.186 42.484 105.912 43.4 105.543 Z  M 29.924 13.381 C 30.124 15.81 30.323 18.24 30.522 20.678 L 28.703 14.998 C 28.611 14.705 28.282 14.61 28.041 14.695 C 28.661 14.242 29.289 13.807 29.924 13.381 Z  M 113.822 37.058 C 109.934 27.237 103.175 18.57 94.527 12.484 C 76.173 -0.427 51.168 -0.645 32.11 10.839 C 18.547 19.015 8.808 32.266 4.726 47.237 C 4.513 47.312 4.333 47.52 4.385 47.804 C 4.41 47.936 4.441 48.078 4.466 48.21 C 2.971 54.08 2.339 60.195 2.687 66.367 C 4.002 89.721 20.33 110.666 43.012 116.885 C 43.077 117.367 43.887 117.329 43.946 116.772 C 44.362 112.849 44.491 108.918 44.333 104.967 C 44.315 104.532 43.823 104.409 43.556 104.598 C 43.449 104.57 43.329 104.56 43.205 104.617 C 36.997 107.292 29.089 105.005 25.558 99.135 C 22.627 94.268 22.523 87.793 18.084 84.003 C 22.069 84.523 25.685 86.224 28.673 88.994 C 31.266 91.404 33.483 94.353 36.845 95.752 C 43.014 98.313 47.455 93.493 47.522 87.481 C 47.523 87.368 47.481 87.274 47.424 87.207 C 47.582 87.226 47.738 87.264 47.895 87.292 C 48.49 87.378 48.747 86.461 48.146 86.376 C 39.29 85.109 31.286 79.599 27.19 71.593 C 22.677 62.766 23.628 51.878 29.074 43.711 C 29.178 43.551 29.165 43.399 29.096 43.277 C 29.049 37.918 29.002 32.559 28.954 27.2 C 34.526 28.192 39.685 30.385 44.267 33.693 C 44.329 33.92 44.562 34.118 44.837 34.061 C 45.042 34.146 45.23 34.043 45.329 33.863 C 53.956 29.77 64.122 30.12 72.452 34.808 C 72.554 34.865 72.652 34.874 72.743 34.865 C 72.747 35.243 73.216 35.583 73.519 35.214 C 76.991 31.009 81.347 27.776 86.401 25.716 C 86.446 25.697 86.477 25.668 86.512 25.64 C 89.476 31.216 90.26 37.53 88.747 43.664 C 88.601 44.25 89.512 44.505 89.659 43.91 C 91.243 37.492 90.407 30.886 87.271 25.054 C 87.118 24.771 86.818 24.771 86.611 24.922 C 86.513 24.789 86.354 24.723 86.15 24.808 C 81.066 26.878 76.668 30.044 73.128 34.231 C 73.096 34.137 73.038 34.052 72.93 33.995 C 65.225 29.657 56.04 28.939 47.805 31.84 C 47.275 26.765 46.747 21.689 46.219 16.614 C 47.084 20.461 47.95 24.307 48.816 28.154 C 48.932 28.674 49.762 28.561 49.744 28.031 C 49.609 24.062 49.474 20.092 49.339 16.122 C 50.082 19.837 51.081 23.495 52.354 27.086 C 52.522 27.568 53.311 27.53 53.282 26.963 C 53.181 25.007 53.079 23.05 52.977 21.103 C 53.43 23.249 53.964 25.385 54.6 27.493 C 54.749 27.993 55.548 27.918 55.528 27.37 C 55.441 24.997 55.353 22.625 55.265 20.253 C 55.658 22.304 56.124 24.345 56.678 26.377 C 56.816 26.878 57.621 26.793 57.605 26.245 C 57.466 21.377 57.328 16.5 57.189 11.623 C 58.216 15.716 59.244 19.818 60.271 23.91 C 60.422 24.515 61.274 24.251 61.183 23.665 C 60.718 20.65 60.377 17.635 60.146 14.61 C 60.792 18.854 61.438 23.098 62.084 27.341 C 62.163 27.861 63.041 27.738 63.012 27.209 C 62.809 23.476 62.606 19.742 62.402 15.999 L 63.932 26.84 C 64.006 27.379 64.866 27.237 64.86 26.718 C 64.824 23.23 64.788 19.742 64.751 16.264 C 65.047 18.514 65.342 20.773 65.637 23.031 C 65.812 24.808 66.041 26.595 66.337 28.372 C 66.423 28.891 67.334 28.778 67.265 28.249 C 67.033 26.472 66.8 24.695 66.568 22.918 C 66.287 20.026 66.176 17.124 66.222 14.213 C 66.632 18.107 67.041 21.992 67.451 25.886 C 67.546 27.029 67.661 28.173 67.813 29.317 C 67.819 29.373 67.824 29.43 67.831 29.487 C 67.831 29.487 67.831 29.487 67.832 29.487 C 67.838 29.525 67.842 29.572 67.848 29.61 C 67.918 30.139 68.831 30.016 68.776 29.487 C 68.635 28.154 68.494 26.822 68.354 25.489 C 68.023 21.273 68.088 17.058 68.545 12.862 C 69.139 18.391 69.732 23.929 70.326 29.458 C 70.39 30.054 71.228 30.073 71.271 29.458 C 71.575 24.997 71.88 20.536 72.184 16.085 C 72.508 20.659 73.017 25.215 73.758 29.742 C 73.846 30.281 74.687 30.139 74.686 29.619 C 74.679 23.788 75.106 17.994 75.961 12.238 C 76.505 17.001 77.049 21.765 77.593 26.538 C 77.66 27.124 78.567 27.152 78.538 26.538 C 78.336 22.02 78.481 17.521 78.935 13.032 C 79.559 15.763 80.184 18.504 80.808 21.236 C 80.928 21.765 81.735 21.642 81.736 21.113 C 81.738 18.958 81.742 16.793 81.745 14.638 C 82.272 17.493 82.8 20.338 83.326 23.192 C 83.409 23.627 84.175 23.655 84.238 23.192 C 84.291 22.795 84.345 22.408 84.399 22.011 C 84.443 21.699 84.204 21.481 83.96 21.434 C 83.219 17.427 82.478 13.419 81.737 9.412 C 81.638 8.883 80.809 9.015 80.808 9.535 C 80.805 12.002 80.801 14.478 80.797 16.945 C 80.274 14.657 79.752 12.361 79.229 10.073 C 79.1 9.506 78.365 9.714 78.301 10.196 C 77.947 12.88 77.712 15.565 77.593 18.249 C 77.233 15.102 76.874 11.945 76.514 8.797 C 76.459 8.315 75.687 8.098 75.585 8.665 C 74.683 13.731 74.114 18.825 73.874 23.958 C 73.206 18.599 72.83 13.211 72.749 7.805 C 72.741 7.2 71.846 7.21 71.804 7.805 C 71.433 13.23 71.064 18.655 70.693 24.071 C 70.152 19.033 69.611 13.986 69.07 8.949 C 69.018 8.467 68.236 8.249 68.142 8.826 C 67.75 11.179 67.492 13.542 67.346 15.905 L 66.537 8.221 C 66.472 7.616 65.647 7.607 65.591 8.221 C 65.438 9.875 65.341 11.529 65.294 13.183 C 65.086 11.595 64.878 10.007 64.67 8.419 C 64.594 7.833 63.718 7.786 63.725 8.419 L 63.84 19.478 C 63.157 14.638 62.474 9.809 61.791 4.97 C 61.717 4.44 60.835 4.563 60.863 5.092 C 61.089 9.242 61.314 13.381 61.54 17.521 C 60.952 13.665 60.365 9.809 59.778 5.953 C 59.697 5.414 58.847 5.556 58.85 6.075 C 58.868 9.535 59.053 12.984 59.369 16.425 L 57.049 7.181 C 56.921 6.661 56.106 6.765 56.121 7.304 C 56.258 12.124 56.396 16.954 56.533 21.774 C 55.526 17.077 54.942 12.304 54.792 7.474 C 54.769 6.869 53.828 6.869 53.847 7.474 C 54.042 12.729 54.236 17.975 54.43 23.23 C 53.391 18.967 52.713 14.629 52.415 10.244 C 52.373 9.412 52.329 8.58 52.287 7.758 C 52.255 7.153 51.32 7.143 51.341 7.758 C 51.372 8.599 51.415 9.44 51.473 10.281 C 51.7 14.667 51.926 19.052 52.153 23.438 C 50.595 18.325 49.55 13.098 49.053 7.748 C 48.998 7.153 48.087 7.134 48.108 7.748 C 48.282 12.843 48.455 17.928 48.628 23.022 C 47.545 18.211 46.462 13.391 45.378 8.58 C 45.264 8.07 44.395 8.174 44.45 8.703 C 45.092 14.865 45.733 21.028 46.374 27.181 C 44.666 21.358 43.252 15.451 42.158 9.469 C 42.063 8.949 41.198 9.062 41.23 9.591 C 41.512 14.327 42.047 19.033 42.826 23.703 C 41.537 19.449 40.431 15.139 39.552 10.773 C 39.446 10.244 38.621 10.376 38.623 10.896 C 38.648 15.508 38.953 20.092 39.531 24.648 C 38.208 20.527 37.349 16.292 36.976 11.954 C 36.924 11.359 35.986 11.34 36.031 11.954 C 36.325 16.009 36.62 20.064 36.915 24.118 C 35.385 20.366 34.386 16.463 33.942 12.408 C 33.877 11.812 32.954 11.794 32.997 12.408 C 33.224 15.669 33.45 18.929 33.676 22.19 C 32.722 19.052 31.768 15.924 30.815 12.786 C 30.814 12.786 30.813 12.786 30.813 12.786 C 47.491 2.011 69.055 0.197 87.128 9.185 C 106.514 18.816 118.325 39.921 116.239 61.471 C 115.007 74.202 109.57 86.404 102.021 96.621 C 97.231 103.105 91.239 108.984 84.139 112.755 C 81.389 107.5 79.083 102.056 77.235 96.442 C 79.712 101.479 82.599 106.29 85.909 110.846 C 86.196 111.243 86.98 111.025 86.772 110.487 C 84.787 105.317 82.801 100.137 80.816 94.967 C 83.209 99.23 85.796 103.37 88.617 107.368 C 88.97 107.868 89.693 107.443 89.434 106.886 C 87.438 102.642 85.732 98.285 84.305 93.823 C 86.362 98.181 88.779 102.358 91.563 106.328 C 91.863 106.753 92.561 106.507 92.427 105.959 C 91.67 102.916 90.794 99.91 89.814 96.933 C 91.113 99.343 92.473 101.725 93.943 104.05 C 94.215 104.475 95.022 104.201 94.807 103.681 C 93.141 99.674 91.691 95.591 90.41 91.451 C 91.787 94.391 93.346 97.235 95.097 99.986 C 95.373 100.421 96.142 100.147 95.961 99.627 L 92.985 90.893 C 94.294 93.389 95.73 95.818 97.31 98.162 C 97.594 98.587 98.347 98.341 98.174 97.803 C 97.103 94.495 96.032 91.177 94.961 87.869 C 96.395 90.251 98.089 92.472 100.055 94.504 C 100.373 94.825 100.999 94.495 100.845 94.041 C 100.097 91.839 99.35 89.636 98.603 87.425 C 99.774 89.4 101.096 91.281 102.573 93.067 C 102.89 93.455 103.466 93.039 103.363 92.614 C 102.735 90.043 102.031 87.491 101.261 84.967 C 102.268 86.48 103.369 87.935 104.58 89.325 C 104.887 89.674 105.52 89.306 105.369 88.861 C 103.652 83.824 101.935 78.796 100.216 73.758 C 102.315 78.002 104.564 82.17 107 86.234 C 107.273 86.688 108.006 86.395 107.863 85.875 C 106.571 81.158 105.112 76.499 103.51 71.886 C 105.212 75.109 107.016 78.276 108.93 81.385 C 109.199 81.829 109.986 81.546 109.793 81.026 C 107.23 74.07 104.666 67.113 102.103 60.157 C 104.702 64.571 107.772 68.701 111.283 72.491 C 111.598 72.832 112.223 72.482 112.073 72.038 C 109.493 64.354 106.914 56.679 104.333 49.004 C 107.245 55.535 110.469 61.915 114.019 68.134 C 114.327 68.673 115.082 68.2 114.836 67.662 C 110.57 58.229 107.279 48.409 104.98 38.343 C 107.39 45.781 110.255 53.059 113.581 60.148 C 113.809 60.639 114.597 60.289 114.445 59.779 C 112.24 52.416 110.201 45.006 108.32 37.558 L 114.269 54.07 C 114.48 54.656 115.262 54.42 115.18 53.825 C 114.928 51.991 114.625 50.176 114.279 48.371 C 114.557 48.759 115.292 48.513 115.117 47.993 C 113.796 44.023 112.476 40.054 111.155 36.084 C 110.867 35.177 110.569 34.279 110.255 33.381 C 110.056 32.804 109.15 33.05 109.344 33.627 C 109.644 34.534 109.944 35.432 110.244 36.339 C 111.568 40.488 112.635 44.704 113.438 48.985 C 111.028 42.294 108.618 35.602 106.208 28.91 C 106.003 28.343 105.157 28.561 105.296 29.156 C 107.201 37.275 109.302 45.337 111.588 53.352 C 108.276 45.545 105.502 37.53 103.284 29.336 L 103.294 29.043 C 103.623 30.082 103.952 31.131 104.281 32.171 C 104.464 32.748 105.377 32.502 105.192 31.925 C 104.583 29.988 103.972 28.06 103.362 26.122 C 103.201 25.612 102.45 25.706 102.434 26.245 L 102.371 28.296 C 102.223 28.4 102.121 28.579 102.157 28.797 C 102.209 29.118 102.272 29.44 102.326 29.761 C 102.316 30.082 102.307 30.404 102.297 30.725 C 101.249 26.812 100.201 22.89 99.154 18.977 C 99.021 18.476 98.155 18.561 98.226 19.1 C 98.784 23.41 99.343 27.719 99.902 32.029 C 98.184 26.897 96.781 21.67 95.716 16.359 C 95.594 15.754 94.715 16.018 94.804 16.614 C 95.577 21.718 96.352 26.831 97.124 31.935 L 92.739 16.349 C 92.572 15.754 91.718 16.009 91.827 16.595 C 93.426 25.271 94.98 33.976 95.273 42.785 C 95.053 42.823 94.87 42.993 94.898 43.258 C 93.512 39.345 92.493 35.328 91.806 31.254 C 92.087 31.311 92.414 31.15 92.373 30.81 C 91.851 26.443 91.329 22.077 90.806 17.71 C 90.736 17.124 89.875 17.086 89.861 17.71 C 89.835 18.929 89.84 20.139 89.874 21.349 C 89.021 18.145 88.167 14.941 87.315 11.737 C 87.18 11.226 86.357 11.321 86.386 11.86 C 86.504 13.986 86.621 16.122 86.738 18.249 C 86.228 16.189 85.718 14.119 85.206 12.049 C 85.061 11.463 84.149 11.709 84.295 12.304 C 85.207 15.99 86.119 19.686 87.031 23.381 C 87.157 23.892 87.989 23.788 87.959 23.249 C 87.834 20.971 87.708 18.693 87.582 16.415 C 88.45 19.676 89.317 22.937 90.183 26.188 C 90.859 33.343 92.574 40.347 95.335 47.038 C 95.48 47.388 95.925 47.464 96.143 47.237 C 96.894 49.401 97.736 51.537 98.686 53.607 C 101.491 61.225 104.296 68.834 107.102 76.442 C 104.665 72.198 102.417 67.851 100.367 63.408 C 99.015 59.968 97.587 56.565 96.062 53.201 C 95.844 52.719 95.007 53.068 95.198 53.569 C 96.523 57.029 97.964 60.441 99.511 63.796 C 101.918 69.911 104.055 76.13 105.905 82.444 C 102.77 76.943 99.918 71.291 97.387 65.488 C 97.175 64.996 96.352 65.346 96.524 65.847 L 103.623 86.669 C 102.242 84.863 101.03 82.964 99.977 80.979 C 98.878 77.727 97.664 74.514 96.329 71.338 C 96.328 71.338 96.327 71.329 96.326 71.329 L 96.325 71.329 C 96.309 71.291 96.295 71.253 96.279 71.215 C 96.064 70.705 95.295 71.083 95.415 71.584 C 96.237 75.005 97.478 78.266 99.097 81.329 C 100.13 84.4 101.043 87.51 101.863 90.638 C 99.418 87.349 97.483 83.758 96.057 79.92 C 95.743 78.994 95.428 78.068 95.114 77.141 C 94.921 76.565 94.027 76.801 94.203 77.387 C 94.488 78.342 94.815 79.287 95.159 80.213 C 96.512 84.202 97.865 88.19 99.217 92.179 C 96.396 88.89 94.237 85.156 92.768 81.092 C 92.484 80.213 92.2 79.334 91.916 78.455 C 91.73 77.879 90.84 78.115 91.004 78.701 C 91.258 79.618 91.556 80.516 91.874 81.395 C 93.291 85.78 94.708 90.156 96.125 94.542 C 93.421 90.071 91.173 85.364 89.414 80.431 C 89.212 79.864 88.304 80.1 88.502 80.676 C 90.202 85.667 91.904 90.648 93.603 95.629 C 91.418 91.706 89.594 87.604 88.138 83.323 C 87.943 82.756 87.081 82.983 87.227 83.578 C 88.479 88.71 90.025 93.757 91.853 98.71 C 89.823 95.137 88.004 91.461 86.363 87.689 C 85.978 86.773 85.584 85.856 85.179 84.948 C 84.962 84.466 84.113 84.816 84.315 85.317 C 84.33 85.355 84.348 85.393 84.363 85.431 L 84.363 85.431 C 84.461 85.648 84.555 85.875 84.652 86.092 C 84.928 86.763 85.221 87.425 85.51 88.077 C 87.621 93.124 89.393 98.285 90.825 103.559 C 87.295 98.171 84.406 92.415 82.194 86.347 C 81.988 85.78 81.136 85.998 81.283 86.593 C 82.613 92.047 84.357 97.377 86.496 102.557 C 83.378 97.774 80.547 92.822 78.018 87.699 C 77.785 87.226 76.962 87.557 77.155 88.058 C 79.594 94.409 82.033 100.77 84.473 107.122 C 80.85 101.687 77.772 95.931 75.295 89.873 C 75.071 89.325 74.225 89.514 74.383 90.118 C 76.044 96.498 78.275 102.68 81.048 108.634 C 78.858 105.279 76.974 101.744 75.39 98.058 C 74.827 96.631 74.262 95.203 73.699 93.776 C 73.48 93.228 72.582 93.445 72.787 94.031 C 73.309 95.506 73.888 96.942 74.501 98.37 L 79.112 110.042 C 76.59 106.432 74.428 102.585 72.631 98.54 C 72.568 98.398 72.45 98.332 72.32 98.322 C 72.193 94.608 72.178 90.884 72.285 87.16 C 81.819 86.612 90.789 80.572 94.445 71.65 C 98.213 62.454 95.855 51.481 88.991 44.392 C 88.567 43.957 87.899 44.628 88.322 45.063 C 94.922 51.878 97.198 62.435 93.572 71.282 C 89.944 80.128 80.909 86.054 71.422 86.272 C 70.847 86.281 70.821 87.122 71.339 87.198 C 71.063 96.895 71.586 106.583 72.89 116.195 C 72.897 116.243 72.915 116.271 72.929 116.309 C 72.898 116.507 72.865 116.706 72.833 116.904 C 72.775 117.282 73.038 117.556 73.415 117.49 C 77.068 116.857 80.512 115.647 83.745 114.021 C 83.759 114.04 83.772 114.059 83.786 114.078 C 84.101 114.485 84.666 114.04 84.559 113.606 C 90.597 110.401 95.862 105.704 100.248 100.411 C 107.543 91.612 113.089 81.054 115.762 69.921 C 118.381 59.013 117.969 47.539 113.822 37.058 Z " fill="rgb(254,234,203)"/></g></svg>