<?xml version="1.0" encoding="UTF-8" standalone="no"?><!-- Generator: Gravit.io --><svg xmlns="http://www.w3.org/2000/svg" xmlns:xlink="http://www.w3.org/1999/xlink" style="isolation:isolate" viewBox="0 0 1695.038 1782.353" width="1695.038pt" height="1782.353pt"><defs><clipPath id="_clipPath_JqIcB3ElOUIGYNIkkHqS68umuYSsRyvn"><rect width="1695.038" height="1782.353"/></clipPath></defs><g clip-path="url(#_clipPath_JqIcB3ElOUIGYNIkkHqS68umuYSsRyvn)"><path d=" M 1651.15 756.118 C 1651.15 1158.457 1324.99 1484.618 922.65 1484.618 C 520.31 1484.618 194.15 1158.457 194.15 756.118 C 194.15 353.779 520.31 27.618 922.65 27.618 C 1324.99 27.618 1651.15 353.779 1651.15 756.118 Z " fill-rule="evenodd" fill="rgb(243,243,238)" fill-opacity="0.75"/><path d=" M 680.15 221.024 L 680.15 231.618 L 261.15 231.618 L 261.15 229.413 C 261.15 213.36 267.643 198.811 278.15 188.294 C 288.655 177.766 303.162 171.259 319.19 171.259 C 336.297 171.259 351.666 178.685 362.289 190.478 L 362.289 174.901 C 362.289 150.246 372.267 127.925 388.381 111.765 C 404.506 95.605 426.778 85.618 451.381 85.618 C 491.99 85.618 526.235 112.858 536.968 150.083 C 551.971 138.582 570.706 131.73 591.048 131.73 C 640.253 131.73 680.15 171.714 680.15 221.024 Z " fill-rule="evenodd" fill="rgb(205,205,188)"/><g><g><clipPath id="_clipPath_DRGSm4Yb2vYQavqm4zWpbvFUIENcz03J"><path d=" M 15.46 405.479 L 314.064 405.479 L 314.064 935.19 L 15.46 935.19 L 15.46 405.479 Z " fill="rgb(255,255,255)"/></clipPath><g clip-path="url(#_clipPath_DRGSm4Yb2vYQavqm4zWpbvFUIENcz03J)"><path d=" M 164.763 935.19 L 164.763 935.19 C 82.305 935.19 15.46 868.218 15.46 785.607 L 15.46 555.062 C 15.46 472.449 82.305 405.478 164.763 405.478 L 164.763 405.478 C 247.219 405.478 314.064 472.449 314.064 555.062 L 314.064 785.607 C 314.064 868.218 247.219 935.19 164.763 935.19 Z " fill-rule="evenodd" fill="rgb(238,216,184)"/></g></g><path d=" M 586.15 866.117 C 586.15 963.595 507.129 1042.618 409.65 1042.618 C 312.171 1042.618 233.15 963.595 233.15 866.117 C 233.15 768.64 312.171 689.618 409.65 689.618 C 507.129 689.618 586.15 768.64 586.15 866.117 Z " fill-rule="evenodd" fill="rgb(230,198,151)"/><path d=" M 165.15 1538.618 C 164.045 1538.618 163.15 1537.718 163.15 1536.607 L 163.15 575.629 C 163.15 574.517 164.045 573.618 165.15 573.618 C 166.255 573.618 167.15 574.517 167.15 575.629 L 167.15 1536.607 C 167.15 1537.718 166.255 1538.618 165.15 1538.618 Z " fill-rule="evenodd" fill="rgb(33,33,26)"/><path d=" M 409.15 1538.618 C 408.045 1538.618 407.15 1537.718 407.15 1536.607 L 407.15 874.628 C 407.15 873.517 408.045 872.618 409.15 872.618 C 410.255 872.618 411.15 873.517 411.15 874.628 L 411.15 1536.607 C 411.15 1537.718 410.255 1538.618 409.15 1538.618 Z " fill-rule="evenodd" fill="rgb(33,33,26)"/><path d=" M 165.16 683.618 C 164.748 683.618 164.332 683.491 163.975 683.23 C 163.077 682.573 162.882 681.315 163.538 680.418 L 258.515 550.442 C 259.171 549.546 260.428 549.349 261.325 550.005 C 262.223 550.661 262.418 551.921 261.762 552.817 L 166.785 682.793 C 166.391 683.331 165.78 683.618 165.16 683.618 Z " fill-rule="evenodd" fill="rgb(33,33,26)"/><path d=" M 165.13 759.618 C 164.637 759.618 164.142 759.439 163.753 759.079 L 69.791 672.083 C 68.976 671.329 68.933 670.062 69.693 669.253 C 70.453 668.446 71.732 668.401 72.547 669.156 L 166.509 756.151 C 167.324 756.906 167.368 758.173 166.607 758.982 C 166.21 759.405 165.671 759.618 165.13 759.618 Z " fill-rule="evenodd" fill="rgb(33,33,26)"/><path d=" M 409.163 936.618 C 408.587 936.618 408.015 936.373 407.617 935.896 C 406.905 935.044 407.02 933.778 407.872 933.067 L 509.851 848.085 C 510.704 847.372 511.972 847.489 512.683 848.34 C 513.395 849.191 513.28 850.458 512.428 851.168 L 410.45 936.151 C 410.074 936.465 409.617 936.618 409.163 936.618 Z " fill-rule="evenodd" fill="rgb(33,33,26)"/><path d=" M 409.138 988.618 C 408.768 988.618 408.393 988.515 408.058 988.3 L 327.078 936.334 C 326.143 935.734 325.869 934.486 326.467 933.547 C 327.066 932.61 328.309 932.336 329.243 932.935 L 410.223 984.901 C 411.158 985.501 411.431 986.749 410.833 987.686 C 410.45 988.289 409.801 988.618 409.138 988.618 Z " fill-rule="evenodd" fill="rgb(33,33,26)"/></g><g><path d=" M 196.44 1645.355 L 618.382 1645.355 L 618.382 1223.413 L 196.44 1223.413 L 196.44 1645.355 Z " fill-rule="evenodd" fill="rgb(205,205,188)"/><g><g><clipPath id="_clipPath_P4a0jqH2oqqAAKD3QyMRW882bWz0fPyZ"><path d=" M 196.44 1223.412 L 618.383 1223.412 L 618.383 1454.136 L 196.44 1454.136 L 196.44 1223.412 Z " fill="rgb(255,255,255)"/></clipPath><g clip-path="url(#_clipPath_P4a0jqH2oqqAAKD3QyMRW882bWz0fPyZ)"><path d=" M 451.839 1204.98 C 477.481 1200.441 498.562 1213.122 511.574 1238.146 C 523.061 1260.236 527.717 1290.976 524.707 1322.834 C 523.285 1337.887 520.216 1352.676 515.605 1366.637 L 515.479 1367.014 L 516.657 1366.695 L 518.483 1366.185 C 548.412 1357.684 583.522 1340.989 623.585 1315.452 L 625.475 1314.243 L 634.658 1328.549 C 586.037 1359.757 543.854 1378.722 508.292 1386.206 L 507.819 1386.304 L 507.76 1386.433 C 503.51 1395.515 498.536 1404.06 492.872 1411.878 L 492.304 1412.657 C 471.656 1440.75 443.024 1458.155 408.006 1461.661 C 365.814 1465.884 335.598 1456.33 315.204 1434.299 C 299.295 1417.113 290.497 1394.621 283.878 1361.532 L 283.375 1358.975 C 282.769 1355.851 282.169 1352.589 281.523 1348.939 L 280.537 1343.269 L 278.661 1332.288 C 273.827 1304.334 270.305 1291.525 263.93 1282.341 C 254.8 1269.189 225.628 1272.655 183.199 1291.226 C 171.567 1296.317 159.298 1302.373 146.621 1309.193 C 133.05 1316.494 119.69 1324.297 107.061 1332.127 L 104.84 1333.509 C 101.065 1335.866 97.582 1338.085 94.431 1340.129 L 91.368 1342.128 L 87.789 1344.509 L 78.238 1330.445 L 79.492 1329.603 L 81.565 1328.229 L 82.993 1327.291 C 86.778 1324.814 91.084 1322.057 95.835 1319.089 C 109.406 1310.615 123.848 1302.141 138.567 1294.222 C 151.625 1287.197 164.299 1280.941 176.383 1275.652 C 198.242 1266.085 217.458 1259.977 233.484 1258.073 C 253.634 1255.679 269.08 1259.948 277.895 1272.647 C 282.548 1279.35 286.056 1287.755 288.983 1298.412 L 289.213 1299.259 C 291.315 1307.077 292.914 1314.98 295.188 1328.091 L 297.724 1342.894 L 298.419 1346.853 C 299.093 1350.646 299.718 1354.003 300.356 1357.233 L 300.723 1359.069 C 306.755 1388.85 314.531 1408.547 327.68 1422.751 C 344.19 1440.586 369.119 1448.468 406.313 1444.745 C 436.358 1441.737 460.714 1426.932 478.605 1402.589 C 481.402 1398.783 484.02 1394.766 486.45 1390.567 L 487.13 1389.378 L 486.156 1389.459 C 482.18 1389.77 478.303 1389.913 474.525 1389.89 L 473.269 1389.877 C 435.936 1389.286 409.379 1372.076 396.411 1343.22 C 372.643 1290.332 401.185 1213.946 451.839 1204.98 Z  M 496.491 1245.989 C 486.675 1227.111 472.504 1218.587 454.802 1221.72 C 416.241 1228.545 392.303 1292.607 411.918 1336.252 C 422.162 1359.048 442.753 1372.392 473.538 1372.879 C 480.353 1372.987 487.591 1372.469 495.249 1371.311 L 495.837 1371.219 L 496.122 1370.509 C 502.074 1355.5 506.002 1339.084 507.684 1322.246 L 507.782 1321.235 C 510.504 1292.429 506.338 1264.924 496.491 1245.989 Z " fill="rgb(214,155,117)"/></g></g><g><clipPath id="_clipPath_6BrEBtx9c9yrgwGIkWuuKo9HDxIW6nl8"><path d=" M 236.883 1500.366 L 618.383 1500.366 L 618.383 1645.354 L 236.883 1645.354 L 236.883 1500.366 Z " fill="rgb(255,255,255)"/></clipPath><g clip-path="url(#_clipPath_6BrEBtx9c9yrgwGIkWuuKo9HDxIW6nl8)"><path d=" M 637.564 1493.377 L 638.366 1507.354 L 635.161 1507.544 C 598.996 1509.752 568.345 1513.905 543.167 1519.73 L 541.652 1520.084 L 541.794 1520.214 C 544.772 1522.983 547.368 1525.994 549.563 1529.23 L 549.873 1529.693 C 567.835 1556.827 553.733 1592.199 519.031 1607.049 C 502.048 1614.316 483.034 1613.04 468.292 1604.518 C 453.167 1595.775 444.963 1580.72 448.274 1564.829 C 451.877 1547.535 468.3 1531.853 496.708 1519.734 C 498.952 1518.777 501.267 1517.843 503.656 1516.931 L 504.483 1516.617 L 503.825 1516.457 C 502.689 1516.185 501.529 1515.93 500.348 1515.692 L 499.636 1515.551 C 477.785 1511.312 449.522 1513.097 415.643 1521.739 C 359.662 1536.021 317.036 1572.43 285.873 1624.423 C 271.415 1648.546 260.406 1674.444 252.403 1700.346 C 249.725 1709.015 247.576 1717.084 245.905 1724.36 L 245.68 1725.347 C 245.137 1727.751 244.684 1729.901 244.317 1731.776 L 243.983 1733.534 L 243.791 1734.618 L 229.975 1732.355 L 230.18 1731.186 C 230.259 1730.752 230.356 1730.232 230.472 1729.631 L 230.686 1728.536 C 231.058 1726.666 231.503 1724.569 232.024 1722.262 L 232.5 1720.188 C 234.21 1712.862 236.37 1704.815 239.027 1696.213 C 247.34 1669.305 258.781 1642.392 273.865 1617.225 C 306.786 1562.298 352.253 1523.462 412.183 1508.174 C 447.936 1499.053 478.24 1497.14 502.302 1501.807 C 510.975 1503.489 518.771 1506.027 525.593 1509.326 L 526.161 1509.604 L 527.115 1509.341 L 529.103 1508.804 C 557.437 1501.251 592.938 1496.028 635.71 1493.485 L 637.564 1493.377 Z  M 524.757 1524.795 L 524.511 1524.646 L 524.416 1524.674 C 516.286 1527.112 508.882 1529.762 502.202 1532.612 C 477.598 1543.107 464.493 1555.621 461.979 1567.685 C 457.659 1588.422 487.144 1605.466 513.523 1594.178 C 540.689 1582.553 550.983 1556.733 538.199 1537.421 C 535.01 1532.603 530.507 1528.342 524.757 1524.795 Z " fill="rgb(214,155,117)"/></g></g></g><path d=" M 10.15 1644.473 L 382.73 1644.473 L 196.44 1355.407 L 10.15 1644.473 Z " fill-rule="evenodd" fill="rgb(197,155,95)"/><path d=" M 144.612 1500.384 L 129.244 1459.675 L 31.299 1611.656 L 32.823 1644.473 L 207.989 1644.473 L 280.745 1486.222 L 205.535 1369.519 L 144.612 1500.384 Z " fill-rule="evenodd" fill="rgb(241,224,198)"/><path d=" M 234.057 1644.473 L 365.266 1644.473 L 362.915 1613.725 L 285.842 1494.131 L 234.057 1644.473 Z " fill-rule="evenodd" fill="rgb(241,224,198)"/></g><g><g><g><g><g><path d=" M 962.4 1560.65 L 769.4 1560.65 L 769.4 1415 L 942.057 1415 L 951.788 1456.52 L 962.4 1560.65 Z " fill-rule="evenodd" fill="rgb(229,196,148)"/><path d=" M 1528.4 1750.871 L 728.203 1733.581 L 728.203 1554.79 L 1528.4 1531.802 L 1528.4 1750.871 Z " fill-rule="evenodd" fill="rgb(229,196,148)"/><g opacity="0.2"><path d=" M 1528.4 1750.871 L 728.203 1733.581 L 728.203 1554.79 L 1528.4 1531.802 L 1528.4 1750.871 Z " fill-rule="evenodd" fill="rgb(53,53,41)"/></g><g><path d=" M 1233.53 1652.256 L 895.248 1652.256 C 894.46 1652.256 893.82 1651.617 893.82 1650.828 C 893.82 1650.039 894.46 1649.4 895.248 1649.4 L 1233.53 1649.4 C 1234.319 1649.4 1234.958 1650.039 1234.958 1650.828 C 1234.958 1651.617 1234.319 1652.256 1233.53 1652.256 Z " fill-rule="evenodd" fill="rgb(33,33,26)"/><path d=" M 1563.023 1641.745 C 1563.023 1699.671 1548.733 1747.205 1530.652 1750.875 C 1529.9 1751.036 1529.147 1751.117 1528.394 1751.117 C 1527.641 1751.117 1526.888 1751.036 1526.135 1750.875 C 1508.928 1747.38 1495.15 1704.08 1493.886 1649.918 C 1493.805 1647.216 1493.779 1644.501 1493.779 1641.745 C 1493.779 1581.427 1509.144 1532.037 1528.259 1532.037 C 1546.219 1532.037 1561.114 1575.619 1562.862 1630.91 C 1562.969 1634.473 1563.023 1638.089 1563.023 1641.745 Z " fill-rule="evenodd" fill="rgb(33,33,26)"/><path d=" M 1681.683 1511.241 L 1681.683 1750.875 L 1526.135 1750.875 C 1508.928 1747.379 1495.15 1704.08 1493.886 1649.918 C 1510.448 1647.257 1533.166 1645.912 1562.862 1630.91 C 1564.569 1630.05 1566.303 1629.136 1568.05 1628.181 C 1584.128 1619.416 1598.028 1606.014 1608.393 1589.425 C 1611.175 1584.962 1613.917 1580.755 1616.619 1576.775 C 1637.496 1545.884 1655.188 1529.107 1666.829 1520.302 C 1676.24 1513.177 1681.683 1511.241 1681.683 1511.241 Z " fill-rule="evenodd" fill="rgb(82,82,65)"/><path d=" M 1681.683 1511.241 L 1681.683 1750.875 L 1666.829 1750.875 L 1666.829 1520.302 C 1676.24 1513.177 1681.683 1511.241 1681.683 1511.241 Z " fill-rule="evenodd" fill="rgb(205,205,188)"/><path d=" M 1576.475 1649.968 C 1575.917 1649.968 1575.396 1649.618 1575.204 1649.062 L 1567.587 1626.976 C 1567.345 1626.274 1567.717 1625.509 1568.419 1625.267 C 1569.122 1625.026 1569.887 1625.397 1570.128 1626.099 L 1577.746 1648.185 C 1577.988 1648.887 1577.616 1649.652 1576.913 1649.894 C 1576.768 1649.944 1576.621 1649.968 1576.475 1649.968 Z " fill-rule="evenodd" fill="rgb(33,33,26)"/><path d=" M 1593.451 1642.296 C 1592.902 1642.296 1592.387 1641.957 1592.188 1641.411 L 1583.094 1616.44 C 1582.839 1615.742 1583.199 1614.971 1583.896 1614.717 C 1584.588 1614.464 1585.365 1614.821 1585.619 1615.52 L 1594.714 1640.491 C 1594.969 1641.189 1594.608 1641.96 1593.911 1642.214 C 1593.76 1642.27 1593.604 1642.296 1593.451 1642.296 Z " fill-rule="evenodd" fill="rgb(33,33,26)"/><path d=" M 1609.172 1628.286 C 1608.639 1628.286 1608.133 1627.966 1607.923 1627.44 L 1597.999 1602.57 C 1597.725 1601.881 1598.061 1601.099 1598.75 1600.824 C 1599.436 1600.549 1600.222 1600.884 1600.497 1601.574 L 1610.421 1626.443 C 1610.695 1627.133 1610.359 1627.915 1609.67 1628.19 C 1609.507 1628.255 1609.338 1628.286 1609.172 1628.286 Z " fill-rule="evenodd" fill="rgb(33,33,26)"/><path d=" M 1615.38 1751.22 C 1615.35 1751.22 1615.318 1751.219 1615.286 1751.217 C 1614.546 1751.166 1613.986 1750.524 1614.038 1749.783 C 1616.942 1707.689 1666.104 1695.301 1666.6 1695.181 C 1667.324 1695.005 1668.047 1695.449 1668.223 1696.17 C 1668.398 1696.892 1667.954 1697.618 1667.234 1697.794 C 1666.756 1697.91 1619.487 1709.852 1616.72 1749.968 C 1616.671 1750.678 1616.08 1751.22 1615.38 1751.22 Z " fill-rule="evenodd" fill="rgb(219,173,106)"/><path d=" M 1665.784 1662.473 C 1658.393 1662.473 1651.252 1659.441 1646.12 1654.107 C 1640.873 1648.653 1638.111 1641.192 1638.544 1633.636 L 1640.657 1596.683 C 1641.01 1590.523 1637.875 1584.837 1632.477 1581.844 C 1627.09 1578.856 1620.619 1579.209 1615.593 1582.763 C 1615.397 1582.9 1615.203 1583.041 1615.007 1583.184 C 1614.407 1583.623 1613.566 1583.493 1613.128 1582.893 C 1612.689 1582.294 1612.82 1581.453 1613.419 1581.015 C 1613.627 1580.862 1613.835 1580.713 1614.041 1580.567 C 1619.918 1576.412 1627.481 1576 1633.781 1579.492 C 1640.09 1582.99 1643.753 1589.636 1643.341 1596.836 L 1641.227 1633.789 C 1640.832 1640.701 1643.258 1647.254 1648.057 1652.243 C 1652.856 1657.232 1659.361 1659.913 1666.234 1659.78 C 1666.943 1659.76 1667.59 1660.357 1667.604 1661.099 C 1667.617 1661.842 1667.027 1662.455 1666.285 1662.468 C 1666.118 1662.472 1665.951 1662.473 1665.784 1662.473 Z " fill-rule="evenodd" fill="rgb(219,173,106)"/><path d=" M 1546.925 1523.089 C 1546.437 1523.089 1545.94 1523.123 1545.432 1523.192 C 1542.394 1523.602 1540.269 1525.073 1538.935 1527.687 C 1534.61 1536.164 1538.672 1556.066 1550.684 1585.241 C 1557.21 1601.091 1564.486 1615.733 1568.178 1622.932 C 1568.484 1615.174 1568.874 1599.817 1568.08 1583.509 C 1566.6 1553.1 1561.745 1533.244 1554.041 1526.086 C 1551.879 1524.077 1549.539 1523.089 1546.925 1523.089 Z  M 1569.356 1629.707 C 1568.838 1629.707 1568.35 1629.425 1568.098 1628.955 C 1567.99 1628.756 1557.269 1608.738 1548.043 1586.329 C 1535.528 1555.931 1531.608 1535.764 1536.39 1526.389 C 1538.156 1522.927 1541.07 1520.899 1545.049 1520.361 C 1549.12 1519.812 1552.8 1521.033 1555.986 1523.993 C 1575.781 1542.387 1570.994 1624.864 1570.781 1628.366 C 1570.742 1629.003 1570.285 1629.537 1569.662 1629.674 C 1569.56 1629.697 1569.457 1629.707 1569.356 1629.707 Z " fill-rule="evenodd" fill="rgb(219,173,106)"/><path d=" M 1590.439 1541.501 C 1588.41 1541.501 1586.553 1542.156 1584.826 1543.472 C 1577.794 1548.828 1573.095 1564.989 1571.234 1590.208 C 1570.23 1603.824 1570.322 1616.731 1570.466 1623.215 C 1579.071 1610.444 1606.954 1567.009 1600.96 1548.902 C 1599.829 1545.485 1597.549 1543.262 1593.992 1542.107 C 1592.75 1541.703 1591.567 1541.501 1590.439 1541.501 Z  M 1569.171 1629.054 C 1569.037 1629.054 1568.902 1629.035 1568.768 1628.996 C 1568.183 1628.824 1567.772 1628.299 1567.745 1627.69 C 1567.611 1624.737 1564.691 1555.22 1583.094 1541.2 C 1586.536 1538.578 1590.497 1537.97 1594.875 1539.39 C 1599.294 1540.825 1602.254 1543.724 1603.671 1548.005 C 1611.153 1570.609 1572.006 1626.101 1570.335 1628.453 C 1570.063 1628.836 1569.626 1629.054 1569.171 1629.054 Z " fill-rule="evenodd" fill="rgb(219,173,106)"/><path d=" M 1466.12 1566.51 L 1368.25 1762.5 L 1086.87 1592.98 C 1077.849 1587.55 1066.66 1587.17 1057.29 1591.97 L 815.47 1715.98 C 769.37 1740.41 715.21 1739.06 670.34 1712.3 C 625.14 1685.33 598.15 1637.81 598.15 1585.17 L 598.15 1578.15 L 598.15 1406.118 L 804.97 1415 L 786.82 1529.74 L 925.15 1458.8 L 986.07 1427.56 C 1040.8 1399.5 1105.42 1398.29 1161.16 1424.29 L 1466.12 1566.51 Z " fill-rule="evenodd" fill="rgb(229,196,148)"/><path d=" M 1475.025 1592.773 C 1474.742 1600.744 1473.291 1610.114 1470.763 1620.425 C 1466.38 1638.304 1458.705 1659.02 1448.139 1680.165 C 1444.496 1687.478 1440.678 1694.455 1436.78 1701.069 C 1431.295 1710.331 1425.635 1718.854 1419.989 1726.422 C 1399.852 1753.335 1379.795 1768.27 1368.248 1762.503 C 1355.423 1756.091 1356.767 1725.898 1369.632 1688.433 C 1372.415 1680.3 1375.762 1671.817 1379.621 1663.174 C 1381.664 1658.549 1383.869 1653.898 1386.208 1649.206 C 1396.155 1629.311 1407.299 1611.674 1418.269 1597.774 C 1424.56 1589.802 1430.797 1583.054 1436.712 1577.825 C 1448.462 1567.406 1458.933 1562.916 1466.112 1566.505 C 1472.645 1569.772 1475.495 1579.276 1475.025 1592.773 Z " fill-rule="evenodd" fill="rgb(33,33,26)"/><path d=" M 1662.796 1563.897 L 1529.28 1762.893 L 1516.94 1754.638 L 1441.108 1703.932 L 1436.78 1701.069 L 1379.621 1663.173 C 1381.664 1658.549 1383.869 1653.897 1386.208 1649.206 C 1396.155 1629.31 1407.3 1611.673 1418.27 1597.773 C 1424.561 1589.802 1430.798 1583.053 1436.713 1577.824 C 1446.768 1582.677 1458.88 1588.524 1475.025 1592.772 C 1478.413 1593.673 1481.988 1594.493 1485.766 1595.219 C 1489.463 1595.931 1493.361 1596.564 1497.461 1597.074 C 1499.356 1597.316 1501.306 1597.504 1503.282 1597.692 C 1521.524 1599.373 1540.532 1595.985 1558.385 1587.987 C 1563.184 1585.836 1567.795 1583.873 1572.258 1582.072 C 1606.806 1568.037 1630.842 1563.964 1645.428 1563.144 C 1657.191 1562.472 1662.796 1563.897 1662.796 1563.897 Z " fill-rule="evenodd" fill="rgb(82,82,65)"/><path d=" M 1468.174 1498.185 C 1467.195 1498.185 1466.2 1498.337 1465.187 1498.64 C 1462.249 1499.517 1460.378 1501.3 1459.466 1504.09 C 1456.511 1513.136 1463.615 1532.165 1480.013 1559.12 C 1488.922 1573.765 1498.383 1587.098 1503.15 1593.636 C 1502.247 1585.925 1500.247 1570.693 1496.93 1554.707 C 1490.743 1524.897 1482.863 1506.036 1474.141 1500.161 C 1472.18 1498.841 1470.208 1498.185 1468.174 1498.185 Z  M 1505.144 1600.164 C 1504.707 1600.164 1504.282 1599.963 1504.006 1599.599 C 1503.869 1599.418 1490.168 1581.309 1477.573 1560.604 C 1460.488 1532.52 1453.483 1513.207 1456.751 1503.203 C 1457.958 1499.508 1460.522 1497.052 1464.368 1495.903 C 1468.305 1494.728 1472.13 1495.363 1475.736 1497.792 C 1498.15 1512.887 1506.233 1595.107 1506.566 1598.6 C 1506.626 1599.236 1506.258 1599.834 1505.663 1600.066 C 1505.493 1600.132 1505.318 1600.164 1505.144 1600.164 Z " fill-rule="evenodd" fill="rgb(219,173,106)"/><path d=" M 1514.078 1509.615 C 1511.384 1509.615 1509.138 1510.586 1507.251 1512.555 C 1501.138 1518.938 1499.006 1535.632 1501.085 1560.834 C 1502.208 1574.441 1504.304 1587.178 1505.453 1593.56 C 1511.97 1579.608 1532.767 1532.369 1524.033 1515.412 C 1522.386 1512.212 1519.788 1510.371 1516.095 1509.782 C 1515.395 1509.671 1514.724 1509.615 1514.078 1509.615 Z  M 1504.86 1599.547 C 1504.798 1599.547 1504.736 1599.543 1504.674 1599.534 C 1504.069 1599.455 1503.582 1599.001 1503.46 1598.404 C 1502.87 1595.508 1489.186 1527.287 1505.188 1510.579 C 1508.181 1507.455 1512.001 1506.237 1516.544 1506.961 C 1521.134 1507.693 1524.509 1510.096 1526.573 1514.105 C 1537.475 1535.273 1507.423 1596.172 1506.138 1598.755 C 1505.894 1599.244 1505.396 1599.547 1504.86 1599.547 Z " fill-rule="evenodd" fill="rgb(219,173,106)"/><path d=" M 1662.796 1563.897 L 1529.28 1762.893 L 1516.94 1754.638 L 1645.428 1563.144 C 1657.191 1562.472 1662.796 1563.897 1662.796 1563.897 Z " fill-rule="evenodd" fill="rgb(205,205,188)"/><path d=" M 1498.896 1620.708 C 1498.782 1620.708 1498.667 1620.693 1498.551 1620.663 C 1497.834 1620.473 1497.406 1619.737 1497.595 1619.019 L 1503.576 1596.435 C 1503.767 1595.717 1504.505 1595.29 1505.219 1595.479 C 1505.937 1595.67 1506.365 1596.406 1506.175 1597.123 L 1500.195 1619.707 C 1500.035 1620.31 1499.491 1620.708 1498.896 1620.708 Z " fill-rule="evenodd" fill="rgb(219,173,106)"/><path d=" M 1517.268 1623.796 C 1517.162 1623.796 1517.053 1623.783 1516.946 1623.756 C 1516.224 1623.579 1515.784 1622.85 1515.961 1622.129 L 1522.323 1596.326 C 1522.5 1595.605 1523.229 1595.165 1523.95 1595.343 C 1524.671 1595.52 1525.112 1596.249 1524.934 1596.97 L 1518.573 1622.773 C 1518.421 1623.386 1517.872 1623.796 1517.268 1623.796 Z " fill-rule="evenodd" fill="rgb(219,173,106)"/><path d=" M 1538.128 1620.92 C 1538.035 1620.92 1537.941 1620.91 1537.845 1620.89 C 1537.119 1620.734 1536.657 1620.019 1536.813 1619.294 L 1542.429 1593.113 C 1542.584 1592.388 1543.288 1591.924 1544.025 1592.081 C 1544.751 1592.236 1545.213 1592.951 1545.058 1593.677 L 1539.441 1619.858 C 1539.306 1620.488 1538.748 1620.92 1538.128 1620.92 Z " fill-rule="evenodd" fill="rgb(219,173,106)"/><path d=" M 1475.074 1727.99 C 1474.796 1727.99 1474.515 1727.904 1474.274 1727.725 C 1473.678 1727.283 1473.553 1726.441 1473.995 1725.845 C 1499.124 1691.948 1547.214 1708.004 1547.695 1708.17 C 1548.397 1708.412 1548.77 1709.176 1548.529 1709.878 C 1548.287 1710.581 1547.521 1710.954 1546.821 1710.713 C 1546.356 1710.553 1500.103 1695.143 1476.155 1727.446 C 1475.891 1727.802 1475.485 1727.99 1475.074 1727.99 Z " fill-rule="evenodd" fill="rgb(219,173,106)"/><path d=" M 1566.778 1681.295 C 1566.538 1681.295 1566.296 1681.231 1566.076 1681.096 C 1559.626 1677.137 1555.077 1670.61 1553.594 1663.188 C 1552.113 1655.766 1553.807 1647.992 1558.243 1641.859 L 1579.935 1611.869 C 1583.551 1606.869 1583.975 1600.39 1581.042 1594.961 C 1578.112 1589.541 1572.447 1586.349 1566.322 1586.637 C 1566.083 1586.648 1565.842 1586.661 1565.598 1586.676 C 1564.865 1586.718 1564.219 1586.157 1564.174 1585.417 C 1564.13 1584.675 1564.693 1584.038 1565.434 1583.993 C 1565.692 1583.977 1565.946 1583.963 1566.198 1583.951 C 1573.384 1583.61 1579.982 1587.347 1583.407 1593.683 C 1586.836 1600.029 1586.34 1607.601 1582.113 1613.444 L 1560.421 1643.435 C 1556.364 1649.045 1554.876 1655.873 1556.231 1662.662 C 1557.587 1669.451 1561.583 1675.183 1567.482 1678.805 C 1568.115 1679.193 1568.313 1680.021 1567.924 1680.654 C 1567.671 1681.067 1567.229 1681.295 1566.778 1681.295 Z " fill-rule="evenodd" fill="rgb(219,173,106)"/><path d=" M 1386.207 1650.635 C 1385.967 1650.635 1385.725 1650.575 1385.501 1650.448 L 1130.306 1505.116 C 1103.057 1489.598 1070.673 1487.236 1041.459 1498.638 L 755.304 1614.092 C 736.47 1621.692 715.846 1618.542 700.138 1605.667 C 684.429 1592.793 677.291 1573.19 681.044 1553.23 L 702.441 1439.408 C 702.587 1438.633 703.331 1438.12 704.108 1438.268 C 704.884 1438.414 705.394 1439.16 705.249 1439.936 L 683.851 1553.758 C 680.294 1572.676 687.06 1591.256 701.948 1603.458 C 716.836 1615.66 736.384 1618.646 754.235 1611.443 L 1040.406 1495.983 C 1070.441 1484.261 1103.718 1486.687 1131.72 1502.635 L 1386.915 1647.966 C 1387.601 1648.356 1387.84 1649.228 1387.449 1649.913 C 1387.186 1650.376 1386.703 1650.635 1386.207 1650.635 Z " fill-rule="evenodd" fill="rgb(33,33,26)"/><path d=" M 801.807 1507.187 C 801.231 1507.187 800.689 1506.837 800.472 1506.267 C 800.191 1505.53 800.561 1504.704 801.298 1504.424 L 932.998 1454.284 C 933.739 1454.002 934.561 1454.374 934.842 1455.111 C 935.122 1455.848 934.752 1456.673 934.015 1456.953 L 802.315 1507.093 C 802.147 1507.157 801.975 1507.187 801.807 1507.187 Z " fill-rule="evenodd" fill="rgb(33,33,26)"/></g></g></g></g><g><g><g><path d=" M 772.586 1280.207 C 798.507 1274.298 824.245 1267.646 849.934 1260.768 L 888.433 1250.296 L 890.838 1249.64 L 891.44 1249.476 C 890.981 1249.594 890.394 1249.729 889.872 1249.831 C 888.826 1250.053 887.634 1250.176 886.688 1250.293 C 882.821 1250.676 878.819 1250.493 875.003 1249.637 C 867.349 1247.924 860.439 1243.921 855.221 1238.051 C 852.594 1235.143 850.401 1231.772 848.8 1228.157 C 848.385 1227.268 848.016 1226.351 847.699 1225.421 C 847.39 1224.533 847.154 1223.892 846.938 1223.095 L 846.786 1222.521 L 846.715 1222.233 C 846.708 1222.2 846.684 1222.103 846.69 1222.123 L 846.713 1222.199 L 846.9 1222.812 L 847.271 1224.038 L 850.247 1233.837 L 862.166 1273.03 L 874.26 1312.166 L 888.984 1375.519 L 901.312 1414.572 C 909.46 1440.381 936.548 1454.557 961.817 1446.235 C 985.897 1438.305 999.634 1412.806 993.822 1388.089 L 993.775 1387.901 L 981.798 1324.071 L 972.216 1284.539 L 962.567 1245.034 L 952.74 1205.585 L 950.281 1195.725 L 949.972 1194.492 L 949.819 1193.876 L 949.23 1191.759 C 948.753 1190.155 948.316 1188.683 947.7 1187.005 C 947.059 1185.29 946.366 1183.59 945.627 1181.916 C 942.586 1175.231 938.518 1169.008 933.64 1163.587 C 923.856 1152.778 910.913 1145.172 896.702 1142.157 C 889.623 1140.645 882.254 1140.217 875.072 1141.005 C 873.294 1141.17 871.289 1141.512 869.419 1141.857 C 868.487 1142.033 867.488 1142.24 866.62 1142.435 L 866.008 1142.578 L 863.56 1143.147 L 824.392 1152.296 C 798.303 1158.497 772.263 1164.925 746.407 1172.095 C 717.341 1180.156 700.177 1210.756 708.069 1240.444 C 715.731 1269.267 744.197 1286.631 772.447 1280.24 L 772.586 1280.207 Z " fill-rule="evenodd" fill="rgb(155,155,122)"/><path d=" M 577.15 1450.618 L 646.777 1223.85 C 651.932 1180.53 688.528 1154.121 731.376 1155.683 L 808.905 1161.622 C 845.768 1162.967 877.811 1181.651 886.623 1218.106 L 907.15 1450.618 L 577.15 1450.618 Z " fill-rule="evenodd" fill="rgb(155,155,122)"/><g><clipPath id="_clipPath_2WEUHZQuy6c56MYPeRvdkgHAkZ4PAZ6m"><path d=" M 472.899 1133.587 L 813.662 1133.587 L 813.662 1457.204 L 472.899 1457.204 L 472.899 1133.587 Z " fill="rgb(255,255,255)"/></clipPath><g clip-path="url(#_clipPath_2WEUHZQuy6c56MYPeRvdkgHAkZ4PAZ6m)"><path d=" M 772.022 1163.229 C 760.066 1160.247 748.072 1157.437 736.091 1154.568 L 700.09 1146.224 L 664.042 1138.09 L 655.022 1136.094 L 652.767 1135.595 L 651.64 1135.346 L 649.414 1134.89 L 646.939 1134.452 C 640.316 1133.414 633.446 1133.276 626.736 1134.219 C 613.285 1136.018 600.576 1141.811 590.315 1150.658 C 585.192 1155.101 580.672 1160.293 576.938 1166.043 C 573.232 1171.818 570.366 1178.104 568.399 1184.58 L 571.515 1176.556 L 547.682 1229.395 C 539.747 1247.012 531.758 1264.603 523.927 1282.272 L 500.34 1335.234 C 492.568 1352.932 484.713 1370.588 477.02 1388.327 C 466.27 1413.113 477.276 1442.082 501.604 1453.036 C 524.735 1463.449 551.667 1453.657 563.492 1431.378 C 572.5 1414.294 581.346 1397.13 590.275 1380.007 L 616.793 1328.506 C 625.664 1311.354 634.377 1294.124 643.144 1276.92 L 669.415 1225.295 L 672.531 1217.27 C 671.524 1220.767 669.96 1224.196 667.922 1227.33 C 665.922 1230.488 663.46 1233.324 660.669 1235.722 C 655.134 1240.557 648.251 1243.672 640.914 1244.689 C 637.251 1245.163 633.491 1245.167 629.903 1244.585 C 629.455 1244.519 629.008 1244.441 628.564 1244.351 L 627.473 1244.107 L 628.596 1244.376 L 630.843 1244.915 L 639.827 1247.071 L 675.799 1255.548 L 711.817 1263.814 C 723.844 1266.48 735.855 1269.208 747.906 1271.763 C 777.44 1278.025 806.364 1258.708 812.51 1228.618 C 818.518 1199.2 800.428 1170.352 772.022 1163.229 Z " fill-rule="evenodd" fill="rgb(155,155,122)"/></g></g><path d=" M 571.413 1177.037 C 562.809 1194.29 554.443 1211.66 546.15 1229.068 L 533.8 1255.223 L 521.591 1281.448 C 513.469 1298.941 505.323 1316.421 497.329 1333.977 C 489.255 1351.492 481.353 1369.095 473.427 1386.684 L 471.787 1390.325 C 460.08 1416.305 471.304 1447.017 496.857 1458.919 C 508.585 1464.383 521.378 1464.908 532.829 1461.393 L 791.928 1381.469 C 812.193 1375.218 823.636 1353.448 817.488 1332.843 C 811.742 1313.584 792.482 1302.2 773.466 1305.893 L 507.697 1358.516 L 567.099 1433.224 C 575.876 1416.058 584.681 1398.905 593.31 1381.664 C 602.019 1364.465 610.578 1347.189 619.16 1329.926 L 632.007 1304.017 L 644.714 1278.038 C 653.124 1260.69 661.463 1243.305 669.562 1225.802 C 682.407 1198.046 670.689 1164.959 643.39 1151.9 C 616.607 1139.087 584.736 1150.395 571.413 1177.037 Z " fill-rule="evenodd" fill="rgb(155,155,122)"/><path d=" M 609.758 1362.618 C 609.546 1362.618 609.332 1362.568 609.13 1362.462 C 609.03 1362.41 598.851 1357.134 580.203 1351.569 C 562.995 1346.434 534.849 1339.996 498.485 1338.486 C 497.718 1338.454 497.12 1337.786 497.151 1336.995 C 497.182 1336.203 497.831 1335.583 498.596 1335.619 C 535.288 1337.142 563.699 1343.65 581.071 1348.841 C 599.94 1354.48 609.971 1359.685 610.389 1359.904 C 611.073 1360.262 611.346 1361.125 610.999 1361.831 C 610.754 1362.331 610.265 1362.618 609.758 1362.618 Z " fill-rule="evenodd" fill="rgb(33,33,26)"/><path d=" M 759.183 1233.618 C 747.715 1233.618 736.78 1229.92 727.56 1222.923 C 714.379 1212.92 706.376 1196.54 706.154 1179.104 C 706.105 1175.313 706.504 1171.329 707.374 1166.927 L 710.36 1149.786 C 710.494 1149.017 711.21 1148.502 711.971 1148.64 C 712.726 1148.777 713.23 1149.511 713.096 1150.281 L 710.103 1167.453 C 709.267 1171.689 708.886 1175.477 708.932 1179.067 C 709.145 1195.628 716.728 1211.175 729.22 1220.655 C 737.957 1227.284 748.318 1230.788 759.183 1230.788 C 769.349 1230.788 779.157 1227.687 787.548 1221.818 C 801.04 1212.382 809.197 1196.367 809.369 1178.98 C 809.406 1175.214 808.97 1171.249 808.035 1166.858 L 805.903 1157.452 C 805.73 1156.69 806.197 1155.932 806.944 1155.756 C 807.69 1155.58 808.438 1156.054 808.61 1156.816 L 810.747 1166.24 C 811.73 1170.86 812.187 1175.029 812.148 1179.009 C 811.966 1197.317 803.358 1214.193 789.121 1224.15 C 780.266 1230.344 769.913 1233.618 759.183 1233.618 Z " fill-rule="evenodd" fill="rgb(33,33,26)"/><path d=" M 605.522 1338.618 C 605.434 1338.618 605.345 1338.608 605.255 1338.59 C 604.513 1338.439 604.029 1337.693 604.176 1336.924 L 623.436 1235.762 C 623.582 1234.994 624.302 1234.493 625.045 1234.645 C 625.787 1234.796 626.271 1235.542 626.124 1236.312 L 606.864 1337.473 C 606.735 1338.15 606.162 1338.618 605.522 1338.618 Z " fill-rule="evenodd" fill="rgb(33,33,26)"/><path d=" M 914.198 1450.618 L 880.159 1240.249 C 880.048 1239.566 881.028 1239.356 881.191 1240.029 L 930.15 1440.359 L 914.198 1450.618 Z " fill-rule="evenodd" fill="rgb(33,33,26)"/><path d=" M 537.358 1463.319 C 548.012 1460.112 558.65 1456.841 569.281 1453.541 L 601.181 1443.669 C 622.435 1437.042 643.706 1430.478 664.919 1423.676 C 686.139 1416.906 707.293 1409.869 728.478 1402.96 L 760.208 1392.394 L 791.893 1381.649 C 812.014 1374.826 822.879 1352.725 816.164 1332.285 C 810.086 1313.79 791.688 1302.999 773.338 1306.166 L 740.4 1311.817 L 707.507 1317.644 C 685.61 1321.666 663.684 1325.559 641.822 1329.717 C 619.952 1333.846 598.141 1338.212 576.315 1342.515 L 543.592 1349.038 C 532.682 1351.203 521.779 1353.397 510.892 1355.655 C 481.31 1361.791 462.226 1391.128 468.266 1421.18 C 474.305 1451.233 503.184 1470.62 532.765 1464.484 C 534.292 1464.167 535.89 1463.755 537.358 1463.319 Z " fill-rule="evenodd" fill="rgb(188,126,87)"/><path d=" M 740.336 1355.137 C 753.159 1351.304 765.939 1347.295 778.701 1343.2 L 797.821 1336.951 L 802.594 1335.36 C 804.142 1334.846 805.938 1334.237 807.027 1333.905 C 809.568 1333.099 811.959 1332.523 813.698 1332.24 C 815.488 1331.957 816.676 1331.902 817.943 1332.08 C 819.195 1332.261 820.696 1332.821 822.466 1333.954 C 824.225 1335.086 826.191 1336.599 828.142 1338.505 L 828.764 1339.076 L 829.267 1339.569 C 829.6 1339.907 829.922 1340.265 830.236 1340.638 L 830.473 1340.917 L 830.592 1341.062 L 830.779 1341.32 L 831.521 1342.357 L 833.009 1344.431 C 840.946 1355.488 849.019 1366.46 857.584 1377.127 C 860.852 1381.195 866.737 1381.795 870.73 1378.465 C 874.023 1375.72 874.993 1371.149 873.401 1367.352 C 868.076 1354.681 862.258 1342.315 856.304 1330.035 L 855.187 1327.732 L 854.629 1326.581 L 854.488 1326.293 L 854.279 1325.893 L 853.845 1325.09 C 853.25 1324.029 852.61 1322.992 851.928 1321.972 C 851.586 1321.464 851.234 1320.959 850.871 1320.46 L 850.316 1319.716 L 849.84 1319.105 C 847.39 1315.869 844.544 1312.598 841.049 1309.502 C 837.558 1306.431 833.197 1303.48 828.087 1301.497 C 823 1299.483 817.429 1298.639 812.537 1298.619 C 807.578 1298.586 803.346 1299.204 799.36 1299.898 C 797.175 1300.286 795.746 1300.601 794.052 1300.938 L 789.108 1301.941 L 769.359 1306.065 C 756.209 1308.886 743.077 1311.79 729.988 1314.873 C 718.993 1317.46 712.139 1328.641 714.679 1339.844 C 717.218 1351.048 728.19 1358.032 739.184 1355.444 C 739.551 1355.358 739.978 1355.242 740.336 1355.137 Z " fill-rule="evenodd" fill="rgb(188,126,87)"/><path d=" M 726.999 1382.057 L 813.776 1347.586 L 800.632 1345.669 L 800.632 1345.669 C 800.512 1345.548 800.799 1345.717 800.924 1345.775 L 801.466 1346.079 C 801.838 1346.293 802.232 1346.536 802.626 1346.787 C 803.415 1347.284 804.211 1347.837 805.001 1348.402 C 806.581 1349.544 808.127 1350.782 809.601 1352.089 C 812.55 1354.707 815.236 1357.595 817.467 1360.708 C 818.597 1362.261 819.617 1363.869 820.492 1365.533 C 821.387 1367.194 822.164 1368.905 822.772 1370.668 C 824.064 1374.189 824.677 1377.92 824.773 1381.814 L 824.788 1382.429 C 824.916 1387.632 829.159 1391.744 834.266 1391.615 C 838.688 1391.503 842.305 1388.242 843.117 1383.995 C 844.225 1378.191 844.499 1372.032 843.658 1366.023 C 843.28 1363.01 842.634 1360.042 841.792 1357.153 C 840.967 1354.252 839.925 1351.44 838.72 1348.731 C 836.329 1343.286 833.297 1338.259 829.86 1333.603 C 828.136 1331.272 826.306 1329.038 824.355 1326.878 C 823.374 1325.799 822.373 1324.736 821.308 1323.687 C 820.777 1323.16 820.237 1322.639 819.661 1322.108 L 818.772 1321.304 C 818.416 1320.999 818.219 1320.807 817.608 1320.339 L 817.606 1320.337 C 814.033 1317.73 809.68 1317.044 805.731 1318.08 L 804.461 1318.42 L 714.382 1342.557 C 703.474 1345.481 696.958 1356.858 699.827 1367.968 C 702.697 1379.079 713.866 1385.717 724.774 1382.794 C 725.532 1382.59 726.286 1382.339 726.999 1382.057 Z " fill-rule="evenodd" fill="rgb(188,126,87)"/><path d=" M 711.013 1391.264 L 797.834 1356.674 L 786.163 1355.661 L 786.162 1355.66 C 785.99 1355.558 786.007 1355.558 786.013 1355.553 C 786.008 1355.541 786.008 1355.531 786.039 1355.541 C 786.088 1355.555 786.115 1355.549 786.187 1355.578 C 786.309 1355.617 786.444 1355.665 786.598 1355.732 C 786.894 1355.852 787.221 1356.002 787.551 1356.168 C 788.213 1356.502 788.903 1356.875 789.578 1357.299 C 790.94 1358.129 792.265 1359.1 793.512 1360.16 C 796.019 1362.279 798.204 1364.778 799.95 1367.614 C 801.719 1370.443 803.028 1373.641 803.863 1377.145 C 804.674 1380.652 805.019 1384.458 804.866 1388.424 L 804.852 1388.772 C 804.651 1393.999 808.636 1398.404 813.753 1398.61 C 818.183 1398.788 822.008 1395.758 823.087 1391.552 C 824.431 1386.328 825.201 1380.752 825.147 1374.981 C 825.073 1369.223 824.127 1363.268 822.18 1357.586 C 820.262 1351.889 817.401 1346.488 813.829 1341.663 C 812.044 1339.244 810.093 1336.957 807.946 1334.811 C 806.881 1333.73 805.752 1332.696 804.56 1331.673 C 803.962 1331.162 803.346 1330.659 802.682 1330.15 C 802.358 1329.898 802.009 1329.64 801.644 1329.378 L 801.056 1328.969 L 800.711 1328.741 C 800.592 1328.665 800.485 1328.594 800.187 1328.423 L 800.184 1328.421 C 796.847 1326.553 793.1 1326.184 789.686 1327.093 L 788.513 1327.408 L 698.39 1351.629 C 687.476 1354.562 680.956 1365.978 683.827 1377.127 C 686.699 1388.277 697.874 1394.937 708.787 1392.004 C 709.546 1391.8 710.299 1391.547 711.013 1391.264 Z " fill-rule="evenodd" fill="rgb(188,126,87)"/><path d=" M 696.726 1400.909 L 784.719 1362.334 L 769.333 1359.256 L 769.332 1359.256 C 769.501 1359.33 769.951 1359.678 770.282 1359.922 L 771.375 1360.766 C 772.109 1361.343 772.842 1361.941 773.567 1362.55 C 775.014 1363.768 776.421 1365.031 777.759 1366.311 C 780.427 1368.859 782.86 1371.557 784.579 1373.983 C 785.441 1375.183 786.094 1376.31 786.484 1377.049 C 786.893 1377.822 787.009 1377.995 787.336 1377.746 C 787.493 1377.647 787.704 1377.532 787.83 1377.574 C 787.957 1377.608 787.973 1377.791 787.812 1378.06 C 787.507 1378.613 786.449 1379.391 785.125 1380.05 L 784.32 1380.45 C 779.733 1382.733 777.838 1388.357 780.089 1393.01 C 782.003 1396.969 786.306 1398.949 790.371 1398.046 C 793.167 1397.426 796.178 1396.551 799.396 1394.547 C 800.99 1393.543 802.621 1392.24 804.086 1390.552 C 805.551 1388.876 806.809 1386.81 807.647 1384.63 C 808.495 1382.45 808.932 1380.206 809.082 1378.131 C 809.233 1376.048 809.119 1374.118 808.882 1372.343 C 808.392 1368.786 807.449 1365.8 806.403 1363.074 C 804.276 1357.641 801.668 1353.148 798.91 1348.888 C 797.525 1346.766 796.09 1344.725 794.597 1342.733 C 793.85 1341.736 793.089 1340.752 792.304 1339.771 L 791.101 1338.296 C 790.66 1337.774 790.33 1337.364 789.706 1336.694 L 789.703 1336.691 C 785.787 1332.894 780.32 1331.764 775.482 1333.249 L 774.316 1333.613 L 682.637 1362.012 C 671.833 1365.359 665.748 1376.959 669.047 1387.92 C 672.347 1398.882 683.781 1405.055 694.586 1401.707 C 695.316 1401.481 696.041 1401.208 696.726 1400.909 Z " fill-rule="evenodd" fill="rgb(188,126,87)"/><path d=" M 846.754 1364.618 C 846.235 1364.618 845.735 1364.323 845.495 1363.817 C 845.391 1363.598 834.905 1341.841 822.006 1336.342 C 821.295 1336.038 820.96 1335.208 821.26 1334.486 C 821.558 1333.764 822.377 1333.426 823.089 1333.729 C 836.963 1339.644 847.566 1361.65 848.01 1362.584 C 848.346 1363.289 848.056 1364.136 847.36 1364.476 C 847.165 1364.572 846.958 1364.618 846.754 1364.618 Z " fill-rule="evenodd" fill="rgb(33,33,26)"/><path d=" M 824.478 1383.618 C 824.415 1383.618 824.353 1383.614 824.29 1383.604 C 823.534 1383.499 823.005 1382.787 823.108 1382.015 C 823.141 1381.765 826.256 1356.89 810.094 1351.369 C 809.37 1351.122 808.98 1350.322 809.222 1349.582 C 809.463 1348.843 810.247 1348.444 810.969 1348.691 C 818.615 1351.303 823.608 1358.015 825.41 1368.102 C 826.738 1375.537 825.881 1382.121 825.844 1382.398 C 825.749 1383.105 825.157 1383.618 824.478 1383.618 Z " fill-rule="evenodd" fill="rgb(33,33,26)"/><path d=" M 804.714 1390.618 C 804.516 1390.618 804.314 1390.575 804.123 1390.486 C 803.415 1390.156 803.107 1389.31 803.432 1388.595 C 803.471 1388.509 807.356 1379.829 803.841 1372.59 C 801.669 1368.116 797.094 1365.035 790.243 1363.43 C 789.484 1363.252 789.011 1362.487 789.187 1361.72 C 789.364 1360.954 790.123 1360.478 790.882 1360.654 C 798.61 1362.464 803.827 1366.065 806.386 1371.356 C 810.485 1379.827 806.181 1389.39 805.995 1389.793 C 805.756 1390.312 805.247 1390.618 804.714 1390.618 Z " fill-rule="evenodd" fill="rgb(33,33,26)"/><path d=" M 777.567 1385.618 C 776.97 1385.618 776.414 1385.248 776.219 1384.668 C 775.979 1383.947 776.385 1383.171 777.13 1382.938 L 783.062 1381.069 L 780.529 1380.303 C 779.782 1380.078 779.366 1379.307 779.599 1378.583 C 779.831 1377.859 780.623 1377.454 781.371 1377.681 L 788.154 1379.729 C 788.744 1379.907 789.146 1380.434 789.15 1381.032 C 789.154 1381.63 788.758 1382.162 788.172 1382.347 L 778.004 1385.55 C 777.859 1385.596 777.712 1385.618 777.567 1385.618 Z " fill-rule="evenodd" fill="rgb(33,33,26)"/><path d=" M 889.15 1451.618 L 1139.131 1451.618 L 1206.15 1259.618 L 964.889 1259.618 C 959.661 1259.618 954.995 1262.964 953.239 1267.974 L 889.15 1451.618 Z " fill-rule="evenodd" fill="rgb(33,33,26)"/><path d=" M 909.107 1451.618 L 1154.732 1451.618 C 1155.558 1451.618 1156.296 1451.088 1156.574 1450.295 L 1218.596 1272.401 C 1220.779 1266.17 1216.241 1259.618 1209.744 1259.618 L 983.39 1259.618 C 977.338 1259.618 971.94 1263.492 969.906 1269.297 L 907.265 1448.957 C 906.811 1450.253 907.756 1451.618 909.107 1451.618 Z " fill-rule="evenodd" fill="rgb(82,82,65)"/><g><clipPath id="_clipPath_gxTFprEaFftAf9V7qkrMDEpSj7G50WF1"><path d=" M 1209.258 1260.392 C 1215.751 1260.392 1220.286 1266.925 1218.104 1273.138 L 1218.104 1273.138 L 1156.12 1450.497 C 1155.842 1451.287 1155.105 1451.815 1154.279 1451.815 L 1154.279 1451.815 L 908.804 1451.815 C 907.453 1451.815 906.509 1450.455 906.963 1449.162 L 906.963 1449.162 L 969.566 1270.043 C 971.598 1264.256 976.993 1260.392 983.041 1260.392 L 983.041 1260.392 L 1209.258 1260.392 Z " fill="rgb(255,255,255)"/></clipPath><g clip-path="url(#_clipPath_gxTFprEaFftAf9V7qkrMDEpSj7G50WF1)"><path d=" M 1193.792 1220.989 L 885.704 1436.375 L 964.143 1488.17 L 1250.789 1303.757 L 1193.792 1220.989 Z " fill-rule="evenodd" fill="rgb(110,110,86)"/></g></g><path d=" M 1077.15 1433.618 L 1077.15 1451.618 L 771.15 1451.618 C 771.15 1441.677 778.91 1433.618 788.481 1433.618 L 788.481 1433.618 L 1077.15 1433.618 Z  M 1066.529 1336.618 C 1073.911 1336.618 1079.055 1342.661 1078.017 1350.117 C 1076.979 1357.573 1070.154 1363.618 1062.771 1363.618 C 1055.39 1363.618 1050.245 1357.573 1051.283 1350.117 C 1052.321 1342.661 1059.146 1336.618 1066.529 1336.618 Z " fill-rule="evenodd" fill="rgb(82,82,65)"/><path d=" M 1160.758 1434.618 L 912.542 1434.618 C 911.773 1434.618 911.15 1433.946 911.15 1433.118 C 911.15 1432.29 911.773 1431.618 912.542 1431.618 L 1160.758 1431.618 C 1161.527 1431.618 1162.15 1432.29 1162.15 1433.118 C 1162.15 1433.946 1161.527 1434.618 1160.758 1434.618 Z " fill-rule="evenodd" fill="rgb(33,33,26)"/><path d=" M 798.974 1158.384 L 800.873 1174.728 C 801.129 1177.061 801.226 1179.679 801.085 1182.099 C 799.738 1205.247 780.096 1222.907 757.214 1221.544 C 734.332 1220.18 716.875 1200.31 718.223 1177.162 L 719.769 1150.618 C 719.769 1150.618 748.301 1160.11 798.974 1158.384 Z " fill-rule="evenodd" fill="rgb(188,126,87)"/></g></g></g><g><g><g><path d=" M 787.788 1054.102 L 800.789 1164.689 C 803.356 1186.529 787.733 1206.316 765.893 1208.883 C 744.054 1211.451 724.267 1195.828 721.699 1173.988 C 721.431 1171.703 721.38 1169.22 721.496 1166.997 L 728.043 1055.841 C 729.017 1039.3 743.215 1026.681 759.756 1027.656 C 774.505 1028.524 786.133 1039.919 787.788 1054.102 Z " fill-rule="evenodd" fill="rgb(188,126,87)"/><path d=" M 796.148 1125.334 C 796.148 1125.334 788.637 1124.171 776.246 1117.803 C 774.73 1117.025 773.233 1118.868 774.323 1120.177 L 798.879 1148.568 L 796.148 1125.334 Z " fill-rule="evenodd" fill="rgb(33,33,26)"/></g><g><g><clipPath id="_clipPath_sUKoGfdUfO4cPFmlyliATQCbWaO8GU7i"><path d=" M 699.498 988.618 L 839.261 988.618 L 839.261 1126.44 L 699.498 1126.44 L 699.498 988.618 Z " fill="rgb(255,255,255)"/></clipPath><g clip-path="url(#_clipPath_sUKoGfdUfO4cPFmlyliATQCbWaO8GU7i)"><path d=" M 699.996 1036.184 C 701.856 1047.939 702.953 1047.348 704.496 1054.386 C 704.741 1055.526 705.058 1056.665 705.433 1057.79 C 709.227 1069.141 719.179 1079.757 728.367 1086.968 C 728.367 1086.968 764.439 1119.031 796.026 1125.363 C 808.401 1127.844 820.113 1126.373 828.68 1117.445 C 856.2 1088.728 822.839 1033.631 809.8 1014.549 C 809.627 1014.275 809.455 1013.986 809.267 1013.713 C 806.209 1008.852 802.372 1004.482 797.945 1000.789 C 795.867 999.059 793.79 997.529 791.642 996.217 C 787.444 993.621 782.987 991.789 777.824 990.578 C 770.194 988.803 762.275 988.299 754.473 988.803 C 752.266 988.933 750.059 989.164 747.852 989.453 C 734.338 991.256 719.41 994.558 709.53 1004.611 C 703.14 1011.102 699.823 1019.611 699.52 1028.467 C 699.434 1031.02 699.592 1033.602 699.996 1036.184 Z " fill-rule="evenodd" fill="rgb(188,126,87)"/></g></g><g><path d=" M 731.955 1076.162 C 731.238 1088.524 720.636 1097.964 708.274 1097.248 C 695.912 1096.531 686.471 1085.928 687.188 1073.566 C 687.905 1061.204 698.507 1051.764 710.87 1052.481 C 723.231 1053.197 732.672 1063.8 731.955 1076.162 Z " fill-rule="evenodd" fill="rgb(188,126,87)"/></g><path d=" M 717.598 1077.65 C 717.412 1077.65 717.223 1077.614 717.041 1077.538 L 699.436 1070.162 C 698.701 1069.855 698.355 1069.01 698.663 1068.275 C 698.971 1067.54 699.816 1067.195 700.55 1067.502 L 718.156 1074.877 C 718.89 1075.185 719.237 1076.03 718.929 1076.765 C 718.697 1077.317 718.161 1077.65 717.598 1077.65 Z " fill-rule="evenodd" fill="rgb(33,33,26)"/><path d=" M 706.654 1080.743 C 706.483 1080.743 706.309 1080.712 706.14 1080.648 C 705.396 1080.363 705.023 1079.53 705.307 1078.786 L 707.836 1072.168 C 708.12 1071.424 708.951 1071.05 709.697 1071.335 C 710.442 1071.619 710.815 1072.453 710.53 1073.197 L 708.002 1079.815 C 707.782 1080.39 707.235 1080.743 706.654 1080.743 Z " fill-rule="evenodd" fill="rgb(33,33,26)"/><g><clipPath id="_clipPath_CnzBxl8Nyh4ZoZ7LhZ25lzXbBST8GemD"><path d=" M 699.52 988.618 L 791.642 988.618 L 791.642 1028.467 L 699.52 1028.467 L 699.52 988.618 Z " fill="rgb(255,255,255)"/></clipPath><g clip-path="url(#_clipPath_CnzBxl8Nyh4ZoZ7LhZ25lzXbBST8GemD)"><path d=" M 699.52 1028.467 C 731.554 1022.207 762.694 1011.318 791.642 996.217 C 787.444 993.62 782.987 991.789 777.824 990.577 C 770.194 988.803 762.275 988.298 754.473 988.803 C 752.266 988.933 750.06 989.164 747.852 989.452 C 734.338 991.255 719.41 994.558 709.53 1004.611 C 703.14 1011.102 699.823 1019.611 699.52 1028.467 Z " fill-rule="evenodd" fill="rgb(179,107,62)"/></g></g><path d=" M 711.038 1029.928 C 711.038 1030.848 711.784 1031.594 712.704 1031.594 C 713.623 1031.594 714.369 1030.848 714.369 1029.928 C 714.369 1029.008 713.623 1028.262 712.704 1028.262 C 711.784 1028.262 711.038 1029.008 711.038 1029.928 Z " fill-rule="evenodd" fill="rgb(179,107,62)"/><path d=" M 714.267 1041.684 C 714.267 1042.604 715.013 1043.35 715.933 1043.35 C 716.852 1043.35 717.599 1042.604 717.599 1041.684 C 717.599 1040.764 716.852 1040.018 715.933 1040.018 C 715.013 1040.018 714.267 1040.764 714.267 1041.684 Z " fill-rule="evenodd" fill="rgb(179,107,62)"/><path d=" M 715.917 1051.144 C 715.917 1052.064 716.663 1052.81 717.583 1052.81 C 718.502 1052.81 719.248 1052.064 719.248 1051.144 C 719.248 1050.224 718.502 1049.478 717.583 1049.478 C 716.663 1049.478 715.917 1050.224 715.917 1051.144 Z " fill-rule="evenodd" fill="rgb(179,107,62)"/><path d=" M 708.318 1036.927 C 708.318 1037.847 709.064 1038.593 709.984 1038.593 C 710.903 1038.593 711.649 1037.847 711.649 1036.927 C 711.649 1036.007 710.903 1035.261 709.984 1035.261 C 709.064 1035.261 708.318 1036.007 708.318 1036.927 Z " fill-rule="evenodd" fill="rgb(179,107,62)"/><path d=" M 717.933 1034.396 C 717.933 1035.316 718.679 1036.062 719.599 1036.062 C 720.518 1036.062 721.264 1035.316 721.264 1034.396 C 721.264 1033.476 720.518 1032.73 719.599 1032.73 C 718.679 1032.73 717.933 1033.476 717.933 1034.396 Z " fill-rule="evenodd" fill="rgb(179,107,62)"/><path d=" M 702.398 1031.593 C 702.398 1032.513 703.144 1033.259 704.064 1033.259 C 704.983 1033.259 705.729 1032.513 705.729 1031.593 C 705.729 1030.673 704.983 1029.927 704.064 1029.927 C 703.144 1029.927 702.398 1030.673 702.398 1031.593 Z " fill-rule="evenodd" fill="rgb(179,107,62)"/><path d=" M 704.496 1043.573 C 704.496 1044.493 705.242 1045.239 706.162 1045.239 C 707.081 1045.239 707.827 1044.493 707.827 1043.573 C 707.827 1042.653 707.081 1041.907 706.162 1041.907 C 705.242 1041.907 704.496 1042.653 704.496 1043.573 Z " fill-rule="evenodd" fill="rgb(179,107,62)"/><path d=" M 709.983 1047.496 C 709.983 1048.416 710.729 1049.162 711.649 1049.162 C 712.568 1049.162 713.314 1048.416 713.314 1047.496 C 713.314 1046.576 712.568 1045.83 711.649 1045.83 C 710.729 1045.83 709.983 1046.576 709.983 1047.496 Z " fill-rule="evenodd" fill="rgb(179,107,62)"/><path d=" M 720.464 1046.187 C 720.464 1047.107 721.21 1047.853 722.13 1047.853 C 723.049 1047.853 723.796 1047.107 723.796 1046.187 C 723.796 1045.267 723.049 1044.521 722.13 1044.521 C 721.21 1044.521 720.464 1045.267 720.464 1046.187 Z " fill-rule="evenodd" fill="rgb(179,107,62)"/></g><path d=" M 725.892 1091.121 C 725.892 1091.121 728.923 1089.314 731.106 1086.114 C 731.438 1085.627 732.192 1085.766 732.306 1086.345 C 733.083 1090.297 733.779 1100.756 724.842 1109.366 L 725.892 1091.121 Z " fill-rule="evenodd" fill="rgb(33,33,26)"/></g></g><g><g><g><path d=" M 846.033 1057.01 C 846.033 1057.01 838.595 1066.205 826.5 1065.774 C 821.374 1065.583 815.408 1063.687 808.846 1058.594 C 808.846 1058.594 815.238 1051.26 825.877 1050.551 C 831.515 1050.157 838.332 1051.606 846.033 1057.01 Z " fill-rule="evenodd" fill="rgb(255,255,255)"/><path d=" M 846.033 1057.01 C 846.033 1057.01 838.595 1066.205 826.5 1065.774 C 824.801 1063.722 823.77 1061.156 823.648 1058.296 C 823.526 1055.435 824.358 1052.739 825.877 1050.551 C 831.515 1050.157 838.332 1051.606 846.033 1057.01 Z " fill-rule="evenodd" fill="rgb(33,33,26)"/><path d=" M 798.772 1051.584 C 799.525 1051.377 800.302 1051.782 800.574 1052.498 L 800.619 1052.635 L 806.857 1075.36 C 807.979 1079.445 804.973 1083.475 800.779 1083.607 L 800.549 1083.61 L 795.356 1083.595 C 794.526 1083.593 793.855 1082.918 793.858 1082.088 C 793.86 1081.304 794.462 1080.662 795.228 1080.595 L 795.365 1080.589 L 800.558 1080.604 C 802.82 1080.61 804.482 1078.517 804.003 1076.338 L 803.958 1076.156 L 797.72 1053.431 C 797.501 1052.631 797.971 1051.804 798.772 1051.584 Z " fill="rgb(33,33,26)"/><path d=" M 813.896 1038.991 C 822.819 1035.495 832.848 1035.516 842.96 1041.395 C 843.678 1041.812 843.922 1042.732 843.504 1043.45 C 843.087 1044.167 842.167 1044.411 841.45 1043.994 C 832.211 1038.623 823.124 1038.604 814.993 1041.79 C 813.817 1042.25 812.772 1042.743 811.872 1043.232 L 811.402 1043.495 C 811.128 1043.653 810.933 1043.775 810.823 1043.849 C 810.135 1044.314 809.201 1044.134 808.736 1043.446 C 808.271 1042.758 808.452 1041.824 809.139 1041.359 L 809.33 1041.234 C 809.585 1041.072 809.956 1040.853 810.434 1040.592 C 811.441 1040.044 812.599 1039.499 813.896 1038.991 Z " fill="rgb(33,33,26)"/><path d=" M 793.706 1057.01 C 793.706 1057.01 786.268 1066.205 774.173 1065.774 C 769.047 1065.583 763.081 1063.687 756.519 1058.594 C 756.519 1058.594 762.91 1051.26 773.55 1050.551 C 779.188 1050.157 786.005 1051.606 793.706 1057.01 Z " fill-rule="evenodd" fill="rgb(255,255,255)"/><path d=" M 793.706 1057.01 C 793.706 1057.01 786.268 1066.205 774.173 1065.774 C 772.474 1063.722 771.443 1061.156 771.321 1058.296 C 771.199 1055.435 772.031 1052.739 773.55 1050.551 C 779.188 1050.157 786.005 1051.606 793.706 1057.01 Z " fill-rule="evenodd" fill="rgb(33,33,26)"/><path d=" M 756.898 1041.395 C 767.01 1035.516 777.038 1035.495 785.962 1038.991 C 787.259 1039.499 788.417 1040.044 789.424 1040.592 L 789.807 1040.805 C 790.224 1041.041 790.53 1041.231 790.719 1041.359 C 791.407 1041.824 791.587 1042.758 791.123 1043.446 C 790.658 1044.134 789.723 1044.314 789.036 1043.849 L 788.807 1043.704 C 788.614 1043.585 788.339 1043.424 787.987 1043.232 C 787.086 1042.743 786.041 1042.25 784.865 1041.79 C 776.733 1038.604 767.646 1038.623 758.409 1043.994 C 757.691 1044.411 756.771 1044.167 756.354 1043.45 C 755.937 1042.732 756.18 1041.812 756.898 1041.395 Z " fill="rgb(33,33,26)"/><path d=" M 785.936 1086.689 C 786.672 1086.429 787.476 1086.778 787.798 1087.473 L 787.904 1087.736 C 787.961 1087.87 788.053 1088.067 788.184 1088.31 C 788.499 1088.895 788.903 1089.482 789.4 1090.026 C 791.037 1091.823 793.257 1092.754 796.289 1092.393 C 797.113 1092.295 797.861 1092.884 797.959 1093.708 C 798.057 1094.532 797.468 1095.28 796.644 1095.378 C 792.6 1095.86 789.442 1094.535 787.178 1092.052 C 786.022 1090.783 785.338 1089.514 785.018 1088.606 C 784.742 1087.824 785.153 1086.965 785.936 1086.689 Z " fill="rgb(33,33,26)"/></g></g></g><g><g><g opacity="0"><path d=" M 775.393 1082.836 C 780.29 1079.297 786.12 1078.694 792.552 1080.944 C 799.179 1083.262 803.711 1085.284 806.016 1092.731 C 806.506 1094.313 805.62 1095.994 804.037 1096.483 C 802.454 1096.973 800.774 1096.088 800.284 1094.505 C 798.522 1088.811 795.328 1088.272 790.571 1086.608 C 785.911 1084.977 782.133 1085.369 778.907 1087.699 C 777.564 1088.67 775.689 1088.368 774.718 1087.025 C 773.748 1085.682 774.05 1083.806 775.393 1082.836 Z " fill="rgb(179,121,83)"/></g></g></g><g><g><g><path d=" M 829.601 1032.764 C 826.466 1032.764 823.342 1033.447 820.414 1034.807 C 815.121 1037.265 811.103 1041.637 809.098 1047.117 C 804.96 1058.43 810.797 1071 822.11 1075.138 C 833.422 1079.277 845.993 1073.439 850.131 1062.126 C 852.136 1056.645 851.886 1050.713 849.429 1045.42 C 846.971 1040.128 842.599 1036.109 837.119 1034.105 C 834.671 1033.21 832.133 1032.764 829.601 1032.764 L 829.601 1032.764 Z  M 829.588 1080.065 C 826.692 1080.065 823.748 1079.567 820.874 1078.517 C 807.699 1073.696 800.9 1059.057 805.72 1045.881 C 808.055 1039.498 812.735 1034.407 818.899 1031.545 C 825.063 1028.682 831.972 1028.392 838.355 1030.727 C 844.737 1033.061 849.829 1037.741 852.691 1043.905 C 855.553 1050.069 855.844 1056.979 853.509 1063.362 C 849.741 1073.663 839.97 1080.065 829.588 1080.065 L 829.588 1080.065 Z " fill-rule="evenodd" fill="rgb(219,173,106)"/><path d=" M 774.337 1032.854 C 771.202 1032.854 768.078 1033.538 765.149 1034.898 C 759.857 1037.355 755.838 1041.727 753.833 1047.208 C 749.695 1058.52 755.532 1071.09 766.845 1075.228 C 778.158 1079.366 790.728 1073.53 794.866 1062.216 C 799.004 1050.904 793.167 1038.333 781.854 1034.196 C 779.407 1033.3 776.868 1032.854 774.337 1032.854 Z  M 774.324 1080.156 C 771.427 1080.156 768.483 1079.658 765.609 1078.607 C 752.434 1073.787 745.636 1059.147 750.455 1045.971 C 752.79 1039.589 757.47 1034.498 763.634 1031.635 C 769.798 1028.772 776.708 1028.482 783.09 1030.817 C 796.265 1035.637 803.064 1050.277 798.244 1063.453 C 794.476 1073.753 784.705 1080.156 774.324 1080.156 Z " fill-rule="evenodd" fill="rgb(219,173,106)"/><path d=" M 752.061 1049.349 C 751.983 1049.371 751.904 1049.388 751.822 1049.399 L 710.007 1055.026 C 709.093 1055.148 708.254 1054.508 708.131 1053.594 C 708.008 1052.682 708.651 1051.846 709.562 1051.717 L 751.377 1046.092 C 752.29 1045.968 753.129 1046.61 753.253 1047.523 C 753.364 1048.353 752.844 1049.125 752.061 1049.349 Z " fill-rule="evenodd" fill="rgb(219,173,106)"/><path d=" M 798.279 1052.809 C 797.757 1052.809 797.239 1052.582 796.883 1052.146 C 796.256 1051.375 796.372 1050.243 797.142 1049.616 C 801.377 1046.168 805.692 1047.435 807.382 1048.586 C 808.203 1049.146 808.414 1050.265 807.855 1051.085 C 807.299 1051.901 806.191 1052.115 805.371 1051.569 C 805.073 1051.379 802.518 1049.877 799.414 1052.405 C 799.08 1052.676 798.678 1052.809 798.279 1052.809 Z " fill-rule="evenodd" fill="rgb(219,173,106)"/></g></g></g></g></g><g><g><g><path d=" M 1524.893 667.636 L 947.017 641.025 C 934.407 640.444 923.396 630.418 922.441 618.651 L 893.324 245.349 C 892.369 233.582 901.808 224.498 914.418 225.078 L 1492.294 251.69 C 1504.904 252.271 1515.915 262.297 1516.87 274.064 L 1545.989 647.324 C 1546.942 659.132 1537.503 668.217 1524.893 667.636 Z " fill="rgb(241,224,198)"/><path d=" M 896.248 282.938 L 1519.795 311.652 L 1516.868 274.105 C 1515.913 262.339 1504.902 252.312 1492.292 251.731 L 914.416 225.12 C 901.806 224.539 892.367 233.624 893.322 245.39 L 896.248 282.938 Z " fill="rgb(155,155,122)"/><g><path d=" M 941.281 254.666 C 941.571 258.296 938.615 261.111 934.633 260.928 C 930.65 260.744 927.219 257.635 926.929 254.005 C 926.639 250.375 929.595 247.56 933.577 247.743 C 937.518 247.925 940.95 251.034 941.281 254.666 Z " fill="rgb(241,224,198)"/><path d=" M 954.69 261.086 C 951.039 259.216 949.373 255.164 950.971 252.043 C 952.57 248.922 956.832 247.907 960.483 249.778 C 964.134 251.648 965.8 255.7 964.202 258.821 C 962.603 261.941 958.341 262.957 954.69 261.086 Z " fill="rgb(241,224,198)"/><path d=" M 988.321 256.832 C 988.611 260.462 985.655 263.277 981.672 263.094 C 977.69 262.91 974.258 259.801 973.968 256.171 C 973.678 252.541 976.635 249.726 980.617 249.909 C 984.599 250.093 988.031 253.202 988.321 256.832 Z " fill="rgb(241,224,198)"/></g></g><g style="opacity:0.55;"><g opacity="0.55"><path d=" M 1229.841 390.375 L 932.752 376.694 C 926.696 376.415 921.362 371.265 920.77 365.168 L 920.77 365.168 C 920.22 359.074 924.635 354.372 930.691 354.651 L 1227.78 368.332 C 1233.836 368.611 1239.169 373.762 1239.761 379.858 L 1239.761 379.858 C 1240.314 385.911 1235.897 390.654 1229.841 390.375 Z " fill="rgb(110,110,86)"/></g><g opacity="0.55"><path d=" M 1076.559 340.168 L 928.098 333.331 C 922.373 333.068 917.319 328.179 916.793 322.46 L 916.793 322.46 C 916.268 316.699 920.462 312.278 926.145 312.54 L 1074.648 319.378 C 1080.373 319.642 1085.427 324.531 1085.953 330.25 L 1085.953 330.25 C 1086.48 335.969 1082.283 340.432 1076.559 340.168 Z " fill="rgb(110,110,86)"/></g><g opacity="0.55"><path d=" M 1139.436 428.114 L 936.094 418.75 C 930.37 418.486 925.316 413.598 924.789 407.879 L 924.789 407.879 C 924.265 402.118 928.459 397.697 934.142 397.959 L 1137.483 407.323 C 1143.208 407.586 1148.262 412.475 1148.788 418.194 L 1148.788 418.194 C 1149.356 423.915 1145.16 428.378 1139.436 428.114 Z " fill="rgb(110,110,86)"/></g></g><g style="opacity:0.55;"><g opacity="0.55"><path d=" M 1248.379 632.331 L 1498.843 643.865 C 1504.401 644.121 1508.509 639.779 1507.976 634.184 L 1507.808 632.43 C 1507.276 626.836 1502.34 622.077 1496.782 621.821 L 1246.318 610.287 C 1240.759 610.031 1236.652 614.373 1237.184 619.968 L 1237.353 621.722 C 1237.841 627.356 1242.779 632.073 1248.379 632.331 Z " fill="rgb(110,110,86)"/></g><g opacity="0.55"><path d=" M 954.857 618.814 L 1205.321 630.348 C 1210.88 630.604 1214.987 626.262 1214.455 620.667 L 1214.286 618.913 C 1213.754 613.319 1208.819 608.56 1203.26 608.304 L 952.796 596.77 C 947.238 596.514 943.13 600.856 943.663 606.451 L 943.831 608.205 C 944.362 613.841 949.299 618.558 954.857 618.814 Z " fill="rgb(110,110,86)"/></g><g opacity="0.55"><path d=" M 1343.323 596.215 L 1491.826 603.053 C 1497.551 603.317 1501.705 598.852 1501.179 593.133 L 1501.179 593.133 C 1500.654 587.372 1495.557 582.523 1489.874 582.262 L 1341.371 575.423 C 1335.647 575.159 1331.492 579.624 1332.018 585.343 L 1332.018 585.343 C 1332.586 591.064 1337.64 595.953 1343.323 596.215 Z " fill="rgb(110,110,86)"/></g><g opacity="0.55"><path d=" M 1131.852 586.476 L 1291.679 593.836 C 1297.818 594.119 1302.305 589.67 1301.696 583.947 L 1301.696 583.947 C 1301.088 578.182 1295.617 573.316 1289.478 573.033 L 1129.651 565.673 C 1123.511 565.391 1119.025 569.84 1119.634 575.563 L 1119.634 575.563 C 1120.244 581.286 1125.713 586.193 1131.852 586.476 Z " fill="rgb(110,110,86)"/></g><g opacity="0.55"><path d=" M 1304.176 554.464 L 1486.61 562.865 C 1493.62 563.188 1498.729 558.767 1497.995 553.038 L 1497.995 553.038 C 1497.263 547.268 1491.004 542.366 1483.994 542.043 L 1301.56 533.642 C 1294.549 533.319 1289.44 537.739 1290.174 543.468 L 1290.174 543.468 C 1290.906 549.238 1297.165 554.141 1304.176 554.464 Z " fill="rgb(110,110,86)"/></g></g><g><path d=" M 1482.383 496.7 L 1299.865 488.295 C 1288.541 487.773 1278.428 478.079 1277.374 466.682 L 1271.44 403.265 C 1270.913 397.546 1272.653 392.264 1276.323 388.401 C 1279.949 384.577 1285.07 382.61 1290.67 382.867 L 1473.187 391.273 C 1484.511 391.794 1494.624 401.488 1495.678 412.885 L 1501.612 476.302 C 1502.139 482.021 1500.399 487.303 1496.729 491.167 C 1493.103 494.99 1488.024 496.96 1482.383 496.7 Z  M 1290.44 387.845 C 1286.292 387.654 1282.569 389.062 1279.905 391.85 C 1277.239 394.678 1275.981 398.528 1276.367 402.786 L 1282.301 466.203 C 1283.133 475.22 1291.093 482.903 1300.053 483.315 L 1482.57 491.72 C 1486.718 491.911 1490.441 490.503 1493.105 487.716 C 1495.771 484.887 1497.029 481.038 1496.644 476.78 L 1490.71 413.363 C 1489.878 404.346 1481.918 396.663 1472.958 396.25 L 1290.44 387.845 Z " fill="rgb(155,155,122)"/></g><g><path d=" M 1538.152 429.349 L 1356.821 452.05 C 1346.744 453.332 1336.385 446.287 1333.723 436.396 L 1317.1 374.898 C 1314.438 365.007 1320.427 355.929 1330.502 354.689 L 1511.833 331.987 C 1521.91 330.705 1532.269 337.75 1534.931 347.641 L 1551.554 409.14 C 1554.257 419.033 1548.271 428.069 1538.152 429.349 Z " fill="rgb(219,173,106)"/><path d=" M 1435.233 435.542 L 1486.818 391.36 C 1490.757 387.966 1489.199 382.075 1483.73 379.869 L 1412.394 351.061 C 1405.987 348.479 1399.264 352.742 1400.831 358.426 L 1420.58 431.458 C 1422.106 437.141 1430.601 439.527 1435.233 435.542 Z " fill="rgb(110,110,86)"/></g><g><path d=" M 1091.008 587.879 L 964.117 582.036 C 953.995 581.57 945.04 572.927 944.094 562.782 L 935.089 466.758 C 934.145 456.571 941.573 448.724 951.653 449.189 L 1078.544 455.032 C 1088.666 455.498 1097.621 464.141 1098.567 474.286 L 1107.572 570.31 C 1108.559 580.457 1101.129 588.345 1091.008 587.879 Z " fill="rgb(219,173,106)"/><path d=" M 972.981 486.29 C 966.859 480.032 966.304 470.631 971.743 465.31 C 977.182 459.988 986.568 460.749 992.691 467.007 C 998.814 473.265 999.369 482.666 993.93 487.988 C 988.491 493.309 979.104 492.549 972.981 486.29 Z " fill="rgb(241,224,198)"/><path d=" M 1107.572 570.31 L 1103.639 528.435 L 1073.572 495.291 C 1069.38 490.65 1062.309 489.826 1058.233 493.504 L 1019.558 528.138 C 1015.873 531.418 1009.734 531.136 1005.413 527.486 L 979.205 505.329 C 975.163 501.942 969.533 501.433 965.751 504.127 L 940.345 522.328 L 944.137 562.742 C 945.082 572.928 954.08 581.532 964.16 581.996 L 1091.051 587.84 C 1101.129 588.345 1108.559 580.457 1107.572 570.31 Z " fill="rgb(110,110,86)"/></g></g><g><path d=" M 1282.606 520.963 L 1182.595 516.358 C 1174.049 515.964 1166.487 508.674 1165.676 500.115 L 1160.742 447.469 C 1159.933 438.868 1166.182 432.256 1174.727 432.649 L 1274.738 437.255 C 1283.283 437.648 1290.846 444.938 1291.657 453.497 L 1296.59 506.144 C 1297.36 514.701 1291.109 521.355 1282.606 520.963 Z " fill="rgb(209,142,98)"/><g><path d=" M 1210.337 493.442 L 1182.418 480.475 C 1180.667 479.688 1179.457 477.969 1179.292 476.133 L 1179.043 473.419 C 1178.878 471.583 1179.782 470.003 1181.393 469.329 L 1207.107 458.874 C 1209.987 457.718 1213.578 460.086 1213.883 463.384 L 1213.877 463.509 C 1214.038 465.428 1213.049 467.046 1211.358 467.674 L 1190.02 475.172 L 1213.052 485.045 C 1214.844 485.834 1216.137 487.557 1216.341 489.437 L 1216.338 489.52 C 1216.601 492.816 1213.431 494.873 1210.337 493.442 Z " fill="rgb(241,224,198)"/><path d=" M 1221.589 499.156 L 1228.399 452.372 C 1228.639 450.762 1229.979 449.66 1231.638 449.736 L 1231.763 449.742 C 1234.085 449.849 1236.017 452.141 1235.706 454.371 L 1228.772 501.15 C 1228.531 502.76 1227.194 503.821 1225.534 503.744 L 1225.534 503.744 C 1223.168 503.677 1221.235 501.426 1221.589 499.156 Z " fill="rgb(241,224,198)"/><path d=" M 1243.464 490.811 L 1243.468 490.728 C 1243.305 488.849 1244.296 487.191 1245.945 486.602 L 1267.337 478.816 L 1244.339 469.11 C 1242.503 468.36 1241.212 466.597 1241.049 464.719 L 1241.049 464.719 C 1240.744 461.421 1243.873 459.361 1247.008 460.794 L 1274.971 473.722 C 1276.722 474.509 1277.932 476.227 1278.097 478.064 L 1278.35 480.694 C 1278.514 482.531 1277.61 484.111 1276 484.785 L 1250.24 495.321 C 1247.36 496.477 1243.77 494.109 1243.464 490.811 Z " fill="rgb(241,224,198)"/></g></g><g><path d=" M 1388.193 287.135 L 1296.52 282.913 C 1287.186 282.484 1278.841 275.033 1277.957 266.262 L 1272.745 216.056 C 1271.818 207.284 1278.656 200.532 1288.03 200.964 L 1379.704 205.185 C 1389.037 205.615 1397.382 213.066 1398.267 221.836 L 1403.479 272.043 C 1404.405 280.815 1397.568 287.567 1388.193 287.135 Z " fill="rgb(209,142,98)"/><g><path d=" M 1286.733 242.681 L 1286.53 240.76 C 1286.392 239.257 1287.362 238.054 1288.87 237.791 C 1289.247 237.725 1289.542 237.656 1289.753 237.582 C 1290.517 237.243 1291.124 236.689 1291.621 235.839 C 1292.117 234.989 1292.414 233.964 1292.475 232.636 C 1292.56 231.684 1292.473 229.976 1292.21 227.553 C 1291.809 223.627 1291.728 220.879 1291.923 219.35 C 1292.159 217.823 1292.714 216.602 1293.629 215.688 C 1294.544 214.774 1295.946 214.132 1297.839 213.637 C 1298.428 213.498 1300.01 213.446 1301.631 213.437 C 1303.835 213.414 1305.875 215.171 1306.111 217.26 L 1306.111 217.26 C 1306.317 219.099 1304.961 220.574 1303.043 220.694 C 1302.543 220.712 1302.166 220.778 1301.911 220.891 C 1301.236 221.109 1300.804 221.464 1300.531 221.991 C 1300.259 222.478 1300.175 223.388 1300.325 224.642 C 1300.474 225.938 1300.612 228.355 1300.781 231.896 C 1300.897 233.897 1300.781 235.513 1300.433 236.744 C 1300.127 237.977 1299.625 238.952 1299.006 239.754 C 1298.389 240.516 1297.395 241.343 1296.029 242.111 L 1296.029 242.111 C 1297.366 242.88 1298.491 243.721 1299.403 244.678 C 1300.315 245.634 1301.051 246.791 1301.614 248.105 C 1302.175 249.461 1302.634 251.228 1302.99 253.448 C 1303.498 256.838 1303.774 258.971 1303.898 259.891 C 1304.045 261.228 1304.293 262.154 1304.724 262.715 C 1305.114 263.273 1305.678 263.673 1306.411 263.998 C 1306.698 264.094 1307.067 264.194 1307.561 264.3 C 1309.541 264.641 1311.173 266.212 1311.379 268.051 L 1311.377 268.092 C 1311.614 270.182 1309.878 271.765 1307.644 271.537 C 1305.866 271.33 1304.005 271.12 1303.268 270.878 C 1301.669 270.389 1300.293 269.577 1299.094 268.524 C 1297.937 267.473 1297.082 266.187 1296.529 264.665 C 1296.017 263.145 1295.584 260.797 1295.234 257.58 C 1294.864 253.863 1294.436 251.433 1293.948 250.288 C 1293.318 248.638 1292.458 247.434 1291.41 246.721 C 1290.847 246.321 1290.155 245.998 1289.335 245.752 C 1288.021 245.401 1286.877 244.059 1286.733 242.681 Z " fill="rgb(241,224,198)"/><path d=" M 1316.559 254.863 L 1316.559 254.863 C 1316.293 252.522 1318.164 250.696 1320.653 250.811 L 1320.653 250.811 C 1323.184 250.928 1325.419 252.943 1325.643 255.281 L 1325.643 255.281 C 1325.91 257.621 1324.038 259.447 1321.549 259.332 L 1321.549 259.332 C 1319.017 259.257 1316.782 257.242 1316.559 254.863 Z " fill="rgb(241,224,198)"/><path d=" M 1335.018 255.713 L 1335.018 255.713 C 1334.752 253.372 1336.623 251.546 1339.112 251.661 L 1339.112 251.661 C 1341.643 251.778 1343.878 253.793 1344.103 256.131 L 1344.103 256.131 C 1344.369 258.471 1342.497 260.297 1340.009 260.182 L 1340.009 260.182 C 1337.476 260.107 1335.241 258.092 1335.018 255.713 Z " fill="rgb(241,224,198)"/><path d=" M 1353.477 256.563 L 1353.477 256.563 C 1353.211 254.223 1355.083 252.397 1357.571 252.511 L 1357.571 252.511 C 1360.102 252.628 1362.337 254.643 1362.562 256.981 L 1362.562 256.981 C 1362.828 259.321 1360.957 261.147 1358.468 261.033 L 1358.468 261.033 C 1355.935 260.958 1353.7 258.942 1353.477 256.563 Z " fill="rgb(241,224,198)"/><path d=" M 1389.65 247.379 C 1389.79 248.84 1388.82 250.043 1387.351 250.349 C 1387.016 250.417 1386.678 250.526 1386.424 250.639 C 1385.66 250.978 1385.052 251.532 1384.556 252.382 C 1384.059 253.232 1383.763 254.258 1383.66 255.583 C 1383.575 256.535 1383.662 258.244 1383.927 260.625 C 1384.328 264.551 1384.451 267.301 1384.214 268.828 C 1384.019 270.357 1383.423 271.576 1382.507 272.49 C 1381.592 273.404 1380.191 274.046 1378.256 274.539 C 1377.668 274.678 1376.044 274.728 1374.423 274.737 C 1372.218 274.76 1370.177 273.045 1369.983 270.957 L 1369.988 270.833 C 1369.782 268.994 1371.095 267.558 1373.015 267.397 C 1373.516 267.337 1373.894 267.272 1374.146 267.2 C 1374.823 266.94 1375.297 266.588 1375.61 266.104 C 1375.882 265.617 1375.964 264.748 1375.855 263.496 C 1375.746 262.244 1375.563 259.908 1375.391 256.408 C 1375.28 254.324 1375.399 252.625 1375.747 251.394 C 1376.095 250.163 1376.601 249.106 1377.305 248.265 C 1378.008 247.425 1378.916 246.677 1380.108 246.067 C 1378.41 245.032 1377.126 244.017 1376.297 243.064 C 1375.155 241.682 1374.279 239.937 1373.668 237.872 C 1373.276 236.44 1372.797 233.301 1372.188 228.492 C 1372.007 226.987 1371.765 225.937 1371.414 225.422 C 1371.105 224.909 1370.583 224.511 1369.85 224.186 C 1369.566 224.048 1369.113 223.944 1368.534 223.876 C 1366.553 223.577 1364.923 221.964 1364.758 220.127 L 1364.76 220.086 C 1364.523 217.996 1366.257 216.455 1368.45 216.681 C 1370.228 216.887 1372.13 217.099 1372.867 217.341 C 1374.466 217.831 1375.842 218.642 1376.999 219.693 C 1378.154 220.786 1379.01 222.072 1379.565 223.553 C 1380.118 225.075 1380.551 227.422 1380.86 230.637 C 1381.229 234.354 1381.658 236.785 1382.104 237.928 C 1382.734 239.578 1383.594 240.781 1384.641 241.495 C 1385.205 241.895 1385.897 242.218 1386.717 242.463 C 1388.193 242.905 1389.339 244.205 1389.481 245.625 L 1389.564 246.544 L 1389.65 247.379 Z " fill="rgb(241,224,198)"/></g></g></g><g><path d=" M 1243.372 1008.64 L 1346.702 946.116 L 1614.065 977.634 C 1623.649 978.549 1632.25 972.529 1633.328 963.751 L 1673.968 692.528 C 1675.046 683.751 1667.898 675.797 1658.346 674.625 L 1228.214 641.204 C 1218.63 640.289 1210.029 646.308 1208.951 655.086 L 1210.524 917.603 C 1209.446 926.38 1216.594 934.334 1226.146 935.507 L 1258.222 938.921 L 1234.151 996.239 C 1229.59 1005.638 1237.217 1011.815 1243.372 1008.64 Z " fill="rgb(110,110,86)"/><g><path d=" M 1279.23 778.498 C 1273.328 779.608 1270.701 773.258 1270.239 768.484 C 1269.904 762.678 1270.665 756.482 1270.877 750.48 C 1271.222 745.543 1270.76 740.77 1267.299 736.938 C 1265.682 735.167 1263.744 733.881 1261.773 732.853 C 1265.542 729.908 1267.303 724.097 1267.616 719.419 C 1267.896 714.998 1267.176 710.193 1268.49 705.899 C 1269.45 702.348 1271.701 698.955 1275.7 698.398 C 1277.829 698.135 1277.466 694.684 1275.079 694.915 C 1267.597 696.093 1264.517 704.101 1264.241 710.618 C 1263.96 715.039 1264.681 719.844 1263.336 724.396 C 1262.117 727.916 1259.608 731.276 1255.382 731.544 C 1253.544 731.58 1253.39 734.968 1255.487 734.963 C 1260.455 735.049 1265.107 737.717 1266.892 742.391 C 1267.865 745.131 1267.743 748.261 1267.653 751.133 C 1267.53 754.262 1267.408 757.392 1267.028 760.49 C 1266.652 765.685 1266.244 771.138 1268.804 775.908 C 1270.942 779.839 1275.335 782.475 1279.882 781.723 C 1282.011 781.46 1281.391 777.977 1279.23 778.498 Z " fill="rgb(241,224,198)"/><path d=" M 1580.989 826.556 C 1586.764 826.479 1588.295 833.219 1587.951 838.155 C 1587.222 844.093 1585.202 849.873 1583.699 855.716 C 1582.58 860.557 1581.978 865.463 1584.6 869.715 C 1585.927 871.713 1587.544 873.484 1589.483 874.77 C 1585.262 877.134 1582.272 882.271 1581.185 886.854 C 1580.13 891.18 1579.818 895.859 1577.762 899.799 C 1576.059 902.997 1573.323 906.068 1569.419 905.85 C 1567.064 905.823 1566.91 909.211 1569.265 909.238 C 1576.815 909.641 1581.381 902.34 1582.979 895.723 C 1584.034 891.397 1584.378 886.46 1586.435 882.52 C 1588.428 879.095 1591.648 876.346 1595.489 877.08 C 1597.554 877.333 1597.966 873.977 1596.159 873.755 C 1591.285 872.895 1587.277 869.258 1586.33 864.163 C 1585.904 861.228 1586.543 858.161 1587.408 855.385 C 1588.305 852.35 1588.943 849.284 1589.84 846.249 C 1590.959 841.407 1592.689 835.855 1590.936 830.922 C 1589.604 826.828 1585.854 823.223 1581.401 823.2 C 1578.82 822.883 1578.634 826.529 1580.989 826.556 Z " fill="rgb(241,224,198)"/><path d=" M 1382.433 717.007 C 1354.618 715.164 1326.836 713.063 1299.085 710.704 C 1296.761 710.418 1296.318 714.033 1298.641 714.318 C 1326.392 716.677 1354.175 718.778 1381.989 720.621 C 1384.086 720.616 1384.53 717.002 1382.433 717.007 Z " fill="rgb(241,224,198)"/><path d=" M 1459.72 725.71 L 1397.243 718.039 C 1394.92 717.754 1394.476 721.368 1396.8 721.653 L 1459.277 729.324 C 1461.632 729.352 1462.044 725.995 1459.72 725.71 Z " fill="rgb(241,224,198)"/><path d=" M 1458.969 751.038 C 1418.183 748.126 1377.655 745.247 1336.837 742.593 C 1325.414 741.715 1313.702 741.063 1302.279 740.185 C 1299.955 739.899 1299.511 743.514 1301.835 743.799 C 1342.621 746.71 1383.149 749.59 1423.967 752.243 C 1435.39 753.122 1447.102 753.774 1458.525 754.652 C 1460.88 754.679 1461.324 751.065 1458.969 751.038 Z " fill="rgb(241,224,198)"/><path d=" M 1346.449 771.028 C 1333.835 771.314 1321.348 770.566 1309.051 768.27 C 1306.759 767.727 1306.315 771.341 1308.607 771.885 C 1321.162 774.213 1334.134 775.281 1346.78 774.737 C 1349.166 774.506 1348.804 771.055 1346.449 771.028 Z " fill="rgb(241,224,198)"/><path d=" M 1446.283 777.521 C 1420.57 777.77 1395.048 776.471 1369.426 773.849 C 1367.102 773.564 1366.659 777.178 1368.982 777.464 C 1394.604 780.085 1420.158 781.127 1445.839 781.135 C 1448.226 780.904 1448.638 777.548 1446.283 777.521 Z " fill="rgb(241,224,198)"/><path d=" M 1497.845 810.058 C 1470.094 807.699 1442.312 805.598 1414.561 803.239 C 1412.237 802.953 1411.793 806.568 1414.117 806.853 C 1441.868 809.212 1469.65 811.313 1497.401 813.672 C 1499.757 813.699 1500.169 810.343 1497.845 810.058 Z " fill="rgb(241,224,198)"/><path d=" M 1557.061 816.542 C 1543.183 814.314 1529.016 812.313 1515.138 810.085 C 1512.814 809.799 1512.402 813.156 1514.694 813.699 C 1528.572 815.927 1542.739 817.929 1556.617 820.157 C 1558.972 820.184 1559.384 816.828 1557.061 816.542 Z " fill="rgb(241,224,198)"/><path d=" M 1556.658 839.03 C 1518.812 837.79 1481.028 836.034 1443.309 833.761 C 1432.629 833.236 1421.722 832.421 1411.074 831.637 C 1408.75 831.352 1408.306 834.966 1410.63 835.252 C 1448.318 837.783 1486.07 839.797 1523.885 841.296 C 1534.565 841.821 1545.535 842.119 1556.246 842.386 C 1558.343 842.382 1558.755 839.026 1556.658 839.03 Z " fill="rgb(241,224,198)"/><path d=" M 1445.972 856.887 C 1434.55 856.009 1423.127 855.13 1411.704 854.252 C 1409.38 853.967 1408.937 857.581 1411.26 857.866 C 1422.683 858.745 1434.106 859.623 1445.529 860.501 C 1447.852 860.787 1448.296 857.172 1445.972 856.887 Z " fill="rgb(241,224,198)"/><path d=" M 1548.334 868.407 C 1523.709 864.073 1498.508 862.289 1473.538 862.892 C 1471.182 862.865 1471.803 866.348 1474.158 866.375 C 1498.87 865.741 1523.523 867.719 1547.89 872.022 C 1550.214 872.307 1550.658 868.693 1548.334 868.407 Z " fill="rgb(241,224,198)"/><path d=" M 1541.142 899.234 C 1507.195 896.114 1473.117 891.93 1439.392 887.002 C 1429.871 885.571 1420.093 884.109 1410.604 882.419 C 1408.28 882.134 1407.868 885.49 1410.16 886.034 C 1443.79 891.735 1477.805 896.436 1511.689 900.072 C 1521.273 900.987 1531.083 902.192 1540.699 902.848 C 1543.054 902.875 1543.466 899.519 1541.142 899.234 Z " fill="rgb(241,224,198)"/></g><path d=" M 1622.113 747.746 L 1633.69 745.236 L 1631.52 726.626 L 1619.681 727.006 C 1617.959 721.816 1615.142 717.015 1611.745 712.667 L 1618.208 702.716 L 1603.633 691.23 L 1595.489 699.926 C 1590.548 697.485 1585.221 696.045 1579.8 695.379 L 1577.29 683.803 L 1558.68 685.973 L 1559.06 697.812 C 1553.87 699.533 1549.069 702.351 1544.721 705.748 L 1534.77 699.285 L 1523.284 713.86 L 1531.98 722.004 C 1529.539 726.945 1528.099 732.271 1527.433 737.693 L 1515.856 740.202 L 1518.026 758.813 L 1529.866 758.433 C 1531.587 763.623 1534.404 768.424 1537.802 772.772 L 1531.338 782.723 L 1545.914 794.209 L 1554.057 785.512 C 1558.999 787.954 1564.325 789.394 1569.747 790.06 L 1572.256 801.636 L 1590.867 799.466 L 1590.486 787.627 C 1595.677 785.906 1600.478 783.088 1604.826 779.691 L 1614.777 786.154 L 1626.263 771.579 L 1617.566 763.435 C 1620.008 758.494 1621.448 753.167 1622.113 747.746 Z  M 1601.274 763.794 C 1589.789 778.369 1568.501 780.996 1553.957 769.252 C 1539.382 757.766 1536.755 736.479 1548.499 721.935 C 1559.985 707.36 1581.272 704.732 1595.816 716.476 C 1610.359 728.22 1612.76 749.218 1601.274 763.794 Z " fill="rgb(209,142,98)"/><g><path d=" M 1572.902 728.076 C 1565.837 727.995 1558.576 727.366 1551.637 726.252 C 1550.346 726.093 1549.898 727.61 1550.578 728.48 C 1555.17 733.761 1561.244 737.651 1567.092 741.252 C 1568.545 742.217 1570.153 739.794 1568.668 739.087 C 1564.048 736.161 1559.428 733.236 1555.161 729.567 C 1561.099 730.296 1566.811 730.735 1572.812 730.948 C 1574.651 730.912 1574.741 728.04 1572.902 728.076 Z " fill="rgb(241,224,198)"/><path d=" M 1585.897 724.693 C 1579.56 733.611 1572.998 742.239 1566.662 751.158 C 1565.697 752.612 1567.862 754.188 1568.827 752.734 C 1575.163 743.816 1581.726 735.187 1588.062 726.269 C 1588.995 725.073 1586.83 723.497 1585.897 724.693 Z " fill="rgb(241,224,198)"/><path d=" M 1590.948 762.526 C 1590.812 759.364 1588.515 756.724 1587.252 754.21 C 1585.761 751.406 1584.819 748.408 1584.167 745.183 C 1583.841 743.571 1581.196 743.77 1581.49 745.641 C 1582.143 748.866 1583.085 751.864 1584.575 754.667 C 1585.191 756.053 1586.065 757.471 1586.681 758.857 C 1587.134 759.437 1587.329 759.985 1587.492 760.791 C 1582.972 759.188 1578.13 758.069 1573.225 757.467 C 1571.417 757.245 1571.1 759.827 1572.908 760.048 C 1578.329 760.714 1583.687 761.896 1588.95 763.853 C 1590.209 764.269 1591.079 763.59 1590.948 762.526 Z " fill="rgb(241,224,198)"/></g><g><path d=" M 1361.19 887.883 L 1372.766 885.373 L 1370.597 866.763 L 1358.757 867.143 C 1357.036 861.953 1354.218 857.152 1350.821 852.804 L 1357.284 842.853 L 1342.709 831.367 L 1334.566 840.063 C 1329.624 837.622 1324.298 836.182 1318.876 835.516 L 1316.367 823.94 L 1297.756 826.109 L 1298.137 837.949 C 1292.946 839.67 1288.145 842.488 1283.797 845.885 L 1273.846 839.422 L 1262.36 853.997 L 1271.057 862.14 C 1268.615 867.082 1267.175 872.408 1266.51 877.83 L 1254.933 880.339 L 1257.103 898.95 L 1268.942 898.569 C 1270.663 903.76 1273.481 908.561 1276.878 912.909 L 1270.415 922.86 L 1284.99 934.346 L 1293.134 925.649 C 1298.075 928.091 1303.402 929.531 1308.823 930.196 L 1311.333 941.773 L 1329.943 939.603 L 1329.563 927.764 C 1334.753 926.043 1339.554 923.225 1343.902 919.828 L 1353.853 926.291 L 1365.339 911.716 L 1356.643 903.572 C 1359.084 898.631 1360.524 893.304 1361.19 887.883 Z  M 1340.351 903.93 C 1328.865 918.506 1307.577 921.133 1293.034 909.389 C 1278.458 897.903 1275.831 876.616 1287.575 862.072 C 1299.061 847.497 1320.348 844.869 1334.892 856.613 C 1349.209 868.067 1351.837 889.355 1340.351 903.93 Z " fill="rgb(209,142,98)"/><g><path d=" M 1311.979 868.213 C 1304.913 868.132 1297.653 867.502 1290.714 866.388 C 1289.423 866.23 1288.975 867.747 1289.654 868.617 C 1294.247 873.898 1300.321 877.788 1306.168 881.389 C 1307.622 882.354 1309.23 879.931 1307.744 879.224 C 1303.124 876.298 1298.504 873.372 1294.238 869.704 C 1300.175 870.433 1305.887 870.872 1311.888 871.085 C 1313.759 870.79 1313.818 868.177 1311.979 868.213 Z " fill="rgb(241,224,198)"/><path d=" M 1324.973 864.83 C 1318.637 873.748 1312.074 882.376 1305.738 891.295 C 1304.773 892.748 1306.938 894.325 1307.903 892.871 C 1314.239 883.952 1320.802 875.324 1327.138 866.406 C 1328.103 864.952 1325.938 863.376 1324.973 864.83 Z " fill="rgb(241,224,198)"/><path d=" M 1330.056 902.404 C 1329.92 899.243 1327.623 896.602 1326.36 894.089 C 1324.869 891.285 1323.927 888.287 1323.275 885.062 C 1322.949 883.449 1320.304 883.649 1320.598 885.519 C 1321.251 888.744 1322.193 891.743 1323.683 894.546 C 1324.299 895.932 1325.173 897.35 1325.789 898.736 C 1326.242 899.315 1326.437 899.864 1326.6 900.67 C 1322.08 899.066 1317.238 897.948 1312.333 897.345 C 1310.525 897.124 1310.208 899.705 1312.016 899.927 C 1317.437 900.593 1322.795 901.775 1328.058 903.731 C 1329.318 904.148 1330.187 903.469 1330.056 902.404 Z " fill="rgb(241,224,198)"/></g></g></g></g></svg>